<?xml version="1.0" encoding="UTF-8"?>
<!DOCTYPE svg PUBLIC "-//W3C//DTD SVG 1.1//EN" "http://www.w3.org/Graphics/SVG/1.1/DTD/svg11.dtd">
<svg xmlns="http://www.w3.org/2000/svg" version="1.1" width="171px" height="168px" style="shape-rendering:geometricPrecision; text-rendering:geometricPrecision; image-rendering:optimizeQuality; fill-rule:evenodd; clip-rule:evenodd" xmlns:xlink="http://www.w3.org/1999/xlink">
<g><path style="opacity:0.996" fill="#144080" d="M 36.5,-0.5 C 43.1667,-0.5 49.8333,-0.5 56.5,-0.5C 60.6138,2.12126 63.4472,5.78792 65,10.5C 65.4994,16.1569 65.6661,21.8236 65.5,27.5C 42.6705,31.6694 33.0038,22.3361 36.5,-0.5 Z"/></g>
<g><path style="opacity:0.999" fill="#144080" d="M 112.5,-0.5 C 119.167,-0.5 125.833,-0.5 132.5,-0.5C 136.222,21.7779 126.889,31.1112 104.5,27.5C 104.334,20.825 104.5,14.1583 105,7.5C 107.028,4.30777 109.528,1.64111 112.5,-0.5 Z"/></g>
<g><path style="opacity:0.99" fill="#144080" d="M 83.5,-0.5 C 84.5,-0.5 85.5,-0.5 86.5,-0.5C 90.1638,3.33222 93.6638,7.33222 97,11.5C 99.1681,16.6569 98.8348,21.6569 96,26.5C 92.3333,30.1667 88.6667,33.8333 85,37.5C 81,33.5 77,29.5 73,25.5C 70.8152,20.0132 71.1485,14.6799 74,9.5C 77.3709,6.29747 80.5375,2.96414 83.5,-0.5 Z"/></g>
<g><path style="opacity:1" fill="#144081" d="M 51.5,30.5 C 55.3076,30.1632 58.9743,30.6632 62.5,32C 66.6328,35.1311 70.4662,38.6311 74,42.5C 74.6667,43.5 74.6667,44.5 74,45.5C 70.0877,50.0833 65.5877,53.9166 60.5,57C 56.3749,57.8538 52.3749,57.5204 48.5,56C 44.4782,51.9782 40.4782,47.9782 36.5,44C 41.0775,38.9169 46.0775,34.4169 51.5,30.5 Z"/></g>
<g><path style="opacity:0.998" fill="#143f80" d="M 109.5,30.5 C 113.273,30.2633 116.94,30.7633 120.5,32C 124.633,35.1311 128.466,38.6311 132,42.5C 132.667,43.5 132.667,44.5 132,45.5C 128.088,50.0833 123.588,53.9166 118.5,57C 114.375,57.8538 110.375,57.5204 106.5,56C 102.478,51.9782 98.4782,47.9782 94.5,44C 99.1009,38.8908 104.101,34.3908 109.5,30.5 Z"/></g>
<g><path style="opacity:0.983" fill="#134182" d="M 81.5,38.5 C 90.4867,37.665 92.8201,41.165 88.5,49C 83.3096,50.8049 79.9762,49.1382 78.5,44C 79.1242,41.9149 80.1242,40.0816 81.5,38.5 Z"/></g>
<g><path style="opacity:0.991" fill="#144080" d="M 83.5,51.5 C 84.552,51.3505 85.552,51.5172 86.5,52C 89.6667,55.1667 92.8333,58.3333 96,61.5C 99.3333,67.1667 99.3333,72.8333 96,78.5C 92.3333,82.1667 88.6667,85.8333 85,89.5C 81,85.5 77,81.5 73,77.5C 71,72.5 71,67.5 73,62.5C 76.7039,58.9643 80.2039,55.2976 83.5,51.5 Z"/></g>
<g><path style="opacity:0.955" fill="#144080" d="M 47.5,60.5 C 53.5,60.5 59.5,60.5 65.5,60.5C 68.8333,83.1667 59.1667,92.8333 36.5,89.5C 36.3338,83.1579 36.5005,76.8246 37,70.5C 39.1059,65.5573 42.6059,62.224 47.5,60.5 Z"/></g>
<g><path style="opacity:0.994" fill="#144080" d="M 104.5,60.5 C 127.369,57.0363 136.702,66.7029 132.5,89.5C 109.585,92.9183 100.251,83.2517 104.5,60.5 Z"/></g>
<g><path style="opacity:0.602" fill="#020203" d="M 42.5,105.5 C 47.0839,105.211 49.7505,107.211 50.5,111.5C 48.2506,110.769 46.084,109.769 44,108.5C 42.1084,108.777 40.7751,109.777 40,111.5C 39.0223,115.9 39.5223,120.067 41.5,124C 46.2589,125.761 48.5922,123.928 48.5,118.5C 46.712,118.785 45.0453,118.452 43.5,117.5C 46.0865,116.52 48.7531,116.187 51.5,116.5C 52.1276,124.709 48.4609,128.209 40.5,127C 36.0019,121.35 35.3353,115.184 38.5,108.5C 39.9014,107.479 41.2347,106.479 42.5,105.5 Z"/></g>
<g><path style="opacity:0.585" fill="#020203" d="M 75.5,105.5 C 80.0105,105.263 82.8438,107.263 84,111.5C 84.6667,115.167 84.6667,118.833 84,122.5C 81.9754,127.145 78.4754,128.645 73.5,127C 69.3208,121.747 68.4875,115.914 71,109.5C 72.3968,107.93 73.8968,106.596 75.5,105.5 Z M 75.5,108.5 C 80.5258,109.02 82.5258,111.853 81.5,117C 82.3898,121.222 80.8898,124.055 77,125.5C 73.549,123.768 72.049,120.934 72.5,117C 72.2508,113.677 73.2508,110.843 75.5,108.5 Z"/></g>
<g><path style="opacity:0.575" fill="#020203" d="M 53.5,106.5 C 57.1817,106.335 60.8484,106.501 64.5,107C 68.7045,111.155 68.3712,114.822 63.5,118C 64.6886,120.878 66.0219,123.712 67.5,126.5C 66.5,127.833 65.5,127.833 64.5,126.5C 62.9239,124.021 61.9239,121.354 61.5,118.5C 59.8333,118.5 58.1667,118.5 56.5,118.5C 56.5,121.5 56.5,124.5 56.5,127.5C 55.5,127.5 54.5,127.5 53.5,127.5C 53.5,120.5 53.5,113.5 53.5,106.5 Z M 56.5,109.5 C 58.8568,109.337 61.1902,109.503 63.5,110C 64.8333,111.667 64.8333,113.333 63.5,115C 61.1902,115.497 58.8568,115.663 56.5,115.5C 56.5,113.5 56.5,111.5 56.5,109.5 Z"/></g>
<g><path style="opacity:0.636" fill="#020203" d="M 86.5,106.5 C 87.5,106.5 88.5,106.5 89.5,106.5C 89.334,111.844 89.5006,117.177 90,122.5C 93.5609,126.412 96.2276,125.745 98,120.5C 98.1717,115.798 98.6717,111.132 99.5,106.5C 100.664,112.472 100.83,118.472 100,124.5C 97.0393,127.616 93.5393,128.283 89.5,126.5C 88.4164,125.335 87.5831,124.002 87,122.5C 86.5006,117.177 86.334,111.844 86.5,106.5 Z"/></g>
<g><path style="opacity:0.587" fill="#020203" d="M 104.5,106.5 C 108.182,106.335 111.848,106.501 115.5,107C 120.154,115.835 117.487,119.668 107.5,118.5C 107.5,121.5 107.5,124.5 107.5,127.5C 106.5,127.5 105.5,127.5 104.5,127.5C 104.5,120.5 104.5,113.5 104.5,106.5 Z M 107.5,109.5 C 110.916,108.894 113.582,109.894 115.5,112.5C 113.582,115.106 110.916,116.106 107.5,115.5C 107.5,113.5 107.5,111.5 107.5,109.5 Z"/></g>
<g><path style="opacity:0.572" fill="#020203" d="M 120.5,106.5 C 124.555,106.176 128.555,106.509 132.5,107.5C 132.291,108.086 131.957,108.586 131.5,109C 128.854,109.497 126.187,109.664 123.5,109.5C 123.5,111.5 123.5,113.5 123.5,115.5C 126.167,115.5 128.833,115.5 131.5,115.5C 131.5,116.5 131.5,117.5 131.5,118.5C 128.833,118.5 126.167,118.5 123.5,118.5C 123.5,120.5 123.5,122.5 123.5,124.5C 126.5,124.5 129.5,124.5 132.5,124.5C 132.5,125.5 132.5,126.5 132.5,127.5C 128.5,127.5 124.5,127.5 120.5,127.5C 120.5,120.5 120.5,113.5 120.5,106.5 Z"/></g>
<g><path style="opacity:0.568" fill="#020203" d="M 5.5,138.5 C 9.1219,137.924 12.1219,138.924 14.5,141.5C 11.578,141.899 8.57804,142.066 5.5,142C 4.16667,143.667 4.16667,145.333 5.5,147C 7.78849,147.822 10.1218,148.489 12.5,149C 16.7045,153.155 16.3712,156.822 11.5,160C 9.16667,160.667 6.83333,160.667 4.5,160C 1.76629,159.282 1.09963,157.782 2.5,155.5C 5.28931,157.298 8.28931,157.798 11.5,157C 12.8333,155.333 12.8333,153.667 11.5,152C 7.81024,151.464 4.64357,149.964 2,147.5C 0.980425,143.553 2.14709,140.553 5.5,138.5 Z"/></g>
<g><path style="opacity:0.347" fill="#010202" d="M 32.5,138.5 C 33.5,138.5 34.5,138.5 35.5,138.5C 35.5,139.833 35.5,141.167 35.5,142.5C 34.5,142.5 33.5,142.5 32.5,142.5C 32.5,141.167 32.5,139.833 32.5,138.5 Z"/></g>
<g><path style="opacity:0.573" fill="#020203" d="M 76.5,138.5 C 79.5184,138.335 82.5184,138.502 85.5,139C 88.4417,139.94 89.7751,141.94 89.5,145C 89.3248,146.658 88.6582,147.991 87.5,149C 91.7045,153.155 91.3712,156.822 86.5,160C 83.1832,160.498 79.8499,160.665 76.5,160.5C 76.5,153.167 76.5,145.833 76.5,138.5 Z M 79.5,141.5 C 82.9079,140.828 85.5745,141.828 87.5,144.5C 85.5822,147.106 82.9156,148.106 79.5,147.5C 79.5,145.5 79.5,143.5 79.5,141.5 Z M 79.5,150.5 C 81.5273,150.338 83.5273,150.505 85.5,151C 88.033,153.084 88.033,155.084 85.5,157C 83.5273,157.495 81.5273,157.662 79.5,157.5C 79.5,155.167 79.5,152.833 79.5,150.5 Z"/></g>
<g><path style="opacity:0.439" fill="#010102" d="M 98.5,138.5 C 99.675,138.281 100.675,138.614 101.5,139.5C 100.561,141.053 99.3943,142.387 98,143.5C 97.5,143.167 97,142.833 96.5,142.5C 97.6302,141.378 98.2969,140.044 98.5,138.5 Z"/></g>
<g><path style="opacity:0.358" fill="#010101" d="M 121.5,138.5 C 122.5,138.5 123.5,138.5 124.5,138.5C 124.5,139.833 124.5,141.167 124.5,142.5C 123.5,142.5 122.5,142.5 121.5,142.5C 121.5,141.167 121.5,139.833 121.5,138.5 Z"/></g>
<g><path style="opacity:0.501" fill="#010102" d="M 54.5,140.5 C 55.5,140.5 56.5,140.5 57.5,140.5C 57.4411,143.049 58.4411,145.049 60.5,146.5C 59.675,147.386 58.675,147.719 57.5,147.5C 57.5,150.833 57.5,154.167 57.5,157.5C 58.5,157.5 59.5,157.5 60.5,157.5C 60.5,158.5 60.5,159.5 60.5,160.5C 58.2776,160.822 56.4443,160.155 55,158.5C 54.9504,154.141 54.1171,149.974 52.5,146C 53.8847,144.403 54.5514,142.57 54.5,140.5 Z"/></g>
<g><path style="opacity:0.584" fill="#020203" d="M 20.5,144.5 C 23.3646,144.055 25.8646,144.722 28,146.5C 28.8283,151.202 28.6616,155.869 27.5,160.5C 25.3284,160.324 22.9951,160.157 20.5,160C 17.0834,157.679 16.7501,155.012 19.5,152C 21.8947,151.319 24.228,150.485 26.5,149.5C 24.5497,147.247 22.2163,146.914 19.5,148.5C 19.1667,148 18.8333,147.5 18.5,147C 19.0556,145.989 19.7222,145.156 20.5,144.5 Z M 21.5,153.5 C 23.1667,153.5 24.8333,153.5 26.5,153.5C 26.2407,157.068 24.2407,158.401 20.5,157.5C 20.4326,156.041 20.7659,154.708 21.5,153.5 Z"/></g>
<g><path style="opacity:0.457" fill="#020202" d="M 32.5,144.5 C 33.5,144.5 34.5,144.5 35.5,144.5C 35.5,149.833 35.5,155.167 35.5,160.5C 34.5,160.5 33.5,160.5 32.5,160.5C 32.5,155.167 32.5,149.833 32.5,144.5 Z"/></g>
<g><path style="opacity:0.586" fill="#020203" d="M 39.5,144.5 C 42.0847,145.072 44.7513,145.239 47.5,145C 48.3333,145.833 49.1667,146.667 50,147.5C 50.499,151.821 50.6657,156.154 50.5,160.5C 49.5,160.5 48.5,160.5 47.5,160.5C 47.6655,156.486 47.4988,152.486 47,148.5C 44.9783,147.009 43.3117,147.342 42,149.5C 41.8253,153.211 41.3253,156.878 40.5,160.5C 39.5052,155.208 39.1718,149.875 39.5,144.5 Z"/></g>
<g><path style="opacity:0.548" fill="#020203" d="M 95.5,144.5 C 101.785,144.118 104.785,147.118 104.5,153.5C 101.15,153.335 97.8168,153.502 94.5,154C 95.1667,155 95.8333,156 96.5,157C 98.9359,156.947 101.269,157.113 103.5,157.5C 100.086,161.468 96.5861,161.468 93,157.5C 91.7428,152.617 92.5761,148.284 95.5,144.5 Z M 96.5,147.5 C 98.7159,147.275 100.383,148.108 101.5,150C 99.4213,150.808 97.4213,150.641 95.5,149.5C 95.8627,148.817 96.1961,148.15 96.5,147.5 Z"/></g>
<g><path style="opacity:0.583" fill="#020203" d="M 107.5,144.5 C 110.007,144.805 112.674,144.971 115.5,145C 116.333,145.833 117.167,146.667 118,147.5C 118.499,151.821 118.666,156.154 118.5,160.5C 117.5,160.5 116.5,160.5 115.5,160.5C 115.666,156.486 115.499,152.486 115,148.5C 112.978,147.009 111.312,147.342 110,149.5C 109.825,153.211 109.325,156.878 108.5,160.5C 107.505,155.208 107.172,149.875 107.5,144.5 Z"/></g>
<g><path style="opacity:0.508" fill="#010102" d="M 122.5,144.5 C 123.812,146.743 124.478,149.41 124.5,152.5C 124.167,155.167 123.833,157.833 123.5,160.5C 122.914,160.291 122.414,159.957 122,159.5C 121.222,154.416 121.389,149.416 122.5,144.5 Z"/></g>
<g><path style="opacity:0.558" fill="#020203" d="M 130.5,144.5 C 133.654,145.095 136.654,145.095 139.5,144.5C 139.666,150.176 139.499,155.843 139,161.5C 136.947,165.292 133.781,166.458 129.5,165C 128.269,163.817 128.269,162.651 129.5,161.5C 132.39,164.472 134.724,164.139 136.5,160.5C 128.724,160.738 125.89,156.738 128,148.5C 128.662,147.016 129.496,145.683 130.5,144.5 Z M 131.5,147.5 C 133.144,147.286 134.644,147.62 136,148.5C 136.777,151.429 136.61,154.263 135.5,157C 133.888,157.72 132.388,157.554 131,156.5C 130.264,153.408 130.431,150.408 131.5,147.5 Z"/></g>
<g><path style="opacity:0.592" fill="#020203" d="M 143.5,144.5 C 146.007,144.805 148.674,144.971 151.5,145C 152,145.5 152.5,146 153,146.5C 154.379,151.036 154.879,155.703 154.5,160.5C 153.5,160.5 152.5,160.5 151.5,160.5C 151.666,156.486 151.499,152.486 151,148.5C 148.978,147.009 147.312,147.342 146,149.5C 145.825,153.211 145.325,156.878 144.5,160.5C 143.505,155.208 143.172,149.875 143.5,144.5 Z"/></g>
<g><path style="opacity:0.599" fill="#020203" d="M 160.5,144.5 C 166.656,144.325 169.323,147.325 168.5,153.5C 165.428,153.183 162.428,153.516 159.5,154.5C 161.527,158.105 164.027,158.439 167,155.5C 169.021,157.651 168.521,159.151 165.5,160C 162.364,161.041 159.864,160.207 158,157.5C 156.743,152.617 157.576,148.284 160.5,144.5 Z M 160.5,147.5 C 163.045,147.151 165.045,147.984 166.5,150C 164.167,150.667 161.833,150.667 159.5,150C 160.252,149.329 160.586,148.496 160.5,147.5 Z"/></g>
<g><path style="opacity:0.461" fill="#020202" d="M 63.5,150.5 C 66.5,150.5 69.5,150.5 72.5,150.5C 72.5,151.5 72.5,152.5 72.5,153.5C 69.5,153.5 66.5,153.5 63.5,153.5C 63.5,152.5 63.5,151.5 63.5,150.5 Z"/></g>
</svg>
