<svg xmlns="http://www.w3.org/2000/svg" viewBox="0 0 36 36"><path d="m18.554 8.64 15.397 3.606a.37.37 0 0 1 .101.162.23.23 0 0 1-.02.163c0 .027-.014.054-.04.08a.437.437 0 0 1-.162.082l-16.978 5.753-10.453-3.728c-.243.081-.446.19-.608.325-.163.135-.325.33-.486.587s-.298.588-.405.993c.188.081.357.182.506.304.148.121.277.25.385.385.108.162.196.338.263.527s.102.378.102.567c0 .216-.035.425-.102.628-.068.203-.17.385-.304.547a1.44 1.44 0 0 1-.405.405 2.787 2.787 0 0 1-.567.284l1.296 5.267.04.04a.252.252 0 0 1-.04.142.647.647 0 0 1-.08.102l-1.54 1.377h-.04a.628.628 0 0 1-.103.081.248.248 0 0 1-.141.04.45.45 0 0 1-.203-.04.26.26 0 0 1-.122-.121L2.346 25.86a.608.608 0 0 1-.08-.102.196.196 0 0 1-.041-.1c0-.028.006-.048.02-.062.013-.013.02-.033.02-.06l1.297-5.227c-.189-.081-.365-.183-.527-.304s-.297-.264-.405-.426a1.43 1.43 0 0 1-.284-.527 2.19 2.19 0 0 1-.08-.607c0-.243.046-.486.141-.73s.237-.445.425-.607c.163-.189.365-.33.608-.426.244-.094.5-.142.77-.142h.041c.054-.296.128-.56.223-.79.094-.229.195-.425.304-.587.108-.189.215-.345.324-.466.107-.122.216-.223.324-.304l-3.404-1.216c-.026-.026-.047-.04-.06-.04-.014 0-.02-.013-.02-.04a.91.91 0 0 1 .02-.183c.013-.067.087-.128.223-.182l16.37-4.093zm9.36 7.496.526 4.538c0 .136-.02.203-.06.203h-.102c-1-.486-2.02-.675-3.059-.567a8.26 8.26 0 0 0-3.018.932c-.947.54-1.83 1.263-2.655 2.167a15.302 15.302 0 0 0-2.168 3.1.261.261 0 0 1-.12.121.353.353 0 0 1-.325 0c-.054-.026-.095-.08-.121-.162l-.04-.04-.042-.122c-1.053-1.755-2.066-3.019-3.039-3.788-.971-.77-1.85-1.25-2.633-1.439-.81-.216-1.493-.236-2.046-.06-.554.175-.926.317-1.115.425h-.121c-.027 0-.054-.013-.08-.04l.04-4.985 9.076 3.607 11.102-3.89z"/></svg>