<?xml version="1.0" encoding="UTF-8"?>
<!DOCTYPE svg PUBLIC "-//W3C//DTD SVG 1.1//EN" "http://www.w3.org/Graphics/SVG/1.1/DTD/svg11.dtd">
<svg xmlns="http://www.w3.org/2000/svg" version="1.1" width="577px" height="433px" style="shape-rendering:geometricPrecision; text-rendering:geometricPrecision; image-rendering:optimizeQuality; fill-rule:evenodd; clip-rule:evenodd" xmlns:xlink="http://www.w3.org/1999/xlink">
<g><path style="opacity:0.999" fill="#703ef5" d="M 251.5,105.5 C 252.035,107.446 253.368,108.446 255.5,108.5C 264.209,114.875 271.542,122.542 277.5,131.5C 277.987,132.473 278.487,133.473 279,134.5C 279.5,121.838 279.667,109.171 279.5,96.5C 286.833,96.5 294.167,96.5 301.5,96.5C 301.5,123.5 301.5,150.5 301.5,177.5C 297.578,177.845 293.745,178.512 290,179.5C 286.898,173.63 284.065,167.63 281.5,161.5C 281.446,159.368 280.446,158.035 278.5,157.5C 271.928,147.259 263.928,138.259 254.5,130.5C 254.027,129.094 253.027,128.427 251.5,128.5C 214.67,109.109 178.337,109.942 142.5,131C 109.805,157.716 96.3049,192.216 102,234.5C 104.146,246.439 107.98,257.772 113.5,268.5C 113.427,270.027 114.094,271.027 115.5,271.5C 143.455,309.386 180.788,323.72 227.5,314.5C 230.152,314.59 232.485,313.924 234.5,312.5C 249.244,306.296 262.911,298.296 275.5,288.5C 278.427,287.243 280.761,285.243 282.5,282.5C 283.167,281.167 284.167,280.167 285.5,279.5C 286.391,278.89 287.391,278.557 288.5,278.5C 293.135,283.642 297.635,288.976 302,294.5C 302.492,295.549 302.326,296.549 301.5,297.5C 283.109,315.382 261.776,328.549 237.5,337C 199.935,347.549 164.269,343.383 130.5,324.5C 130.027,323.094 129.027,322.427 127.5,322.5C 124.883,321.214 122.55,319.547 120.5,317.5C 119.738,315.738 118.404,314.738 116.5,314.5C 115.833,314.5 115.5,314.167 115.5,313.5C 115.027,312.094 114.027,311.427 112.5,311.5C 104.096,304.664 97.0956,296.664 91.5,287.5C 91.7148,285.821 91.0481,284.821 89.5,284.5C 73.5749,257.304 68.0749,227.97 73,196.5C 75.3421,178.295 81.5088,161.629 91.5,146.5C 92.9063,146.027 93.573,145.027 93.5,143.5C 93.427,141.973 94.0937,140.973 95.5,140.5C 96.9063,140.027 97.573,139.027 97.5,137.5C 98.9063,137.027 99.573,136.027 99.5,134.5C 100.167,133.167 101.167,132.167 102.5,131.5C 103.906,131.027 104.573,130.027 104.5,128.5C 105.833,126.5 107.5,124.833 109.5,123.5C 112.764,121.906 115.431,119.573 117.5,116.5C 134.583,101.467 154.583,92.6336 177.5,90C 204.075,86.8136 228.742,91.9803 251.5,105.5 Z"/></g>
<g><path style="opacity:0.179" fill="#e1d8fc" d="M 301.5,177.5 C 301.5,150.5 301.5,123.5 301.5,96.5C 294.167,96.5 286.833,96.5 279.5,96.5C 279.667,109.171 279.5,121.838 279,134.5C 278.487,133.473 277.987,132.473 277.5,131.5C 278.495,119.678 278.828,107.678 278.5,95.5C 286.5,95.5 294.5,95.5 302.5,95.5C 302.831,123.005 302.498,150.338 301.5,177.5 Z"/></g>
<g><path style="opacity:0.957" fill="#bc9cfb" d="M 251.5,105.5 C 253.23,106.026 254.564,107.026 255.5,108.5C 253.368,108.446 252.035,107.446 251.5,105.5 Z"/></g>
<g><path style="opacity:0.878" fill="#a67ff9" d="M 117.5,116.5 C 115.431,119.573 112.764,121.906 109.5,123.5C 111.569,120.427 114.236,118.094 117.5,116.5 Z"/></g>
<g><path style="opacity:0.682" fill="#c8affb" d="M 104.5,128.5 C 104.573,130.027 103.906,131.027 102.5,131.5C 102.427,129.973 103.094,128.973 104.5,128.5 Z"/></g>
<g><path style="opacity:0.486" fill="#c2a8fb" d="M 251.5,128.5 C 253.027,128.427 254.027,129.094 254.5,130.5C 252.973,130.573 251.973,129.906 251.5,128.5 Z"/></g>
<g><path style="opacity:0.459" fill="#c9b4fb" d="M 99.5,134.5 C 99.573,136.027 98.9063,137.027 97.5,137.5C 97.427,135.973 98.0937,134.973 99.5,134.5 Z"/></g>
<g><path style="opacity:0.545" fill="#bca0fa" d="M 97.5,137.5 C 97.573,139.027 96.9063,140.027 95.5,140.5C 95.427,138.973 96.0937,137.973 97.5,137.5 Z"/></g>
<g><path style="opacity:0.533" fill="#bda1fb" d="M 93.5,143.5 C 93.573,145.027 92.9063,146.027 91.5,146.5C 91.427,144.973 92.0937,143.973 93.5,143.5 Z"/></g>
<g><path style="opacity:0.828" fill="#8962f7" d="M 400.5,144.5 C 400.5,144.833 400.5,145.167 400.5,145.5C 387.833,145.5 375.167,145.5 362.5,145.5C 362.5,192.5 362.5,239.5 362.5,286.5C 362.167,286.5 361.833,286.5 361.5,286.5C 361.5,239.167 361.5,191.833 361.5,144.5C 374.5,144.5 387.5,144.5 400.5,144.5 Z"/></g>
<g><path style="opacity:1" fill="#6936f5" d="M 400.5,145.5 C 400.5,192.5 400.5,239.5 400.5,286.5C 387.833,286.5 375.167,286.5 362.5,286.5C 362.5,239.5 362.5,192.5 362.5,145.5C 375.167,145.5 387.833,145.5 400.5,145.5 Z"/></g>
<g><path style="opacity:0.751" fill="#bfa9fb" d="M 408.5,144.5 C 421.833,144.5 435.167,144.5 448.5,144.5C 448.5,192.167 448.5,239.833 448.5,287.5C 435.167,287.5 421.833,287.5 408.5,287.5C 408.5,239.833 408.5,192.167 408.5,144.5 Z"/></g>
<g><path style="opacity:0.999" fill="#8d67f7" d="M 409.5,145.5 C 422.167,145.5 434.833,145.5 447.5,145.5C 447.5,192.5 447.5,239.5 447.5,286.5C 434.833,286.5 422.167,286.5 409.5,286.5C 409.5,239.5 409.5,192.5 409.5,145.5 Z"/></g>
<g><path style="opacity:0.79" fill="#d6c7fc" d="M 457.5,143.5 C 470.366,143.484 483.032,143.818 495.5,144.5C 496.5,192.162 496.833,239.829 496.5,287.5C 483.167,287.5 469.833,287.5 456.5,287.5C 456.784,284.223 456.451,281.057 455.5,278C 456.169,233.167 456.836,188.333 457.5,143.5 Z"/></g>
<g><path style="opacity:0.998" fill="#b199f9" d="M 457.5,145.5 C 470.167,145.5 482.833,145.5 495.5,145.5C 495.5,192.5 495.5,239.5 495.5,286.5C 482.833,286.5 470.167,286.5 457.5,286.5C 457.5,239.5 457.5,192.5 457.5,145.5 Z"/></g>
<g><path style="opacity:0.922" fill="#bd9dfb" d="M 278.5,157.5 C 280.446,158.035 281.446,159.368 281.5,161.5C 280.026,160.564 279.026,159.23 278.5,157.5 Z"/></g>
<g><path style="opacity:0.412" fill="#c7b0fb" d="M 113.5,268.5 C 114.906,268.973 115.573,269.973 115.5,271.5C 114.094,271.027 113.427,270.027 113.5,268.5 Z"/></g>
<g><path style="opacity:0.51" fill="#c4aefb" d="M 288.5,278.5 C 287.391,278.557 286.391,278.89 285.5,279.5C 286.053,277.448 287.053,277.115 288.5,278.5 Z"/></g>
<g><path style="opacity:0.878" fill="#c0a0fb" d="M 89.5,284.5 C 91.0481,284.821 91.7148,285.821 91.5,287.5C 90.5987,286.71 89.9321,285.71 89.5,284.5 Z"/></g>
<g><path style="opacity:0.867" fill="#a983f9" d="M 282.5,282.5 C 280.761,285.243 278.427,287.243 275.5,288.5C 277.239,285.757 279.573,283.757 282.5,282.5 Z"/></g>
<g><path style="opacity:0.577" fill="#c6b1fb" d="M 400.5,144.5 C 401.499,191.997 401.832,239.664 401.5,287.5C 387.99,287.829 374.656,287.496 361.5,286.5C 361.833,286.5 362.167,286.5 362.5,286.5C 375.167,286.5 387.833,286.5 400.5,286.5C 400.5,239.5 400.5,192.5 400.5,145.5C 400.5,145.167 400.5,144.833 400.5,144.5 Z"/></g>
<g><path style="opacity:0.753" fill="#c1a6fb" d="M 112.5,311.5 C 114.027,311.427 115.027,312.094 115.5,313.5C 113.973,313.573 112.973,312.906 112.5,311.5 Z"/></g>
<g><path style="opacity:0.898" fill="#ab88f9" d="M 234.5,312.5 C 232.485,313.924 230.152,314.59 227.5,314.5C 229.515,313.076 231.848,312.41 234.5,312.5 Z"/></g>
<g><path style="opacity:0.816" fill="#bb9dfb" d="M 116.5,314.5 C 118.404,314.738 119.738,315.738 120.5,317.5C 118.596,317.262 117.262,316.262 116.5,314.5 Z"/></g>
<g><path style="opacity:0.29" fill="#d4c3fc" d="M 127.5,322.5 C 129.027,322.427 130.027,323.094 130.5,324.5C 128.973,324.573 127.973,323.906 127.5,322.5 Z"/></g>
</svg>
