<?xml version="1.0" encoding="UTF-8"?>
<!DOCTYPE svg PUBLIC "-//W3C//DTD SVG 1.1//EN" "http://www.w3.org/Graphics/SVG/1.1/DTD/svg11.dtd">
<svg xmlns="http://www.w3.org/2000/svg" version="1.1" width="240px" height="240px" style="shape-rendering:geometricPrecision; text-rendering:geometricPrecision; image-rendering:optimizeQuality; fill-rule:evenodd; clip-rule:evenodd" xmlns:xlink="http://www.w3.org/1999/xlink">
<g><path style="opacity:0.995" fill="#0377bd" d="M 34.5,24.5 C 91.1667,24.5 147.833,24.5 204.5,24.5C 200.058,81.1929 195.225,137.86 190,194.5C 166.669,201.708 143.169,208.375 119.5,214.5C 95.8309,208.375 72.3309,201.708 49,194.5C 43.7751,137.86 38.9417,81.1929 34.5,24.5 Z"/></g>
<g><path style="opacity:1" fill="#079be5" d="M 118.5,174.5 C 118.833,174.5 119.167,174.5 119.5,174.5C 132.832,170.667 145.999,166.334 159,161.5C 160.834,129.164 162.667,96.8304 164.5,64.5C 149.5,64.5 134.5,64.5 119.5,64.5C 119.5,56.1667 119.5,47.8333 119.5,39.5C 142.167,39.5 164.833,39.5 187.5,39.5C 183.551,87.4988 179.551,135.499 175.5,183.5C 156.753,188.187 138.086,193.187 119.5,198.5C 119.801,190.414 119.467,182.414 118.5,174.5 Z"/></g>
<g><path style="opacity:1" fill="#ededed" d="M 119.5,64.5 C 119.5,71.1667 119.5,77.8333 119.5,84.5C 104.5,84.5 89.5,84.5 74.5,84.5C 74.609,77.8039 74.2757,71.1373 73.5,64.5C 88.8333,64.5 104.167,64.5 119.5,64.5 Z"/></g>
<g><path style="opacity:1" fill="#fbfcfd" d="M 119.5,64.5 C 134.5,64.5 149.5,64.5 164.5,64.5C 162.667,96.8304 160.834,129.164 159,161.5C 145.999,166.334 132.832,170.667 119.5,174.5C 119.205,167.412 119.538,160.412 120.5,153.5C 127.125,151.291 133.791,149.291 140.5,147.5C 140.354,139.804 140.687,132.138 141.5,124.5C 134.167,124.5 126.833,124.5 119.5,124.5C 112.167,124.5 104.833,124.5 97.5,124.5C 97.609,117.804 97.2757,111.137 96.5,104.5C 104.167,104.5 111.833,104.5 119.5,104.5C 127.167,104.5 134.833,104.5 142.5,104.5C 142.713,97.8259 143.046,91.1593 143.5,84.5C 135.5,84.5 127.5,84.5 119.5,84.5C 119.5,77.8333 119.5,71.1667 119.5,64.5 Z"/></g>
<g><path style="opacity:1" fill="#039be5" d="M 119.5,84.5 C 127.5,84.5 135.5,84.5 143.5,84.5C 143.046,91.1593 142.713,97.8259 142.5,104.5C 134.833,104.5 127.167,104.5 119.5,104.5C 119.5,97.8333 119.5,91.1667 119.5,84.5 Z"/></g>
<g><path style="opacity:1" fill="#0a9be5" d="M 119.5,124.5 C 126.833,124.5 134.167,124.5 141.5,124.5C 140.687,132.138 140.354,139.804 140.5,147.5C 133.791,149.291 127.125,151.291 120.5,153.5C 120.167,153.5 119.833,153.5 119.5,153.5C 119.5,143.833 119.5,134.167 119.5,124.5 Z"/></g>
<g><path style="opacity:1" fill="#eaeced" d="M 119.5,153.5 C 119.833,153.5 120.167,153.5 120.5,153.5C 119.538,160.412 119.205,167.412 119.5,174.5C 119.167,174.5 118.833,174.5 118.5,174.5C 105.499,170.5 92.4993,166.5 79.5,162.5C 79.6871,153.139 79.3538,143.805 78.5,134.5C 85.1667,134.5 91.8333,134.5 98.5,134.5C 98.5,138.833 98.5,143.167 98.5,147.5C 105.5,149.5 112.5,151.5 119.5,153.5 Z"/></g>
</svg>
