<?xml version="1.0" encoding="UTF-8"?>
<!DOCTYPE svg PUBLIC "-//W3C//DTD SVG 1.1//EN" "http://www.w3.org/Graphics/SVG/1.1/DTD/svg11.dtd">
<svg xmlns="http://www.w3.org/2000/svg" version="1.1" width="240px" height="240px" style="shape-rendering:geometricPrecision; text-rendering:geometricPrecision; image-rendering:optimizeQuality; fill-rule:evenodd; clip-rule:evenodd" xmlns:xlink="http://www.w3.org/1999/xlink">
<g><path style="opacity:1" fill="#0287d1" d="M 129.5,69.5 C 121.167,69.5 112.833,69.5 104.5,69.5C 104.5,61.1667 104.5,52.8333 104.5,44.5C 112.833,44.5 121.167,44.5 129.5,44.5C 129.5,52.8333 129.5,61.1667 129.5,69.5 Z"/></g>
<g><path style="opacity:1" fill="#01569b" d="M 79.5,69.5 C 79.5,77.8333 79.5,86.1667 79.5,94.5C 71.1667,94.5 62.8333,94.5 54.5,94.5C 54.5,86.1667 54.5,77.8333 54.5,69.5C 62.8333,69.5 71.1667,69.5 79.5,69.5 Z"/></g>
<g><path style="opacity:1" fill="#0287d1" d="M 79.5,69.5 C 87.8333,69.5 96.1667,69.5 104.5,69.5C 104.5,77.8333 104.5,86.1667 104.5,94.5C 96.1667,94.5 87.8333,94.5 79.5,94.5C 79.5,86.1667 79.5,77.8333 79.5,69.5 Z"/></g>
<g><path style="opacity:1" fill="#01569b" d="M 104.5,69.5 C 112.833,69.5 121.167,69.5 129.5,69.5C 129.5,77.8333 129.5,86.1667 129.5,94.5C 121.167,94.5 112.833,94.5 104.5,94.5C 104.5,86.1667 104.5,77.8333 104.5,69.5 Z"/></g>
<g><path style="opacity:0.996" fill="#03a8f2" d="M 191.5,133.5 C 190.735,133.923 189.902,134.257 189,134.5C 186,133.167 183,131.833 180,130.5C 170.748,135.217 160.914,136.717 150.5,135C 146.372,134.602 142.706,133.102 139.5,130.5C 126.115,137.129 112.781,137.129 99.5,130.5C 85.9662,137.108 72.4662,137.108 59,130.5C 50.548,134.274 41.7147,135.441 32.5,134C 29.6714,132.753 27.0048,131.253 24.5,129.5C 20.1387,132.954 15.1387,134.62 9.5,134.5C 8.60762,129.562 8.27428,124.562 8.5,119.5C 15.5,119.5 22.5,119.5 29.5,119.5C 37.8333,119.5 46.1667,119.5 54.5,119.5C 62.8333,119.5 71.1667,119.5 79.5,119.5C 87.8333,119.5 96.1667,119.5 104.5,119.5C 112.833,119.5 121.167,119.5 129.5,119.5C 137.833,119.5 146.167,119.5 154.5,119.5C 162.606,119.449 170.439,118.116 178,115.5C 175.088,109.245 173.254,102.578 172.5,95.5C 173.467,84.5571 178.3,75.8904 187,69.5C 196.281,76.3926 201.115,85.7259 201.5,97.5C 209.909,92.8539 218.576,92.3539 227.5,96C 228.516,96.5194 229.182,97.3527 229.5,98.5C 224.907,117.46 212.907,126.127 193.5,124.5C 193.244,127.598 192.578,130.598 191.5,133.5 Z"/></g>
<g><path style="opacity:1" fill="#01569b" d="M 54.5,94.5 C 54.5,102.833 54.5,111.167 54.5,119.5C 46.1667,119.5 37.8333,119.5 29.5,119.5C 29.5,111.167 29.5,102.833 29.5,94.5C 37.8333,94.5 46.1667,94.5 54.5,94.5 Z"/></g>
<g><path style="opacity:1" fill="#0287d1" d="M 54.5,94.5 C 62.8333,94.5 71.1667,94.5 79.5,94.5C 79.5,102.833 79.5,111.167 79.5,119.5C 71.1667,119.5 62.8333,119.5 54.5,119.5C 54.5,111.167 54.5,102.833 54.5,94.5 Z"/></g>
<g><path style="opacity:1" fill="#01569b" d="M 79.5,94.5 C 87.8333,94.5 96.1667,94.5 104.5,94.5C 104.5,102.833 104.5,111.167 104.5,119.5C 96.1667,119.5 87.8333,119.5 79.5,119.5C 79.5,111.167 79.5,102.833 79.5,94.5 Z"/></g>
<g><path style="opacity:1" fill="#0287d1" d="M 104.5,94.5 C 112.833,94.5 121.167,94.5 129.5,94.5C 129.5,102.833 129.5,111.167 129.5,119.5C 121.167,119.5 112.833,119.5 104.5,119.5C 104.5,111.167 104.5,102.833 104.5,94.5 Z"/></g>
<g><path style="opacity:1" fill="#01569b" d="M 129.5,94.5 C 137.833,94.5 146.167,94.5 154.5,94.5C 154.5,102.833 154.5,111.167 154.5,119.5C 146.167,119.5 137.833,119.5 129.5,119.5C 129.5,111.167 129.5,102.833 129.5,94.5 Z"/></g>
<g><path style="opacity:0.988" fill="#364850" d="M 191.5,133.5 C 200.119,135.625 208.286,134.292 216,129.5C 219.904,132.717 224.404,134.384 229.5,134.5C 229.5,136.167 229.5,137.833 229.5,139.5C 215.833,139.5 202.167,139.5 188.5,139.5C 128.833,139.5 69.1667,139.5 9.5,139.5C 9.5,137.833 9.5,136.167 9.5,134.5C 15.1387,134.62 20.1387,132.954 24.5,129.5C 27.0048,131.253 29.6714,132.753 32.5,134C 41.7147,135.441 50.548,134.274 59,130.5C 72.4662,137.108 85.9662,137.108 99.5,130.5C 112.781,137.129 126.115,137.129 139.5,130.5C 142.706,133.102 146.372,134.602 150.5,135C 160.914,136.717 170.748,135.217 180,130.5C 183,131.833 186,133.167 189,134.5C 189.902,134.257 190.735,133.923 191.5,133.5 Z"/></g>
<g><path style="opacity:1" fill="#0288d1" d="M 9.5,139.5 C 69.1667,139.5 128.833,139.5 188.5,139.5C 170.025,177.252 139.692,197.252 97.5,199.5C 84.8992,195.232 76.2325,186.899 71.5,174.5C 76.0143,169.89 75.181,166.557 69,164.5C 65.8357,165.332 62.669,166.166 59.5,167C 46.8306,168.199 34.4973,169.699 22.5,171.5C 15.4421,162.005 11.1088,151.338 9.5,139.5 Z"/></g>
<g><path style="opacity:1" fill="#f1f6f9" d="M 85.5,149.5 C 97.854,149.559 101.687,155.225 97,166.5C 89.6825,171.511 84.0158,170.178 80,162.5C 78.8312,156.853 80.6645,152.519 85.5,149.5 Z"/></g>
<g><path style="opacity:1" fill="#3c4b53" d="M 87.5,154.5 C 94.8211,155.319 96.1545,158.486 91.5,164C 84.075,163.484 82.7416,160.318 87.5,154.5 Z"/></g>
<g><path style="opacity:1" fill="#374a54" d="M 71.5,174.5 C 57.7102,177.773 43.7102,179.44 29.5,179.5C 26.4503,177.451 24.117,174.784 22.5,171.5C 34.4973,169.699 46.8306,168.199 59.5,167C 62.669,166.166 65.8357,165.332 69,164.5C 75.181,166.557 76.0143,169.89 71.5,174.5 Z"/></g>
<g><path style="opacity:1" fill="#7cd0f7" d="M 71.5,174.5 C 76.2325,186.899 84.8992,195.232 97.5,199.5C 76.9458,201.576 57.6124,197.742 39.5,188C 35.9095,185.386 32.5762,182.552 29.5,179.5C 43.7102,179.44 57.7102,177.773 71.5,174.5 Z"/></g>
</svg>
