<?xml version="1.0" encoding="UTF-8"?>
<!DOCTYPE svg PUBLIC "-//W3C//DTD SVG 1.1//EN" "http://www.w3.org/Graphics/SVG/1.1/DTD/svg11.dtd">
<svg xmlns="http://www.w3.org/2000/svg" version="1.1" width="240px" height="240px" style="shape-rendering:geometricPrecision; text-rendering:geometricPrecision; image-rendering:optimizeQuality; fill-rule:evenodd; clip-rule:evenodd" xmlns:xlink="http://www.w3.org/1999/xlink">
<g><path style="opacity:0.996" fill="#e64918" d="M 124.5,14.5 C 124.5,37.8333 124.5,61.1667 124.5,84.5C 109.833,84.5 95.1667,84.5 80.5,84.5C 56.4607,74.597 48.9607,57.2637 58,32.5C 63.1529,23.6708 70.6529,17.8375 80.5,15C 95.1629,14.5001 109.83,14.3334 124.5,14.5 Z"/></g>
<g><path style="opacity:0.992" fill="#ff6f42" d="M 124.5,14.5 C 139.17,14.3334 153.837,14.5001 168.5,15C 191.734,23.9743 199.568,40.4743 192,64.5C 186.723,74.866 178.557,81.5327 167.5,84.5C 161.833,84.5 156.167,84.5 150.5,84.5C 141.833,84.5 133.167,84.5 124.5,84.5C 124.5,61.1667 124.5,37.8333 124.5,14.5 Z"/></g>
<g><path style="opacity:0.992" fill="#7b4cff" d="M 80.5,84.5 C 95.1667,84.5 109.833,84.5 124.5,84.5C 124.5,93.1667 124.5,101.833 124.5,110.5C 124.5,116.5 124.5,122.5 124.5,128.5C 124.5,137.167 124.5,145.833 124.5,154.5C 109.833,154.5 95.1667,154.5 80.5,154.5C 60.4447,146.742 51.9447,132.076 55,110.5C 59.0168,97.3175 67.5168,88.6508 80.5,84.5 Z"/></g>
<g><path style="opacity:0.991" fill="#29b6f6" d="M 150.5,84.5 C 156.167,84.5 161.833,84.5 167.5,84.5C 188.323,91.7967 197.157,106.463 194,128.5C 190.663,140.503 183.163,148.67 171.5,153C 148.496,158.427 132.829,150.261 124.5,128.5C 124.5,122.5 124.5,116.5 124.5,110.5C 128.833,97.5 137.5,88.8333 150.5,84.5 Z"/></g>
<g><path style="opacity:0.989" fill="#65bb69" d="M 80.5,154.5 C 95.1667,154.5 109.833,154.5 124.5,154.5C 124.667,169.17 124.5,183.837 124,198.5C 118.476,215.429 106.809,224.096 89,224.5C 71.6025,223.798 60.2692,215.131 55,198.5C 51.9447,176.924 60.4447,162.258 80.5,154.5 Z"/></g>
</svg>
