<?xml version="1.0" encoding="UTF-8"?>
<!DOCTYPE svg PUBLIC "-//W3C//DTD SVG 1.1//EN" "http://www.w3.org/Graphics/SVG/1.1/DTD/svg11.dtd">
<svg xmlns="http://www.w3.org/2000/svg" version="1.1" width="214px" height="206px" style="shape-rendering:geometricPrecision; text-rendering:geometricPrecision; image-rendering:optimizeQuality; fill-rule:evenodd; clip-rule:evenodd" xmlns:xlink="http://www.w3.org/1999/xlink">
<g><path style="opacity:0.843" fill="#6e14b3" d="M 202.5,3.5 C 202.833,3.5 203.167,3.5 203.5,3.5C 199.773,8.22971 195.44,12.2297 190.5,15.5C 194.167,11.1667 198.167,7.16667 202.5,3.5 Z"/></g>
<g><path style="opacity:1" fill="#8c0ffb" d="M 203.5,3.5 C 204.495,14.3206 204.828,25.3206 204.5,36.5C 203.778,36.0825 203.278,35.4158 203,34.5C 202.667,34.8333 202.333,35.1667 202,35.5C 201.667,34.1667 201.333,32.8333 201,31.5C 200.798,33.2556 200.298,34.9223 199.5,36.5C 199.167,36.3333 198.833,36.1667 198.5,36C 197.897,34.1746 197.23,32.3413 196.5,30.5C 195.729,32.8622 194.895,35.1955 194,37.5C 193.581,36.3279 192.915,35.3279 192,34.5C 186.928,35.4714 181.762,35.8047 176.5,35.5C 176.541,31.7566 175.874,31.5899 174.5,35C 173.255,35.7914 171.922,36.2914 170.5,36.5C 175.167,31.1667 180.167,26.1667 185.5,21.5C 187.914,20.0892 189.581,18.0892 190.5,15.5C 195.44,12.2297 199.773,8.22971 203.5,3.5 Z"/></g>
<g><path style="opacity:0.82" fill="#6c11b6" d="M 190.5,15.5 C 189.581,18.0892 187.914,20.0892 185.5,21.5C 185.5,21.1667 185.5,20.8333 185.5,20.5C 186.833,18.5 188.5,16.8333 190.5,15.5 Z"/></g>
<g><path style="opacity:1" fill="#ef0789" d="M 9.5,2.5 C 15.1667,7.5 20.5,12.8333 25.5,18.5C 25.8333,19.8333 26.1667,21.1667 26.5,22.5C 25.5178,21.8592 24.5178,21.1925 23.5,20.5C 21.8598,22.43 19.8598,23.2633 17.5,23C 18.4996,20.9093 17.8329,19.2426 15.5,18C 17.9008,14.2901 16.7341,11.7901 12,10.5C 11.7398,8.38247 10.7398,6.7158 9,5.5C 8.50025,14.1603 8.33358,22.8269 8.5,31.5C 8.16667,31.5 7.83333,31.5 7.5,31.5C 6.86,21.4422 7.52666,11.7755 9.5,2.5 Z"/></g>
<g><path style="opacity:1" fill="#fb0093" d="M 26.5,22.5 C 28.0481,22.8212 28.7148,23.8212 28.5,25.5C 30.2161,25.6287 31.8828,25.962 33.5,26.5C 33.8333,27.8333 34.1667,29.1667 34.5,30.5C 32.4425,29.7981 30.4425,29.4647 28.5,29.5C 27.1861,30.3128 26.0195,31.3128 25,32.5C 22.6419,28.6418 19.4752,25.6418 15.5,23.5C 14.5713,24.6888 14.238,26.0222 14.5,27.5C 16.6056,27.679 18.2723,28.679 19.5,30.5C 19.2907,31.086 18.9574,31.586 18.5,32C 15.2228,31.7988 11.8895,31.6321 8.5,31.5C 8.33358,22.8269 8.50025,14.1603 9,5.5C 10.7398,6.7158 11.7398,8.38247 12,10.5C 16.7341,11.7901 17.9008,14.2901 15.5,18C 17.8329,19.2426 18.4996,20.9093 17.5,23C 19.8598,23.2633 21.8598,22.43 23.5,20.5C 24.5178,21.1925 25.5178,21.8592 26.5,22.5 Z"/></g>
<g><path style="opacity:1" fill="#f8009a" d="M 34.5,30.5 C 35.0668,32.0295 35.7334,33.5295 36.5,35C 38.433,35.2511 40.2663,35.7511 42,36.5C 43.0221,39.618 44.1887,42.618 45.5,45.5C 43.7376,45.3573 42.0709,45.6906 40.5,46.5C 38.1035,43.1006 35.1035,40.4339 31.5,38.5C 25.661,38.8539 19.9943,39.8539 14.5,41.5C 13.0945,38.7874 11.5945,36.1207 10,33.5C 9.66667,36.1667 9.33333,38.8333 9,41.5C 8.50166,38.1832 8.33499,34.8499 8.5,31.5C 11.8895,31.6321 15.2228,31.7988 18.5,32C 18.9574,31.586 19.2907,31.086 19.5,30.5C 18.2723,28.679 16.6056,27.679 14.5,27.5C 14.238,26.0222 14.5713,24.6888 15.5,23.5C 19.4752,25.6418 22.6419,28.6418 25,32.5C 26.0195,31.3128 27.1861,30.3128 28.5,29.5C 30.4425,29.4647 32.4425,29.7981 34.5,30.5 Z"/></g>
<g><path style="opacity:0.957" fill="#c60e79" d="M 25.5,18.5 C 28.5,20.8333 31.1667,23.5 33.5,26.5C 31.8828,25.962 30.2161,25.6287 28.5,25.5C 28.7148,23.8212 28.0481,22.8212 26.5,22.5C 26.1667,21.1667 25.8333,19.8333 25.5,18.5 Z"/></g>
<g><path style="opacity:1" fill="#850dfd" d="M 204.5,36.5 C 204.5,42.8333 204.5,49.1667 204.5,55.5C 203.71,54.3915 203.21,53.0581 203,51.5C 202.667,52.5 202.333,53.5 202,54.5C 201.667,49.5 201.333,44.5 201,39.5C 200.625,44.2101 199.958,48.8768 199,53.5C 198.612,54.428 197.945,55.0946 197,55.5C 184.643,53.5637 172.143,52.897 159.5,53.5C 159.5,54.8333 159.5,56.1667 159.5,57.5C 158.5,57.5 157.5,57.5 156.5,57.5C 156.36,55.8762 157.027,54.7096 158.5,54C 158.167,53.6667 157.833,53.3333 157.5,53C 155.811,53.1343 154.144,53.6343 152.5,54.5C 158.167,48.1667 164.167,42.1667 170.5,36.5C 171.922,36.2914 173.255,35.7914 174.5,35C 175.874,31.5899 176.541,31.7566 176.5,35.5C 181.762,35.8047 186.928,35.4714 192,34.5C 192.915,35.3279 193.581,36.3279 194,37.5C 194.895,35.1955 195.729,32.8622 196.5,30.5C 197.23,32.3413 197.897,34.1746 198.5,36C 198.833,36.1667 199.167,36.3333 199.5,36.5C 200.298,34.9223 200.798,33.2556 201,31.5C 201.333,32.8333 201.667,34.1667 202,35.5C 202.333,35.1667 202.667,34.8333 203,34.5C 203.278,35.4158 203.778,36.0825 204.5,36.5 Z"/></g>
<g><path style="opacity:1" fill="#d90a88" d="M 33.5,26.5 C 40.5,32.8333 47.1667,39.5 53.5,46.5C 51.1727,46.7529 49.1727,46.0863 47.5,44.5C 46.8165,44.8627 46.1499,45.1961 45.5,45.5C 44.1887,42.618 43.0221,39.618 42,36.5C 40.2663,35.7511 38.433,35.2511 36.5,35C 35.7334,33.5295 35.0668,32.0295 34.5,30.5C 34.1667,29.1667 33.8333,27.8333 33.5,26.5 Z"/></g>
<g><path style="opacity:0.677" fill="#881262" d="M 6.5,-0.5 C 6.83333,-0.5 7.16667,-0.5 7.5,-0.5C 8.16667,0.5 8.83333,1.5 9.5,2.5C 7.52666,11.7755 6.86,21.4422 7.5,31.5C 7.5,43.5 7.5,55.5 7.5,67.5C 7.5,86.1667 7.5,104.833 7.5,123.5C 7.5,125.167 7.5,126.833 7.5,128.5C 6.50246,151.661 6.16912,174.994 6.5,198.5C 5.17544,132.306 5.17544,65.973 6.5,-0.5 Z"/></g>
<g><path style="opacity:1" fill="#f3029e" d="M 7.5,31.5 C 7.83333,31.5 8.16667,31.5 8.5,31.5C 8.33499,34.8499 8.50166,38.1832 9,41.5C 9.33333,38.8333 9.66667,36.1667 10,33.5C 11.5945,36.1207 13.0945,38.7874 14.5,41.5C 19.9943,39.8539 25.661,38.8539 31.5,38.5C 35.1035,40.4339 38.1035,43.1006 40.5,46.5C 42.0709,45.6906 43.7376,45.3573 45.5,45.5C 46.1499,45.1961 46.8165,44.8627 47.5,44.5C 49.1727,46.0863 51.1727,46.7529 53.5,46.5C 57.8333,50.1667 61.8333,54.1667 65.5,58.5C 63.5648,57.8505 61.5648,57.5172 59.5,57.5C 60.3781,54.8181 59.2115,53.1515 56,52.5C 54.1999,53.3784 52.3666,54.045 50.5,54.5C 50.3854,49.3751 49.0521,48.7084 46.5,52.5C 36.5166,53.6656 26.5166,53.8322 16.5,53C 15.7734,51.6012 15.2734,50.1012 15,48.5C 14.4319,52.2738 13.2652,55.6071 11.5,58.5C 10.7784,58.0825 10.2784,57.4158 10,56.5C 9.06422,60.1135 8.56422,63.7802 8.5,67.5C 8.16667,67.5 7.83333,67.5 7.5,67.5C 7.5,55.5 7.5,43.5 7.5,31.5 Z"/></g>
<g><path style="opacity:0.044" fill="#150043" d="M 204.5,-0.5 C 205.5,-0.5 206.5,-0.5 207.5,-0.5C 207.832,32.6709 207.498,65.6709 206.5,98.5C 206.667,65.8316 206.5,33.165 206,0.5C 204.955,1.37344 204.122,2.37344 203.5,3.5C 203.167,3.5 202.833,3.5 202.5,3.5C 202.733,1.93819 203.4,0.60486 204.5,-0.5 Z"/></g>
<g><path style="opacity:1" fill="#f500a5" d="M 59.5,57.5 C 59.4208,58.9305 59.7542,60.2638 60.5,61.5C 60.1131,62.7199 59.2798,63.3865 58,63.5C 54.8158,60.8939 51.6492,60.8939 48.5,63.5C 47.6919,63.1924 47.0253,62.6924 46.5,62C 35.9234,61.8211 25.4234,61.3211 15,60.5C 11.8268,64.184 10.6601,63.5174 11.5,58.5C 13.2652,55.6071 14.4319,52.2738 15,48.5C 15.2734,50.1012 15.7734,51.6012 16.5,53C 26.5166,53.8322 36.5166,53.6656 46.5,52.5C 49.0521,48.7084 50.3854,49.3751 50.5,54.5C 52.3666,54.045 54.1999,53.3784 56,52.5C 59.2115,53.1515 60.3781,54.8181 59.5,57.5 Z"/></g>
<g><path style="opacity:0.255" fill="#2c085a" d="M 185.5,20.5 C 185.5,20.8333 185.5,21.1667 185.5,21.5C 180.167,26.1667 175.167,31.1667 170.5,36.5C 164.167,42.1667 158.167,48.1667 152.5,54.5C 149.5,57.1667 146.5,59.8333 143.5,62.5C 156.245,48.2524 169.578,34.4191 183.5,21C 184.094,20.5357 184.761,20.369 185.5,20.5 Z"/></g>
<g><path style="opacity:1" fill="#f400ab" d="M 11.5,58.5 C 10.6601,63.5174 11.8268,64.184 15,60.5C 25.4234,61.3211 35.9234,61.8211 46.5,62C 47.0253,62.6924 47.6919,63.1924 48.5,63.5C 51.6492,60.8939 54.8158,60.8939 58,63.5C 59.2798,63.3865 60.1131,62.7199 60.5,61.5C 59.7542,60.2638 59.4208,58.9305 59.5,57.5C 61.5648,57.5172 63.5648,57.8505 65.5,58.5C 65.8333,59.8333 66.1667,61.1667 66.5,62.5C 67.7298,64.2972 68.3964,66.2972 68.5,68.5C 72.9315,67.5298 75.2648,69.1965 75.5,73.5C 76.5845,75.3186 77.9178,76.9853 79.5,78.5C 79,78.8333 78.5,79.1667 78,79.5C 73.7592,79.2038 70.0925,77.2038 67,73.5C 65.2816,75.2021 65.115,77.0355 66.5,79C 49.5535,78.7095 32.5535,78.3762 15.5,78C 31.5,77.6667 47.5,77.3333 63.5,77C 62.6634,75.9887 62.33,74.8221 62.5,73.5C 46.5889,73.1754 30.7556,73.5088 15,74.5C 14.6667,73.8333 14.3333,73.1667 14,72.5C 12.2546,74.0891 11.088,76.0891 10.5,78.5C 10.9107,76.3904 10.244,74.3904 8.5,72.5C 8.5,70.8333 8.5,69.1667 8.5,67.5C 8.56422,63.7802 9.06422,60.1135 10,56.5C 10.2784,57.4158 10.7784,58.0825 11.5,58.5 Z"/></g>
<g><path style="opacity:0.722" fill="#af0e79" d="M 65.5,58.5 C 67.5,59.8333 69.1667,61.5 70.5,63.5C 69.1667,63.1667 67.8333,62.8333 66.5,62.5C 66.1667,61.1667 65.8333,59.8333 65.5,58.5 Z"/></g>
<g><path style="opacity:1" fill="#7b0afe" d="M 204.5,55.5 C 204.5,64.1667 204.5,72.8333 204.5,81.5C 203.175,80.0474 202.342,80.3808 202,82.5C 201.814,80.0995 201.314,77.7662 200.5,75.5C 199.236,78.7902 198.07,82.1235 197,85.5C 196.453,82.2976 195.453,79.2976 194,76.5C 193.5,77.6667 192.667,78.5 191.5,79C 174.65,79.7867 158.15,79.6201 142,78.5C 140.084,81.033 138.084,81.033 136,78.5C 135.586,78.9574 135.086,79.2907 134.5,79.5C 133.358,78.1738 132.024,77.1738 130.5,76.5C 130.833,75.8333 131.167,75.1667 131.5,74.5C 132.5,74.1667 133.167,73.5 133.5,72.5C 134.5,72.1667 135.167,71.5 135.5,70.5C 136.5,70.1667 137.167,69.5 137.5,68.5C 138.5,68.1667 139.167,67.5 139.5,66.5C 141.167,65.5 142.5,64.1667 143.5,62.5C 146.5,59.8333 149.5,57.1667 152.5,54.5C 154.144,53.6343 155.811,53.1343 157.5,53C 157.833,53.3333 158.167,53.6667 158.5,54C 157.027,54.7096 156.36,55.8762 156.5,57.5C 157.5,57.5 158.5,57.5 159.5,57.5C 159.5,56.1667 159.5,54.8333 159.5,53.5C 172.143,52.897 184.643,53.5637 197,55.5C 197.945,55.0946 198.612,54.428 199,53.5C 199.958,48.8768 200.625,44.2101 201,39.5C 201.333,44.5 201.667,49.5 202,54.5C 202.333,53.5 202.667,52.5 203,51.5C 203.21,53.0581 203.71,54.3915 204.5,55.5 Z"/></g>
<g><path style="opacity:0.29" fill="#2b0760" d="M 143.5,62.5 C 142.5,64.1667 141.167,65.5 139.5,66.5C 139.833,64.1667 141.167,62.8333 143.5,62.5 Z"/></g>
<g><path style="opacity:0.263" fill="#310565" d="M 139.5,66.5 C 139.167,67.5 138.5,68.1667 137.5,68.5C 137.5,67.1667 138.167,66.5 139.5,66.5 Z"/></g>
<g><path style="opacity:1" fill="#d60b95" d="M 66.5,62.5 C 67.8333,62.8333 69.1667,63.1667 70.5,63.5C 75.5,67.8333 80.1667,72.5 84.5,77.5C 81.6373,76.6465 79.3039,74.9799 77.5,72.5C 76.8165,72.8627 76.1499,73.1961 75.5,73.5C 75.2648,69.1965 72.9315,67.5298 68.5,68.5C 68.3964,66.2972 67.7298,64.2972 66.5,62.5 Z"/></g>
<g><path style="opacity:0.235" fill="#300765" d="M 137.5,68.5 C 137.167,69.5 136.5,70.1667 135.5,70.5C 135.5,69.1667 136.167,68.5 137.5,68.5 Z"/></g>
<g><path style="opacity:0.227" fill="#2e0462" d="M 135.5,70.5 C 135.167,71.5 134.5,72.1667 133.5,72.5C 133.5,71.1667 134.167,70.5 135.5,70.5 Z"/></g>
<g><path style="opacity:1" fill="#f100b1" d="M 8.5,72.5 C 10.244,74.3904 10.9107,76.3904 10.5,78.5C 11.088,76.0891 12.2546,74.0891 14,72.5C 14.3333,73.1667 14.6667,73.8333 15,74.5C 30.7556,73.5088 46.5889,73.1754 62.5,73.5C 62.33,74.8221 62.6634,75.9887 63.5,77C 47.5,77.3333 31.5,77.6667 15.5,78C 32.5535,78.3762 49.5535,78.7095 66.5,79C 65.115,77.0355 65.2816,75.2021 67,73.5C 70.0925,77.2038 73.7592,79.2038 78,79.5C 78.5,79.1667 79,78.8333 79.5,78.5C 77.9178,76.9853 76.5845,75.3186 75.5,73.5C 76.1499,73.1961 76.8165,72.8627 77.5,72.5C 79.3039,74.9799 81.6373,76.6465 84.5,77.5C 84.9406,80.7162 86.6072,83.0495 89.5,84.5C 88.5281,84.593 87.5281,84.9264 86.5,85.5C 85.6236,85.3691 84.9569,85.7025 84.5,86.5C 86.2003,88.0676 87.5336,89.901 88.5,92C 87.4366,93.1882 86.1033,93.6882 84.5,93.5C 84.5,92.1667 84.5,90.8333 84.5,89.5C 82.1756,89.3385 80.5089,88.1718 79.5,86C 57.8333,85.6667 36.1667,85.3333 14.5,85C 12.9956,80.3989 11.6623,80.5655 10.5,85.5C 8.81523,81.3451 8.14857,77.0118 8.5,72.5 Z"/></g>
<g><path style="opacity:0.255" fill="#300a66" d="M 133.5,72.5 C 133.167,73.5 132.5,74.1667 131.5,74.5C 131.5,73.1667 132.167,72.5 133.5,72.5 Z"/></g>
<g><path style="opacity:1" fill="#7309fd" d="M 204.5,81.5 C 204.5,86.8333 204.5,92.1667 204.5,97.5C 203.842,98.3984 203.176,99.3984 202.5,100.5C 200.592,98.6761 198.592,97.0094 196.5,95.5C 194.354,94.5694 192.188,94.9027 190,96.5C 169.333,95.1667 148.667,95.1667 128,96.5C 125.867,94.9095 124.201,92.9095 123,90.5C 122.667,90.8333 122.333,91.1667 122,91.5C 121.29,90.0267 120.124,89.3601 118.5,89.5C 118.557,88.391 118.89,87.391 119.5,86.5C 120.5,86.1667 121.167,85.5 121.5,84.5C 123.833,82.8333 125.833,80.8333 127.5,78.5C 128.5,77.8333 129.5,77.1667 130.5,76.5C 132.024,77.1738 133.358,78.1738 134.5,79.5C 135.086,79.2907 135.586,78.9574 136,78.5C 138.084,81.033 140.084,81.033 142,78.5C 158.15,79.6201 174.65,79.7867 191.5,79C 192.667,78.5 193.5,77.6667 194,76.5C 195.453,79.2976 196.453,82.2976 197,85.5C 198.07,82.1235 199.236,78.7902 200.5,75.5C 201.314,77.7662 201.814,80.0995 202,82.5C 202.342,80.3808 203.175,80.0474 204.5,81.5 Z"/></g>
<g><path style="opacity:0.282" fill="#2b0863" d="M 131.5,74.5 C 131.167,75.1667 130.833,75.8333 130.5,76.5C 129.5,77.1667 128.5,77.8333 127.5,78.5C 127.833,76.1667 129.167,74.8333 131.5,74.5 Z"/></g>
<g><path style="opacity:1" fill="#731ad8" d="M 206.5,98.5 C 206.5,98.8333 206.5,99.1667 206.5,99.5C 205.833,100.167 205.167,100.833 204.5,101.5C 204.5,100.167 204.5,98.8333 204.5,97.5C 204.5,92.1667 204.5,86.8333 204.5,81.5C 204.5,72.8333 204.5,64.1667 204.5,55.5C 204.5,49.1667 204.5,42.8333 204.5,36.5C 204.828,25.3206 204.495,14.3206 203.5,3.5C 204.122,2.37344 204.955,1.37344 206,0.5C 206.5,33.165 206.667,65.8316 206.5,98.5 Z"/></g>
<g><path style="opacity:1" fill="#ee01b7" d="M 7.5,67.5 C 7.83333,67.5 8.16667,67.5 8.5,67.5C 8.5,69.1667 8.5,70.8333 8.5,72.5C 8.14857,77.0118 8.81523,81.3451 10.5,85.5C 11.6623,80.5655 12.9956,80.3989 14.5,85C 36.1667,85.3333 57.8333,85.6667 79.5,86C 80.5089,88.1718 82.1756,89.3385 84.5,89.5C 84.5,90.8333 84.5,92.1667 84.5,93.5C 86.1033,93.6882 87.4366,93.1882 88.5,92C 87.5336,89.901 86.2003,88.0676 84.5,86.5C 84.9569,85.7025 85.6236,85.3691 86.5,85.5C 87.7853,86.7853 89.1186,88.1186 90.5,89.5C 92.0421,88.2532 93.5421,88.2532 95,89.5C 95.1205,93.042 96.2872,96.042 98.5,98.5C 97.444,99.8765 96.1107,100.71 94.5,101C 67.7753,100.846 41.2753,101.68 15,103.5C 12.7998,101.169 10.7998,101.169 9,103.5C 8.50258,106.146 8.33591,108.813 8.5,111.5C 8.5,115.167 8.5,118.833 8.5,122.5C 8.5,122.833 8.5,123.167 8.5,123.5C 8.16667,123.5 7.83333,123.5 7.5,123.5C 7.5,104.833 7.5,86.1667 7.5,67.5 Z"/></g>
<g><path style="opacity:0.263" fill="#28075e" d="M 127.5,78.5 C 125.833,80.8333 123.833,82.8333 121.5,84.5C 122.5,81.5 124.5,79.5 127.5,78.5 Z"/></g>
<g><path style="opacity:0.243" fill="#2d0866" d="M 121.5,84.5 C 121.167,85.5 120.5,86.1667 119.5,86.5C 119.5,85.1667 120.167,84.5 121.5,84.5 Z"/></g>
<g><path style="opacity:1" fill="#6d08fe" d="M 118.5,89.5 C 120.124,89.3601 121.29,90.0267 122,91.5C 122.333,91.1667 122.667,90.8333 123,90.5C 124.201,92.9095 125.867,94.9095 128,96.5C 148.667,95.1667 169.333,95.1667 190,96.5C 192.188,94.9027 194.354,94.5694 196.5,95.5C 197.449,98.2075 197.449,100.874 196.5,103.5C 195.476,102.147 194.143,101.48 192.5,101.5C 192.649,102.552 192.483,103.552 192,104.5C 164.611,105.803 136.945,105.803 109,104.5C 107.315,106.017 105.815,107.684 104.5,109.5C 103.828,108.051 103.161,106.718 102.5,105.5C 104.167,103.5 105.833,101.5 107.5,99.5C 107.5,98.8333 107.833,98.5 108.5,98.5C 111.788,95.5507 115.121,92.5507 118.5,89.5 Z"/></g>
<g><path style="opacity:0.8" fill="#540db1" d="M 119.5,86.5 C 118.89,87.391 118.557,88.391 118.5,89.5C 115.121,92.5507 111.788,95.5507 108.5,98.5C 108.5,98.1667 108.5,97.8333 108.5,97.5C 111.881,93.4518 115.548,89.7852 119.5,86.5 Z"/></g>
<g><path style="opacity:1" fill="#d909a8" d="M 84.5,77.5 C 91.8333,84.1667 98.8333,91.1667 105.5,98.5C 105.5,98.8333 105.5,99.1667 105.5,99.5C 103.692,99.5086 102.025,99.0086 100.5,98C 101.888,97.1107 101.722,96.6107 100,96.5C 99.0346,96.9296 98.5346,97.5963 98.5,98.5C 96.2872,96.042 95.1205,93.042 95,89.5C 93.5421,88.2532 92.0421,88.2532 90.5,89.5C 89.1186,88.1186 87.7853,86.7853 86.5,85.5C 87.5281,84.9264 88.5281,84.593 89.5,84.5C 86.6072,83.0495 84.9406,80.7162 84.5,77.5 Z"/></g>
<g><path style="opacity:0.357" fill="#3a0372" d="M 108.5,97.5 C 108.5,97.8333 108.5,98.1667 108.5,98.5C 107.833,98.5 107.5,98.8333 107.5,99.5C 106.833,99.5 106.167,99.5 105.5,99.5C 105.5,99.1667 105.5,98.8333 105.5,98.5C 106.391,97.8902 107.391,97.5569 108.5,97.5 Z"/></g>
<g><path style="opacity:1" fill="#eb01be" d="M 105.5,99.5 C 102.088,103.238 98.7545,106.905 95.5,110.5C 94.209,110.263 93.209,110.596 92.5,111.5C 90.857,111.48 89.5237,112.147 88.5,113.5C 87.5,112.833 86.5,112.167 85.5,111.5C 84.3044,111.846 84.3044,112.346 85.5,113C 84.1667,113.667 82.8333,113.667 81.5,113C 82.5243,111.633 82.0243,110.8 80,110.5C 58.5334,111.484 37.0334,111.817 15.5,111.5C 15.6495,112.552 15.4828,113.552 15,114.5C 14.2607,112.779 13.4274,111.113 12.5,109.5C 11.1401,110.18 9.80678,110.847 8.5,111.5C 8.33591,108.813 8.50258,106.146 9,103.5C 10.7998,101.169 12.7998,101.169 15,103.5C 41.2753,101.68 67.7753,100.846 94.5,101C 96.1107,100.71 97.444,99.8765 98.5,98.5C 98.5346,97.5963 99.0346,96.9296 100,96.5C 101.722,96.6107 101.888,97.1107 100.5,98C 102.025,99.0086 103.692,99.5086 105.5,99.5 Z"/></g>
<g><path style="opacity:1" fill="#9401dd" d="M 105.5,99.5 C 106.167,99.5 106.833,99.5 107.5,99.5C 105.833,101.5 104.167,103.5 102.5,105.5C 100.343,107.412 98.0094,109.079 95.5,110.5C 98.7545,106.905 102.088,103.238 105.5,99.5 Z"/></g>
<g><path style="opacity:1" fill="#6809fd" d="M 196.5,95.5 C 198.592,97.0094 200.592,98.6761 202.5,100.5C 203.176,99.3984 203.842,98.3984 204.5,97.5C 204.5,98.8333 204.5,100.167 204.5,101.5C 201.167,104.833 197.833,108.167 194.5,111.5C 190.211,110.483 187.878,112.15 187.5,116.5C 184.929,117.728 183.595,119.728 183.5,122.5C 183.5,122.833 183.5,123.167 183.5,123.5C 181.833,124.833 180.167,126.167 178.5,127.5C 178.167,127.5 177.833,127.5 177.5,127.5C 176.833,125.5 176.167,123.5 175.5,121.5C 177.143,121.48 178.476,122.147 179.5,123.5C 181.488,122.711 181.821,121.545 180.5,120C 181.311,117.379 182.645,115.045 184.5,113C 184.167,112.833 183.833,112.667 183.5,112.5C 182.5,113.833 181.5,113.833 180.5,112.5C 178.972,113.861 177.305,115.028 175.5,116C 148.928,116.171 122.428,116.671 96,117.5C 95.586,117.043 95.086,116.709 94.5,116.5C 92.0177,118.344 89.351,119.677 86.5,120.5C 89.2574,116.953 92.2574,113.62 95.5,110.5C 98.0094,109.079 100.343,107.412 102.5,105.5C 103.161,106.718 103.828,108.051 104.5,109.5C 105.815,107.684 107.315,106.017 109,104.5C 136.945,105.803 164.611,105.803 192,104.5C 192.483,103.552 192.649,102.552 192.5,101.5C 194.143,101.48 195.476,102.147 196.5,103.5C 197.449,100.874 197.449,98.2075 196.5,95.5 Z"/></g>
<g><path style="opacity:1" fill="#ea01c5" d="M 92.5,111.5 C 88.9289,113.967 85.2623,116.467 81.5,119C 82.3366,120.011 82.67,121.178 82.5,122.5C 82.1667,122.5 81.8333,122.5 81.5,122.5C 59.6405,123.392 37.6405,123.725 15.5,123.5C 15.6495,124.552 15.4828,125.552 15,126.5C 13.5594,123.953 13.0594,121.453 13.5,119C 12.8921,118.13 12.0588,117.63 11,117.5C 10.9783,119.289 10.1449,120.956 8.5,122.5C 8.5,118.833 8.5,115.167 8.5,111.5C 9.80678,110.847 11.1401,110.18 12.5,109.5C 13.4274,111.113 14.2607,112.779 15,114.5C 15.4828,113.552 15.6495,112.552 15.5,111.5C 37.0334,111.817 58.5334,111.484 80,110.5C 82.0243,110.8 82.5243,111.633 81.5,113C 82.8333,113.667 84.1667,113.667 85.5,113C 84.3044,112.346 84.3044,111.846 85.5,111.5C 86.5,112.167 87.5,112.833 88.5,113.5C 89.5237,112.147 90.857,111.48 92.5,111.5 Z"/></g>
<g><path style="opacity:1" fill="#0989f7" d="M 206.5,99.5 C 207.686,100.961 207.686,102.295 206.5,103.5C 205.506,113.987 205.172,124.654 205.5,135.5C 204.566,134.432 204.232,133.099 204.5,131.5C 204.666,127.154 204.499,122.821 204,118.5C 200.876,120.17 197.543,122.17 194,124.5C 192.925,120.783 192.759,117.116 193.5,113.5C 193.833,112.833 194.167,112.167 194.5,111.5C 197.833,108.167 201.167,104.833 204.5,101.5C 205.167,100.833 205.833,100.167 206.5,99.5 Z"/></g>
<g><path style="opacity:1" fill="#6506fd" d="M 177.5,127.5 C 175.081,128.364 173.081,129.697 171.5,131.5C 170.504,131.586 169.671,131.252 169,130.5C 168.237,133.063 167.737,133.063 167.5,130.5C 167.818,129.353 168.484,128.519 169.5,128C 142.595,127.829 115.761,127.329 89,126.5C 86.2809,127.444 83.4475,127.777 80.5,127.5C 81.075,125.589 82.075,123.922 83.5,122.5C 83.9731,121.094 84.9731,120.427 86.5,120.5C 89.351,119.677 92.0177,118.344 94.5,116.5C 95.086,116.709 95.586,117.043 96,117.5C 122.428,116.671 148.928,116.171 175.5,116C 177.305,115.028 178.972,113.861 180.5,112.5C 181.5,113.833 182.5,113.833 183.5,112.5C 183.833,112.667 184.167,112.833 184.5,113C 182.645,115.045 181.311,117.379 180.5,120C 181.821,121.545 181.488,122.711 179.5,123.5C 178.476,122.147 177.143,121.48 175.5,121.5C 176.167,123.5 176.833,125.5 177.5,127.5 Z"/></g>
<g><path style="opacity:1" fill="#e800cb" d="M 81.5,122.5 C 79.7367,126.052 77.07,128.719 73.5,130.5C 72.448,130.351 71.448,130.517 70.5,131C 71.6956,131.654 71.6956,132.154 70.5,132.5C 68.6318,132.054 66.7985,131.721 65,131.5C 63.919,133.728 63.419,136.061 63.5,138.5C 63.2635,137.753 62.9302,136.92 62.5,136C 57.5671,134.682 52.5671,133.849 47.5,133.5C 47.1667,135.5 46.8333,137.5 46.5,139.5C 36.4944,139.666 26.4944,139.5 16.5,139C 15.7069,135.589 15.2069,132.089 15,128.5C 13.3046,133.339 12.4712,138.339 12.5,143.5C 11.1779,143.67 10.0113,143.337 9,142.5C 8.50046,136.175 8.33379,129.842 8.5,123.5C 8.5,123.167 8.5,122.833 8.5,122.5C 10.1449,120.956 10.9783,119.289 11,117.5C 12.0588,117.63 12.8921,118.13 13.5,119C 13.0594,121.453 13.5594,123.953 15,126.5C 15.4828,125.552 15.6495,124.552 15.5,123.5C 37.6405,123.725 59.6405,123.392 81.5,122.5 Z"/></g>
<g><path style="opacity:1" fill="#4a2bf3" d="M 194.5,111.5 C 194.167,112.167 193.833,112.833 193.5,113.5C 190.167,116.5 186.833,119.5 183.5,122.5C 183.595,119.728 184.929,117.728 187.5,116.5C 187.878,112.15 190.211,110.483 194.5,111.5 Z"/></g>
<g><path style="opacity:1" fill="#0486fe" d="M 193.5,113.5 C 192.759,117.116 192.925,120.783 194,124.5C 197.543,122.17 200.876,120.17 204,118.5C 204.499,122.821 204.666,127.154 204.5,131.5C 203.778,131.918 203.278,132.584 203,133.5C 202.667,131.833 202.333,130.167 202,128.5C 201.667,130.833 201.333,133.167 201,135.5C 199.409,126.388 197.409,126.388 195,135.5C 193.678,132.362 192.344,129.695 191,127.5C 189.557,132.368 187.39,132.702 184.5,128.5C 183.5,129.167 182.5,129.833 181.5,130.5C 181.167,130 180.833,129.5 180.5,129C 182.163,127.505 183.163,125.672 183.5,123.5C 183.5,123.167 183.5,122.833 183.5,122.5C 186.833,119.5 190.167,116.5 193.5,113.5 Z"/></g>
<g><path style="opacity:1" fill="#d404cc" d="M 95.5,110.5 C 92.2574,113.62 89.2574,116.953 86.5,120.5C 84.9731,120.427 83.9731,121.094 83.5,122.5C 83.1667,122.5 82.8333,122.5 82.5,122.5C 82.67,121.178 82.3366,120.011 81.5,119C 85.2623,116.467 88.9289,113.967 92.5,111.5C 93.209,110.596 94.209,110.263 95.5,110.5 Z"/></g>
<g><path style="opacity:1" fill="#5f04fe" d="M 171.5,131.5 C 171.099,134.4 169.765,135.067 167.5,133.5C 166.034,134.135 164.7,134.969 163.5,136C 164.308,136.308 164.975,136.808 165.5,137.5C 164.014,139.302 163.014,141.302 162.5,143.5C 162.167,143.5 161.833,143.5 161.5,143.5C 160.928,141.745 160.094,140.078 159,138.5C 132.908,139.495 106.741,139.828 80.5,139.5C 80.5,140.833 80.5,142.167 80.5,143.5C 81.8734,143.343 83.2068,143.51 84.5,144C 82.6447,144.422 80.8114,144.922 79,145.5C 78.0546,145.095 77.3879,144.428 77,143.5C 76.6667,143.833 76.3333,144.167 76,144.5C 76.5948,142.65 77.0948,140.65 77.5,138.5C 75.0876,138.244 73.4209,139.244 72.5,141.5C 72.1667,141.167 71.8333,140.833 71.5,140.5C 72.8334,139.38 73.3334,138.047 73,136.5C 72.1841,137.823 71.0174,138.489 69.5,138.5C 72.8875,134.446 76.5542,130.779 80.5,127.5C 83.4475,127.777 86.2809,127.444 89,126.5C 115.761,127.329 142.595,127.829 169.5,128C 168.484,128.519 167.818,129.353 167.5,130.5C 167.737,133.063 168.237,133.063 169,130.5C 169.671,131.252 170.504,131.586 171.5,131.5 Z"/></g>
<g><path style="opacity:1" fill="#0480fd" d="M 183.5,123.5 C 183.163,125.672 182.163,127.505 180.5,129C 180.833,129.5 181.167,130 181.5,130.5C 182.5,129.833 183.5,129.167 184.5,128.5C 187.39,132.702 189.557,132.368 191,127.5C 192.344,129.695 193.678,132.362 195,135.5C 197.409,126.388 199.409,126.388 201,135.5C 201.333,133.167 201.667,130.833 202,128.5C 202.333,130.167 202.667,131.833 203,133.5C 203.278,132.584 203.778,131.918 204.5,131.5C 204.232,133.099 204.566,134.432 205.5,135.5C 205.5,139.833 205.5,144.167 205.5,148.5C 204.833,148.5 204.5,148.167 204.5,147.5C 204.662,145.473 204.495,143.473 204,141.5C 203.581,145.852 202.914,146.185 202,142.5C 201.586,142.957 201.086,143.291 200.5,143.5C 199.757,142.092 198.923,140.759 198,139.5C 196.625,141.376 195.458,143.376 194.5,145.5C 193.781,143.483 192.614,141.817 191,140.5C 188.58,141.488 186.247,141.155 184,139.5C 181.485,140.872 178.818,141.872 176,142.5C 174.505,138.334 173.005,138 171.5,141.5C 170.032,143.333 168.365,143.666 166.5,142.5C 167.381,141.029 168.714,140.196 170.5,140C 169.748,139.329 169.414,138.496 169.5,137.5C 172.5,134.167 175.5,130.833 178.5,127.5C 180.167,126.167 181.833,124.833 183.5,123.5 Z"/></g>
<g><path style="opacity:1" fill="#4e1ef7" d="M 177.5,127.5 C 177.833,127.5 178.167,127.5 178.5,127.5C 175.5,130.833 172.5,134.167 169.5,137.5C 167.211,139.448 164.878,141.448 162.5,143.5C 163.014,141.302 164.014,139.302 165.5,137.5C 164.975,136.808 164.308,136.308 163.5,136C 164.7,134.969 166.034,134.135 167.5,133.5C 169.765,135.067 171.099,134.4 171.5,131.5C 173.081,129.697 175.081,128.364 177.5,127.5 Z"/></g>
<g><path style="opacity:1" fill="#e301d0" d="M 7.5,123.5 C 7.83333,123.5 8.16667,123.5 8.5,123.5C 8.33379,129.842 8.50046,136.175 9,142.5C 10.0113,143.337 11.1779,143.67 12.5,143.5C 12.4712,138.339 13.3046,133.339 15,128.5C 15.2069,132.089 15.7069,135.589 16.5,139C 26.4944,139.5 36.4944,139.666 46.5,139.5C 46.8333,137.5 47.1667,135.5 47.5,133.5C 52.5671,133.849 57.5671,134.682 62.5,136C 62.9302,136.92 63.2635,137.753 63.5,138.5C 63.419,136.061 63.919,133.728 65,131.5C 66.7985,131.721 68.6318,132.054 70.5,132.5C 71.6956,132.154 71.6956,131.654 70.5,131C 71.448,130.517 72.448,130.351 73.5,130.5C 71.9092,133.431 69.9092,136.098 67.5,138.5C 65.471,141.527 62.8044,143.86 59.5,145.5C 58.3698,146.622 57.7031,147.956 57.5,149.5C 56.5084,149.328 55.8417,149.662 55.5,150.5C 54.5,152.167 53.1667,153.5 51.5,154.5C 50.8333,154.5 50.1667,154.5 49.5,154.5C 49.719,153.325 49.3857,152.325 48.5,151.5C 45.8137,150.132 43.147,148.799 40.5,147.5C 38.4075,147.486 36.5741,148.152 35,149.5C 29,148.167 23,148.167 17,149.5C 14.5163,146.741 13.3497,147.074 13.5,150.5C 10.3551,149.923 8.85515,147.923 9,144.5C 8.50258,147.146 8.33591,149.813 8.5,152.5C 8.16667,152.5 7.83333,152.5 7.5,152.5C 7.5,144.5 7.5,136.5 7.5,128.5C 7.5,126.833 7.5,125.167 7.5,123.5 Z"/></g>
<g><path style="opacity:1" fill="#8e00e5" d="M 81.5,122.5 C 81.8333,122.5 82.1667,122.5 82.5,122.5C 82.8333,122.5 83.1667,122.5 83.5,122.5C 82.075,123.922 81.075,125.589 80.5,127.5C 76.5542,130.779 72.8875,134.446 69.5,138.5C 68.8333,138.5 68.1667,138.5 67.5,138.5C 69.9092,136.098 71.9092,133.431 73.5,130.5C 77.07,128.719 79.7367,126.052 81.5,122.5 Z"/></g>
<g><path style="opacity:0.628" fill="#246eb9" d="M 206.5,103.5 C 207.355,109.03 207.355,114.364 206.5,119.5C 206.828,130.014 206.494,140.347 205.5,150.5C 205.5,149.833 205.5,149.167 205.5,148.5C 205.5,144.167 205.5,139.833 205.5,135.5C 205.172,124.654 205.506,113.987 206.5,103.5 Z"/></g>
<g><path style="opacity:1" fill="#5904fd" d="M 161.5,143.5 C 160.213,146.453 158.213,148.786 155.5,150.5C 155.5,150.833 155.5,151.167 155.5,151.5C 153.167,153.5 150.833,155.5 148.5,157.5C 148.714,153.743 147.714,153.076 145.5,155.5C 144.887,154.02 144.554,152.687 144.5,151.5C 142.889,152.32 142.222,153.654 142.5,155.5C 121.5,155.5 100.5,155.5 79.5,155.5C 79.762,154.022 79.4287,152.689 78.5,151.5C 78.3328,155.926 76.1661,158.592 72,159.5C 70.6955,156.362 68.5288,154.029 65.5,152.5C 64.2867,152.747 63.62,153.414 63.5,154.5C 62.3951,153.4 61.0618,152.733 59.5,152.5C 58.8333,151.5 58.1667,150.5 57.5,149.5C 57.7031,147.956 58.3698,146.622 59.5,145.5C 62.8044,143.86 65.471,141.527 67.5,138.5C 68.1667,138.5 68.8333,138.5 69.5,138.5C 71.0174,138.489 72.1841,137.823 73,136.5C 73.3334,138.047 72.8334,139.38 71.5,140.5C 71.8333,140.833 72.1667,141.167 72.5,141.5C 73.4209,139.244 75.0876,138.244 77.5,138.5C 77.0948,140.65 76.5948,142.65 76,144.5C 76.3333,144.167 76.6667,143.833 77,143.5C 77.3879,144.428 78.0546,145.095 79,145.5C 80.8114,144.922 82.6447,144.422 84.5,144C 83.2068,143.51 81.8734,143.343 80.5,143.5C 80.5,142.167 80.5,140.833 80.5,139.5C 106.741,139.828 132.908,139.495 159,138.5C 160.094,140.078 160.928,141.745 161.5,143.5 Z"/></g>
<g><path style="opacity:1" fill="#0478fc" d="M 169.5,137.5 C 169.414,138.496 169.748,139.329 170.5,140C 168.714,140.196 167.381,141.029 166.5,142.5C 168.365,143.666 170.032,143.333 171.5,141.5C 173.005,138 174.505,138.334 176,142.5C 178.818,141.872 181.485,140.872 184,139.5C 186.247,141.155 188.58,141.488 191,140.5C 192.614,141.817 193.781,143.483 194.5,145.5C 195.458,143.376 196.625,141.376 198,139.5C 198.923,140.759 199.757,142.092 200.5,143.5C 201.086,143.291 201.586,142.957 202,142.5C 202.914,146.185 203.581,145.852 204,141.5C 204.495,143.473 204.662,145.473 204.5,147.5C 203.686,149.631 203.186,151.964 203,154.5C 202.333,152.5 201.667,150.5 201,148.5C 200.125,150.513 198.791,150.513 197,148.5C 196.02,150.059 195.187,151.726 194.5,153.5C 193.667,151.5 192.833,149.5 192,147.5C 185.573,148.868 179.073,150.202 172.5,151.5C 171.452,150.617 170.285,149.95 169,149.5C 167.674,150.799 166.34,152.132 165,153.5C 162.645,150.87 162.145,151.203 163.5,154.5C 162.833,154.5 162.167,154.5 161.5,154.5C 160.878,151.224 158.878,149.891 155.5,150.5C 158.213,148.786 160.213,146.453 161.5,143.5C 161.833,143.5 162.167,143.5 162.5,143.5C 164.878,141.448 167.211,139.448 169.5,137.5 Z"/></g>
<g><path style="opacity:1" fill="#e400d7" d="M 49.5,154.5 C 48.8826,154.389 48.3826,154.056 48,153.5C 46.9914,155.025 46.4914,156.692 46.5,158.5C 45.5,158.5 44.5,158.5 43.5,158.5C 43.719,159.675 43.3857,160.675 42.5,161.5C 41.549,160.674 40.549,160.508 39.5,161C 40.5171,162.049 40.6838,163.216 40,164.5C 39.5831,163.244 38.7498,162.577 37.5,162.5C 38.3376,159.024 37.0043,158.524 33.5,161C 31.6478,164.055 30.6478,163.555 30.5,159.5C 25.8215,159.666 21.1548,159.499 16.5,159C 15.9103,157.491 15.2436,155.991 14.5,154.5C 13.8765,156.966 13.0432,159.299 12,161.5C 11.328,158.822 10.1613,156.489 8.5,154.5C 8.5,153.833 8.5,153.167 8.5,152.5C 8.33591,149.813 8.50258,147.146 9,144.5C 8.85515,147.923 10.3551,149.923 13.5,150.5C 13.3497,147.074 14.5163,146.741 17,149.5C 23,148.167 29,148.167 35,149.5C 36.5741,148.152 38.4075,147.486 40.5,147.5C 43.147,148.799 45.8137,150.132 48.5,151.5C 49.3857,152.325 49.719,153.325 49.5,154.5 Z"/></g>
<g><path style="opacity:1" fill="#0272fb" d="M 204.5,147.5 C 204.5,148.167 204.833,148.5 205.5,148.5C 205.5,149.167 205.5,149.833 205.5,150.5C 205.5,163.5 205.5,176.5 205.5,189.5C 204.539,187.735 204.205,185.735 204.5,183.5C 204.5,176.833 204.5,170.167 204.5,163.5C 204.663,161.143 204.497,158.81 204,156.5C 203.751,157.624 203.251,158.624 202.5,159.5C 201.575,158.359 200.741,158.359 200,159.5C 197.572,155.383 195.739,155.717 194.5,160.5C 193.757,159.092 192.923,157.759 192,156.5C 191.632,157.91 190.799,158.91 189.5,159.5C 185.571,158.567 181.571,158.234 177.5,158.5C 177.719,159.675 177.386,160.675 176.5,161.5C 175.41,160.609 175.41,159.609 176.5,158.5C 172.699,156.954 170.699,158.287 170.5,162.5C 170.167,162.5 169.833,162.5 169.5,162.5C 169.297,160.956 168.63,159.622 167.5,158.5C 167.833,157.833 168.167,157.167 168.5,156.5C 166.709,155.83 165.042,155.163 163.5,154.5C 162.145,151.203 162.645,150.87 165,153.5C 166.34,152.132 167.674,150.799 169,149.5C 170.285,149.95 171.452,150.617 172.5,151.5C 179.073,150.202 185.573,148.868 192,147.5C 192.833,149.5 193.667,151.5 194.5,153.5C 195.187,151.726 196.02,150.059 197,148.5C 198.791,150.513 200.125,150.513 201,148.5C 201.667,150.5 202.333,152.5 203,154.5C 203.186,151.964 203.686,149.631 204.5,147.5 Z"/></g>
<g><path style="opacity:0.376" fill="#3b046b" d="M 55.5,150.5 C 55.8417,149.662 56.5084,149.328 57.5,149.5C 58.1667,150.5 58.8333,151.5 59.5,152.5C 57.9382,152.267 56.6049,151.6 55.5,150.5 Z"/></g>
<g><path style="opacity:0.839" fill="#06458d" d="M 155.5,151.5 C 155.5,151.167 155.5,150.833 155.5,150.5C 158.878,149.891 160.878,151.224 161.5,154.5C 159.947,152.615 157.947,151.615 155.5,151.5 Z"/></g>
<g><path style="opacity:1" fill="#5302fd" d="M 148.5,157.5 C 145.606,157.556 142.939,158.39 140.5,160C 141.38,161.356 141.714,162.856 141.5,164.5C 137.789,164.614 134.455,165.614 131.5,167.5C 130.048,166.698 128.382,166.198 126.5,166C 115.786,165.19 105.12,165.357 94.5,166.5C 93.1456,164.816 91.4789,164.316 89.5,165C 90.1667,165.667 90.8333,166.333 91.5,167C 90.1667,168.667 88.8333,170.333 87.5,172C 88.5505,173.385 89.8839,174.385 91.5,175C 90.9747,175.692 90.3081,176.192 89.5,176.5C 87.8119,174.971 86.4786,173.137 85.5,171C 86.9561,170.577 87.4561,169.744 87,168.5C 85.2438,169.548 83.4104,169.548 81.5,168.5C 80.2867,168.747 79.62,169.414 79.5,170.5C 78.609,169.89 77.609,169.557 76.5,169.5C 75.5,166.5 73.5,164.5 70.5,163.5C 68.5727,160.233 66.2394,157.233 63.5,154.5C 63.62,153.414 64.2867,152.747 65.5,152.5C 68.5288,154.029 70.6955,156.362 72,159.5C 76.1661,158.592 78.3328,155.926 78.5,151.5C 79.4287,152.689 79.762,154.022 79.5,155.5C 100.5,155.5 121.5,155.5 142.5,155.5C 142.222,153.654 142.889,152.32 144.5,151.5C 144.554,152.687 144.887,154.02 145.5,155.5C 147.714,153.076 148.714,153.743 148.5,157.5 Z"/></g>
<g><path style="opacity:0.827" fill="#3d05a1" d="M 59.5,152.5 C 61.0618,152.733 62.3951,153.4 63.5,154.5C 66.2394,157.233 68.5727,160.233 70.5,163.5C 66.5,160.167 62.8333,156.5 59.5,152.5 Z"/></g>
<g><path style="opacity:1" fill="#e200dd" d="M 8.5,154.5 C 10.1613,156.489 11.328,158.822 12,161.5C 13.0432,159.299 13.8765,156.966 14.5,154.5C 15.2436,155.991 15.9103,157.491 16.5,159C 21.1548,159.499 25.8215,159.666 30.5,159.5C 30.6478,163.555 31.6478,164.055 33.5,161C 37.0043,158.524 38.3376,159.024 37.5,162.5C 37.5394,163.583 37.8728,164.583 38.5,165.5C 37.302,165.94 36.1353,166.273 35,166.5C 34.5065,168.134 34.3398,169.801 34.5,171.5C 29.5,171.167 27.1667,173.5 27.5,178.5C 26.1779,178.67 25.0113,178.337 24,177.5C 23.5831,178.756 22.7498,179.423 21.5,179.5C 20.6649,178.057 19.3316,177.057 17.5,176.5C 16.2048,174.672 15.2048,172.672 14.5,170.5C 12.4608,177.59 10.4608,177.924 8.5,171.5C 8.5,165.833 8.5,160.167 8.5,154.5 Z"/></g>
<g><path style="opacity:1" fill="#0d65d1" d="M 161.5,154.5 C 162.167,154.5 162.833,154.5 163.5,154.5C 165.042,155.163 166.709,155.83 168.5,156.5C 168.167,157.167 167.833,157.833 167.5,158.5C 168.63,159.622 169.297,160.956 169.5,162.5C 166.5,160.167 163.833,157.5 161.5,154.5 Z"/></g>
<g><path style="opacity:1" fill="#016cfd" d="M 204.5,163.5 C 203.698,164.952 203.198,166.618 203,168.5C 201.129,167.003 200.129,165.003 200,162.5C 199.798,164.256 199.298,165.922 198.5,167.5C 197.575,166.359 196.741,166.359 196,167.5C 195.667,169.5 195.333,171.5 195,173.5C 194.121,170.182 193.287,166.848 192.5,163.5C 191.5,164.833 190.5,166.167 189.5,167.5C 188.033,168.695 186.533,168.695 185,167.5C 183.699,167.639 182.866,168.305 182.5,169.5C 179.875,169.722 177.209,169.055 174.5,167.5C 173.92,165.251 172.587,163.585 170.5,162.5C 170.699,158.287 172.699,156.954 176.5,158.5C 175.41,159.609 175.41,160.609 176.5,161.5C 177.386,160.675 177.719,159.675 177.5,158.5C 181.571,158.234 185.571,158.567 189.5,159.5C 190.799,158.91 191.632,157.91 192,156.5C 192.923,157.759 193.757,159.092 194.5,160.5C 195.739,155.717 197.572,155.383 200,159.5C 200.741,158.359 201.575,158.359 202.5,159.5C 203.251,158.624 203.751,157.624 204,156.5C 204.497,158.81 204.663,161.143 204.5,163.5 Z"/></g>
<g><path style="opacity:0.898" fill="#4607cc" d="M 148.5,157.5 C 146.5,160.167 144.167,162.5 141.5,164.5C 141.714,162.856 141.38,161.356 140.5,160C 142.939,158.39 145.606,157.556 148.5,157.5 Z"/></g>
<g><path style="opacity:0.595" fill="#123c89" d="M 206.5,119.5 C 207.5,145.501 207.5,171.501 206.5,197.5C 205.209,197.737 204.209,197.404 203.5,196.5C 204.492,196.672 205.158,196.338 205.5,195.5C 205.5,193.5 205.5,191.5 205.5,189.5C 205.5,176.5 205.5,163.5 205.5,150.5C 206.494,140.347 206.828,130.014 206.5,119.5 Z"/></g>
<g><path style="opacity:1" fill="#ba0bb5" d="M 49.5,154.5 C 50.1667,154.5 50.8333,154.5 51.5,154.5C 46.1667,160.5 40.5,166.167 34.5,171.5C 34.3398,169.801 34.5065,168.134 35,166.5C 36.1353,166.273 37.302,165.94 38.5,165.5C 37.8728,164.583 37.5394,163.583 37.5,162.5C 38.7498,162.577 39.5831,163.244 40,164.5C 40.6838,163.216 40.5171,162.049 39.5,161C 40.549,160.508 41.549,160.674 42.5,161.5C 43.3857,160.675 43.719,159.675 43.5,158.5C 44.5,158.5 45.5,158.5 46.5,158.5C 46.4914,156.692 46.9914,155.025 48,153.5C 48.3826,154.056 48.8826,154.389 49.5,154.5 Z"/></g>
<g><path style="opacity:0.682" fill="#094ba6" d="M 169.5,162.5 C 169.833,162.5 170.167,162.5 170.5,162.5C 172.587,163.585 173.92,165.251 174.5,167.5C 172.5,166.167 170.833,164.5 169.5,162.5 Z"/></g>
<g><path style="opacity:1" fill="#0166fc" d="M 204.5,163.5 C 204.5,170.167 204.5,176.833 204.5,183.5C 201.011,180.649 197.011,178.649 192.5,177.5C 191.614,178.325 191.281,179.325 191.5,180.5C 190.448,180.649 189.448,180.483 188.5,180C 186.886,177.873 184.886,176.373 182.5,175.5C 182.5,173.5 182.5,171.5 182.5,169.5C 182.866,168.305 183.699,167.639 185,167.5C 186.533,168.695 188.033,168.695 189.5,167.5C 190.5,166.167 191.5,164.833 192.5,163.5C 193.287,166.848 194.121,170.182 195,173.5C 195.333,171.5 195.667,169.5 196,167.5C 196.741,166.359 197.575,166.359 198.5,167.5C 199.298,165.922 199.798,164.256 200,162.5C 200.129,165.003 201.129,167.003 203,168.5C 203.198,166.618 203.698,164.952 204.5,163.5 Z"/></g>
<g><path style="opacity:0.753" fill="#3708a3" d="M 70.5,163.5 C 73.5,164.5 75.5,166.5 76.5,169.5C 74.1667,167.833 72.1667,165.833 70.5,163.5 Z"/></g>
<g><path style="opacity:1" fill="#4c02fc" d="M 131.5,167.5 C 131.062,167.435 130.728,167.601 130.5,168C 132.037,169.11 132.703,170.61 132.5,172.5C 128.092,172.062 126.425,174.062 127.5,178.5C 127.167,179.5 126.5,180.167 125.5,180.5C 123.856,180.714 122.356,180.38 121,179.5C 120.261,181.221 119.427,182.887 118.5,184.5C 117.232,183.572 115.899,183.405 114.5,184C 116.107,185.049 116.773,186.549 116.5,188.5C 115.127,188.343 113.793,188.51 112.5,189C 112.957,189.414 113.291,189.914 113.5,190.5C 110.176,191.159 108.843,193.159 109.5,196.5C 106.549,196.713 103.882,196.046 101.5,194.5C 100.5,191.5 98.5,189.5 95.5,188.5C 95.1667,186.167 93.8333,184.833 91.5,184.5C 90.8333,181.833 89.1667,180.167 86.5,179.5C 85.1667,176.167 82.8333,173.833 79.5,172.5C 79.5,171.833 79.5,171.167 79.5,170.5C 79.62,169.414 80.2867,168.747 81.5,168.5C 83.4104,169.548 85.2438,169.548 87,168.5C 87.4561,169.744 86.9561,170.577 85.5,171C 86.4786,173.137 87.8119,174.971 89.5,176.5C 90.3081,176.192 90.9747,175.692 91.5,175C 89.8839,174.385 88.5505,173.385 87.5,172C 88.8333,170.333 90.1667,168.667 91.5,167C 90.8333,166.333 90.1667,165.667 89.5,165C 91.4789,164.316 93.1456,164.816 94.5,166.5C 105.12,165.357 115.786,165.19 126.5,166C 128.382,166.198 130.048,166.698 131.5,167.5 Z"/></g>
<g><path style="opacity:1" fill="#c80ccb" d="M 7.5,152.5 C 7.83333,152.5 8.16667,152.5 8.5,152.5C 8.5,153.167 8.5,153.833 8.5,154.5C 8.5,160.167 8.5,165.833 8.5,171.5C 8.33368,178.841 8.50034,186.174 9,193.5C 10.0674,192.809 11.2341,192.309 12.5,192C 11.5494,191.282 11.3828,190.449 12,189.5C 13.0113,190.337 14.1779,190.67 15.5,190.5C 13.8333,192.833 11.8333,194.833 9.5,196.5C 7.51673,182.205 6.85007,167.538 7.5,152.5 Z"/></g>
<g><path style="opacity:1" fill="#4505d3" d="M 141.5,164.5 C 137.167,169.5 132.5,174.167 127.5,178.5C 126.425,174.062 128.092,172.062 132.5,172.5C 132.703,170.61 132.037,169.11 130.5,168C 130.728,167.601 131.062,167.435 131.5,167.5C 134.455,165.614 137.789,164.614 141.5,164.5 Z"/></g>
<g><path style="opacity:0.69" fill="#360598" d="M 76.5,169.5 C 77.609,169.557 78.609,169.89 79.5,170.5C 79.5,171.167 79.5,171.833 79.5,172.5C 78.1667,171.833 77.1667,170.833 76.5,169.5 Z"/></g>
<g><path style="opacity:1" fill="#0b61df" d="M 174.5,167.5 C 177.209,169.055 179.875,169.722 182.5,169.5C 182.5,171.5 182.5,173.5 182.5,175.5C 179.5,173.167 176.833,170.5 174.5,167.5 Z"/></g>
<g><path style="opacity:0.78" fill="#35069f" d="M 79.5,172.5 C 82.8333,173.833 85.1667,176.167 86.5,179.5C 83.8333,177.5 81.5,175.167 79.5,172.5 Z"/></g>
<g><path style="opacity:0.992" fill="#b80bbb" d="M 34.5,171.5 C 32.5,174.167 30.1667,176.5 27.5,178.5C 27.1667,173.5 29.5,171.167 34.5,171.5 Z"/></g>
<g><path style="opacity:0.741" fill="#3206a1" d="M 86.5,179.5 C 89.1667,180.167 90.8333,181.833 91.5,184.5C 89.5,183.167 87.8333,181.5 86.5,179.5 Z"/></g>
<g><path style="opacity:0.941" fill="#0d4fc2" d="M 182.5,175.5 C 184.886,176.373 186.886,177.873 188.5,180C 189.448,180.483 190.448,180.649 191.5,180.5C 192.038,182.117 192.371,183.784 192.5,185.5C 188.833,182.5 185.5,179.167 182.5,175.5 Z"/></g>
<g><path style="opacity:0.945" fill="#b40bb9" d="M 27.5,178.5 C 24.8333,181.833 21.8333,184.833 18.5,187.5C 18.0411,183.618 19.3745,181.618 22.5,181.5C 22.1373,180.817 21.8039,180.15 21.5,179.5C 22.7498,179.423 23.5831,178.756 24,177.5C 25.0113,178.337 26.1779,178.67 27.5,178.5 Z"/></g>
<g><path style="opacity:1" fill="#3b05cf" d="M 125.5,180.5 C 120.5,186.167 115.167,191.5 109.5,196.5C 108.843,193.159 110.176,191.159 113.5,190.5C 113.291,189.914 112.957,189.414 112.5,189C 113.793,188.51 115.127,188.343 116.5,188.5C 116.773,186.549 116.107,185.049 114.5,184C 115.899,183.405 117.232,183.572 118.5,184.5C 119.427,182.887 120.261,181.221 121,179.5C 122.356,180.38 123.856,180.714 125.5,180.5 Z"/></g>
<g><path style="opacity:0.757" fill="#ab22ac" d="M 7.5,128.5 C 7.5,136.5 7.5,144.5 7.5,152.5C 6.85007,167.538 7.51673,182.205 9.5,196.5C 8.7582,198.35 7.7582,199.016 6.5,198.5C 6.16912,174.994 6.50246,151.661 7.5,128.5 Z"/></g>
<g><path style="opacity:0.698" fill="#2f059f" d="M 91.5,184.5 C 93.8333,184.833 95.1667,186.167 95.5,188.5C 93.8333,187.5 92.5,186.167 91.5,184.5 Z"/></g>
<g><path style="opacity:1" fill="#035cfb" d="M 204.5,183.5 C 204.205,185.735 204.539,187.735 205.5,189.5C 205.5,191.5 205.5,193.5 205.5,195.5C 203.356,193.274 200.856,191.274 198,189.5C 197.405,188.101 197.572,186.768 198.5,185.5C 198.192,184.692 197.692,184.025 197,183.5C 195.89,185.037 194.39,185.703 192.5,185.5C 192.371,183.784 192.038,182.117 191.5,180.5C 191.281,179.325 191.614,178.325 192.5,177.5C 197.011,178.649 201.011,180.649 204.5,183.5 Z"/></g>
<g><path style="opacity:1" fill="#df01e6" d="M 21.5,179.5 C 21.8039,180.15 22.1373,180.817 22.5,181.5C 19.3745,181.618 18.0411,183.618 18.5,187.5C 16.8008,187.34 15.1341,187.506 13.5,188C 14.756,188.417 15.4226,189.25 15.5,190.5C 14.1779,190.67 13.0113,190.337 12,189.5C 11.3828,190.449 11.5494,191.282 12.5,192C 11.2341,192.309 10.0674,192.809 9,193.5C 8.50034,186.174 8.33368,178.841 8.5,171.5C 10.4608,177.924 12.4608,177.59 14.5,170.5C 15.2048,172.672 16.2048,174.672 17.5,176.5C 19.3316,177.057 20.6649,178.057 21.5,179.5 Z"/></g>
<g><path style="opacity:1" fill="#aa0ab3" d="M 18.5,187.5 C 17.8333,188.833 16.8333,189.833 15.5,190.5C 15.4226,189.25 14.756,188.417 13.5,188C 15.1341,187.506 16.8008,187.34 18.5,187.5 Z"/></g>
<g><path style="opacity:0.596" fill="#30069e" d="M 95.5,188.5 C 98.5,189.5 100.5,191.5 101.5,194.5C 99.1667,192.833 97.1667,190.833 95.5,188.5 Z"/></g>
<g><path style="opacity:1" fill="#0b53d5" d="M 205.5,195.5 C 205.158,196.338 204.492,196.672 203.5,196.5C 199.5,193.167 195.833,189.5 192.5,185.5C 194.39,185.703 195.89,185.037 197,183.5C 197.692,184.025 198.192,184.692 198.5,185.5C 197.572,186.768 197.405,188.101 198,189.5C 200.856,191.274 203.356,193.274 205.5,195.5 Z"/></g>
<g><path style="opacity:0.722" fill="#350bb6" d="M 101.5,194.5 C 103.882,196.046 106.549,196.713 109.5,196.5C 106.135,199.387 103.468,198.721 101.5,194.5 Z"/></g>
</svg>
