<?xml version="1.0" encoding="UTF-8"?>
<!DOCTYPE svg PUBLIC "-//W3C//DTD SVG 1.1//EN" "http://www.w3.org/Graphics/SVG/1.1/DTD/svg11.dtd">
<svg xmlns="http://www.w3.org/2000/svg" version="1.1" width="240px" height="240px" style="shape-rendering:geometricPrecision; text-rendering:geometricPrecision; image-rendering:optimizeQuality; fill-rule:evenodd; clip-rule:evenodd" xmlns:xlink="http://www.w3.org/1999/xlink">
<g><path style="opacity:0.996" fill="#f4501d" d="M 114.5,24.5 C 119.449,23.9589 124.116,24.7922 128.5,27C 156.333,54.8333 184.167,82.6667 212,110.5C 215.333,116.5 215.333,122.5 212,128.5C 184.167,156.333 156.333,184.167 128.5,212C 122.5,215.333 116.5,215.333 110.5,212C 82.6667,184.167 54.8333,156.333 27,128.5C 23.6667,122.5 23.6667,116.5 27,110.5C 46.1667,91.3333 65.3333,72.1667 84.5,53C 85.1667,52.3333 85.8333,52.3333 86.5,53C 93,59.5 99.5,66 106,72.5C 104.82,78.0223 105.487,83.3556 108,88.5C 109.745,89.9557 111.578,91.289 113.5,92.5C 114.666,110.491 114.833,128.491 114,146.5C 106.484,150.698 103.817,157.031 106,165.5C 113.864,176.588 122.53,177.255 132,167.5C 135.644,158.433 133.311,151.433 125,146.5C 124.5,128.836 124.333,111.17 124.5,93.5C 125.552,93.3505 126.552,93.5172 127.5,94C 133.667,100.167 139.833,106.333 146,112.5C 142.619,124.747 147.119,132.08 159.5,134.5C 170.954,132.544 175.454,125.877 173,114.5C 167.906,106.577 160.74,103.744 151.5,106C 145.333,99.8333 139.167,93.6667 133,87.5C 135.253,71.0863 128.086,63.9196 111.5,66C 105.333,59.8333 99.1667,53.6667 93,47.5C 92.3333,46.5 92.3333,45.5 93,44.5C 99.7616,37.2326 106.928,30.5659 114.5,24.5 Z"/></g>
</svg>
