<?xml version="1.0" encoding="UTF-8"?>
<!DOCTYPE svg PUBLIC "-//W3C//DTD SVG 1.1//EN" "http://www.w3.org/Graphics/SVG/1.1/DTD/svg11.dtd">
<svg xmlns="http://www.w3.org/2000/svg" version="1.1" width="240px" height="240px" style="shape-rendering:geometricPrecision; text-rendering:geometricPrecision; image-rendering:optimizeQuality; fill-rule:evenodd; clip-rule:evenodd" xmlns:xlink="http://www.w3.org/1999/xlink">
<g><path style="opacity:0.989" fill="#e65100" d="M 34.5,24.5 C 91.1667,24.5 147.833,24.5 204.5,24.5C 200.058,81.1929 195.225,137.86 190,194.5C 166.669,201.708 143.169,208.375 119.5,214.5C 95.8309,208.375 72.3309,201.708 49,194.5C 43.7751,137.86 38.9417,81.1929 34.5,24.5 Z"/></g>
<g><path style="opacity:1" fill="#fe6d01" d="M 118.5,174.5 C 118.833,174.5 119.167,174.5 119.5,174.5C 132.832,170.667 145.998,166.334 159,161.5C 160.318,142.5 161.485,123.5 162.5,104.5C 148.167,104.5 133.833,104.5 119.5,104.5C 119.5,97.8333 119.5,91.1667 119.5,84.5C 134.5,84.5 149.5,84.5 164.5,84.5C 164.391,77.8039 164.724,71.1373 165.5,64.5C 150.167,64.5 134.833,64.5 119.5,64.5C 119.5,56.1667 119.5,47.8333 119.5,39.5C 142.167,39.5 164.833,39.5 187.5,39.5C 183.44,87.4959 179.44,135.496 175.5,183.5C 156.919,188.751 138.252,193.751 119.5,198.5C 119.801,190.414 119.467,182.414 118.5,174.5 Z"/></g>
<g><path style="opacity:1" fill="#eeeded" d="M 119.5,64.5 C 119.5,71.1667 119.5,77.8333 119.5,84.5C 111.5,84.5 103.5,84.5 95.5,84.5C 95.6123,91.1802 95.9457,97.8469 96.5,104.5C 104.167,104.5 111.833,104.5 119.5,104.5C 119.5,111.167 119.5,117.833 119.5,124.5C 105.5,124.5 91.5,124.5 77.5,124.5C 76.4218,104.504 75.4218,84.5041 74.5,64.5C 89.5,64.5 104.5,64.5 119.5,64.5 Z"/></g>
<g><path style="opacity:1" fill="#fffefe" d="M 119.5,64.5 C 134.833,64.5 150.167,64.5 165.5,64.5C 164.724,71.1373 164.391,77.8039 164.5,84.5C 149.5,84.5 134.5,84.5 119.5,84.5C 119.5,77.8333 119.5,71.1667 119.5,64.5 Z"/></g>
<g><path style="opacity:1" fill="#e65100" d="M 119.5,84.5 C 119.5,91.1667 119.5,97.8333 119.5,104.5C 111.833,104.5 104.167,104.5 96.5,104.5C 95.9457,97.8469 95.6123,91.1802 95.5,84.5C 103.5,84.5 111.5,84.5 119.5,84.5 Z"/></g>
<g><path style="opacity:1" fill="#fffdfc" d="M 119.5,104.5 C 133.833,104.5 148.167,104.5 162.5,104.5C 161.485,123.5 160.318,142.5 159,161.5C 145.998,166.334 132.832,170.667 119.5,174.5C 119.205,167.412 119.538,160.412 120.5,153.5C 127.135,151.549 133.635,149.216 140,146.5C 140.273,139.133 140.773,131.8 141.5,124.5C 134.167,124.5 126.833,124.5 119.5,124.5C 119.5,117.833 119.5,111.167 119.5,104.5 Z"/></g>
<g><path style="opacity:1" fill="#ff6d02" d="M 119.5,124.5 C 126.833,124.5 134.167,124.5 141.5,124.5C 140.773,131.8 140.273,139.133 140,146.5C 133.635,149.216 127.135,151.549 120.5,153.5C 120.167,153.5 119.833,153.5 119.5,153.5C 119.5,143.833 119.5,134.167 119.5,124.5 Z"/></g>
<g><path style="opacity:1" fill="#eeebea" d="M 119.5,153.5 C 119.833,153.5 120.167,153.5 120.5,153.5C 119.538,160.412 119.205,167.412 119.5,174.5C 119.167,174.5 118.833,174.5 118.5,174.5C 105.684,170.839 93.0175,166.673 80.5,162C 79.3278,152.922 78.6612,143.756 78.5,134.5C 85.1667,134.5 91.8333,134.5 98.5,134.5C 98.203,138.767 98.5363,142.934 99.5,147C 106.019,149.673 112.686,151.84 119.5,153.5 Z"/></g>
</svg>
