<?xml version="1.0" encoding="UTF-8"?>
<!DOCTYPE svg PUBLIC "-//W3C//DTD SVG 1.1//EN" "http://www.w3.org/Graphics/SVG/1.1/DTD/svg11.dtd">
<svg xmlns="http://www.w3.org/2000/svg" version="1.1" width="240px" height="240px" style="shape-rendering:geometricPrecision; text-rendering:geometricPrecision; image-rendering:optimizeQuality; fill-rule:evenodd; clip-rule:evenodd" xmlns:xlink="http://www.w3.org/1999/xlink">
<g><path style="opacity:1" fill="#fed500" d="M 29.5,29.5 C 89.5,29.5 149.5,29.5 209.5,29.5C 209.5,89.5 209.5,149.5 209.5,209.5C 149.5,209.5 89.5,209.5 29.5,209.5C 29.5,149.5 29.5,89.5 29.5,29.5 Z"/></g>
<g><path style="opacity:1" fill="#070501" d="M 109.5,109.5 C 115.167,109.5 120.833,109.5 126.5,109.5C 126.932,131.206 126.432,152.873 125,174.5C 120.577,185.467 112.411,190.467 100.5,189.5C 89.6322,188.228 81.6322,182.728 76.5,173C 80.6667,170.167 84.8333,167.333 89,164.5C 93.7255,172.936 100.059,174.602 108,169.5C 109.476,149.592 109.976,129.592 109.5,109.5 Z"/></g>
<g><path style="opacity:1" fill="#050301" d="M 156.5,109.5 C 168.414,108.183 177.747,112.349 184.5,122C 180.735,124.631 176.902,127.131 173,129.5C 170.511,127.681 168.011,125.848 165.5,124C 156.612,122.221 153.112,125.721 155,134.5C 164.057,139.853 173.223,145.02 182.5,150C 190.401,158.948 191.568,168.781 186,179.5C 180.946,185.524 174.446,188.691 166.5,189C 152.346,190.59 141.68,185.257 134.5,173C 138.667,170.167 142.833,167.333 147,164.5C 149.883,169.05 153.716,172.55 158.5,175C 168.074,176.746 172.574,172.912 172,163.5C 170.833,162.333 169.667,161.167 168.5,160C 159.138,156.572 150.638,151.739 143,145.5C 133.864,128.137 138.364,116.137 156.5,109.5 Z"/></g>
</svg>
