<?xml version="1.0" encoding="UTF-8"?>
<!DOCTYPE svg PUBLIC "-//W3C//DTD SVG 1.1//EN" "http://www.w3.org/Graphics/SVG/1.1/DTD/svg11.dtd">
<svg xmlns="http://www.w3.org/2000/svg" version="1.1" width="240px" height="240px" style="shape-rendering:geometricPrecision; text-rendering:geometricPrecision; image-rendering:optimizeQuality; fill-rule:evenodd; clip-rule:evenodd" xmlns:xlink="http://www.w3.org/1999/xlink">
<g><path style="opacity:1" fill="#4cab4f" d="M 193.5,31.5 C 194.035,33.4456 195.368,34.4456 197.5,34.5C 198.5,34.8333 199.167,35.5 199.5,36.5C 200.08,38.7488 201.413,40.4154 203.5,41.5C 204.338,41.8417 204.672,42.5084 204.5,43.5C 204.415,46.6489 205.415,49.3155 207.5,51.5C 214.211,88.0255 209.378,123.026 193,156.5C 176.372,185.13 152.872,205.963 122.5,219C 120.5,219.667 118.5,219.667 116.5,219C 66.4241,196.919 37.5908,158.752 30,104.5C 29.1674,87.8061 29.5007,71.1394 31,54.5C 32.3125,42.045 38.8125,33.545 50.5,29C 96.5,16.3333 142.5,16.3333 188.5,29C 190.193,29.8466 191.86,30.6799 193.5,31.5 Z"/></g>
<g><path style="opacity:0.996" fill="#63683a" d="M 193.5,31.5 C 195.23,32.0256 196.564,33.0256 197.5,34.5C 195.368,34.4456 194.035,33.4456 193.5,31.5 Z"/></g>
<g><path style="opacity:1" fill="#5c4037" d="M 103.5,34.5 C 128.166,33.8609 152.5,36.3609 176.5,42C 188.655,44.4392 194.488,51.9392 194,64.5C 196.982,94.3055 191.982,122.639 179,149.5C 164.951,173.718 145.118,191.385 119.5,202.5C 76.1258,182.259 51.2925,148.259 45,100.5C 43.9096,84.0812 44.5763,67.7478 47,51.5C 49.4551,46.8508 53.2884,44.0174 58.5,43C 73.4326,39.0871 88.4326,36.2538 103.5,34.5 Z"/></g>
<g><path style="opacity:0.98" fill="#52653c" d="M 199.5,36.5 C 201.587,37.5846 202.92,39.2512 203.5,41.5C 201.413,40.4154 200.08,38.7488 199.5,36.5 Z"/></g>
<g><path style="opacity:1" fill="#597643" d="M 204.5,43.5 C 206.585,45.6845 207.585,48.3511 207.5,51.5C 205.415,49.3155 204.415,46.6489 204.5,43.5 Z"/></g>
<g><path style="opacity:1" fill="#80c583" d="M 120.5,50.5 C 119.171,84.069 119.171,117.736 120.5,151.5C 119.503,151.47 118.836,151.97 118.5,153C 117.256,156.899 115.923,160.733 114.5,164.5C 94.9679,148.421 86.8012,127.754 90,102.5C 94.1427,82.045 103.643,64.545 118.5,50C 119.437,49.3083 120.103,49.475 120.5,50.5 Z"/></g>
<g><path style="opacity:1" fill="#4cae4f" d="M 120.5,50.5 C 142.941,71.7354 152.108,97.7354 148,128.5C 143.915,143.017 136.082,155.017 124.5,164.5C 123.167,160.167 121.833,155.833 120.5,151.5C 119.171,117.736 119.171,84.069 120.5,50.5 Z"/></g>
<g><path style="opacity:1" fill="#d9ecc6" d="M 120.5,151.5 C 121.833,155.833 123.167,160.167 124.5,164.5C 124.5,169.5 124.5,174.5 124.5,179.5C 121.167,179.5 117.833,179.5 114.5,179.5C 114.5,174.5 114.5,169.5 114.5,164.5C 115.923,160.733 117.256,156.899 118.5,153C 118.836,151.97 119.503,151.47 120.5,151.5 Z"/></g>
</svg>
