<?xml version="1.0" encoding="UTF-8"?>
<!DOCTYPE svg PUBLIC "-//W3C//DTD SVG 1.1//EN" "http://www.w3.org/Graphics/SVG/1.1/DTD/svg11.dtd">
<svg xmlns="http://www.w3.org/2000/svg" version="1.1" width="520px" height="512px" style="shape-rendering:geometricPrecision; text-rendering:geometricPrecision; image-rendering:optimizeQuality; fill-rule:evenodd; clip-rule:evenodd" xmlns:xlink="http://www.w3.org/1999/xlink">
<g><path style="opacity:0.981" fill="#00536a" d="M 21.5,-0.5 C 27.5,-0.5 33.5,-0.5 39.5,-0.5C 63.8912,5.36237 85.5579,16.529 104.5,33C 130.486,32.9968 155.153,38.6635 178.5,50C 237.95,83.1162 284.45,129.283 318,188.5C 334.502,230.343 353.502,271.009 375,310.5C 390.394,317.779 405.894,324.945 421.5,332C 446.38,347.533 469.547,365.366 491,385.5C 493.95,390.118 497.284,394.452 501,398.5C 501.798,400.259 501.631,401.926 500.5,403.5C 485.278,408.778 469.611,411.944 453.5,413C 444.424,415.351 435.424,417.851 426.5,420.5C 428.922,425.756 432.589,429.922 437.5,433C 447.666,439.584 458,445.918 468.5,452C 482,461.5 493.5,473 503,486.5C 506.667,489.833 510.333,493.167 514,496.5C 515.565,500.402 517.398,504.069 519.5,507.5C 519.5,508.5 519.5,509.5 519.5,510.5C 508.375,501.766 497.042,493.266 485.5,485C 472.445,477.806 459.112,471.139 445.5,465C 429.524,456.019 415.691,444.519 404,430.5C 400.243,425.228 397.243,419.561 395,413.5C 394.464,411.433 394.964,409.599 396.5,408C 422.321,396.881 449.321,391.881 477.5,393C 475.167,389.333 472.167,386.333 468.5,384C 451.994,373.248 435.661,362.248 419.5,351C 401.926,343.215 383.926,336.548 365.5,331C 361.759,329.262 358.592,326.762 356,323.5C 351.163,316.496 346.829,309.163 343,301.5C 325.983,264.136 308.983,226.803 292,189.5C 262.017,138.517 221.184,98.6836 169.5,70C 158.221,64.3516 146.554,59.6849 134.5,56C 120.821,54.8618 107.154,53.5284 93.5,52C 86.1667,46.6667 78.8333,41.3333 71.5,36C 57.6948,28.3442 43.1948,22.5109 28,18.5C 17.2261,20.0672 13.8927,26.0672 18,36.5C 23.1033,46.3761 29.4366,55.3761 37,63.5C 43.3923,72.228 49.3923,81.228 55,90.5C 62.9433,110.933 70.2766,131.6 77,152.5C 82.2829,166.078 90.2829,177.744 101,187.5C 104.266,192.738 105.266,198.405 104,204.5C 98.8599,218.587 94.5266,232.92 91,247.5C 86.1644,276.814 89.4978,305.148 101,332.5C 103.605,339.935 108.439,345.268 115.5,348.5C 116.442,348.392 117.275,348.059 118,347.5C 119.199,331.24 121.865,315.24 126,299.5C 130.4,288.156 137.233,278.99 146.5,272C 162.872,315.26 185.038,355.094 213,391.5C 219.708,398.375 226.541,405.042 233.5,411.5C 233.167,411.833 232.833,412.167 232.5,412.5C 227.995,410.751 223.995,408.251 220.5,405C 204.032,390.2 187.865,375.033 172,359.5C 168.333,354.5 164.667,349.5 161,344.5C 156.422,335.01 151.589,325.676 146.5,316.5C 143.731,328.045 141.565,339.712 140,351.5C 135.691,366.74 125.857,372.24 110.5,368C 97.7351,359.891 88.5684,348.725 83,334.5C 72.9767,307.623 69.9767,279.957 74,251.5C 76.861,237.056 80.1943,222.723 84,208.5C 84.8917,205.716 86.0584,203.05 87.5,200.5C 76.417,188.019 67.5837,174.019 61,158.5C 53.2656,137.963 45.9323,117.296 39,96.5C 29.4866,82.8089 19.4866,69.4755 9,56.5C 4.97747,50.1263 1.8108,43.4596 -0.5,36.5C -0.5,31.5 -0.5,26.5 -0.5,21.5C 2.84206,10.1579 10.1754,2.82461 21.5,-0.5 Z"/></g>
<g><path style="opacity:0.971" fill="#00536a" d="M 108.5,86.5 C 126.164,87.168 133.331,96.168 130,113.5C 128.75,116.916 126.583,119.583 123.5,121.5C 120.139,116.112 117.306,110.446 115,104.5C 110.454,99.6226 106.287,94.456 102.5,89C 104.502,87.9808 106.502,87.1475 108.5,86.5 Z"/></g>
</svg>
