<?xml version="1.0" encoding="UTF-8"?>
<!DOCTYPE svg PUBLIC "-//W3C//DTD SVG 1.1//EN" "http://www.w3.org/Graphics/SVG/1.1/DTD/svg11.dtd">
<svg xmlns="http://www.w3.org/2000/svg" version="1.1" width="240px" height="240px" style="shape-rendering:geometricPrecision; text-rendering:geometricPrecision; image-rendering:optimizeQuality; fill-rule:evenodd; clip-rule:evenodd" xmlns:xlink="http://www.w3.org/1999/xlink">
<g><path style="opacity:0.985" fill="#21a365" d="M 118.5,11.5 C 121.899,12.0164 125.232,12.8497 128.5,14C 156.082,30.0406 183.582,46.2073 211,62.5C 212.439,64.2746 213.439,66.2746 214,68.5C 214.667,102.5 214.667,136.5 214,170.5C 211.886,174.948 208.719,178.448 204.5,181C 178.329,196.253 151.996,211.253 125.5,226C 119.15,227.733 113.15,226.733 107.5,223C 98.8803,218.034 90.547,212.701 82.5,207C 82.6448,206.228 82.9781,205.561 83.5,205C 88.2835,203.441 92.9501,201.607 97.5,199.5C 104.292,203.064 110.959,206.898 117.5,211C 118.833,211.667 120.167,211.667 121.5,211C 147.167,196.167 172.833,181.333 198.5,166.5C 199.833,135.167 199.833,103.833 198.5,72.5C 172.4,57.062 146.067,42.062 119.5,27.5C 93.0414,42.2308 66.7081,57.2308 40.5,72.5C 39.1667,103.833 39.1667,135.167 40.5,166.5C 48.3381,171.253 56.3381,175.753 64.5,180C 70.8897,181.942 75.7231,180.109 79,174.5C 79.3333,143.167 79.6667,111.833 80,80.5C 85,79.1667 90,79.1667 95,80.5C 95.6667,111.833 95.6667,143.167 95,174.5C 93.3085,189.024 85.1418,196.357 70.5,196.5C 66.3697,196.301 62.3697,195.467 58.5,194C 47.078,188.878 36.578,182.378 27,174.5C 26.3333,173.167 25.6667,171.833 25,170.5C 24.3333,136.5 24.3333,102.5 25,68.5C 25.5611,66.2746 26.5611,64.2746 28,62.5C 55.4177,46.2073 82.9177,30.0406 110.5,14C 113.31,13.2177 115.977,12.3844 118.5,11.5 Z"/></g>
<g><path style="opacity:0.975" fill="#21a365" d="M 134.5,76.5 C 145.12,76.1189 155.453,77.6189 165.5,81C 175.718,86.7733 180.384,95.4399 179.5,107C 174.833,107.667 170.167,107.667 165.5,107C 163.559,97.7231 157.892,92.7231 148.5,92C 141.776,91.226 135.11,91.5594 128.5,93C 121.936,95.0802 119.769,99.2469 122,105.5C 122.903,106.701 124.069,107.535 125.5,108C 138.105,110.611 150.771,112.944 163.5,115C 181.335,119.834 187.168,131.001 181,148.5C 177.222,154.989 171.722,159.489 164.5,162C 151.906,164.875 139.24,165.209 126.5,163C 109.401,159.932 101.401,149.932 102.5,133C 107.167,132.333 111.833,132.333 116.5,133C 117.724,141.89 122.724,147.223 131.5,149C 141.653,150.125 151.653,149.458 161.5,147C 167.259,142.593 167.926,137.593 163.5,132C 160.226,130.798 156.893,129.798 153.5,129C 142.752,127.823 132.085,126.157 121.5,124C 107.493,120.009 101.993,110.843 105,96.5C 107.068,88.0987 112.234,82.5987 120.5,80C 125.224,78.5058 129.891,77.3391 134.5,76.5 Z"/></g>
</svg>
