<?xml version="1.0" encoding="UTF-8"?>
<!DOCTYPE svg PUBLIC "-//W3C//DTD SVG 1.1//EN" "http://www.w3.org/Graphics/SVG/1.1/DTD/svg11.dtd">
<svg xmlns="http://www.w3.org/2000/svg" version="1.1" width="516px" height="426px" style="shape-rendering:geometricPrecision; text-rendering:geometricPrecision; image-rendering:optimizeQuality; fill-rule:evenodd; clip-rule:evenodd" xmlns:xlink="http://www.w3.org/1999/xlink">
<g><path style="opacity:0.996" fill="#2b2848" d="M 346.5,55.5 C 342.971,57.4228 338.971,58.0894 334.5,57.5C 331.167,57.5 327.833,57.5 324.5,57.5C 317.687,56.5088 310.687,56.1755 303.5,56.5C 299.366,55.5151 295.032,55.1818 290.5,55.5C 262.831,55.3334 235.165,55.5 207.5,56C 202.649,56.1745 197.982,56.6745 193.5,57.5C 189.5,57.5 185.5,57.5 181.5,57.5C 173.316,57.8257 165.316,57.4924 157.5,56.5C 220.678,50.3748 283.678,50.0414 346.5,55.5 Z"/></g>
<g><path style="opacity:1" fill="#dedfdd" d="M 239.5,56.5 C 242.5,56.5 245.5,56.5 248.5,56.5C 247.432,57.4345 246.099,57.7678 244.5,57.5C 243.398,72.8081 243.231,88.1414 244,103.5C 245.276,106.366 245.443,109.2 244.5,112C 245.327,131.093 245.827,150.26 246,169.5C 247.682,170.865 247.849,172.365 246.5,174C 250.574,175.54 250.907,176.873 247.5,178C 253.412,179.372 259.412,179.206 265.5,177.5C 266.327,170.887 267.327,164.554 268.5,158.5C 266.027,156.902 266.027,155.402 268.5,154C 267.865,150.619 267.531,146.786 267.5,142.5C 268.572,139.727 269.572,136.893 270.5,134C 269.54,115.581 269.206,96.9143 269.5,78C 269.63,76.9412 270.13,76.1079 271,75.5C 271.499,70.1771 271.666,64.8437 271.5,59.5C 272.675,59.719 273.675,59.3857 274.5,58.5C 272.709,57.8302 271.042,57.1635 269.5,56.5C 273.167,56.5 276.833,56.5 280.5,56.5C 283.167,58.1734 285.167,60.5067 286.5,63.5C 285.017,65.9458 283.851,65.6124 283,62.5C 282.667,63.1667 282.333,63.8333 282,64.5C 281.599,96.5016 281.099,128.502 280.5,160.5C 280.484,169.232 279.818,177.732 278.5,186C 278.833,186.333 279.167,186.667 279.5,187C 275.842,188.712 275.175,190.878 277.5,193.5C 272.91,191.561 268.577,189.227 264.5,186.5C 260.332,182.666 255.332,181 249.5,181.5C 247.485,180.076 245.152,179.41 242.5,179.5C 242.167,179.5 241.833,179.5 241.5,179.5C 239.195,177.401 236.528,176.068 233.5,175.5C 234.598,174.603 234.598,173.77 233.5,173C 234.833,172.333 236.167,171.667 237.5,171C 236.234,170.691 235.067,170.191 234,169.5C 233.463,160.825 233.63,152.159 234.5,143.5C 234.533,137.699 233.7,132.032 232,126.5C 231.827,104.927 231.327,83.4272 230.5,62C 231.438,60.9367 232.438,59.7701 233.5,58.5C 235.631,57.8313 237.631,57.1646 239.5,56.5 Z"/></g>
<g><path style="opacity:1" fill="#dcddda" d="M 248.5,56.5 C 255.5,56.5 262.5,56.5 269.5,56.5C 271.042,57.1635 272.709,57.8302 274.5,58.5C 273.675,59.3857 272.675,59.719 271.5,59.5C 271.666,64.8437 271.499,70.1771 271,75.5C 270.13,76.1079 269.63,76.9412 269.5,78C 269.206,96.9143 269.54,115.581 270.5,134C 269.572,136.893 268.572,139.727 267.5,142.5C 267.531,146.786 267.865,150.619 268.5,154C 266.027,155.402 266.027,156.902 268.5,158.5C 267.327,164.554 266.327,170.887 265.5,177.5C 259.412,179.206 253.412,179.372 247.5,178C 250.907,176.873 250.574,175.54 246.5,174C 247.849,172.365 247.682,170.865 246,169.5C 245.827,150.26 245.327,131.093 244.5,112C 245.443,109.2 245.276,106.366 244,103.5C 243.231,88.1414 243.398,72.8081 244.5,57.5C 246.099,57.7678 247.432,57.4345 248.5,56.5 Z"/></g>
<g><path style="opacity:1" fill="#e5e4e3" d="M 290.5,55.5 C 295.032,55.1818 299.366,55.5151 303.5,56.5C 300.833,56.5 298.167,56.5 295.5,56.5C 295.343,57.8734 295.51,59.2068 296,60.5C 297.299,60.0338 298.799,60.0338 300.5,60.5C 301.138,65.3709 300.971,70.3709 300,75.5C 299.667,89.1667 299.333,102.833 299,116.5C 297.193,118.706 296.693,121.039 297.5,123.5C 296.202,130.666 295.535,138 295.5,145.5C 295.287,162.746 294.62,179.913 293.5,197C 294.815,198.395 294.481,199.395 292.5,200C 292.957,200.414 293.291,200.914 293.5,201.5C 292.398,202.176 291.398,202.842 290.5,203.5C 285.617,200.891 281.284,197.557 277.5,193.5C 275.175,190.878 275.842,188.712 279.5,187C 279.167,186.667 278.833,186.333 278.5,186C 279.818,177.732 280.484,169.232 280.5,160.5C 281.099,128.502 281.599,96.5016 282,64.5C 282.333,63.8333 282.667,63.1667 283,62.5C 283.851,65.6124 285.017,65.9458 286.5,63.5C 285.167,60.5067 283.167,58.1734 280.5,56.5C 284.042,56.8128 287.375,56.4794 290.5,55.5 Z"/></g>
<g><path style="opacity:1" fill="#6a6981" d="M 152.5,57.5 C 153.919,56.5489 155.585,56.2155 157.5,56.5C 165.316,57.4924 173.316,57.8257 181.5,57.5C 175.167,58.1667 168.833,58.8333 162.5,59.5C 158.751,59.7506 155.085,60.4172 151.5,61.5C 150.167,61.5 148.833,61.5 147.5,61.5C 150.402,60.3943 153.402,59.2276 156.5,58C 155.207,57.51 153.873,57.3433 152.5,57.5 Z"/></g>
<g><path style="opacity:1" fill="#ededea" d="M 290.5,55.5 C 287.375,56.4794 284.042,56.8128 280.5,56.5C 276.833,56.5 273.167,56.5 269.5,56.5C 262.5,56.5 255.5,56.5 248.5,56.5C 245.5,56.5 242.5,56.5 239.5,56.5C 230.165,56.902 220.832,57.402 211.5,58C 212.167,58.6667 212.833,59.3333 213.5,60C 212.719,75.1827 212.386,89.8494 212.5,104C 213,104.5 213.5,105 214,105.5C 214.333,119.833 214.667,134.167 215,148.5C 215.624,150.754 216.957,152.421 219,153.5C 219.167,156.167 219.333,158.833 219.5,161.5C 219.078,164.873 219.078,168.04 219.5,171C 216.937,172.079 214.271,172.579 211.5,172.5C 209.444,171.784 207.277,171.117 205,170.5C 204.223,163.177 203.556,155.843 203,148.5C 201.246,145.903 200.079,143.069 199.5,140C 199.276,131.603 199.609,123.269 200.5,115C 199.58,112.159 198.58,109.326 197.5,106.5C 198.004,100.751 198.837,95.0841 200,89.5C 200.746,79.9799 200.579,70.8132 199.5,62C 200.313,60.6861 201.313,59.5195 202.5,58.5C 199.572,57.5159 196.572,57.1826 193.5,57.5C 197.982,56.6745 202.649,56.1745 207.5,56C 235.165,55.5 262.831,55.3334 290.5,55.5 Z"/></g>
<g><path style="opacity:1" fill="#e7e6e5" d="M 239.5,56.5 C 237.631,57.1646 235.631,57.8313 233.5,58.5C 232.438,59.7701 231.438,60.9367 230.5,62C 231.327,83.4272 231.827,104.927 232,126.5C 233.7,132.032 234.533,137.699 234.5,143.5C 233.63,152.159 233.463,160.825 234,169.5C 235.067,170.191 236.234,170.691 237.5,171C 236.167,171.667 234.833,172.333 233.5,173C 234.598,173.77 234.598,174.603 233.5,175.5C 229.865,174.886 226.198,174.552 222.5,174.5C 211.518,173.714 200.518,173.381 189.5,173.5C 192.625,172.521 195.958,172.187 199.5,172.5C 203.5,172.5 207.5,172.5 211.5,172.5C 214.271,172.579 216.937,172.079 219.5,171C 219.078,168.04 219.078,164.873 219.5,161.5C 219.333,158.833 219.167,156.167 219,153.5C 216.957,152.421 215.624,150.754 215,148.5C 214.667,134.167 214.333,119.833 214,105.5C 213.5,105 213,104.5 212.5,104C 212.386,89.8494 212.719,75.1827 213.5,60C 212.833,59.3333 212.167,58.6667 211.5,58C 220.832,57.402 230.165,56.902 239.5,56.5 Z"/></g>
<g><path style="opacity:0.718" fill="#5c5b73" d="M 346.5,55.5 C 351.049,55.6245 355.382,56.2911 359.5,57.5C 359.062,57.4346 358.728,57.6012 358.5,58C 359.858,58.9344 361.192,59.7677 362.5,60.5C 361.167,60.5 359.833,60.5 358.5,60.5C 353.729,58.6821 348.729,58.0154 343.5,58.5C 340.287,58.81 337.287,58.4767 334.5,57.5C 338.971,58.0894 342.971,57.4228 346.5,55.5 Z"/></g>
<g><path style="opacity:0.824" fill="#272344" d="M 152.5,57.5 C 153.873,57.3433 155.207,57.51 156.5,58C 153.402,59.2276 150.402,60.3943 147.5,61.5C 139.934,62.0516 133.267,64.7183 127.5,69.5C 127.79,65.0388 130.123,62.2055 134.5,61C 140.346,58.9975 146.346,57.8308 152.5,57.5 Z"/></g>
<g><path style="opacity:1" fill="#f0f1ee" d="M 303.5,56.5 C 310.687,56.1755 317.687,56.5088 324.5,57.5C 321.482,57.3354 318.482,57.502 315.5,58C 318.187,59.1951 320.854,59.3618 323.5,58.5C 326.009,60.5896 325.675,62.4229 322.5,64C 323.167,64.3333 323.833,64.6667 324.5,65C 323.833,70.3333 323.167,75.6667 322.5,81C 324.997,82.8603 326.664,84.8603 327.5,87C 324.833,87.6667 324.833,88.3333 327.5,89C 325.706,90.4728 324.04,91.3062 322.5,91.5C 323.025,92.1924 323.692,92.6924 324.5,93C 323.692,93.3076 323.025,93.8076 322.5,94.5C 323.181,101.117 323.181,106.95 322.5,112C 321.833,112.667 321.167,113.333 320.5,114C 320.833,117 321.167,120 321.5,123C 320.5,124 319.5,125 318.5,126C 321.167,126.667 321.167,127.333 318.5,128C 321.167,128.667 321.167,129.333 318.5,130C 321.167,130.667 321.167,131.333 318.5,132C 319.167,132.333 319.833,132.667 320.5,133C 318.125,134.538 316.792,136.705 316.5,139.5C 317.581,142.24 318.581,145.073 319.5,148C 318.425,154.029 317.425,160.029 316.5,166C 317.553,173.438 317.553,180.938 316.5,188.5C 313.512,188.155 312.179,189.488 312.5,192.5C 313.957,207.434 312.957,222.101 309.5,236.5C 310.014,239.644 310.847,242.644 312,245.5C 312.333,244.167 312.667,242.833 313,241.5C 313.746,247.319 312.413,252.985 309,258.5C 308.667,268.5 308.333,278.5 308,288.5C 307.5,289 307,289.5 306.5,290C 307.167,293.667 307.833,297.333 308.5,301C 307.691,306.417 307.191,311.917 307,317.5C 306.667,317.167 306.333,316.833 306,316.5C 305.5,317.667 304.667,318.5 303.5,319C 304.43,320.194 305.097,321.527 305.5,323C 305.261,325.486 304.927,327.986 304.5,330.5C 305.376,331.251 306.376,331.751 307.5,332C 306.5,332.833 305.5,333.667 304.5,334.5C 305.758,333.984 306.758,334.65 307.5,336.5C 307.291,337.086 306.957,337.586 306.5,338C 302.167,338.333 297.833,338.667 293.5,339C 294.416,339.278 295.082,339.778 295.5,340.5C 294.167,340.5 292.833,340.5 291.5,340.5C 287.298,340.817 283.298,340.483 279.5,339.5C 281.01,337.807 282.677,336.973 284.5,337C 283.833,336 283.167,335 282.5,334C 283.715,328.067 283.715,321.4 282.5,314C 282.667,312.833 282.833,311.667 283,310.5C 284.362,309.075 285.862,308.242 287.5,308C 287.35,305.558 287.016,303.058 286.5,300.5C 286.977,299.522 287.643,298.689 288.5,298C 287.484,296.323 286.484,294.657 285.5,293C 285.913,291.204 285.913,289.537 285.5,288C 287.072,285.962 288.072,283.629 288.5,281C 288.5,279.667 288.5,278.333 288.5,277C 286.382,276.74 284.716,275.74 283.5,274C 284.328,273.085 285.328,272.419 286.5,272C 285.243,269.924 285.576,268.09 287.5,266.5C 290.529,263.141 293.529,259.808 296.5,256.5C 297.5,256.5 298.5,256.5 299.5,256.5C 300.176,252.813 301.676,249.48 304,246.5C 304.821,239.321 304.655,232.321 303.5,225.5C 302.833,224.5 302.167,223.5 301.5,222.5C 301.54,219.575 300.707,216.909 299,214.5C 295.951,210.957 293.118,207.291 290.5,203.5C 291.398,202.842 292.398,202.176 293.5,201.5C 293.291,200.914 292.957,200.414 292.5,200C 294.481,199.395 294.815,198.395 293.5,197C 294.62,179.913 295.287,162.746 295.5,145.5C 295.535,138 296.202,130.666 297.5,123.5C 296.693,121.039 297.193,118.706 299,116.5C 299.333,102.833 299.667,89.1667 300,75.5C 300.971,70.3709 301.138,65.3709 300.5,60.5C 298.799,60.0338 297.299,60.0338 296,60.5C 295.51,59.2068 295.343,57.8734 295.5,56.5C 298.167,56.5 300.833,56.5 303.5,56.5 Z"/></g>
<g><path style="opacity:1" fill="#f9faf7" d="M 324.5,57.5 C 327.833,57.5 331.167,57.5 334.5,57.5C 337.287,58.4767 340.287,58.81 343.5,58.5C 343.47,59.4972 343.97,60.1639 345,60.5C 349.096,61.0464 352.596,62.0464 355.5,63.5C 354.184,64.8066 353.184,66.3066 352.5,68C 354.243,98.0909 355.576,129.091 356.5,161C 356.597,172.27 356.264,183.436 355.5,194.5C 356.106,196.709 356.773,198.876 357.5,201C 357.096,203.07 357.096,205.236 357.5,207.5C 356.865,208.966 356.031,210.3 355,211.5C 355.051,229.078 354.885,246.078 354.5,262.5C 356.167,262.5 357.833,262.5 359.5,262.5C 357.833,269.839 356.166,277.172 354.5,284.5C 353.836,283.352 353.669,282.019 354,280.5C 352.844,281.993 352.01,281.826 351.5,280C 352.399,275.877 353.065,271.71 353.5,267.5C 352.711,245.509 352.545,223.509 353,201.5C 352.667,201.167 352.333,200.833 352,200.5C 351.667,203.5 351.333,206.5 351,209.5C 350.833,207.333 350.667,205.167 350.5,203C 351.349,197.857 352.016,192.691 352.5,187.5C 352.134,177.976 352.134,168.309 352.5,158.5C 351.167,158.5 349.833,158.5 348.5,158.5C 348.5,140.833 348.5,123.167 348.5,105.5C 344.833,105.5 341.167,105.5 337.5,105.5C 337.5,125.833 337.5,146.167 337.5,166.5C 335.5,166.5 333.5,166.5 331.5,166.5C 330.169,181.463 329.503,196.463 329.5,211.5C 328.167,211.5 326.833,211.5 325.5,211.5C 325.939,222.012 326.272,231.178 326.5,239C 325.045,241.016 323.045,241.849 320.5,241.5C 319.891,271.502 319.225,301.502 318.5,331.5C 317.127,331.343 315.793,331.51 314.5,332C 316.5,332.333 318.5,332.667 320.5,333C 319.237,334.705 318.903,336.372 319.5,338C 314.094,339.068 308.761,339.901 303.5,340.5C 300.833,340.5 298.167,340.5 295.5,340.5C 295.082,339.778 294.416,339.278 293.5,339C 297.833,338.667 302.167,338.333 306.5,338C 306.957,337.586 307.291,337.086 307.5,336.5C 306.758,334.65 305.758,333.984 304.5,334.5C 305.5,333.667 306.5,332.833 307.5,332C 306.376,331.751 305.376,331.251 304.5,330.5C 304.927,327.986 305.261,325.486 305.5,323C 305.097,321.527 304.43,320.194 303.5,319C 304.667,318.5 305.5,317.667 306,316.5C 306.333,316.833 306.667,317.167 307,317.5C 307.191,311.917 307.691,306.417 308.5,301C 307.833,297.333 307.167,293.667 306.5,290C 307,289.5 307.5,289 308,288.5C 308.333,278.5 308.667,268.5 309,258.5C 312.413,252.985 313.746,247.319 313,241.5C 312.667,242.833 312.333,244.167 312,245.5C 310.847,242.644 310.014,239.644 309.5,236.5C 312.957,222.101 313.957,207.434 312.5,192.5C 312.179,189.488 313.512,188.155 316.5,188.5C 317.553,180.938 317.553,173.438 316.5,166C 317.425,160.029 318.425,154.029 319.5,148C 318.581,145.073 317.581,142.24 316.5,139.5C 316.792,136.705 318.125,134.538 320.5,133C 319.833,132.667 319.167,132.333 318.5,132C 321.167,131.333 321.167,130.667 318.5,130C 321.167,129.333 321.167,128.667 318.5,128C 321.167,127.333 321.167,126.667 318.5,126C 319.5,125 320.5,124 321.5,123C 321.167,120 320.833,117 320.5,114C 321.167,113.333 321.833,112.667 322.5,112C 323.181,106.95 323.181,101.117 322.5,94.5C 323.025,93.8076 323.692,93.3076 324.5,93C 323.692,92.6924 323.025,92.1924 322.5,91.5C 324.04,91.3062 325.706,90.4728 327.5,89C 324.833,88.3333 324.833,87.6667 327.5,87C 326.664,84.8603 324.997,82.8603 322.5,81C 323.167,75.6667 323.833,70.3333 324.5,65C 323.833,64.6667 323.167,64.3333 322.5,64C 325.675,62.4229 326.009,60.5896 323.5,58.5C 320.854,59.3618 318.187,59.1951 315.5,58C 318.482,57.502 321.482,57.3354 324.5,57.5 Z"/></g>
<g><path style="opacity:1" fill="#f4f5f2" d="M 181.5,57.5 C 185.5,57.5 189.5,57.5 193.5,57.5C 196.572,57.1826 199.572,57.5159 202.5,58.5C 201.313,59.5195 200.313,60.6861 199.5,62C 200.579,70.8132 200.746,79.9799 200,89.5C 198.837,95.0841 198.004,100.751 197.5,106.5C 198.58,109.326 199.58,112.159 200.5,115C 199.609,123.269 199.276,131.603 199.5,140C 200.079,143.069 201.246,145.903 203,148.5C 203.556,155.843 204.223,163.177 205,170.5C 207.277,171.117 209.444,171.784 211.5,172.5C 207.5,172.5 203.5,172.5 199.5,172.5C 197.393,171.532 195.059,171.198 192.5,171.5C 192.456,160.124 192.456,148.957 192.5,138C 187.771,134.756 186.437,130.423 188.5,125C 186.889,119.033 186.056,112.866 186,106.5C 185.309,103.631 183.809,100.798 181.5,98C 182.442,94.6775 182.775,91.5109 182.5,88.5C 181.833,87.1667 181.167,85.8333 180.5,84.5C 180.5,79.1667 180.5,73.8333 180.5,68.5C 180.977,67.5224 181.643,66.6891 182.5,66C 181.253,64.5064 181.253,63.0064 182.5,61.5C 184.115,60.846 185.782,60.346 187.5,60C 187,59.5 186.5,59 186,58.5C 184.333,59.1667 182.667,59.8333 181,60.5C 180.667,60.1667 180.333,59.8333 180,59.5C 177.26,60.2822 174.426,60.7822 171.5,61C 169.966,63.3807 167.966,63.8807 165.5,62.5C 166.376,61.7492 167.376,61.2492 168.5,61C 166.414,60.6847 164.414,60.1847 162.5,59.5C 168.833,58.8333 175.167,58.1667 181.5,57.5 Z"/></g>
<g><path style="opacity:0.824" fill="#282445" d="M 359.5,57.5 C 367.652,57.9546 375.319,60.1213 382.5,64C 383.71,65.0391 384.71,66.2058 385.5,67.5C 384.833,68.1667 384.167,68.8333 383.5,69.5C 382.327,67.4959 380.66,65.9959 378.5,65C 373.216,63.1802 367.883,61.6802 362.5,60.5C 361.192,59.7677 359.858,58.9344 358.5,58C 358.728,57.6012 359.062,57.4346 359.5,57.5 Z"/></g>
<g><path style="opacity:1" fill="#efeeed" d="M 147.5,61.5 C 148.833,61.5 150.167,61.5 151.5,61.5C 151.389,62.1174 151.056,62.6174 150.5,63C 153.193,63.343 155.193,64.6763 156.5,67C 155.317,69.1551 155.65,71.1551 157.5,73C 156.874,73.7504 156.374,74.5838 156,75.5C 155.739,93.0093 155.239,110.509 154.5,128C 154.555,130.557 154.888,133.057 155.5,135.5C 154.815,148.481 154.148,161.481 153.5,174.5C 155.133,176.387 154.8,177.887 152.5,179C 153.563,180.188 154.897,180.688 156.5,180.5C 154.852,181.927 152.852,182.76 150.5,183C 149.29,184.039 148.29,185.206 147.5,186.5C 142.833,189.167 139.167,192.833 136.5,197.5C 131.124,207.555 128.791,218.389 129.5,230C 129.158,239.466 130.658,248.633 134,257.5C 134.608,259.066 135.442,260.4 136.5,261.5C 136.328,262.492 136.662,263.158 137.5,263.5C 138.69,267.026 140.69,270.026 143.5,272.5C 147.131,276.31 151.131,279.643 155.5,282.5C 153.891,282.094 152.557,282.094 151.5,282.5C 153.019,284.556 153.853,286.89 154,289.5C 154.667,302.5 154.667,315.5 154,328.5C 152.12,330.764 152.62,332.43 155.5,333.5C 154.167,333.5 152.833,333.5 151.5,333.5C 143.666,332.478 136,330.811 128.5,328.5C 128.167,327.5 127.5,326.833 126.5,326.5C 126.5,323.167 126.5,319.833 126.5,316.5C 126.813,312.958 126.479,309.625 125.5,306.5C 125.667,292.163 125.5,277.829 125,263.5C 122.087,252.025 120.92,240.358 121.5,228.5C 121.667,221.833 121.833,215.167 122,208.5C 123.642,201.932 124.642,195.265 125,188.5C 125.194,175.301 125.694,162.134 126.5,149C 126.735,142.482 126.402,135.982 125.5,129.5C 126.807,120.803 126.807,112.137 125.5,103.5C 126.261,92.2229 126.928,80.8895 127.5,69.5C 133.267,64.7183 139.934,62.0516 147.5,61.5 Z"/></g>
<g><path style="opacity:1" fill="#c4aeca" d="M 358.5,60.5 C 359.833,60.5 361.167,60.5 362.5,60.5C 367.883,61.6802 373.216,63.1802 378.5,65C 380.66,65.9959 382.327,67.4959 383.5,69.5C 383.373,107.431 383.373,145.431 383.5,183.5C 382.977,190.263 381.81,196.93 380,203.5C 376.793,214.011 373.293,223.678 369.5,232.5C 371.289,208.878 371.956,185.212 371.5,161.5C 370.661,128.749 368.495,96.082 365,63.5C 363.989,62.6634 362.822,62.33 361.5,62.5C 360.5,61.8333 359.5,61.1667 358.5,60.5 Z"/></g>
<g><path style="opacity:1" fill="#f3f3f1" d="M 343.5,58.5 C 348.729,58.0154 353.729,58.6821 358.5,60.5C 359.5,61.1667 360.5,61.8333 361.5,62.5C 364.274,88.7694 366.274,115.103 367.5,141.5C 369.773,177.644 368.44,213.644 363.5,249.5C 362.167,253.833 360.833,258.167 359.5,262.5C 357.833,262.5 356.167,262.5 354.5,262.5C 354.885,246.078 355.051,229.078 355,211.5C 356.031,210.3 356.865,208.966 357.5,207.5C 357.096,205.236 357.096,203.07 357.5,201C 356.773,198.876 356.106,196.709 355.5,194.5C 356.264,183.436 356.597,172.27 356.5,161C 355.576,129.091 354.243,98.0909 352.5,68C 353.184,66.3066 354.184,64.8066 355.5,63.5C 352.596,62.0464 349.096,61.0464 345,60.5C 343.97,60.1639 343.47,59.4972 343.5,58.5 Z"/></g>
<g><path style="opacity:1" fill="#b1a3b8" d="M 385.5,67.5 C 385.5,106.5 385.5,145.5 385.5,184.5C 384.833,184.167 384.167,183.833 383.5,183.5C 383.373,145.431 383.373,107.431 383.5,69.5C 384.167,68.8333 384.833,68.1667 385.5,67.5 Z"/></g>
<g><path style="opacity:1" fill="#764b89" d="M 361.5,62.5 C 362.822,62.33 363.989,62.6634 365,63.5C 368.495,96.082 370.661,128.749 371.5,161.5C 370.674,156.684 370.174,151.684 370,146.5C 369.95,144.256 369.117,142.589 367.5,141.5C 366.274,115.103 364.274,88.7694 361.5,62.5 Z"/></g>
<g><path style="opacity:1" fill="#fafbf8" d="M 199.5,172.5 C 195.958,172.187 192.625,172.521 189.5,173.5C 187.585,173.216 185.919,173.549 184.5,174.5C 183.833,174.5 183.167,174.5 182.5,174.5C 177.464,174.302 172.797,175.302 168.5,177.5C 164.322,177.878 160.322,178.878 156.5,180.5C 154.897,180.688 153.563,180.188 152.5,179C 154.8,177.887 155.133,176.387 153.5,174.5C 154.148,161.481 154.815,148.481 155.5,135.5C 154.888,133.057 154.555,130.557 154.5,128C 155.239,110.509 155.739,93.0093 156,75.5C 156.374,74.5838 156.874,73.7504 157.5,73C 155.65,71.1551 155.317,69.1551 156.5,67C 155.193,64.6763 153.193,63.343 150.5,63C 151.056,62.6174 151.389,62.1174 151.5,61.5C 155.085,60.4172 158.751,59.7506 162.5,59.5C 164.414,60.1847 166.414,60.6847 168.5,61C 167.376,61.2492 166.376,61.7492 165.5,62.5C 167.966,63.8807 169.966,63.3807 171.5,61C 174.426,60.7822 177.26,60.2822 180,59.5C 180.333,59.8333 180.667,60.1667 181,60.5C 182.667,59.8333 184.333,59.1667 186,58.5C 186.5,59 187,59.5 187.5,60C 185.782,60.346 184.115,60.846 182.5,61.5C 181.253,63.0064 181.253,64.5064 182.5,66C 181.643,66.6891 180.977,67.5224 180.5,68.5C 180.5,73.8333 180.5,79.1667 180.5,84.5C 181.167,85.8333 181.833,87.1667 182.5,88.5C 182.775,91.5109 182.442,94.6775 181.5,98C 183.809,100.798 185.309,103.631 186,106.5C 186.056,112.866 186.889,119.033 188.5,125C 186.437,130.423 187.771,134.756 192.5,138C 192.456,148.957 192.456,160.124 192.5,171.5C 195.059,171.198 197.393,171.532 199.5,172.5 Z"/></g>
<g><path style="opacity:1" fill="#fdfdfb" d="M 354.5,284.5 C 349.591,302.194 346.257,320.194 344.5,338.5C 331.079,340.454 317.412,341.121 303.5,340.5C 308.761,339.901 314.094,339.068 319.5,338C 318.903,336.372 319.237,334.705 320.5,333C 318.5,332.667 316.5,332.333 314.5,332C 315.793,331.51 317.127,331.343 318.5,331.5C 319.225,301.502 319.891,271.502 320.5,241.5C 323.045,241.849 325.045,241.016 326.5,239C 326.272,231.178 325.939,222.012 325.5,211.5C 326.833,211.5 328.167,211.5 329.5,211.5C 329.503,196.463 330.169,181.463 331.5,166.5C 333.5,166.5 335.5,166.5 337.5,166.5C 337.5,146.167 337.5,125.833 337.5,105.5C 341.167,105.5 344.833,105.5 348.5,105.5C 348.5,123.167 348.5,140.833 348.5,158.5C 349.833,158.5 351.167,158.5 352.5,158.5C 352.134,168.309 352.134,177.976 352.5,187.5C 352.016,192.691 351.349,197.857 350.5,203C 350.667,205.167 350.833,207.333 351,209.5C 351.333,206.5 351.667,203.5 352,200.5C 352.333,200.833 352.667,201.167 353,201.5C 352.545,223.509 352.711,245.509 353.5,267.5C 353.065,271.71 352.399,275.877 351.5,280C 352.01,281.826 352.844,281.993 354,280.5C 353.669,282.019 353.836,283.352 354.5,284.5 Z"/></g>
<g><path style="opacity:1" fill="#2a294e" d="M 75.5,268.5 C 73.7096,264.268 72.3763,260.101 71.5,256C 71.8333,255.667 72.1667,255.333 72.5,255C 71.8513,246.741 70.8513,238.575 69.5,230.5C 70.3688,223.59 70.3688,216.757 69.5,210C 71.1879,206.052 72.1879,201.885 72.5,197.5C 71.6394,194.449 72.1394,191.449 74,188.5C 74.3333,189.167 74.6667,189.833 75,190.5C 75.2734,188.899 75.7734,187.399 76.5,186C 76.1667,185 75.8333,184 75.5,183C 76.2491,178.456 77.5824,174.456 79.5,171C 78.1667,170.333 78.1667,169.667 79.5,169C 78.8333,168.667 78.1667,168.333 77.5,168C 78.8031,164.908 80.8031,162.241 83.5,160C 83.3349,158.883 83.0016,157.716 82.5,156.5C 84.6779,153.823 87.0113,151.323 89.5,149C 88.9394,147.434 89.6061,146.101 91.5,145C 91.1667,144.667 90.8333,144.333 90.5,144C 92.0037,142.509 92.8371,140.676 93,138.5C 96.5089,136.33 99.0089,133.83 100.5,131C 97.8333,130.333 97.8333,129.667 100.5,129C 99.9535,128.075 99.2868,127.242 98.5,126.5C 94.4979,128.67 91.3313,131.67 89,135.5C 88.6667,135.167 88.3333,134.833 88,134.5C 86.5676,138.464 84.2342,141.797 81,144.5C 79.3931,149.682 77.2264,154.515 74.5,159C 74.8333,159.333 75.1667,159.667 75.5,160C 73.9733,161.032 72.64,162.199 71.5,163.5C 72.3739,160.211 73.0405,156.877 73.5,153.5C 74.2796,149.873 75.7796,146.54 78,143.5C 82.4355,138.876 86.6021,134.21 90.5,129.5C 94.2543,127.252 97.5876,124.419 100.5,121C 104.818,119.853 108.985,119.353 113,119.5C 112.852,120.825 113.018,121.992 113.5,123C 112.251,124.824 111.085,124.657 110,122.5C 108.869,126.894 107.535,131.227 106,135.5C 101.322,141.539 96.6555,147.539 92,153.5C 89.6003,159.279 87.4337,165.113 85.5,171C 85.6448,171.772 85.9781,172.439 86.5,173C 81.4406,177.997 79.774,183.33 81.5,189C 80.7433,190.512 79.7433,191.846 78.5,193C 78.9574,193.414 79.2907,193.914 79.5,194.5C 77.2219,200.254 76.0553,206.254 76,212.5C 72.6476,217.386 71.1476,222.886 71.5,229C 71.8207,242.291 73.1541,255.458 75.5,268.5 Z"/></g>
<g><path style="opacity:1" fill="#212048" d="M 75.5,268.5 C 75.5,269.167 75.5,269.833 75.5,270.5C 76.0804,274.142 76.5804,277.809 77,281.5C 78.7206,283.711 80.7206,285.711 83,287.5C 83.6172,288.449 83.4506,289.282 82.5,290C 84.4101,291.701 85.5768,293.867 86,296.5C 88.8525,298.871 90.6858,301.871 91.5,305.5C 92.4255,306.641 93.2588,306.641 94,305.5C 94.4828,306.448 94.6495,307.448 94.5,308.5C 86.8246,308.153 80.8246,304.82 76.5,298.5C 73.4683,289.028 70.1349,279.695 66.5,270.5C 66.6799,269.446 67.0133,268.446 67.5,267.5C 61.7424,242.617 60.9091,217.617 65,192.5C 68.2199,183.088 70.3866,173.422 71.5,163.5C 72.64,162.199 73.9733,161.032 75.5,160C 75.1667,159.667 74.8333,159.333 74.5,159C 77.2264,154.515 79.3931,149.682 81,144.5C 84.2342,141.797 86.5676,138.464 88,134.5C 88.3333,134.833 88.6667,135.167 89,135.5C 91.3313,131.67 94.4979,128.67 98.5,126.5C 99.2868,127.242 99.9535,128.075 100.5,129C 97.8333,129.667 97.8333,130.333 100.5,131C 99.0089,133.83 96.5089,136.33 93,138.5C 92.8371,140.676 92.0037,142.509 90.5,144C 90.8333,144.333 91.1667,144.667 91.5,145C 89.6061,146.101 88.9394,147.434 89.5,149C 87.0113,151.323 84.6779,153.823 82.5,156.5C 83.0016,157.716 83.3349,158.883 83.5,160C 80.8031,162.241 78.8031,164.908 77.5,168C 78.1667,168.333 78.8333,168.667 79.5,169C 78.1667,169.667 78.1667,170.333 79.5,171C 77.5824,174.456 76.2491,178.456 75.5,183C 75.8333,184 76.1667,185 76.5,186C 75.7734,187.399 75.2734,188.899 75,190.5C 74.6667,189.833 74.3333,189.167 74,188.5C 72.1394,191.449 71.6394,194.449 72.5,197.5C 72.1879,201.885 71.1879,206.052 69.5,210C 70.3688,216.757 70.3688,223.59 69.5,230.5C 70.8513,238.575 71.8513,246.741 72.5,255C 72.1667,255.333 71.8333,255.667 71.5,256C 72.3763,260.101 73.7096,264.268 75.5,268.5 Z"/></g>
<g><path style="opacity:1" fill="#b3adb9" d="M 61.5,186.5 C 60.6908,184.972 60.0241,183.306 59.5,181.5C 63.3142,157.04 73.6475,135.874 90.5,118C 93.2223,115.642 96.2223,113.809 99.5,112.5C 100.117,112.611 100.617,112.944 101,113.5C 102.734,112.362 104.568,111.862 106.5,112C 100.089,116.955 93.5892,121.789 87,126.5C 72.7752,143.962 64.2752,163.962 61.5,186.5 Z"/></g>
<g><path style="opacity:0.996" fill="#76768c" d="M 108.5,107.5 C 110.218,108.224 112.052,108.891 114,109.5C 114.333,109.167 114.667,108.833 115,108.5C 115.359,111.62 114.192,114.12 111.5,116C 107.363,116.934 103.363,118.268 99.5,120C 96.2462,123.083 93.2462,126.249 90.5,129.5C 86.6021,134.21 82.4355,138.876 78,143.5C 75.7796,146.54 74.2796,149.873 73.5,153.5C 69.9281,159.377 67.4281,165.711 66,172.5C 63.0225,184.312 61.0225,196.312 60,208.5C 59.6174,209.056 59.1174,209.389 58.5,209.5C 59.3913,201.819 60.3913,194.152 61.5,186.5C 64.2752,163.962 72.7752,143.962 87,126.5C 93.5892,121.789 100.089,116.955 106.5,112C 104.568,111.862 102.734,112.362 101,113.5C 100.617,112.944 100.117,112.611 99.5,112.5C 102.304,110.595 105.304,108.929 108.5,107.5 Z"/></g>
<g><path style="opacity:1" fill="#a17daf" d="M 184.5,174.5 C 185.919,173.549 187.585,173.216 189.5,173.5C 200.518,173.381 211.518,173.714 222.5,174.5C 222.5,174.833 222.5,175.167 222.5,175.5C 209.85,174.707 197.183,174.374 184.5,174.5 Z"/></g>
<g><path style="opacity:1" fill="#323156" d="M 71.5,163.5 C 70.3866,173.422 68.2199,183.088 65,192.5C 60.9091,217.617 61.7424,242.617 67.5,267.5C 67.0133,268.446 66.6799,269.446 66.5,270.5C 70.1349,279.695 73.4683,289.028 76.5,298.5C 74.5259,296.572 73.0259,294.239 72,291.5C 68.7989,283.562 65.7989,275.562 63,267.5C 62.8474,259.942 62.0141,252.609 60.5,245.5C 59.7877,226.375 60.9544,207.375 64,188.5C 65.7503,179.808 68.2503,171.474 71.5,163.5 Z"/></g>
<g><path style="opacity:1" fill="#cfb6d7" d="M 222.5,175.5 C 222.5,175.167 222.5,174.833 222.5,174.5C 226.198,174.552 229.865,174.886 233.5,175.5C 236.528,176.068 239.195,177.401 241.5,179.5C 237.246,178.354 232.913,177.687 228.5,177.5C 226.626,176.715 224.626,176.048 222.5,175.5 Z"/></g>
<g><path style="opacity:1" fill="#5f1d82" d="M 182.5,174.5 C 183.167,174.5 183.833,174.5 184.5,174.5C 197.183,174.374 209.85,174.707 222.5,175.5C 224.626,176.048 226.626,176.715 228.5,177.5C 231.881,178.522 235.214,179.855 238.5,181.5C 238.183,184.087 239.517,185.92 242.5,187C 241.833,187.333 241.167,187.667 240.5,188C 243.234,188.21 245.734,189.044 248,190.5C 249.049,189.483 250.216,189.316 251.5,190C 250.786,191.343 251.12,192.676 252.5,194C 250.874,196.628 248.874,198.961 246.5,201C 247.167,201.333 247.833,201.667 248.5,202C 242.167,202.333 235.833,202.667 229.5,203C 227.545,205.168 226.879,207.502 227.5,210C 226.51,213.759 225.677,217.593 225,221.5C 224.308,220.975 223.808,220.308 223.5,219.5C 224.675,213.172 222.509,208.172 217,204.5C 215.23,205.276 213.397,205.11 211.5,204C 206.511,203.501 201.511,203.334 196.5,203.5C 196.5,199.833 196.5,196.167 196.5,192.5C 196.5,191.833 196.5,191.167 196.5,190.5C 197.404,189.791 197.737,188.791 197.5,187.5C 193.5,187.5 189.5,187.5 185.5,187.5C 183.95,196.8 182.617,206.133 181.5,215.5C 180.555,220.114 179.888,224.781 179.5,229.5C 178.566,228.432 178.232,227.099 178.5,225.5C 178.5,222.167 178.5,218.833 178.5,215.5C 179.575,214.287 180.241,212.787 180.5,211C 181.923,202.672 182.923,194.506 183.5,186.5C 180.381,185.306 180.048,183.806 182.5,182C 181.716,179.418 180.049,177.751 177.5,177C 179.058,176.79 180.391,176.29 181.5,175.5C 182.167,175.5 182.5,175.167 182.5,174.5 Z"/></g>
<g><path style="opacity:1" fill="#702f93" d="M 181.5,175.5 C 180.391,176.29 179.058,176.79 177.5,177C 180.049,177.751 181.716,179.418 182.5,182C 180.048,183.806 180.381,185.306 183.5,186.5C 182.923,194.506 181.923,202.672 180.5,211C 180.241,212.787 179.575,214.287 178.5,215.5C 177.206,212.646 175.539,209.979 173.5,207.5C 172.775,200.137 172.775,193.303 173.5,187C 170.833,186.333 170.833,185.667 173.5,185C 172.167,184.333 172.167,183.667 173.5,183C 172.833,182.667 172.167,182.333 171.5,182C 172.96,180.418 174.627,179.085 176.5,178C 175.5,177.667 174.5,177.333 173.5,177C 176.063,175.921 178.729,175.421 181.5,175.5 Z"/></g>
<g><path style="opacity:1" fill="#545470" d="M 73.5,153.5 C 73.0405,156.877 72.3739,160.211 71.5,163.5C 68.2503,171.474 65.7503,179.808 64,188.5C 60.9544,207.375 59.7877,226.375 60.5,245.5C 59.5056,235.013 59.1722,224.346 59.5,213.5C 59.5674,212.041 59.2341,210.708 58.5,209.5C 59.1174,209.389 59.6174,209.056 60,208.5C 61.0225,196.312 63.0225,184.312 66,172.5C 67.4281,165.711 69.9281,159.377 73.5,153.5 Z"/></g>
<g><path style="opacity:1" fill="#834b9f" d="M 182.5,174.5 C 182.5,175.167 182.167,175.5 181.5,175.5C 178.729,175.421 176.063,175.921 173.5,177C 174.5,177.333 175.5,177.667 176.5,178C 174.627,179.085 172.96,180.418 171.5,182C 172.167,182.333 172.833,182.667 173.5,183C 172.167,183.667 172.167,184.333 173.5,185C 170.833,185.667 170.833,186.333 173.5,187C 172.775,193.303 172.775,200.137 173.5,207.5C 172.395,206.4 171.062,205.733 169.5,205.5C 169.082,204.778 168.416,204.278 167.5,204C 160.321,203.179 153.321,203.345 146.5,204.5C 146.784,206.415 146.451,208.081 145.5,209.5C 145.107,206.07 145.773,202.904 147.5,200C 145.009,199.374 145.009,198.541 147.5,197.5C 146.787,194.904 146.787,192.237 147.5,189.5C 146.325,189.281 145.325,189.614 144.5,190.5C 142.146,192.188 140.146,194.188 138.5,196.5C 137.833,196.833 137.167,197.167 136.5,197.5C 139.167,192.833 142.833,189.167 147.5,186.5C 154.391,183.22 161.391,180.22 168.5,177.5C 172.797,175.302 177.464,174.302 182.5,174.5 Z"/></g>
<g><path style="opacity:1" fill="#ab8ab7" d="M 242.5,179.5 C 245.152,179.41 247.485,180.076 249.5,181.5C 246.848,181.59 244.515,180.924 242.5,179.5 Z"/></g>
<g><path style="opacity:1" fill="#9975a7" d="M 168.5,177.5 C 161.391,180.22 154.391,183.22 147.5,186.5C 148.29,185.206 149.29,184.039 150.5,183C 152.852,182.76 154.852,181.927 156.5,180.5C 160.322,178.878 164.322,177.878 168.5,177.5 Z"/></g>
<g><path style="opacity:1" fill="#d1b8d9" d="M 249.5,181.5 C 255.332,181 260.332,182.666 264.5,186.5C 259.294,185.255 254.294,183.588 249.5,181.5 Z"/></g>
<g><path style="opacity:1" fill="#5a1e79" d="M 228.5,177.5 C 232.913,177.687 237.246,178.354 241.5,179.5C 241.833,179.5 242.167,179.5 242.5,179.5C 244.515,180.924 246.848,181.59 249.5,181.5C 254.294,183.588 259.294,185.255 264.5,186.5C 268.577,189.227 272.91,191.561 277.5,193.5C 281.284,197.557 285.617,200.891 290.5,203.5C 293.118,207.291 295.951,210.957 299,214.5C 300.707,216.909 301.54,219.575 301.5,222.5C 298.182,216.862 294.515,211.529 290.5,206.5C 287.646,203.812 284.646,201.312 281.5,199C 280.5,198.333 279.5,198.333 278.5,199C 277.155,201.324 276.822,203.658 277.5,206C 276.428,207.284 275.095,207.617 273.5,207C 276.119,214.348 277.786,222.181 278.5,230.5C 275.869,233.896 273.702,237.562 272,241.5C 271.316,242.784 271.483,243.951 272.5,245C 269.346,245.724 266.512,247.557 264,250.5C 263.617,249.944 263.117,249.611 262.5,249.5C 268.424,244.887 272.424,238.887 274.5,231.5C 275.65,226.684 275.816,221.684 275,216.5C 274.066,215.142 273.232,213.808 272.5,212.5C 271.421,210.457 269.754,209.124 267.5,208.5C 266.025,206.59 264.025,205.424 261.5,205C 250.992,204.175 240.658,204.341 230.5,205.5C 229.596,206.209 229.263,207.209 229.5,208.5C 228.313,211.946 227.646,215.613 227.5,219.5C 225.863,226.984 224.529,234.651 223.5,242.5C 223.5,243.167 223.5,243.833 223.5,244.5C 222.167,249.833 220.833,255.167 219.5,260.5C 220.036,257.302 219.369,254.635 217.5,252.5C 217.5,251.5 217.5,250.5 217.5,249.5C 217.993,247.194 218.326,244.861 218.5,242.5C 220.493,232.561 221.659,222.561 222,212.5C 219.524,208.009 215.691,205.676 210.5,205.5C 205.695,204.513 200.695,204.179 195.5,204.5C 195.5,203.167 195.5,201.833 195.5,200.5C 195.194,197.615 195.527,194.948 196.5,192.5C 196.5,196.167 196.5,199.833 196.5,203.5C 201.511,203.334 206.511,203.501 211.5,204C 213.397,205.11 215.23,205.276 217,204.5C 222.509,208.172 224.675,213.172 223.5,219.5C 223.808,220.308 224.308,220.975 225,221.5C 225.677,217.593 226.51,213.759 227.5,210C 226.879,207.502 227.545,205.168 229.5,203C 235.833,202.667 242.167,202.333 248.5,202C 247.833,201.667 247.167,201.333 246.5,201C 248.874,198.961 250.874,196.628 252.5,194C 251.12,192.676 250.786,191.343 251.5,190C 250.216,189.316 249.049,189.483 248,190.5C 245.734,189.044 243.234,188.21 240.5,188C 241.167,187.667 241.833,187.333 242.5,187C 239.517,185.92 238.183,184.087 238.5,181.5C 235.214,179.855 231.881,178.522 228.5,177.5 Z"/></g>
<g><path style="opacity:1" fill="#38375a" d="M 125.5,103.5 C 126.807,112.137 126.807,120.803 125.5,129.5C 113.461,138.058 104.961,149.391 100,163.5C 87.9928,197.046 85.1594,231.379 91.5,266.5C 90.3501,265.15 89.6834,265.316 89.5,267C 92.7453,277.282 96.5787,287.116 101,296.5C 99,294.5 97,292.5 95,290.5C 94.8047,288.793 94.8047,287.126 95,285.5C 94.3333,286.167 93.6667,286.833 93,287.5C 87.2327,286.142 82.566,283.142 79,278.5C 78.1249,275.599 76.9582,272.932 75.5,270.5C 75.5,269.833 75.5,269.167 75.5,268.5C 73.1541,255.458 71.8207,242.291 71.5,229C 71.1476,222.886 72.6476,217.386 76,212.5C 76.0553,206.254 77.2219,200.254 79.5,194.5C 79.2907,193.914 78.9574,193.414 78.5,193C 79.7433,191.846 80.7433,190.512 81.5,189C 79.774,183.33 81.4406,177.997 86.5,173C 85.9781,172.439 85.6448,171.772 85.5,171C 87.4337,165.113 89.6003,159.279 92,153.5C 96.6555,147.539 101.322,141.539 106,135.5C 107.535,131.227 108.869,126.894 110,122.5C 111.085,124.657 112.251,124.824 113.5,123C 113.018,121.992 112.852,120.825 113,119.5C 108.985,119.353 104.818,119.853 100.5,121C 97.5876,124.419 94.2543,127.252 90.5,129.5C 93.2462,126.249 96.2462,123.083 99.5,120C 103.363,118.268 107.363,116.934 111.5,116C 114.192,114.12 115.359,111.62 115,108.5C 114.667,108.833 114.333,109.167 114,109.5C 112.052,108.891 110.218,108.224 108.5,107.5C 114.081,105.688 119.747,104.354 125.5,103.5 Z"/></g>
<g><path style="opacity:1" fill="#e2d1e8" d="M 196.5,190.5 C 193.663,188.598 190.329,187.931 186.5,188.5C 186.991,192.689 186.825,197.022 186,201.5C 183.89,205.491 182.89,209.824 183,214.5C 182.617,215.056 182.117,215.389 181.5,215.5C 182.617,206.133 183.95,196.8 185.5,187.5C 189.5,187.5 193.5,187.5 197.5,187.5C 197.737,188.791 197.404,189.791 196.5,190.5 Z"/></g>
<g><path style="opacity:1" fill="#4c0977" d="M 137.5,204.5 C 136.047,205.825 136.381,206.658 138.5,207C 137.833,207.333 137.167,207.667 136.5,208C 137.568,211.607 137.568,214.94 136.5,218C 139.167,219.333 139.167,220.667 136.5,222C 137.833,228 137.833,234 136.5,240C 139.167,240.667 139.167,241.333 136.5,242C 137.167,243.667 137.833,245.333 138.5,247C 137.682,250.41 137.349,254.077 137.5,258C 137.851,261.104 138.351,260.937 139,257.5C 139.167,258.5 139.333,259.5 139.5,260.5C 139.36,262.03 138.693,263.03 137.5,263.5C 136.662,263.158 136.328,262.492 136.5,261.5C 131.813,246.544 130.313,231.21 132,215.5C 133.682,214.135 133.849,212.635 132.5,211C 133.417,207.248 134.917,203.748 137,200.5C 137.062,202.115 137.229,203.448 137.5,204.5 Z"/></g>
<g><path style="opacity:1" fill="#ab89b8" d="M 146.5,204.5 C 153.321,203.345 160.321,203.179 167.5,204C 168.416,204.278 169.082,204.778 169.5,205.5C 161.876,204.602 154.209,204.269 146.5,204.5 Z"/></g>
<g><path style="opacity:1" fill="#bda1c8" d="M 195.5,200.5 C 195.5,201.833 195.5,203.167 195.5,204.5C 200.695,204.179 205.695,204.513 210.5,205.5C 205.833,205.5 201.167,205.5 196.5,205.5C 195.351,205.209 194.684,204.376 194.5,203C 194.528,201.93 194.861,201.097 195.5,200.5 Z"/></g>
<g><path style="opacity:1" fill="#c7acd0" d="M 230.5,205.5 C 240.658,204.341 250.992,204.175 261.5,205C 264.025,205.424 266.025,206.59 267.5,208.5C 255.251,206.884 242.918,205.884 230.5,205.5 Z"/></g>
<g><path style="opacity:1" fill="#a07dad" d="M 383.5,183.5 C 384.167,183.833 384.833,184.167 385.5,184.5C 385.5,195.833 385.5,207.167 385.5,218.5C 380.748,227.647 374.748,235.98 367.5,243.5C 367.808,239.64 368.475,235.974 369.5,232.5C 373.293,223.678 376.793,214.011 380,203.5C 381.81,196.93 382.977,190.263 383.5,183.5 Z"/></g>
<g><path style="opacity:1" fill="#e1e0e0" d="M 230.5,205.5 C 242.918,205.884 255.251,206.884 267.5,208.5C 269.754,209.124 271.421,210.457 272.5,212.5C 274.182,218.68 274.848,225.013 274.5,231.5C 272.424,238.887 268.424,244.887 262.5,249.5C 259.069,251.124 255.402,252.124 251.5,252.5C 245.833,252.5 240.167,252.5 234.5,252.5C 234.768,254.099 234.434,255.432 233.5,256.5C 232.189,259.968 231.189,263.634 230.5,267.5C 227.232,268.487 223.898,268.82 220.5,268.5C 222.221,260.689 223.221,252.689 223.5,244.5C 223.5,243.833 223.5,243.167 223.5,242.5C 224.232,241.192 225.066,239.858 226,238.5C 227.188,232.222 227.688,225.888 227.5,219.5C 228.222,219.082 228.722,218.416 229,217.5C 229.498,214.518 229.665,211.518 229.5,208.5C 229.263,207.209 229.596,206.209 230.5,205.5 Z"/></g>
<g><path style="opacity:1" fill="#efeeed" d="M 196.5,205.5 C 201.167,205.5 205.833,205.5 210.5,205.5C 215.691,205.676 219.524,208.009 222,212.5C 221.659,222.561 220.493,232.561 218.5,242.5C 216.518,244.597 215.518,247.264 215.5,250.5C 212.167,250.5 208.833,250.5 205.5,250.5C 205.5,248.5 205.5,246.5 205.5,244.5C 205.5,244.167 205.5,243.833 205.5,243.5C 207.011,240.456 207.678,237.122 207.5,233.5C 207.5,233.167 207.5,232.833 207.5,232.5C 209.558,227.928 209.891,223.262 208.5,218.5C 208.167,217.833 207.833,217.167 207.5,216.5C 207.5,216.167 207.5,215.833 207.5,215.5C 205.849,213.876 203.849,212.543 201.5,211.5C 199.913,209.554 200.246,208.054 202.5,207C 200.292,206.809 198.292,206.309 196.5,205.5 Z"/></g>
<g><path style="opacity:1" fill="#faf9f8" d="M 196.5,190.5 C 196.5,191.167 196.5,191.833 196.5,192.5C 195.527,194.948 195.194,197.615 195.5,200.5C 194.861,201.097 194.528,201.93 194.5,203C 194.684,204.376 195.351,205.209 196.5,205.5C 198.292,206.309 200.292,206.809 202.5,207C 200.246,208.054 199.913,209.554 201.5,211.5C 203.849,212.543 205.849,213.876 207.5,215.5C 202.4,214.2 197.4,214.2 192.5,215.5C 192.675,217.621 192.341,219.621 191.5,221.5C 190.788,220.261 189.788,219.761 188.5,220C 189.796,226.561 189.796,233.394 188.5,240.5C 188.5,240.833 188.5,241.167 188.5,241.5C 187.525,244.311 186.858,247.311 186.5,250.5C 183.881,250.768 181.381,250.435 179,249.5C 178.612,244.489 178.778,239.489 179.5,234.5C 179.5,232.833 179.5,231.167 179.5,229.5C 179.888,224.781 180.555,220.114 181.5,215.5C 182.117,215.389 182.617,215.056 183,214.5C 182.89,209.824 183.89,205.491 186,201.5C 186.825,197.022 186.991,192.689 186.5,188.5C 190.329,187.931 193.663,188.598 196.5,190.5 Z"/></g>
<g><path style="opacity:0.996" fill="#4a1a6b" d="M 138.5,196.5 C 138.433,198.401 138.767,200.234 139.5,202C 139.361,203.301 138.695,204.134 137.5,204.5C 137.229,203.448 137.062,202.115 137,200.5C 134.917,203.748 133.417,207.248 132.5,211C 133.849,212.635 133.682,214.135 132,215.5C 130.313,231.21 131.813,246.544 136.5,261.5C 135.442,260.4 134.608,259.066 134,257.5C 130.658,248.633 129.158,239.466 129.5,230C 128.791,218.389 131.124,207.555 136.5,197.5C 137.167,197.167 137.833,196.833 138.5,196.5 Z"/></g>
<g><path style="opacity:1" fill="#cfb3d9" d="M 192.5,215.5 C 197.4,214.2 202.4,214.2 207.5,215.5C 207.5,215.833 207.5,216.167 207.5,216.5C 202.562,215.608 197.562,215.274 192.5,215.5 Z"/></g>
<g><path style="opacity:1" fill="#b899c3" d="M 229.5,208.5 C 229.665,211.518 229.498,214.518 229,217.5C 228.722,218.416 228.222,219.082 227.5,219.5C 227.646,215.613 228.313,211.946 229.5,208.5 Z"/></g>
<g><path style="opacity:1" fill="#8d8b9b" d="M 59.5,181.5 C 60.0241,183.306 60.6908,184.972 61.5,186.5C 60.3913,194.152 59.3913,201.819 58.5,209.5C 59.2341,210.708 59.5674,212.041 59.5,213.5C 58.71,214.609 58.21,215.942 58,217.5C 57.2744,228.348 57.441,239.182 58.5,250C 58.3333,251.5 58.1667,253 58,254.5C 57.8413,252.657 57.3413,251.991 56.5,252.5C 53.6519,228.696 54.6519,205.03 59.5,181.5 Z"/></g>
<g><path style="opacity:1" fill="#591b79" d="M 254.5,215.5 C 257.349,215.733 259.516,217.066 261,219.5C 262.301,225.958 261.301,231.958 258,237.5C 256.362,239.734 254.195,241.067 251.5,241.5C 246.833,241.5 242.167,241.5 237.5,241.5C 238.092,238.873 238.425,236.206 238.5,233.5C 238.5,232.833 238.5,232.167 238.5,231.5C 239.657,228.727 240.324,225.727 240.5,222.5C 241.219,220.236 241.552,217.903 241.5,215.5C 245.833,215.5 250.167,215.5 254.5,215.5 Z"/></g>
<g><path style="opacity:1" fill="#6b3c81" d="M 367.5,141.5 C 369.117,142.589 369.95,144.256 370,146.5C 370.174,151.684 370.674,156.684 371.5,161.5C 371.956,185.212 371.289,208.878 369.5,232.5C 368.475,235.974 367.808,239.64 367.5,243.5C 367.007,245.806 366.674,248.139 366.5,250.5C 365.662,250.842 365.328,251.508 365.5,252.5C 363.952,252.179 363.285,251.179 363.5,249.5C 368.44,213.644 369.773,177.644 367.5,141.5 Z"/></g>
<g><path style="opacity:1" fill="#decbe4" d="M 254.5,215.5 C 250.167,215.5 245.833,215.5 241.5,215.5C 241.552,217.903 241.219,220.236 240.5,222.5C 239.833,223.5 239.167,224.5 238.5,225.5C 238.714,223.856 238.38,222.356 237.5,221C 238.944,219.237 239.944,217.237 240.5,215C 245.352,214.185 250.019,214.352 254.5,215.5 Z"/></g>
<g><path style="opacity:1" fill="#5c1b7d" d="M 301.5,222.5 C 302.167,223.5 302.833,224.5 303.5,225.5C 303.666,230.511 303.499,235.511 303,240.5C 301.079,245.998 298.912,251.332 296.5,256.5C 293.529,259.808 290.529,263.141 287.5,266.5C 284.467,268.016 281.8,270.016 279.5,272.5C 271.25,276.793 262.917,280.793 254.5,284.5C 245.438,286.691 236.438,288.691 227.5,290.5C 225.833,290.5 224.167,290.5 222.5,290.5C 222.611,289.883 222.944,289.383 223.5,289C 227.533,288.305 231.533,287.472 235.5,286.5C 235.709,285.914 236.043,285.414 236.5,285C 234.156,283.815 233.323,281.982 234,279.5C 234.604,281.686 235.77,281.852 237.5,280C 235.622,278.457 234.122,276.624 233,274.5C 232.667,275.167 232.333,275.833 232,276.5C 230.667,276.5 229.333,276.5 228,276.5C 225.539,273.512 222.372,272.179 218.5,272.5C 218.251,269.998 217.917,267.498 217.5,265C 217.307,262.992 217.974,261.492 219.5,260.5C 219.5,263.833 219.5,267.167 219.5,270.5C 223.514,270.666 227.514,270.499 231.5,270C 232.38,268.644 232.714,267.144 232.5,265.5C 234.416,261.837 235.416,257.837 235.5,253.5C 241.026,253.821 246.36,253.488 251.5,252.5C 255.402,252.124 259.069,251.124 262.5,249.5C 263.117,249.611 263.617,249.944 264,250.5C 266.512,247.557 269.346,245.724 272.5,245C 271.483,243.951 271.316,242.784 272,241.5C 273.702,237.562 275.869,233.896 278.5,230.5C 277.786,222.181 276.119,214.348 273.5,207C 275.095,207.617 276.428,207.284 277.5,206C 276.822,203.658 277.155,201.324 278.5,199C 279.5,198.333 280.5,198.333 281.5,199C 284.646,201.312 287.646,203.812 290.5,206.5C 294.515,211.529 298.182,216.862 301.5,222.5 Z"/></g>
<g><path style="opacity:1" fill="#5e1e80" d="M 145.5,209.5 C 145.5,211.5 145.5,213.5 145.5,215.5C 143.988,220.929 143.321,226.596 143.5,232.5C 143.5,233.167 143.5,233.833 143.5,234.5C 142.064,240.947 141.397,247.614 141.5,254.5C 141.5,254.833 141.5,255.167 141.5,255.5C 140.521,258.625 140.187,261.958 140.5,265.5C 142.167,265.5 143.833,265.5 145.5,265.5C 145.351,266.552 145.517,267.552 146,268.5C 147.441,267.74 148.941,267.074 150.5,266.5C 150.736,267.247 151.07,268.08 151.5,269C 148.677,269.202 146.01,270.369 143.5,272.5C 140.69,270.026 138.69,267.026 137.5,263.5C 138.693,263.03 139.36,262.03 139.5,260.5C 139.333,259.5 139.167,258.5 139,257.5C 138.351,260.937 137.851,261.104 137.5,258C 137.349,254.077 137.682,250.41 138.5,247C 137.833,245.333 137.167,243.667 136.5,242C 139.167,241.333 139.167,240.667 136.5,240C 137.833,234 137.833,228 136.5,222C 139.167,220.667 139.167,219.333 136.5,218C 137.568,214.94 137.568,211.607 136.5,208C 137.167,207.667 137.833,207.333 138.5,207C 136.381,206.658 136.047,205.825 137.5,204.5C 138.695,204.134 139.361,203.301 139.5,202C 138.767,200.234 138.433,198.401 138.5,196.5C 140.146,194.188 142.146,192.188 144.5,190.5C 145.325,189.614 146.325,189.281 147.5,189.5C 146.787,192.237 146.787,194.904 147.5,197.5C 145.009,198.541 145.009,199.374 147.5,200C 145.773,202.904 145.107,206.07 145.5,209.5 Z"/></g>
<g><path style="opacity:1" fill="#c7acd1" d="M 145.5,215.5 C 145.404,221.373 144.737,227.04 143.5,232.5C 143.321,226.596 143.988,220.929 145.5,215.5 Z"/></g>
<g><path style="opacity:1" fill="#e3d4e8" d="M 191.5,221.5 C 191.508,228.124 190.508,234.457 188.5,240.5C 189.796,233.394 189.796,226.561 188.5,220C 189.788,219.761 190.788,220.261 191.5,221.5 Z"/></g>
<g><path style="opacity:1" fill="#c1a3cb" d="M 272.5,212.5 C 273.232,213.808 274.066,215.142 275,216.5C 275.816,221.684 275.65,226.684 274.5,231.5C 274.848,225.013 274.182,218.68 272.5,212.5 Z"/></g>
<g><path style="opacity:1" fill="#c2adc8" d="M 385.5,218.5 C 385.5,232.167 385.5,245.833 385.5,259.5C 379.448,255.812 373.115,253.812 366.5,253.5C 366.5,252.5 366.5,251.5 366.5,250.5C 366.674,248.139 367.007,245.806 367.5,243.5C 374.748,235.98 380.748,227.647 385.5,218.5 Z"/></g>
<g><path style="opacity:1" fill="#c5aace" d="M 208.5,218.5 C 209.891,223.262 209.558,227.928 207.5,232.5C 208.127,227.859 208.46,223.193 208.5,218.5 Z"/></g>
<g><path style="opacity:1" fill="#a37fb1" d="M 240.5,222.5 C 240.324,225.727 239.657,228.727 238.5,231.5C 238.5,229.5 238.5,227.5 238.5,225.5C 239.167,224.5 239.833,223.5 240.5,222.5 Z"/></g>
<g><path style="opacity:1" fill="#cdb3d6" d="M 227.5,219.5 C 227.688,225.888 227.188,232.222 226,238.5C 225.066,239.858 224.232,241.192 223.5,242.5C 224.529,234.651 225.863,226.984 227.5,219.5 Z"/></g>
<g><path style="opacity:1" fill="#b393bf" d="M 207.5,233.5 C 207.678,237.122 207.011,240.456 205.5,243.5C 205.549,239.922 206.215,236.589 207.5,233.5 Z"/></g>
<g><path style="opacity:1" fill="#845d96" d="M 238.5,233.5 C 238.425,236.206 238.092,238.873 237.5,241.5C 242.167,241.5 246.833,241.5 251.5,241.5C 246.695,242.487 241.695,242.821 236.5,242.5C 236.42,239.219 237.087,236.219 238.5,233.5 Z"/></g>
<g><path style="opacity:1" fill="#dccae1" d="M 303.5,225.5 C 304.655,232.321 304.821,239.321 304,246.5C 301.676,249.48 300.176,252.813 299.5,256.5C 298.5,256.5 297.5,256.5 296.5,256.5C 298.912,251.332 301.079,245.998 303,240.5C 303.499,235.511 303.666,230.511 303.5,225.5 Z"/></g>
<g><path style="opacity:1" fill="#c3a7cd" d="M 143.5,234.5 C 143.479,241.374 142.813,248.041 141.5,254.5C 141.397,247.614 142.064,240.947 143.5,234.5 Z"/></g>
<g><path style="opacity:1" fill="#e1cee6" d="M 218.5,242.5 C 218.326,244.861 217.993,247.194 217.5,249.5C 216.596,250.209 216.263,251.209 216.5,252.5C 212.5,252.5 208.5,252.5 204.5,252.5C 204.194,249.615 204.527,246.948 205.5,244.5C 205.5,246.5 205.5,248.5 205.5,250.5C 208.833,250.5 212.167,250.5 215.5,250.5C 215.518,247.264 216.518,244.597 218.5,242.5 Z"/></g>
<g><path style="opacity:1" fill="#7e459a" d="M 178.5,225.5 C 178.232,227.099 178.566,228.432 179.5,229.5C 179.5,231.167 179.5,232.833 179.5,234.5C 178.626,237.535 177.626,240.535 176.5,243.5C 176.649,242.448 176.483,241.448 176,240.5C 174.954,242.09 173.787,243.59 172.5,245C 172.833,245.333 173.167,245.667 173.5,246C 172.376,246.249 171.376,246.749 170.5,247.5C 171.02,251.395 171.354,255.229 171.5,259C 169.396,259.489 169.062,260.655 170.5,262.5C 170.113,264.274 169.447,265.941 168.5,267.5C 169.025,268.192 169.692,268.692 170.5,269C 168.083,270.673 168.083,272.506 170.5,274.5C 169.36,276.741 169.36,278.908 170.5,281C 169.743,282.512 168.743,283.846 167.5,285C 168.416,285.278 169.082,285.778 169.5,286.5C 168.167,286.5 166.833,286.5 165.5,286.5C 162.171,285.169 158.838,283.836 155.5,282.5C 151.131,279.643 147.131,276.31 143.5,272.5C 146.01,270.369 148.677,269.202 151.5,269C 151.07,268.08 150.736,267.247 150.5,266.5C 148.941,267.074 147.441,267.74 146,268.5C 145.517,267.552 145.351,266.552 145.5,265.5C 146.725,264.848 147.392,263.681 147.5,262C 148.031,259.183 148.364,256.35 148.5,253.5C 149.404,252.791 149.737,251.791 149.5,250.5C 154.363,250.819 159.03,250.486 163.5,249.5C 169.886,246.941 174.053,242.274 176,235.5C 176.885,232.048 177.718,228.714 178.5,225.5 Z"/></g>
<g><path style="opacity:1" fill="#f5f2f4" d="M 146.5,204.5 C 154.209,204.269 161.876,204.602 169.5,205.5C 171.062,205.733 172.395,206.4 173.5,207.5C 175.539,209.979 177.206,212.646 178.5,215.5C 178.5,218.833 178.5,222.167 178.5,225.5C 177.718,228.714 176.885,232.048 176,235.5C 174.053,242.274 169.886,246.941 163.5,249.5C 158.5,249.5 153.5,249.5 148.5,249.5C 148.5,250.833 148.5,252.167 148.5,253.5C 148.364,256.35 148.031,259.183 147.5,262C 147.392,263.681 146.725,264.848 145.5,265.5C 144.432,264.566 143.099,264.232 141.5,264.5C 141.5,261.5 141.5,258.5 141.5,255.5C 141.5,255.167 141.5,254.833 141.5,254.5C 142.813,248.041 143.479,241.374 143.5,234.5C 143.5,233.833 143.5,233.167 143.5,232.5C 144.737,227.04 145.404,221.373 145.5,215.5C 145.5,213.5 145.5,211.5 145.5,209.5C 146.451,208.081 146.784,206.415 146.5,204.5 Z"/></g>
<g><path style="opacity:1" fill="#834d9e" d="M 164.5,215.5 C 165.79,216.058 166.623,217.058 167,218.5C 168.95,226.455 167.117,233.289 161.5,239C 157.848,239.499 154.182,239.665 150.5,239.5C 150.616,236.14 150.949,232.807 151.5,229.5C 152.593,224.694 153.259,219.694 153.5,214.5C 157.234,214.323 160.901,214.656 164.5,215.5 Z"/></g>
<g><path style="opacity:1" fill="#cbb1d3" d="M 164.5,215.5 C 160.901,214.656 157.234,214.323 153.5,214.5C 153.259,219.694 152.593,224.694 151.5,229.5C 151.569,224.146 151.902,218.813 152.5,213.5C 156.182,213.335 159.848,213.501 163.5,214C 164.056,214.383 164.389,214.883 164.5,215.5 Z"/></g>
<g><path style="opacity:1" fill="#c2a4cd" d="M 163.5,249.5 C 159.03,250.486 154.363,250.819 149.5,250.5C 149.737,251.791 149.404,252.791 148.5,253.5C 148.5,252.167 148.5,250.833 148.5,249.5C 153.5,249.5 158.5,249.5 163.5,249.5 Z"/></g>
<g><path style="opacity:1" fill="#e2cee8" d="M 179.5,234.5 C 178.778,239.489 178.612,244.489 179,249.5C 181.381,250.435 183.881,250.768 186.5,250.5C 186.858,247.311 187.525,244.311 188.5,241.5C 188.664,244.187 188.497,246.854 188,249.5C 187.722,250.416 187.222,251.082 186.5,251.5C 183.167,251.5 179.833,251.5 176.5,251.5C 176.5,248.833 176.5,246.167 176.5,243.5C 177.626,240.535 178.626,237.535 179.5,234.5 Z"/></g>
<g><path style="opacity:1" fill="#723295" d="M 176.5,243.5 C 176.5,246.167 176.5,248.833 176.5,251.5C 179.833,251.5 183.167,251.5 186.5,251.5C 183.695,252.319 180.695,252.819 177.5,253C 180.321,255.14 181.321,257.807 180.5,261C 180.759,262.261 181.426,263.261 182.5,264C 179.833,265.667 179.833,267.333 182.5,269C 181.5,270 180.5,271 179.5,272C 182.167,272.667 182.167,273.333 179.5,274C 182.167,274.667 182.167,275.333 179.5,276C 180.167,276.667 180.833,277.333 181.5,278C 182.061,279.566 181.394,280.899 179.5,282C 182.167,282.667 182.167,283.333 179.5,284C 182.167,284.667 182.167,285.333 179.5,286C 179.833,286.333 180.167,286.667 180.5,287C 179.167,287.333 177.833,287.667 176.5,288C 177.737,288.232 178.737,288.732 179.5,289.5C 177.097,289.552 174.764,289.219 172.5,288.5C 171.5,287.833 170.5,287.167 169.5,286.5C 169.082,285.778 168.416,285.278 167.5,285C 168.743,283.846 169.743,282.512 170.5,281C 169.36,278.908 169.36,276.741 170.5,274.5C 168.083,272.506 168.083,270.673 170.5,269C 169.692,268.692 169.025,268.192 168.5,267.5C 169.447,265.941 170.113,264.274 170.5,262.5C 169.062,260.655 169.396,259.489 171.5,259C 171.354,255.229 171.02,251.395 170.5,247.5C 171.376,246.749 172.376,246.249 173.5,246C 173.167,245.667 172.833,245.333 172.5,245C 173.787,243.59 174.954,242.09 176,240.5C 176.483,241.448 176.649,242.448 176.5,243.5 Z"/></g>
<g><path style="opacity:1" fill="#7b508f" d="M 217.5,249.5 C 217.5,250.5 217.5,251.5 217.5,252.5C 213.167,253.833 208.833,253.833 204.5,252.5C 208.5,252.5 212.5,252.5 216.5,252.5C 216.263,251.209 216.596,250.209 217.5,249.5 Z"/></g>
<g><path style="opacity:1" fill="#632088" d="M 192.5,215.5 C 197.562,215.274 202.562,215.608 207.5,216.5C 207.833,217.167 208.167,217.833 208.5,218.5C 208.46,223.193 208.127,227.859 207.5,232.5C 207.5,232.833 207.5,233.167 207.5,233.5C 206.215,236.589 205.549,239.922 205.5,243.5C 205.5,243.833 205.5,244.167 205.5,244.5C 204.527,246.948 204.194,249.615 204.5,252.5C 208.833,253.833 213.167,253.833 217.5,252.5C 219.369,254.635 220.036,257.302 219.5,260.5C 217.974,261.492 217.307,262.992 217.5,265C 217.917,267.498 218.251,269.998 218.5,272.5C 222.372,272.179 225.539,273.512 228,276.5C 229.333,276.5 230.667,276.5 232,276.5C 232.333,275.833 232.667,275.167 233,274.5C 234.122,276.624 235.622,278.457 237.5,280C 235.77,281.852 234.604,281.686 234,279.5C 233.323,281.982 234.156,283.815 236.5,285C 236.043,285.414 235.709,285.914 235.5,286.5C 231.533,287.472 227.533,288.305 223.5,289C 222.944,289.383 222.611,289.883 222.5,290.5C 209.159,291.689 195.826,291.689 182.5,290.5C 181.209,290.737 180.209,290.404 179.5,289.5C 178.737,288.732 177.737,288.232 176.5,288C 177.833,287.667 179.167,287.333 180.5,287C 180.167,286.667 179.833,286.333 179.5,286C 182.167,285.333 182.167,284.667 179.5,284C 182.167,283.333 182.167,282.667 179.5,282C 181.394,280.899 182.061,279.566 181.5,278C 180.833,277.333 180.167,276.667 179.5,276C 182.167,275.333 182.167,274.667 179.5,274C 182.167,273.333 182.167,272.667 179.5,272C 180.5,271 181.5,270 182.5,269C 179.833,267.333 179.833,265.667 182.5,264C 181.426,263.261 180.759,262.261 180.5,261C 181.321,257.807 180.321,255.14 177.5,253C 180.695,252.819 183.695,252.319 186.5,251.5C 187.222,251.082 187.722,250.416 188,249.5C 188.497,246.854 188.664,244.187 188.5,241.5C 188.5,241.167 188.5,240.833 188.5,240.5C 190.508,234.457 191.508,228.124 191.5,221.5C 192.341,219.621 192.675,217.621 192.5,215.5 Z"/></g>
<g><path style="opacity:1" fill="#a17eae" d="M 366.5,250.5 C 366.5,251.5 366.5,252.5 366.5,253.5C 373.115,253.812 379.448,255.812 385.5,259.5C 385.5,274.5 385.5,289.5 385.5,304.5C 383.071,298.724 380.905,292.724 379,286.5C 376.74,281.644 374.24,276.978 371.5,272.5C 369.615,268.399 367.448,264.399 365,260.5C 364.722,261.416 364.222,262.082 363.5,262.5C 364.374,259.211 365.041,255.877 365.5,252.5C 365.328,251.508 365.662,250.842 366.5,250.5 Z"/></g>
<g><path style="opacity:1" fill="#825892" d="M 251.5,252.5 C 246.36,253.488 241.026,253.821 235.5,253.5C 235.416,257.837 234.416,261.837 232.5,265.5C 232.963,262.518 233.296,259.518 233.5,256.5C 234.434,255.432 234.768,254.099 234.5,252.5C 240.167,252.5 245.833,252.5 251.5,252.5 Z"/></g>
<g><path style="opacity:1" fill="#c6aacf" d="M 141.5,255.5 C 141.5,258.5 141.5,261.5 141.5,264.5C 143.099,264.232 144.432,264.566 145.5,265.5C 143.833,265.5 142.167,265.5 140.5,265.5C 140.187,261.958 140.521,258.625 141.5,255.5 Z"/></g>
<g><path style="opacity:1" fill="#cfbad5" d="M 371.5,272.5 C 370.752,274.735 369.919,274.402 369,271.5C 368.833,272 368.667,272.5 368.5,273C 369.827,276.988 369.827,281.321 368.5,286C 371.167,286.667 371.167,287.333 368.5,288C 370.991,288.626 370.991,289.459 368.5,290.5C 368.977,291.478 369.643,292.311 370.5,293C 370.676,294.66 370.009,296.326 368.5,298C 369.167,298.333 369.833,298.667 370.5,299C 370.5,300.333 370.5,301.667 370.5,303C 368.487,303.875 368.487,305.209 370.5,307C 367.833,307.667 367.833,308.333 370.5,309C 368.109,309.691 368.109,310.691 370.5,312C 370.5,313.333 370.5,314.667 370.5,316C 369.672,316.915 368.672,317.581 367.5,318C 368.939,318.991 369.939,320.324 370.5,322C 370.848,324.055 370.181,326.055 368.5,328C 369.167,328.333 369.833,328.667 370.5,329C 368.697,330.262 367.364,331.929 366.5,334C 367.167,334.333 367.833,334.667 368.5,335C 365.736,337.699 366.403,339.366 370.5,340C 369.263,340.232 368.263,340.732 367.5,341.5C 361.5,341.5 355.5,341.5 349.5,341.5C 349.5,340.167 349.5,338.833 349.5,337.5C 350.207,327.792 351.374,318.126 353,308.5C 357.125,293.332 360.625,277.998 363.5,262.5C 364.222,262.082 364.722,261.416 365,260.5C 367.448,264.399 369.615,268.399 371.5,272.5 Z"/></g>
<g><path style="opacity:1" fill="#6b6a81" d="M 59.5,213.5 C 59.1722,224.346 59.5056,235.013 60.5,245.5C 62.0141,252.609 62.8474,259.942 63,267.5C 65.7989,275.562 68.7989,283.562 72,291.5C 73.0259,294.239 74.5259,296.572 76.5,298.5C 77.0427,301.038 78.0427,303.372 79.5,305.5C 78.7611,305.631 78.0944,305.464 77.5,305C 75.8605,302.226 73.8605,299.726 71.5,297.5C 70.246,299.259 70.5794,300.759 72.5,302C 71.9056,302.464 71.2389,302.631 70.5,302.5C 62.1035,286.919 57.4369,270.252 56.5,252.5C 57.3413,251.991 57.8413,252.657 58,254.5C 58.1667,253 58.3333,251.5 58.5,250C 57.441,239.182 57.2744,228.348 58,217.5C 58.21,215.942 58.71,214.609 59.5,213.5 Z"/></g>
<g><path style="opacity:1" fill="#d7c1de" d="M 223.5,244.5 C 223.221,252.689 222.221,260.689 220.5,268.5C 223.898,268.82 227.232,268.487 230.5,267.5C 231.189,263.634 232.189,259.968 233.5,256.5C 233.296,259.518 232.963,262.518 232.5,265.5C 232.714,267.144 232.38,268.644 231.5,270C 227.514,270.499 223.514,270.666 219.5,270.5C 219.5,267.167 219.5,263.833 219.5,260.5C 220.833,255.167 222.167,249.833 223.5,244.5 Z"/></g>
<g><path style="opacity:1" fill="#cfb7d7" d="M 279.5,272.5 C 279.631,273.376 279.298,274.043 278.5,274.5C 272.555,277.76 266.555,280.927 260.5,284C 258.527,284.495 256.527,284.662 254.5,284.5C 262.917,280.793 271.25,276.793 279.5,272.5 Z"/></g>
<g><path style="opacity:1" fill="#e5e4e3" d="M 287.5,266.5 C 285.576,268.09 285.243,269.924 286.5,272C 285.328,272.419 284.328,273.085 283.5,274C 284.716,275.74 286.382,276.74 288.5,277C 288.5,278.333 288.5,279.667 288.5,281C 288.072,283.629 287.072,285.962 285.5,288C 285.913,289.537 285.913,291.204 285.5,293C 286.484,294.657 287.484,296.323 288.5,298C 287.643,298.689 286.977,299.522 286.5,300.5C 287.016,303.058 287.35,305.558 287.5,308C 285.862,308.242 284.362,309.075 283,310.5C 282.833,311.667 282.667,312.833 282.5,314C 283.715,321.4 283.715,328.067 282.5,334C 283.167,335 283.833,336 284.5,337C 282.677,336.973 281.01,337.807 279.5,339.5C 265.5,339.5 251.5,339.5 237.5,339.5C 237.5,339.167 237.5,338.833 237.5,338.5C 238.552,338.649 239.552,338.483 240.5,338C 239.167,337.667 237.833,337.333 236.5,337C 234.607,334.697 232.607,332.53 230.5,330.5C 230.709,329.914 231.043,329.414 231.5,329C 230.467,326.649 229.467,324.316 228.5,322C 229.665,315.265 229.665,308.265 228.5,301C 229.101,299.395 230.101,298.062 231.5,297C 228.736,295.456 228.903,294.289 232,293.5C 232.333,293.833 232.667,294.167 233,294.5C 233.374,293.584 233.874,292.75 234.5,292C 232.19,291.503 229.857,291.337 227.5,291.5C 227.5,291.167 227.5,290.833 227.5,290.5C 234.177,290.435 240.677,289.435 247,287.5C 247.333,287.833 247.667,288.167 248,288.5C 250.095,286.875 252.261,285.542 254.5,284.5C 256.527,284.662 258.527,284.495 260.5,284C 266.555,280.927 272.555,277.76 278.5,274.5C 279.298,274.043 279.631,273.376 279.5,272.5C 281.8,270.016 284.467,268.016 287.5,266.5 Z"/></g>
<g><path style="opacity:1" fill="#fcfcfa" d="M 155.5,282.5 C 158.838,283.836 162.171,285.169 165.5,286.5C 167.515,287.924 169.848,288.59 172.5,288.5C 174.764,289.219 177.097,289.552 179.5,289.5C 180.209,290.404 181.209,290.737 182.5,290.5C 182.918,291.222 183.584,291.722 184.5,292C 187.146,292.497 189.813,292.664 192.5,292.5C 200.723,292.961 206.389,293.627 209.5,294.5C 209.896,297.044 209.229,299.211 207.5,301C 208.59,308.308 208.59,315.642 207.5,323C 208.297,326.745 208.797,330.579 209,334.5C 209.75,335.126 210.584,335.626 211.5,336C 202.265,336.12 192.932,336.287 183.5,336.5C 177.848,335.968 172.181,335.635 166.5,335.5C 163.054,334.313 159.387,333.646 155.5,333.5C 152.62,332.43 152.12,330.764 154,328.5C 154.667,315.5 154.667,302.5 154,289.5C 153.853,286.89 153.019,284.556 151.5,282.5C 152.557,282.094 153.891,282.094 155.5,282.5 Z"/></g>
<g><path style="opacity:1" fill="#b999c5" d="M 165.5,286.5 C 166.833,286.5 168.167,286.5 169.5,286.5C 170.5,287.167 171.5,287.833 172.5,288.5C 169.848,288.59 167.515,287.924 165.5,286.5 Z"/></g>
<g><path style="opacity:1" fill="#c3adc9" d="M 371.5,272.5 C 374.24,276.978 376.74,281.644 379,286.5C 380.905,292.724 383.071,298.724 385.5,304.5C 385.5,316.833 385.5,329.167 385.5,341.5C 385.167,341.5 384.833,341.5 384.5,341.5C 383.833,341.5 383.167,341.5 382.5,341.5C 377.5,341.5 372.5,341.5 367.5,341.5C 368.263,340.732 369.263,340.232 370.5,340C 366.403,339.366 365.736,337.699 368.5,335C 367.833,334.667 367.167,334.333 366.5,334C 367.364,331.929 368.697,330.262 370.5,329C 369.833,328.667 369.167,328.333 368.5,328C 370.181,326.055 370.848,324.055 370.5,322C 369.939,320.324 368.939,318.991 367.5,318C 368.672,317.581 369.672,316.915 370.5,316C 370.5,314.667 370.5,313.333 370.5,312C 368.109,310.691 368.109,309.691 370.5,309C 367.833,308.333 367.833,307.667 370.5,307C 368.487,305.209 368.487,303.875 370.5,303C 370.5,301.667 370.5,300.333 370.5,299C 369.833,298.667 369.167,298.333 368.5,298C 370.009,296.326 370.676,294.66 370.5,293C 369.643,292.311 368.977,291.478 368.5,290.5C 370.991,289.459 370.991,288.626 368.5,288C 371.167,287.333 371.167,286.667 368.5,286C 369.827,281.321 369.827,276.988 368.5,273C 368.667,272.5 368.833,272 369,271.5C 369.919,274.402 370.752,274.735 371.5,272.5 Z"/></g>
<g><path style="opacity:1" fill="#825796" d="M 363.5,249.5 C 363.285,251.179 363.952,252.179 365.5,252.5C 365.041,255.877 364.374,259.211 363.5,262.5C 360.625,277.998 357.125,293.332 353,308.5C 351.374,318.126 350.207,327.792 349.5,337.5C 348.549,338.919 348.216,340.585 348.5,342.5C 343.5,342.5 338.5,342.5 333.5,342.5C 322.986,342.828 312.653,342.494 302.5,341.5C 316.5,341.5 330.5,341.5 344.5,341.5C 344.5,340.5 344.5,339.5 344.5,338.5C 346.257,320.194 349.591,302.194 354.5,284.5C 356.166,277.172 357.833,269.839 359.5,262.5C 360.833,258.167 362.167,253.833 363.5,249.5 Z"/></g>
<g><path style="opacity:1" fill="#bea1c9" d="M 254.5,284.5 C 252.261,285.542 250.095,286.875 248,288.5C 247.667,288.167 247.333,287.833 247,287.5C 240.677,289.435 234.177,290.435 227.5,290.5C 236.438,288.691 245.438,286.691 254.5,284.5 Z"/></g>
<g><path style="opacity:1" fill="#986fa8" d="M 182.5,290.5 C 195.826,291.689 209.159,291.689 222.5,290.5C 224.167,290.5 225.833,290.5 227.5,290.5C 227.5,290.833 227.5,291.167 227.5,291.5C 215.848,292.233 204.181,292.566 192.5,292.5C 189.813,292.664 187.146,292.497 184.5,292C 183.584,291.722 182.918,291.222 182.5,290.5 Z"/></g>
<g><path style="opacity:1" fill="#eeeeec" d="M 227.5,291.5 C 229.857,291.337 232.19,291.503 234.5,292C 233.874,292.75 233.374,293.584 233,294.5C 232.667,294.167 232.333,293.833 232,293.5C 228.903,294.289 228.736,295.456 231.5,297C 230.101,298.062 229.101,299.395 228.5,301C 229.665,308.265 229.665,315.265 228.5,322C 229.467,324.316 230.467,326.649 231.5,329C 231.043,329.414 230.709,329.914 230.5,330.5C 232.607,332.53 234.607,334.697 236.5,337C 237.833,337.333 239.167,337.667 240.5,338C 239.552,338.483 238.552,338.649 237.5,338.5C 223.841,337.927 210.174,337.594 196.5,337.5C 193.833,337.5 191.167,337.5 188.5,337.5C 186.585,337.784 184.919,337.451 183.5,336.5C 192.932,336.287 202.265,336.12 211.5,336C 210.584,335.626 209.75,335.126 209,334.5C 208.797,330.579 208.297,326.745 207.5,323C 208.59,315.642 208.59,308.308 207.5,301C 209.229,299.211 209.896,297.044 209.5,294.5C 206.389,293.627 200.723,292.961 192.5,292.5C 204.181,292.566 215.848,292.233 227.5,291.5 Z"/></g>
<g><path style="opacity:1" fill="#2f2d51" d="M 91.5,266.5 C 95.6482,281.959 103.315,295.459 114.5,307C 116.078,308.094 117.745,308.928 119.5,309.5C 107.941,314.97 96.2746,314.803 84.5,309C 83.7809,306.444 82.1142,305.277 79.5,305.5C 78.0427,303.372 77.0427,301.038 76.5,298.5C 80.8246,304.82 86.8246,308.153 94.5,308.5C 94.6495,307.448 94.4828,306.448 94,305.5C 93.2588,306.641 92.4255,306.641 91.5,305.5C 90.6858,301.871 88.8525,298.871 86,296.5C 85.5768,293.867 84.4101,291.701 82.5,290C 83.4506,289.282 83.6172,288.449 83,287.5C 80.7206,285.711 78.7206,283.711 77,281.5C 76.5804,277.809 76.0804,274.142 75.5,270.5C 76.9582,272.932 78.1249,275.599 79,278.5C 82.566,283.142 87.2327,286.142 93,287.5C 93.6667,286.833 94.3333,286.167 95,285.5C 94.8047,287.126 94.8047,288.793 95,290.5C 97,292.5 99,294.5 101,296.5C 96.5787,287.116 92.7453,277.282 89.5,267C 89.6834,265.316 90.3501,265.15 91.5,266.5 Z"/></g>
<g><path style="opacity:1" fill="#5c5b76" d="M 79.5,305.5 C 82.1142,305.277 83.7809,306.444 84.5,309C 96.2746,314.803 107.941,314.97 119.5,309.5C 121.947,309.385 123.947,308.385 125.5,306.5C 125.762,307.978 125.429,309.311 124.5,310.5C 123.261,310.942 122.261,311.609 121.5,312.5C 114.128,313.951 106.795,315.618 99.5,317.5C 94.1252,315.329 88.7918,313.162 83.5,311C 82.035,309.226 80.7017,307.392 79.5,305.5 Z"/></g>
<g><path style="opacity:1" fill="#b3a8bc" d="M 125.5,306.5 C 126.479,309.625 126.813,312.958 126.5,316.5C 125.778,316.082 125.278,315.416 125,314.5C 119.92,318.947 114.087,320.281 107.5,318.5C 111.044,317.022 114.71,315.855 118.5,315C 119.942,314.623 120.942,313.79 121.5,312.5C 122.261,311.609 123.261,310.942 124.5,310.5C 125.429,309.311 125.762,307.978 125.5,306.5 Z"/></g>
<g><path style="opacity:1" fill="#828396" d="M 79.5,305.5 C 80.7017,307.392 82.035,309.226 83.5,311C 88.7918,313.162 94.1252,315.329 99.5,317.5C 106.795,315.618 114.128,313.951 121.5,312.5C 120.942,313.79 119.942,314.623 118.5,315C 114.71,315.855 111.044,317.022 107.5,318.5C 114.087,320.281 119.92,318.947 125,314.5C 125.278,315.416 125.778,316.082 126.5,316.5C 126.5,319.833 126.5,323.167 126.5,326.5C 125.549,325.081 125.216,323.415 125.5,321.5C 125.657,320.127 125.49,318.793 125,317.5C 119.859,320.767 114.192,322.434 108,322.5C 101.272,322.255 94.7724,320.921 88.5,318.5C 86.6035,314.878 83.6035,312.712 79.5,312C 77.7068,309.205 75.5402,306.705 73,304.5C 72.6012,304.728 72.4346,305.062 72.5,305.5C 71.5987,304.71 70.9321,303.71 70.5,302.5C 71.2389,302.631 71.9056,302.464 72.5,302C 70.5794,300.759 70.246,299.259 71.5,297.5C 73.8605,299.726 75.8605,302.226 77.5,305C 78.0944,305.464 78.7611,305.631 79.5,305.5 Z"/></g>
<g><path style="opacity:1" fill="#54546f" d="M 125.5,321.5 C 115.447,325.461 104.947,325.461 94,321.5C 93.6667,321.833 93.3333,322.167 93,322.5C 88.9948,320.666 85.3281,318.333 82,315.5C 81.6012,315.728 81.4346,316.062 81.5,316.5C 78.1518,313.149 75.1518,309.482 72.5,305.5C 72.4346,305.062 72.6012,304.728 73,304.5C 75.5402,306.705 77.7068,309.205 79.5,312C 83.6035,312.712 86.6035,314.878 88.5,318.5C 94.7724,320.921 101.272,322.255 108,322.5C 114.192,322.434 119.859,320.767 125,317.5C 125.49,318.793 125.657,320.127 125.5,321.5 Z"/></g>
<g><path style="opacity:1" fill="#363456" d="M 125.5,321.5 C 125.216,323.415 125.549,325.081 126.5,326.5C 127.5,326.833 128.167,327.5 128.5,328.5C 127.503,328.47 126.836,328.97 126.5,330C 127.045,337.792 127.045,345.625 126.5,353.5C 126.167,353.5 125.833,353.5 125.5,353.5C 125.5,346.167 125.5,338.833 125.5,331.5C 112.157,332.8 99.8233,329.966 88.5,323C 85.7121,321.281 83.3788,319.115 81.5,316.5C 81.4346,316.062 81.6012,315.728 82,315.5C 85.3281,318.333 88.9948,320.666 93,322.5C 93.3333,322.167 93.6667,321.833 94,321.5C 104.947,325.461 115.447,325.461 125.5,321.5 Z"/></g>
<g><path style="opacity:1" fill="#c0a3cb" d="M 151.5,334.5 C 151.5,334.167 151.5,333.833 151.5,333.5C 152.833,333.5 154.167,333.5 155.5,333.5C 159.387,333.646 163.054,334.313 166.5,335.5C 161.507,335.084 156.507,334.751 151.5,334.5 Z"/></g>
<g><path style="opacity:1" fill="#531875" d="M 128.5,328.5 C 136,330.811 143.666,332.478 151.5,333.5C 151.5,333.833 151.5,334.167 151.5,334.5C 148.911,335.127 146.411,335.127 144,334.5C 141.176,335.871 138.343,336.871 135.5,337.5C 136.598,338.397 136.598,339.23 135.5,340C 138.167,341.333 138.167,342.667 135.5,344C 135.833,345.667 136.167,347.333 136.5,349C 135.833,349.333 135.167,349.667 134.5,350C 135.167,351.667 135.833,353.333 136.5,355C 135.878,357.754 136.878,360.087 139.5,362C 138.207,362.49 136.873,362.657 135.5,362.5C 132.978,361.989 130.645,360.989 128.5,359.5C 126.919,357.858 126.253,355.858 126.5,353.5C 127.045,345.625 127.045,337.792 126.5,330C 126.836,328.97 127.503,328.47 128.5,328.5 Z"/></g>
<g><path style="opacity:1" fill="#dbc4e2" d="M 196.5,337.5 C 210.174,337.594 223.841,337.927 237.5,338.5C 237.5,338.833 237.5,339.167 237.5,339.5C 234.5,339.5 231.5,339.5 228.5,339.5C 217.656,339.226 206.99,338.56 196.5,337.5 Z"/></g>
<g><path style="opacity:1" fill="#69288d" d="M 151.5,334.5 C 156.507,334.751 161.507,335.084 166.5,335.5C 172.181,335.635 177.848,335.968 183.5,336.5C 184.919,337.451 186.585,337.784 188.5,337.5C 188.918,338.222 189.584,338.722 190.5,339C 201.525,339.541 212.525,340.374 223.5,341.5C 220.284,342.328 217.284,342.662 214.5,342.5C 217.306,343.168 219.972,343.834 222.5,344.5C 214.19,345.426 205.857,344.76 197.5,342.5C 189.712,343.308 181.879,343.308 174,342.5C 172.921,340.606 171.587,340.273 170,341.5C 166.797,340.69 163.631,339.69 160.5,338.5C 157.378,339.691 154.378,339.357 151.5,337.5C 145.979,338.539 140.645,338.539 135.5,337.5C 138.343,336.871 141.176,335.871 144,334.5C 146.411,335.127 148.911,335.127 151.5,334.5 Z"/></g>
<g><path style="opacity:1" fill="#c9aed3" d="M 228.5,339.5 C 231.5,339.5 234.5,339.5 237.5,339.5C 251.5,339.5 265.5,339.5 279.5,339.5C 283.298,340.483 287.298,340.817 291.5,340.5C 291.5,340.833 291.5,341.167 291.5,341.5C 270.327,341.268 249.327,340.602 228.5,339.5 Z"/></g>
<g><path style="opacity:1" fill="#f0e2f5" d="M 344.5,338.5 C 344.5,339.5 344.5,340.5 344.5,341.5C 330.5,341.5 316.5,341.5 302.5,341.5C 298.833,341.5 295.167,341.5 291.5,341.5C 291.5,341.167 291.5,340.833 291.5,340.5C 292.833,340.5 294.167,340.5 295.5,340.5C 298.167,340.5 300.833,340.5 303.5,340.5C 317.412,341.121 331.079,340.454 344.5,338.5 Z"/></g>
<g><path style="opacity:1" fill="#a985b6" d="M 349.5,337.5 C 349.5,338.833 349.5,340.167 349.5,341.5C 355.5,341.5 361.5,341.5 367.5,341.5C 372.5,341.5 377.5,341.5 382.5,341.5C 377.025,342.489 371.358,342.822 365.5,342.5C 359.833,342.5 354.167,342.5 348.5,342.5C 348.216,340.585 348.549,338.919 349.5,337.5 Z"/></g>
<g><path style="opacity:1" fill="#723d8c" d="M 135.5,337.5 C 140.645,338.539 145.979,338.539 151.5,337.5C 154.378,339.357 157.378,339.691 160.5,338.5C 163.631,339.69 166.797,340.69 170,341.5C 171.587,340.273 172.921,340.606 174,342.5C 181.879,343.308 189.712,343.308 197.5,342.5C 205.857,344.76 214.19,345.426 222.5,344.5C 223.396,343.494 224.062,343.494 224.5,344.5C 226.631,345.314 228.964,345.814 231.5,346C 230.142,348.026 229.309,350.193 229,352.5C 227.833,351.333 226.667,350.167 225.5,349C 224.668,348.312 224.002,348.479 223.5,349.5C 226.215,352.715 227.549,356.215 227.5,360C 225.398,361.73 225.565,363.563 228,365.5C 228.805,363.099 229.638,363.266 230.5,366C 228.167,366.333 225.833,366.667 223.5,367C 224.211,368.255 225.044,369.421 226,370.5C 226.333,369.833 226.667,369.167 227,368.5C 228.281,368.381 229.448,368.881 230.5,370C 229.328,370.419 228.328,371.085 227.5,372C 217.839,372.5 208.172,372.666 198.5,372.5C 176.89,372.24 155.89,368.907 135.5,362.5C 136.873,362.657 138.207,362.49 139.5,362C 136.878,360.087 135.878,357.754 136.5,355C 135.833,353.333 135.167,351.667 134.5,350C 135.167,349.667 135.833,349.333 136.5,349C 136.167,347.333 135.833,345.667 135.5,344C 138.167,342.667 138.167,341.333 135.5,340C 136.598,339.23 136.598,338.397 135.5,337.5 Z"/></g>
<g><path style="opacity:1" fill="#5d1c80" d="M 188.5,337.5 C 191.167,337.5 193.833,337.5 196.5,337.5C 206.99,338.56 217.656,339.226 228.5,339.5C 249.327,340.602 270.327,341.268 291.5,341.5C 295.167,341.5 298.833,341.5 302.5,341.5C 312.653,342.494 322.986,342.828 333.5,342.5C 332.003,343.306 330.336,343.972 328.5,344.5C 321.884,343.372 315.218,343.205 308.5,344C 311.976,345.254 315.642,345.921 319.5,346C 317.942,346.21 316.609,346.71 315.5,347.5C 305.91,347.653 296.576,347.653 287.5,347.5C 280.765,346.173 273.932,346.173 267,347.5C 266.333,346.833 265.667,346.167 265,345.5C 262.889,345.577 260.889,345.911 259,346.5C 255.333,345.833 251.667,345.167 248,344.5C 244.645,345.366 241.145,345.7 237.5,345.5C 235.813,345.24 234.313,344.573 233,343.5C 230.3,343.191 227.467,343.524 224.5,344.5C 224.062,343.494 223.396,343.494 222.5,344.5C 219.972,343.834 217.306,343.168 214.5,342.5C 217.284,342.662 220.284,342.328 223.5,341.5C 212.525,340.374 201.525,339.541 190.5,339C 189.584,338.722 188.918,338.222 188.5,337.5 Z"/></g>
<g><path style="opacity:1" fill="#6c2a90" d="M 333.5,342.5 C 338.5,342.5 343.5,342.5 348.5,342.5C 354.167,342.5 359.833,342.5 365.5,342.5C 362.359,343.321 359.025,343.821 355.5,344C 358.051,344.002 360.051,344.836 361.5,346.5C 360.264,346.989 358.764,346.989 357,346.5C 356.536,347.094 356.369,347.761 356.5,348.5C 355.778,348.082 355.278,347.416 355,346.5C 352.333,347.167 349.667,347.833 347,348.5C 341.282,347.657 335.782,347.657 330.5,348.5C 325.892,348.262 320.892,347.929 315.5,347.5C 316.609,346.71 317.942,346.21 319.5,346C 315.642,345.921 311.976,345.254 308.5,344C 315.218,343.205 321.884,343.372 328.5,344.5C 330.336,343.972 332.003,343.306 333.5,342.5 Z"/></g>
<g><path style="opacity:1" fill="#67347f" d="M 287.5,347.5 C 286.448,347.351 285.448,347.517 284.5,348C 291.903,348.466 293.236,351.466 288.5,357C 288.835,358.867 289.335,361.034 290,363.5C 290.333,362.5 290.667,361.5 291,360.5C 292.494,363.112 292.494,365.445 291,367.5C 290.667,367.167 290.333,366.833 290,366.5C 289.626,367.416 289.126,368.25 288.5,369C 289.357,369.689 290.023,370.522 290.5,371.5C 295.385,372.802 300.218,372.802 305,371.5C 307.277,372.117 309.444,372.784 311.5,373.5C 293.008,374.054 274.508,374.387 256,374.5C 236.641,374.706 217.475,374.04 198.5,372.5C 208.172,372.666 217.839,372.5 227.5,372C 228.328,371.085 229.328,370.419 230.5,370C 229.448,368.881 228.281,368.381 227,368.5C 226.667,369.167 226.333,369.833 226,370.5C 225.044,369.421 224.211,368.255 223.5,367C 225.833,366.667 228.167,366.333 230.5,366C 229.638,363.266 228.805,363.099 228,365.5C 225.565,363.563 225.398,361.73 227.5,360C 227.549,356.215 226.215,352.715 223.5,349.5C 224.002,348.479 224.668,348.312 225.5,349C 226.667,350.167 227.833,351.333 229,352.5C 229.309,350.193 230.142,348.026 231.5,346C 228.964,345.814 226.631,345.314 224.5,344.5C 227.467,343.524 230.3,343.191 233,343.5C 234.313,344.573 235.813,345.24 237.5,345.5C 241.145,345.7 244.645,345.366 248,344.5C 251.667,345.167 255.333,345.833 259,346.5C 260.889,345.911 262.889,345.577 265,345.5C 265.667,346.167 266.333,346.833 267,347.5C 273.932,346.173 280.765,346.173 287.5,347.5 Z"/></g>
<g><path style="opacity:0.408" fill="#393351" d="M 384.5,341.5 C 384.833,341.5 385.167,341.5 385.5,341.5C 385.823,348.022 385.49,354.355 384.5,360.5C 384.5,359.833 384.167,359.5 383.5,359.5C 383.5,357.833 383.5,356.167 383.5,354.5C 384.295,350.215 384.628,345.881 384.5,341.5 Z"/></g>
<g><path style="opacity:1" fill="#703a8a" d="M 315.5,347.5 C 320.892,347.929 325.892,348.262 330.5,348.5C 332.878,351.601 334.544,354.768 335.5,358C 332.096,359.863 331.929,361.697 335,363.5C 335.483,364.448 335.649,365.448 335.5,366.5C 338.348,367.657 340.848,367.324 343,365.5C 343.483,366.448 343.649,367.448 343.5,368.5C 345.936,368.683 348.103,368.016 350,366.5C 352.091,367.5 353.757,366.833 355,364.5C 355.684,363.216 355.517,362.049 354.5,361C 357.408,359.087 358.074,356.754 356.5,354C 360.5,353.333 360.5,352.667 356.5,352C 360.852,351.581 361.185,350.914 357.5,350C 359.932,348.913 359.598,348.413 356.5,348.5C 356.369,347.761 356.536,347.094 357,346.5C 358.764,346.989 360.264,346.989 361.5,346.5C 365.67,347.137 369.836,347.803 374,348.5C 376.739,351.682 376.905,354.682 374.5,357.5C 375.902,358.842 375.569,359.676 373.5,360C 373.93,360.92 374.264,361.753 374.5,362.5C 377.953,360.16 380.953,357.494 383.5,354.5C 383.5,356.167 383.5,357.833 383.5,359.5C 381.692,360.907 379.692,362.074 377.5,363C 355.887,368.778 333.887,372.278 311.5,373.5C 309.444,372.784 307.277,372.117 305,371.5C 300.218,372.802 295.385,372.802 290.5,371.5C 290.023,370.522 289.357,369.689 288.5,369C 289.126,368.25 289.626,367.416 290,366.5C 290.333,366.833 290.667,367.167 291,367.5C 292.494,365.445 292.494,363.112 291,360.5C 290.667,361.5 290.333,362.5 290,363.5C 289.335,361.034 288.835,358.867 288.5,357C 293.236,351.466 291.903,348.466 284.5,348C 285.448,347.517 286.448,347.351 287.5,347.5C 296.576,347.653 305.91,347.653 315.5,347.5 Z"/></g>
<g><path style="opacity:1" fill="#7a4594" d="M 356.5,348.5 C 359.598,348.413 359.932,348.913 357.5,350C 361.185,350.914 360.852,351.581 356.5,352C 360.5,352.667 360.5,353.333 356.5,354C 358.074,356.754 357.408,359.087 354.5,361C 355.517,362.049 355.684,363.216 355,364.5C 353.757,366.833 352.091,367.5 350,366.5C 348.103,368.016 345.936,368.683 343.5,368.5C 343.649,367.448 343.483,366.448 343,365.5C 340.848,367.324 338.348,367.657 335.5,366.5C 335.649,365.448 335.483,364.448 335,363.5C 331.929,361.697 332.096,359.863 335.5,358C 334.544,354.768 332.878,351.601 330.5,348.5C 335.782,347.657 341.282,347.657 347,348.5C 349.667,347.833 352.333,347.167 355,346.5C 355.278,347.416 355.778,348.082 356.5,348.5 Z"/></g>
<g><path style="opacity:1" fill="#531577" d="M 382.5,341.5 C 383.167,341.5 383.833,341.5 384.5,341.5C 384.628,345.881 384.295,350.215 383.5,354.5C 380.953,357.494 377.953,360.16 374.5,362.5C 374.264,361.753 373.93,360.92 373.5,360C 375.569,359.676 375.902,358.842 374.5,357.5C 376.905,354.682 376.739,351.682 374,348.5C 369.836,347.803 365.67,347.137 361.5,346.5C 360.051,344.836 358.051,344.002 355.5,344C 359.025,343.821 362.359,343.321 365.5,342.5C 371.358,342.822 377.025,342.489 382.5,341.5 Z"/></g>
<g><path style="opacity:0.488" fill="#908897" d="M 125.5,353.5 C 125.833,353.5 126.167,353.5 126.5,353.5C 126.253,355.858 126.919,357.858 128.5,359.5C 127.833,359.5 127.5,359.833 127.5,360.5C 126.883,360.389 126.383,360.056 126,359.5C 125.505,357.527 125.338,355.527 125.5,353.5 Z"/></g>
<g><path style="opacity:1" fill="#ece7ed" d="M 128.5,359.5 C 130.645,360.989 132.978,361.989 135.5,362.5C 155.89,368.907 176.89,372.24 198.5,372.5C 217.475,374.04 236.641,374.706 256,374.5C 274.508,374.387 293.008,374.054 311.5,373.5C 333.887,372.278 355.887,368.778 377.5,363C 379.692,362.074 381.692,360.907 383.5,359.5C 384.167,359.5 384.5,359.833 384.5,360.5C 384.727,362.933 383.727,364.599 381.5,365.5C 380.883,365.389 380.383,365.056 380,364.5C 374.852,367.168 369.352,369.001 363.5,370C 347.638,372.182 331.971,374.682 316.5,377.5C 316.167,377.5 315.833,377.5 315.5,377.5C 312.713,376.523 309.713,376.19 306.5,376.5C 272.159,376.701 237.825,376.368 203.5,375.5C 182.034,374.29 160.701,371.957 139.5,368.5C 134.458,367.318 130.458,364.651 127.5,360.5C 127.5,359.833 127.833,359.5 128.5,359.5 Z"/></g>
<g><path style="opacity:0.376" fill="#9b97a2" d="M 381.5,365.5 C 379.3,367.64 376.633,369.14 373.5,370C 354.747,374.342 335.747,376.842 316.5,377.5C 331.971,374.682 347.638,372.182 363.5,370C 369.352,369.001 374.852,367.168 380,364.5C 380.383,365.056 380.883,365.389 381.5,365.5 Z"/></g>
<g><path style="opacity:1" fill="#d9d8d9" d="M 203.5,375.5 C 237.825,376.368 272.159,376.701 306.5,376.5C 292.171,377.167 277.671,377.5 263,377.5C 242.975,377.712 223.142,377.045 203.5,375.5 Z"/></g>
<g><path style="opacity:0.441" fill="#908e98" d="M 139.5,368.5 C 160.701,371.957 182.034,374.29 203.5,375.5C 223.142,377.045 242.975,377.712 263,377.5C 277.671,377.5 292.171,377.167 306.5,376.5C 309.713,376.19 312.713,376.523 315.5,377.5C 260.643,381.771 205.976,379.937 151.5,372C 147.291,371.119 143.291,369.953 139.5,368.5 Z"/></g>
</svg>
