<?xml version="1.0" encoding="UTF-8"?>
<!DOCTYPE svg PUBLIC "-//W3C//DTD SVG 1.1//EN" "http://www.w3.org/Graphics/SVG/1.1/DTD/svg11.dtd">
<svg xmlns="http://www.w3.org/2000/svg" version="1.1" width="225px" height="225px" style="shape-rendering:geometricPrecision; text-rendering:geometricPrecision; image-rendering:optimizeQuality; fill-rule:evenodd; clip-rule:evenodd" xmlns:xlink="http://www.w3.org/1999/xlink">
<g><path style="opacity:1" fill="#3b7fb8" d="M 63.5,131.5 C 62.5088,138.313 62.1755,145.313 62.5,152.5C 55.5,152.5 48.5,152.5 41.5,152.5C 35.1137,149.941 30.9471,145.274 29,138.5C 24.3333,120.833 24.3333,103.167 29,85.5C 30.9471,78.7261 35.1137,74.0594 41.5,71.5C 65.1667,71.5 88.8333,71.5 112.5,71.5C 112.5,68.5 112.5,65.5 112.5,62.5C 98.8333,62.5 85.1667,62.5 71.5,62.5C 71.5,55.5 71.5,48.5 71.5,41.5C 74.7543,34.1785 80.4209,29.6785 88.5,28C 102.764,25.1096 117.097,24.7763 131.5,27C 136.739,28.4128 141.739,30.4128 146.5,33C 149.433,35.2643 151.6,38.0976 153,41.5C 153.667,59.5 153.667,77.5 153,95.5C 150.762,102.07 146.262,106.237 139.5,108C 121.5,108.333 103.5,108.667 85.5,109C 73.2579,111.742 65.9246,119.242 63.5,131.5 Z M 86.5,37.5 C 94.3296,36.4949 97.4963,39.8283 96,47.5C 91.6186,52.8208 87.2853,52.8208 83,47.5C 81.7563,43.191 82.9229,39.8577 86.5,37.5 Z"/></g>
<g><path style="opacity:0.701" fill="#79a2c9" d="M 71.5,41.5 C 71.5,48.5 71.5,55.5 71.5,62.5C 85.1667,62.5 98.8333,62.5 112.5,62.5C 112.5,65.5 112.5,68.5 112.5,71.5C 88.8333,71.5 65.1667,71.5 41.5,71.5C 64.6607,70.5025 87.994,70.1691 111.5,70.5C 111.5,68.1667 111.5,65.8333 111.5,63.5C 97.8333,63.5 84.1667,63.5 70.5,63.5C 70.175,55.9809 70.5084,48.6476 71.5,41.5 Z"/></g>
<g><path style="opacity:0.721" fill="#ffd47c" d="M 182.5,71.5 C 175.5,71.5 168.5,71.5 161.5,71.5C 161.666,78.5079 161.5,85.5079 161,92.5C 160.768,93.7375 160.268,94.7375 159.5,95.5C 160.371,87.2004 160.705,78.8671 160.5,70.5C 168.019,70.175 175.352,70.5084 182.5,71.5 Z"/></g>
<g><path style="opacity:1" fill="#ffc335" d="M 182.5,71.5 C 188.849,74.0258 193.016,78.6925 195,85.5C 201.532,106.373 200.198,126.707 191,146.5C 188.793,149.564 185.959,151.564 182.5,152.5C 158.833,152.5 135.167,152.5 111.5,152.5C 111.5,155.5 111.5,158.5 111.5,161.5C 125.167,161.5 138.833,161.5 152.5,161.5C 152.5,168.5 152.5,175.5 152.5,182.5C 150.798,187.041 147.798,190.541 143.5,193C 137.765,195.601 131.765,197.267 125.5,198C 116.5,198.667 107.5,198.667 98.5,198C 88.5174,197.255 80.0174,193.422 73,186.5C 72.3333,185.167 71.6667,183.833 71,182.5C 70.3333,164.5 70.3333,146.5 71,128.5C 73.0789,122.753 76.9122,118.586 82.5,116C 100.833,115.667 119.167,115.333 137.5,115C 144.798,114.181 150.798,111.015 155.5,105.5C 156.906,105.027 157.573,104.027 157.5,102.5C 158.167,100.167 158.833,97.8333 159.5,95.5C 160.268,94.7375 160.768,93.7375 161,92.5C 161.5,85.5079 161.666,78.5079 161.5,71.5C 168.5,71.5 175.5,71.5 182.5,71.5 Z M 132.5,172.5 C 142.286,174.089 143.953,178.589 137.5,186C 130.333,186.833 127.167,183.667 128,176.5C 129.397,174.93 130.897,173.596 132.5,172.5 Z"/></g>
<g><path style="opacity:0.502" fill="#ffe1a3" d="M 157.5,102.5 C 157.573,104.027 156.906,105.027 155.5,105.5C 155.427,103.973 156.094,102.973 157.5,102.5 Z"/></g>
<g><path style="opacity:0.701" fill="#78a1c9" d="M 63.5,131.5 C 63.5,138.833 63.5,146.167 63.5,153.5C 55.9809,153.825 48.6476,153.492 41.5,152.5C 48.5,152.5 55.5,152.5 62.5,152.5C 62.1755,145.313 62.5088,138.313 63.5,131.5 Z"/></g>
<g><path style="opacity:0.762" fill="#ffd273" d="M 182.5,152.5 C 159.339,153.498 136.006,153.831 112.5,153.5C 112.5,155.833 112.5,158.167 112.5,160.5C 126.167,160.5 139.833,160.5 153.5,160.5C 153.825,168.019 153.492,175.352 152.5,182.5C 152.5,175.5 152.5,168.5 152.5,161.5C 138.833,161.5 125.167,161.5 111.5,161.5C 111.5,158.5 111.5,155.5 111.5,152.5C 135.167,152.5 158.833,152.5 182.5,152.5 Z"/></g>
</svg>
