<?xml version="1.0" encoding="UTF-8"?>
<!DOCTYPE svg PUBLIC "-//W3C//DTD SVG 1.1//EN" "http://www.w3.org/Graphics/SVG/1.1/DTD/svg11.dtd">
<svg xmlns="http://www.w3.org/2000/svg" version="1.1" width="96px" height="96px" style="shape-rendering:geometricPrecision; text-rendering:geometricPrecision; image-rendering:optimizeQuality; fill-rule:evenodd; clip-rule:evenodd" xmlns:xlink="http://www.w3.org/1999/xlink">
<g><path style="opacity:0.893" fill="#53c1de" d="M 95.5,43.5 C 95.5,46.1667 95.5,48.8333 95.5,51.5C 90.0531,57.4138 83.3864,61.5805 75.5,64C 79.5864,91.7217 70.2531,97.2217 47.5,80.5C 40.9995,87.5842 32.9995,90.4176 23.5,89C 21.1898,87.3626 19.6898,85.196 19,82.5C 18.2097,76.4478 18.3764,70.4478 19.5,64.5C 11.4081,62.1355 4.74147,57.8022 -0.5,51.5C -0.5,48.8333 -0.5,46.1667 -0.5,43.5C 4.61533,37.7645 10.9487,33.7645 18.5,31.5C 18.0164,24.2076 18.5164,16.8743 20,9.5C 24.7865,5.09694 30.2865,4.2636 36.5,7C 40.3037,9.30453 43.9704,11.8045 47.5,14.5C 69.7487,-2.2369 79.082,3.09643 75.5,30.5C 79.8022,32.6511 84.1356,34.8178 88.5,37C 91.3576,38.6941 93.691,40.8607 95.5,43.5 Z M 25.5,10.5 C 32.8978,10.3655 38.8978,13.1988 43.5,19C 41.1667,22 38.8333,25 36.5,28C 32.4803,29.1775 28.4803,29.3441 24.5,28.5C 22.9408,22.3396 23.2742,16.3396 25.5,10.5 Z M 62.5,10.5 C 66.471,9.75768 69.3043,11.091 71,14.5C 71.8392,19.9212 71.5059,25.2545 70,30.5C 66.2836,29.2955 62.4503,28.4622 58.5,28C 56.1667,25 53.8333,22 51.5,19C 54.8745,15.6625 58.5411,12.8292 62.5,10.5 Z M 46.5,23.5 C 48.5441,24.0312 50.2107,25.1978 51.5,27C 48.8333,27.6667 46.1667,27.6667 43.5,27C 44.7101,25.9609 45.7101,24.7942 46.5,23.5 Z M 40.5,32.5 C 45.5649,32.219 50.5649,32.5524 55.5,33.5C 58.2503,37.3318 60.7503,41.3318 63,45.5C 63.5516,48.4192 62.8849,51.0859 61,53.5C 59.4278,56.8222 57.2612,59.6555 54.5,62C 49.4456,62.781 44.4456,62.6143 39.5,61.5C 35.2944,56.8449 32.7944,51.5116 32,45.5C 34.3597,40.7596 37.1931,36.4263 40.5,32.5 Z M 31.5,34.5 C 29.431,41.8217 27.431,41.9884 25.5,35C 27.4727,34.5045 29.4727,34.3379 31.5,34.5 Z M 63.5,34.5 C 65.1667,34.5 66.8333,34.5 68.5,34.5C 67.6765,42.0865 66.0098,42.0865 63.5,34.5 Z M 18.5,36.5 C 19.5,36.5 20.5,36.5 21.5,36.5C 22.2963,40.2223 23.2963,43.889 24.5,47.5C 23.2963,51.111 22.2963,54.7777 21.5,58.5C 15.786,57.3932 10.6193,55.0599 6,51.5C 5.21893,50.2713 4.71893,48.938 4.5,47.5C 5.55891,44.9318 7.22557,42.7651 9.5,41C 12.6478,39.5765 15.6478,38.0765 18.5,36.5 Z M 73.5,36.5 C 95.1742,42.4592 95.8408,49.7925 75.5,58.5C 72.9174,55.1584 71.2508,51.3251 70.5,47C 71.806,43.5825 72.806,40.0825 73.5,36.5 Z M 63.5,60.5 C 64.1283,57.91 65.295,55.5766 67,53.5C 67.6419,55.7619 68.4752,57.9285 69.5,60C 67.5273,60.4955 65.5273,60.6621 63.5,60.5 Z M 27.5,54.5 C 34.3373,60.656 33.6706,62.4893 25.5,60C 26.464,58.2745 27.1307,56.4412 27.5,54.5 Z M 24.5,65.5 C 28.5092,65.8583 32.5092,66.3583 36.5,67C 38.6667,69.8333 40.8333,72.6667 43,75.5C 43.6667,76.1667 43.6667,76.8333 43,77.5C 26.1157,90.1983 19.949,86.1983 24.5,65.5 Z M 65.5,65.5 C 67.4672,65.2606 69.3005,65.5939 71,66.5C 73.2442,86.6621 66.7442,89.8288 51.5,76C 54.3167,73.3619 56.65,70.3619 58.5,67C 61.0356,66.8138 63.369,66.3138 65.5,65.5 Z M 43.5,68.5 C 45.9664,67.3659 48.633,67.1993 51.5,68C 49.9512,69.214 48.7845,70.714 48,72.5C 46.6288,70.9586 45.1288,69.6253 43.5,68.5 Z"/></g>
<g><path style="opacity:0.929" fill="#53c1de" d="M 44.5,38.5 C 55.0877,38.6769 58.4211,43.6769 54.5,53.5C 48.1705,58.1408 43.0038,57.1408 39,50.5C 37.8936,45.0512 39.7269,41.0512 44.5,38.5 Z"/></g>
</svg>
