<?xml version="1.0" encoding="UTF-8"?>
<!DOCTYPE svg PUBLIC "-//W3C//DTD SVG 1.1//EN" "http://www.w3.org/Graphics/SVG/1.1/DTD/svg11.dtd">
<svg xmlns="http://www.w3.org/2000/svg" version="1.1" width="512px" height="512px" style="shape-rendering:geometricPrecision; text-rendering:geometricPrecision; image-rendering:optimizeQuality; fill-rule:evenodd; clip-rule:evenodd" xmlns:xlink="http://www.w3.org/1999/xlink">
<g><path style="opacity:0.998" fill="#eeeeee" d="M 245.5,9.5 C 248.206,9.5751 250.873,9.90843 253.5,10.5C 253.833,10.5 254.167,10.5 254.5,10.5C 255.833,10.8333 257.167,11.1667 258.5,11.5C 265.555,12.9302 272.222,14.5969 278.5,16.5C 279.708,17.2341 281.041,17.5674 282.5,17.5C 283.531,18.2485 284.698,18.9152 286,19.5C 287.049,18.4829 288.216,18.3162 289.5,19C 288.288,20.1068 288.621,20.6068 290.5,20.5C 291.209,21.404 292.209,21.7373 293.5,21.5C 293.5,22.1667 293.833,22.5 294.5,22.5C 295.833,23.1667 297.167,23.8333 298.5,24.5C 301.119,24.9255 303.453,25.9255 305.5,27.5C 305.833,27.5 306.167,27.5 306.5,27.5C 306.5,28.1667 306.833,28.5 307.5,28.5C 307.833,28.5 308.167,28.5 308.5,28.5C 308.5,29.1667 308.833,29.5 309.5,29.5C 309.833,29.5 310.167,29.5 310.5,29.5C 310.842,30.3382 311.508,30.6716 312.5,30.5C 313.514,31.6737 314.847,32.3404 316.5,32.5C 316.5,33.1667 316.833,33.5 317.5,33.5C 318.514,34.6737 319.847,35.3404 321.5,35.5C 321.833,36.8333 322.167,36.8333 322.5,35.5C 322.833,35.5 323.167,35.5 323.5,35.5C 323.328,36.4916 323.662,37.1583 324.5,37.5C 325.795,38.4884 327.128,39.4884 328.5,40.5C 329.167,40.8333 329.833,41.1667 330.5,41.5C 331.605,42.6005 332.938,43.2671 334.5,43.5C 334.842,44.3382 335.508,44.6716 336.5,44.5C 336.5,45.1667 336.833,45.5 337.5,45.5C 337.5,46.1667 337.833,46.5 338.5,46.5C 338.973,47.9063 339.973,48.573 341.5,48.5C 341.5,49.1667 341.833,49.5 342.5,49.5C 342.5,50.1667 342.833,50.5 343.5,50.5C 343.5,51.1667 343.833,51.5 344.5,51.5C 344.833,51.5 345.167,51.5 345.5,51.5C 345.833,52.5 346.5,53.1667 347.5,53.5C 348.5,54.1667 349.5,54.8333 350.5,55.5C 350.5,56.1667 350.833,56.5 351.5,56.5C 351.833,57.5 352.5,58.1667 353.5,58.5C 354.29,59.4013 355.29,60.0679 356.5,60.5C 357.853,62.1827 359.52,63.5161 361.5,64.5C 361.5,64.8333 361.5,65.1667 361.5,65.5C 361.842,66.3382 362.508,66.6716 363.5,66.5C 363.5,67.1667 363.833,67.5 364.5,67.5C 364.833,68.5 365.5,69.1667 366.5,69.5C 366.5,70.1667 366.833,70.5 367.5,70.5C 368.167,71.8333 369.167,72.8333 370.5,73.5C 372.167,74.5 373.5,75.8333 374.5,77.5C 375.5,79.1667 376.833,80.5 378.5,81.5C 380.134,82.9549 381.468,84.6216 382.5,86.5C 382.5,87.1667 382.833,87.5 383.5,87.5C 383.5,88.1667 383.833,88.5 384.5,88.5C 384.5,89.1667 384.833,89.5 385.5,89.5C 387.196,91.5248 388.863,93.5248 390.5,95.5C 390.5,96.1667 390.833,96.5 391.5,96.5C 391.5,97.1667 391.833,97.5 392.5,97.5C 392.833,98.5 393.5,99.1667 394.5,99.5C 395.08,101.749 396.413,103.415 398.5,104.5C 398.5,105.167 398.833,105.5 399.5,105.5C 399.5,106.167 399.833,106.5 400.5,106.5C 400.5,107.167 400.833,107.5 401.5,107.5C 401.5,107.833 401.5,108.167 401.5,108.5C 402.786,111.117 404.453,113.45 406.5,115.5C 407.475,117.795 408.808,119.795 410.5,121.5C 410.5,122.167 410.833,122.5 411.5,122.5C 411.5,122.833 411.5,123.167 411.5,123.5C 411.833,124.5 412.5,125.167 413.5,125.5C 413.328,126.492 413.662,127.158 414.5,127.5C 415.512,128.872 416.512,130.205 417.5,131.5C 417.5,131.833 417.5,132.167 417.5,132.5C 417.5,133.167 417.833,133.5 418.5,133.5C 418.833,134.167 419.167,134.833 419.5,135.5C 420.512,136.872 421.512,138.205 422.5,139.5C 422.733,141.062 423.4,142.395 424.5,143.5C 424.5,144.167 424.833,144.5 425.5,144.5C 425.5,144.833 425.5,145.167 425.5,145.5C 425.5,146.167 425.833,146.5 426.5,146.5C 426.5,146.833 426.5,147.167 426.5,147.5C 426.5,148.167 426.833,148.5 427.5,148.5C 428.5,150.5 429.5,152.5 430.5,154.5C 430.5,155.167 430.833,155.5 431.5,155.5C 431.5,155.833 431.5,156.167 431.5,156.5C 431.5,157.167 431.833,157.5 432.5,157.5C 432.5,157.833 432.5,158.167 432.5,158.5C 432.5,159.167 432.833,159.5 433.5,159.5C 433.5,159.833 433.5,160.167 433.5,160.5C 433.5,161.167 433.833,161.5 434.5,161.5C 434.328,162.492 434.662,163.158 435.5,163.5C 436.11,164.391 436.443,165.391 436.5,166.5C 436.5,167.167 436.833,167.5 437.5,167.5C 437.5,168.167 437.833,168.5 438.5,168.5C 438.5,168.833 438.5,169.167 438.5,169.5C 438.5,170.167 438.833,170.5 439.5,170.5C 439.5,170.833 439.5,171.167 439.5,171.5C 439.5,172.167 439.833,172.5 440.5,172.5C 440.557,173.609 440.89,174.609 441.5,175.5C 441.833,176.167 442.167,176.833 442.5,177.5C 442.5,178.167 442.833,178.5 443.5,178.5C 443.5,178.833 443.5,179.167 443.5,179.5C 443.5,179.833 443.5,180.167 443.5,180.5C 443.5,181.167 443.833,181.5 444.5,181.5C 444.5,181.833 444.5,182.167 444.5,182.5C 444.833,183.167 445.167,183.833 445.5,184.5C 445.5,185.167 445.833,185.5 446.5,185.5C 448.47,188.721 450.137,193.055 451.5,198.5C 451.833,199.167 452.167,199.833 452.5,200.5C 452.856,202.19 453.856,203.19 455.5,203.5C 455.5,203.833 455.5,204.167 455.5,204.5C 454.833,204.5 454.5,204.833 454.5,205.5C 455.508,208.844 456.508,212.177 457.5,215.5C 457.5,216.167 457.833,216.5 458.5,216.5C 458.328,217.492 458.662,218.158 459.5,218.5C 459.5,219.167 459.5,219.833 459.5,220.5C 459.5,221.167 459.833,221.5 460.5,221.5C 460.263,222.791 460.596,223.791 461.5,224.5C 461.263,225.791 461.596,226.791 462.5,227.5C 462.5,228.167 462.5,228.833 462.5,229.5C 462.5,230.167 462.833,230.5 463.5,230.5C 465.209,238.013 467.209,245.346 469.5,252.5C 469.5,252.833 469.5,253.167 469.5,253.5C 469.263,254.791 469.596,255.791 470.5,256.5C 470.5,256.833 470.5,257.167 470.5,257.5C 470.802,260.373 471.469,263.039 472.5,265.5C 472.5,265.833 472.5,266.167 472.5,266.5C 472.232,268.099 472.566,269.432 473.5,270.5C 473.5,270.833 473.5,271.167 473.5,271.5C 473.232,273.099 473.566,274.432 474.5,275.5C 474.5,276.5 474.5,277.5 474.5,278.5C 474.833,280.5 475.167,282.5 475.5,284.5C 475.5,285.167 475.5,285.833 475.5,286.5C 476.11,287.391 476.443,288.391 476.5,289.5C 476.5,289.833 476.5,290.167 476.5,290.5C 476.5,291.5 476.5,292.5 476.5,293.5C 476.5,294.167 476.833,294.5 477.5,294.5C 477.5,295.5 477.5,296.5 477.5,297.5C 477.5,298.5 477.5,299.5 477.5,300.5C 477.629,302.216 477.962,303.883 478.5,305.5C 480.387,329.189 479.387,352.856 475.5,376.5C 474.542,378.302 473.875,380.302 473.5,382.5C 473.401,385.424 473.067,388.424 472.5,391.5C 472.167,391.5 471.833,391.5 471.5,391.5C 470.662,391.842 470.328,392.508 470.5,393.5C 469.654,398.185 467.987,402.519 465.5,406.5C 464.833,406.5 464.5,406.833 464.5,407.5C 463.89,408.391 463.557,409.391 463.5,410.5C 462.662,410.842 462.328,411.508 462.5,412.5C 460.99,414.322 459.657,416.322 458.5,418.5C 457.662,418.842 457.328,419.508 457.5,420.5C 456.833,420.5 456.5,420.833 456.5,421.5C 455.833,421.5 455.5,421.833 455.5,422.5C 454.599,423.29 453.932,424.29 453.5,425.5C 451.738,426.262 450.738,427.596 450.5,429.5C 449.167,430.167 448.167,431.167 447.5,432.5C 444.553,433.781 442.219,435.781 440.5,438.5C 439.5,439.167 438.5,439.833 437.5,440.5C 435.566,441.11 433.899,442.11 432.5,443.5C 431.005,443.989 429.671,444.655 428.5,445.5C 427.508,445.328 426.842,445.662 426.5,446.5C 425.209,446.263 424.209,446.596 423.5,447.5C 423.167,447.5 422.833,447.5 422.5,447.5C 420.833,448.167 419.167,448.833 417.5,449.5C 416.833,449.5 416.167,449.5 415.5,449.5C 412.076,450.51 408.743,451.51 405.5,452.5C 404.167,452.5 402.833,452.5 401.5,452.5C 394.313,452.175 387.313,452.509 380.5,453.5C 377.5,453.5 374.5,453.5 371.5,453.5C 369.265,453.205 367.265,453.539 365.5,454.5C 359.931,454.376 354.598,455.043 349.5,456.5C 346.382,457.21 343.215,457.877 340,458.5C 339.228,458.355 338.561,458.022 338,457.5C 336.951,459.107 335.451,459.773 333.5,459.5C 333.167,458.167 332.833,458.167 332.5,459.5C 331.5,459.5 330.5,459.5 329.5,459.5C 326.237,460.482 322.903,461.149 319.5,461.5C 318.833,461.5 318.5,461.833 318.5,462.5C 314.603,463.055 310.937,464.055 307.5,465.5C 306.209,465.263 305.209,465.596 304.5,466.5C 303.833,466.5 303.167,466.5 302.5,466.5C 300.597,466.796 298.93,467.463 297.5,468.5C 297.167,468.5 296.833,468.5 296.5,468.5C 295.209,468.263 294.209,468.596 293.5,469.5C 292.391,469.557 291.391,469.89 290.5,470.5C 289.833,470.5 289.167,470.5 288.5,470.5C 287.005,470.989 285.671,471.655 284.5,472.5C 283.209,472.263 282.209,472.596 281.5,473.5C 280.041,473.433 278.708,473.766 277.5,474.5C 273.058,476.717 268.392,478.384 263.5,479.5C 261.833,480.167 260.167,480.833 258.5,481.5C 258.167,481.5 257.833,481.5 257.5,481.5C 256.833,481.5 256.5,481.833 256.5,482.5C 254.62,482.229 253.287,482.896 252.5,484.5C 251.5,484.5 250.5,484.5 249.5,484.5C 248.833,484.5 248.5,484.833 248.5,485.5C 248.167,485.5 247.833,485.5 247.5,485.5C 246.005,485.989 244.671,486.655 243.5,487.5C 240.557,487.98 237.89,488.98 235.5,490.5C 235.167,490.5 234.833,490.5 234.5,490.5C 233.508,490.328 232.842,490.662 232.5,491.5C 231.209,491.263 230.209,491.596 229.5,492.5C 229.167,492.5 228.833,492.5 228.5,492.5C 227.508,492.328 226.842,492.662 226.5,493.5C 224.694,494.024 223.028,494.691 221.5,495.5C 217.686,496.036 214.019,497.036 210.5,498.5C 206.279,499.878 201.946,500.878 197.5,501.5C 196.508,501.328 195.842,501.662 195.5,502.5C 182.4,504.091 169.4,503.758 156.5,501.5C 153.833,501.167 151.167,500.833 148.5,500.5C 146.189,499.878 143.855,499.212 141.5,498.5C 141.158,497.662 140.492,497.328 139.5,497.5C 137.085,496.695 134.751,495.695 132.5,494.5C 130.5,493.833 128.5,493.167 126.5,492.5C 126.158,491.662 125.492,491.328 124.5,491.5C 124.158,490.662 123.492,490.328 122.5,490.5C 122.5,489.833 122.167,489.5 121.5,489.5C 121.167,489.5 120.833,489.5 120.5,489.5C 120.5,488.833 120.167,488.5 119.5,488.5C 118.609,487.89 117.609,487.557 116.5,487.5C 116.5,486.833 116.167,486.5 115.5,486.5C 115.5,485.833 115.167,485.5 114.5,485.5C 113.609,484.89 112.609,484.557 111.5,484.5C 111.167,483.5 110.5,482.833 109.5,482.5C 109.5,481.833 109.167,481.5 108.5,481.5C 106.5,480.167 104.5,478.833 102.5,477.5C 102.5,476.833 102.167,476.5 101.5,476.5C 101.5,475.833 101.167,475.5 100.5,475.5C 99.1667,474.5 97.8333,473.5 96.5,472.5C 96.5,471.833 96.1667,471.5 95.5,471.5C 93.8333,469.167 91.8333,467.167 89.5,465.5C 89.5,464.833 89.1667,464.5 88.5,464.5C 88.1667,463.5 87.5,462.833 86.5,462.5C 86.5,461.833 86.1667,461.5 85.5,461.5C 84.5,460.5 83.5,459.5 82.5,458.5C 82.573,456.973 81.9063,455.973 80.5,455.5C 80.6716,454.508 80.3382,453.842 79.5,453.5C 78.5,452.167 77.5,450.833 76.5,449.5C 76.5,448.833 76.1667,448.5 75.5,448.5C 75.0679,447.29 74.4013,446.29 73.5,445.5C 72.5,445.167 71.8333,444.5 71.5,443.5C 72.8333,443.167 72.8333,442.833 71.5,442.5C 70.8333,441.167 70.1667,439.833 69.5,438.5C 69.0679,437.29 68.4013,436.29 67.5,435.5C 67.5,434.833 67.1667,434.5 66.5,434.5C 66.4431,433.391 66.1098,432.391 65.5,431.5C 65.1667,430.833 64.8333,430.167 64.5,429.5C 63.4043,426.968 62.0709,424.635 60.5,422.5C 60.6716,421.508 60.3382,420.842 59.5,420.5C 59.6716,419.508 59.3382,418.842 58.5,418.5C 58.6716,417.508 58.3382,416.842 57.5,416.5C 57.5,415.833 57.5,415.167 57.5,414.5C 56.2271,412.287 55.2271,409.954 54.5,407.5C 54.1667,406.833 53.8333,406.167 53.5,405.5C 53.4431,404.391 53.1098,403.391 52.5,402.5C 52.6716,401.508 52.3382,400.842 51.5,400.5C 51.6716,399.508 51.3382,398.842 50.5,398.5C 50.1249,396.302 49.4582,394.302 48.5,392.5C 48.5,391.833 48.5,391.167 48.5,390.5C 48.5,390.167 48.5,389.833 48.5,389.5C 48.5,388.833 48.1667,388.5 47.5,388.5C 47.7373,387.209 47.404,386.209 46.5,385.5C 43.8229,377.381 41.8229,369.381 40.5,361.5C 40.4512,357.922 39.7846,354.589 38.5,351.5C 38.3841,348.14 38.0508,344.807 37.5,341.5C 37.7373,340.209 37.404,339.209 36.5,338.5C 36.5,338.167 36.5,337.833 36.5,337.5C 36.5987,334.763 36.2653,332.096 35.5,329.5C 35.6633,327.143 35.4966,324.81 35,322.5C 34.6174,321.944 34.1174,321.611 33.5,321.5C 33.5,315.167 33.5,308.833 33.5,302.5C 33.6716,301.508 33.3382,300.842 32.5,300.5C 31.3609,274.863 31.1943,249.197 32,223.5C 33.2915,221.156 33.7915,218.823 33.5,216.5C 33.5,214.833 33.5,213.167 33.5,211.5C 34.6283,196.929 36.9617,182.596 40.5,168.5C 40.5569,167.391 40.8902,166.391 41.5,165.5C 41.5,165.167 41.5,164.833 41.5,164.5C 41.5569,163.391 41.8902,162.391 42.5,161.5C 42.5,160.833 42.1667,160.5 41.5,160.5C 42.1667,158.833 42.8333,157.167 43.5,155.5C 44.3007,153.958 44.634,152.292 44.5,150.5C 45.3382,150.158 45.6716,149.492 45.5,148.5C 45.8333,147.833 46.1667,147.167 46.5,146.5C 46.9707,144.421 47.6373,142.421 48.5,140.5C 48.8333,139.167 49.1667,137.833 49.5,136.5C 49.5,136.167 49.5,135.833 49.5,135.5C 50.404,134.791 50.7373,133.791 50.5,132.5C 51.1667,132.5 51.5,132.167 51.5,131.5C 51.5,130.833 51.5,130.167 51.5,129.5C 52.1667,129.5 52.5,129.167 52.5,128.5C 52.5,128.167 52.5,127.833 52.5,127.5C 55.131,121.564 57.7976,115.564 60.5,109.5C 61.6737,108.486 62.3404,107.153 62.5,105.5C 63.4013,104.71 64.0679,103.71 64.5,102.5C 65.4408,100.95 66.1075,99.2838 66.5,97.5C 66.7377,95.5217 68.0711,93.8551 70.5,92.5C 70.8333,91.8333 71.1667,91.1667 71.5,90.5C 72.5294,88.4832 73.5294,86.4832 74.5,84.5C 75.1667,84.5 75.5,84.1667 75.5,83.5C 76.9744,82.5637 77.9744,81.2303 78.5,79.5C 79.5324,77.6216 80.8657,75.9549 82.5,74.5C 83.3382,74.1583 83.6716,73.4916 83.5,72.5C 84.9063,72.0269 85.573,71.0269 85.5,69.5C 87.3671,68.2402 88.7005,66.5735 89.5,64.5C 90.7095,64.0679 91.7095,63.4013 92.5,62.5C 93.1667,62.5 93.5,62.1667 93.5,61.5C 94.1667,61.5 94.5,61.1667 94.5,60.5C 95.5,59.5 96.5,58.5 97.5,57.5C 98.1667,57.5 98.5,57.1667 98.5,56.5C 99.1667,56.5 99.5,56.1667 99.5,55.5C 101.806,53.8606 103.806,51.8606 105.5,49.5C 106.167,49.5 106.5,49.1667 106.5,48.5C 107.492,48.6716 108.158,48.3382 108.5,47.5C 110.237,45.1198 112.57,43.4531 115.5,42.5C 114.371,40.4706 114.871,40.1373 117,41.5C 119.195,39.3122 121.695,37.4789 124.5,36C 123.833,35.6667 123.167,35.3333 122.5,35C 124.382,34.8019 126.048,34.3019 127.5,33.5C 127.833,33.5 128.167,33.5 128.5,33.5C 129.5,32.8333 130.5,32.1667 131.5,31.5C 133.027,31.573 134.027,30.9063 134.5,29.5C 135.833,28.8333 137.167,28.1667 138.5,27.5C 139.167,27.1667 139.833,26.8333 140.5,26.5C 141.167,26.1667 141.833,25.8333 142.5,25.5C 143.71,25.0679 144.71,24.4013 145.5,23.5C 146.708,22.7659 148.041,22.4326 149.5,22.5C 150.167,22.1667 150.833,21.8333 151.5,21.5C 152.167,21.5 152.5,21.1667 152.5,20.5C 166.187,15.4895 181.687,11.1562 199,7.5C 213.101,7.43688 227.267,7.60355 241.5,8C 242.901,8.4101 244.234,8.9101 245.5,9.5 Z"/></g>
<g><path style="opacity:0.012" fill="#010101" d="M 258.5,11.5 C 257.167,11.1667 255.833,10.8333 254.5,10.5C 254.167,9.16667 253.833,9.16667 253.5,10.5C 250.873,9.90843 248.206,9.5751 245.5,9.5C 245.611,8.88258 245.944,8.38258 246.5,8C 248.18,7.96566 249.68,7.799 251,7.5C 252.734,8.24888 254.567,8.74888 256.5,9C 257.381,9.7083 258.047,10.5416 258.5,11.5 Z"/></g>
<g><path style="opacity:0.007" fill="#000000" d="M 384.5,40.5 C 385.167,40.5 385.833,40.5 386.5,40.5C 386.833,41.8333 387.167,41.8333 387.5,40.5C 388.5,40.8333 389.167,41.5 389.5,42.5C 389.5,43.1667 389.833,43.5 390.5,43.5C 391.167,43.1667 391.833,42.8333 392.5,42.5C 393.167,42.5 393.5,42.1667 393.5,41.5C 394.167,41.5 394.5,41.1667 394.5,40.5C 396.224,40.5393 396.557,40.206 395.5,39.5C 396.5,37.8333 397.833,36.5 399.5,35.5C 400.301,37.7929 400.968,37.4596 401.5,34.5C 402.338,34.1583 402.672,33.4916 402.5,32.5C 402.833,31.5 403.5,30.8333 404.5,30.5C 405.167,30.5 405.5,30.1667 405.5,29.5C 406.833,29.5 407.5,28.8333 407.5,27.5C 407.833,26.5 408.5,25.8333 409.5,25.5C 410.167,24.5 410.833,23.5 411.5,22.5C 413.105,23.9687 413.605,23.6354 413,21.5C 412.329,20.7476 411.496,20.4142 410.5,20.5C 407.5,17.8333 404.5,15.1667 401.5,12.5C 401.389,10.3523 402.056,10.019 403.5,11.5C 406.861,8.32473 410.861,6.9914 415.5,7.5C 415.415,16.8849 416.081,26.2182 417.5,35.5C 416.189,39.4068 415.522,43.4068 415.5,47.5C 412.833,47.5 410.167,47.5 407.5,47.5C 407.5,45.1667 407.5,42.8333 407.5,40.5C 405.5,40.5 403.5,40.5 401.5,40.5C 401.789,43.6492 401.289,46.6492 400,49.5C 396.861,49.9392 393.694,49.4392 390.5,48C 389.167,47.3333 389.167,46.6667 390.5,46C 387.775,44.9112 385.775,43.0778 384.5,40.5 Z"/></g>
<g><path style="opacity:0.006" fill="#000003" d="M 334.5,11.5 C 334.5,12.1667 334.167,12.5 333.5,12.5C 332.833,12.5 332.5,12.8333 332.5,13.5C 332.5,14.1667 332.167,14.5 331.5,14.5C 331.461,13.4168 331.127,12.4168 330.5,11.5C 331.958,10.218 333.292,10.218 334.5,11.5 Z"/></g>
<g><path style="opacity:0.005" fill="#000003" d="M 356.5,57.5 C 355.833,56.1667 355.167,56.1667 354.5,57.5C 353.609,56.8902 352.609,56.5569 351.5,56.5C 350.833,56.5 350.5,56.1667 350.5,55.5C 349.829,54.1529 349.829,52.9862 350.5,52C 349.002,51.4153 348.002,51.9153 347.5,53.5C 346.5,53.1667 345.833,52.5 345.5,51.5C 345.167,50.1667 344.833,50.1667 344.5,51.5C 343.833,51.5 343.5,51.1667 343.5,50.5C 342.833,50.5 342.5,50.1667 342.5,49.5C 341.833,49.5 341.5,49.1667 341.5,48.5C 339.973,48.573 338.973,47.9063 338.5,46.5C 337.833,46.5 337.5,46.1667 337.5,45.5C 336.833,45.5 336.5,45.1667 336.5,44.5C 336.591,42.3023 335.925,41.9689 334.5,43.5C 332.938,43.2671 331.605,42.6005 330.5,41.5C 330.573,39.9731 329.906,38.9731 328.5,38.5C 328.5,37.8333 328.167,37.5 327.5,37.5C 326.486,36.3263 325.153,35.6596 323.5,35.5C 323.167,34.1667 322.833,34.1667 322.5,35.5C 322.167,35.5 321.833,35.5 321.5,35.5C 319.847,35.3404 318.514,34.6737 317.5,33.5C 316.833,33.5 316.5,33.1667 316.5,32.5C 314.847,32.3404 313.514,31.6737 312.5,30.5C 312.591,28.3023 311.925,27.9689 310.5,29.5C 310.167,29.5 309.833,29.5 309.5,29.5C 308.833,29.5 308.5,29.1667 308.5,28.5C 308.167,28.5 307.833,28.5 307.5,28.5C 306.833,28.5 306.5,28.1667 306.5,27.5C 306.167,27.5 305.833,27.5 305.5,27.5C 305.918,26.7784 306.584,26.2784 307.5,26C 304.597,23.7124 301.597,23.2124 298.5,24.5C 297.167,23.8333 295.833,23.1667 294.5,22.5C 293.833,22.5 293.5,22.1667 293.5,21.5C 292.209,21.7373 291.209,21.404 290.5,20.5C 292.759,19.656 293.759,17.9893 293.5,15.5C 295.89,15.1449 298.223,14.4783 300.5,13.5C 307.058,15.0854 313.725,15.9187 320.5,16C 322.725,18.7218 325.392,19.2218 328.5,17.5C 327.833,18.8333 326.833,19.8333 325.5,20.5C 323.576,20.7107 323.243,21.3774 324.5,22.5C 328.167,26.5 331.833,30.5 335.5,34.5C 337.5,35.8333 339.167,37.5 340.5,39.5C 340.5,40.1667 340.833,40.5 341.5,40.5C 342.5,40.8333 343.167,41.5 343.5,42.5C 344.167,43.8333 344.833,43.8333 345.5,42.5C 345.833,42.5 346.167,42.5 346.5,42.5C 347.167,42.5 347.5,42.1667 347.5,41.5C 347.5,40.8333 347.833,40.5 348.5,40.5C 349.167,40.5 349.5,40.1667 349.5,39.5C 350.167,39.5 350.5,39.1667 350.5,38.5C 351.167,38.5 351.5,38.1667 351.5,37.5C 352.167,37.5 352.833,37.5 353.5,37.5C 353.5,36.8333 353.5,36.1667 353.5,35.5C 353.833,35.5 354.167,35.5 354.5,35.5C 354.833,36.8333 355.167,36.8333 355.5,35.5C 356.649,35.2089 357.316,34.3756 357.5,33C 357.333,32.1667 357.167,31.3333 357,30.5C 350.767,24.2669 344.6,18.1003 338.5,12C 339.732,8.61047 340.566,8.77714 341,12.5C 347.333,18.5 353.667,24.5 360,30.5C 361.458,38.8234 361.625,47.1568 360.5,55.5C 359.749,56.376 359.249,57.376 359,58.5C 358.329,57.7476 357.496,57.4142 356.5,57.5 Z M 325.5,20.5 C 325.167,21.1667 324.833,21.8333 324.5,22.5C 323.243,21.3774 323.576,20.7107 325.5,20.5 Z M 353.5,35.5 C 353.5,36.1667 353.5,36.8333 353.5,37.5C 352.833,37.5 352.167,37.5 351.5,37.5C 351.833,36.5 352.5,35.8333 353.5,35.5 Z"/></g>
<g><path style="opacity:0.015" fill="#000000" d="M 278.5,16.5 C 280.089,15.3789 281.756,15.5456 283.5,17C 283.272,17.3988 282.938,17.5654 282.5,17.5C 281.041,17.5674 279.708,17.2341 278.5,16.5 Z"/></g>
<g><path style="opacity:0.004" fill="#000007" d="M 329.5,16.5 C 328.833,15.1667 328.833,15.1667 329.5,16.5 Z"/></g>
<g><path style="opacity:0.011" fill="#000007" d="M 393.5,17.5 C 391.108,18.3678 390.941,17.7012 393,15.5C 393.464,16.0944 393.631,16.7611 393.5,17.5 Z"/></g>
<g><path style="opacity:0.005" fill="#030303" d="M 152.5,20.5 C 151.833,20.5 151.5,20.8333 151.5,21.5C 150.833,21.8333 150.167,22.1667 149.5,22.5C 149.628,20.9102 150.295,19.5769 151.5,18.5C 152.298,18.9569 152.631,19.6236 152.5,20.5 Z"/></g>
<g><path style="opacity:0.012" fill="#060606" d="M 145.5,23.5 C 144.71,24.4013 143.71,25.0679 142.5,25.5C 141.377,24.2426 140.711,24.5759 140.5,26.5C 139.833,26.8333 139.167,27.1667 138.5,27.5C 139.038,25.8828 139.371,24.2161 139.5,22.5C 141.5,22.8333 143.5,23.1667 145.5,23.5 Z"/></g>
<g><path style="opacity:0.013" fill="#010101" d="M 385.5,24.5 C 384.833,24.5 384.5,24.8333 384.5,25.5C 382.343,24.9467 382.51,23.9467 385,22.5C 385.464,23.0944 385.631,23.7611 385.5,24.5 Z"/></g>
<g><path style="opacity:0.921" fill="#a4abb7" d="M 401.5,12.5 C 404.5,15.1667 407.5,17.8333 410.5,20.5C 410.833,21.1667 411.167,21.8333 411.5,22.5C 410.833,23.5 410.167,24.5 409.5,25.5C 408.5,25.8333 407.833,26.5 407.5,27.5C 406.5,27.8333 405.833,28.5 405.5,29.5C 404.833,29.5 404.5,29.8333 404.5,30.5C 403.5,30.8333 402.833,31.5 402.5,32.5C 401.662,32.8417 401.328,33.5084 401.5,34.5C 400.508,34.3284 399.842,34.6618 399.5,35.5C 397.833,36.5 396.5,37.8333 395.5,39.5C 394.833,39.5 394.5,39.8333 394.5,40.5C 393.833,40.5 393.5,40.8333 393.5,41.5C 392.833,41.5 392.5,41.8333 392.5,42.5C 391.833,42.8333 391.167,43.1667 390.5,43.5C 389.833,43.5 389.5,43.1667 389.5,42.5C 389.167,41.5 388.5,40.8333 387.5,40.5C 387.167,40.5 386.833,40.5 386.5,40.5C 384.804,38.4752 383.137,36.4752 381.5,34.5C 381.5,33.8333 381.167,33.5 380.5,33.5C 380.982,30.5489 382.648,28.3822 385.5,27C 384.944,26.6174 384.611,26.1174 384.5,25.5C 385.167,25.5 385.5,25.1667 385.5,24.5C 386.117,24.6107 386.617,24.944 387,25.5C 389.054,22.6256 391.221,19.9589 393.5,17.5C 395.511,15.7 398.177,14.0333 401.5,12.5 Z"/></g>
<g><path style="opacity:0.995" fill="#a9aebf" d="M 334.5,11.5 C 341.465,17.964 348.298,24.6307 355,31.5C 355.49,32.7932 355.657,34.1266 355.5,35.5C 355.167,35.5 354.833,35.5 354.5,35.5C 354.167,34.1667 353.833,34.1667 353.5,35.5C 352.5,35.8333 351.833,36.5 351.5,37.5C 350.833,37.5 350.5,37.8333 350.5,38.5C 349.833,38.5 349.5,38.8333 349.5,39.5C 348.833,39.5 348.5,39.8333 348.5,40.5C 347.833,40.5 347.5,40.8333 347.5,41.5C 346.833,41.5 346.5,41.8333 346.5,42.5C 346.167,42.5 345.833,42.5 345.5,42.5C 344.833,42.5 344.167,42.5 343.5,42.5C 343.167,41.5 342.5,40.8333 341.5,40.5C 340.833,40.5 340.5,40.1667 340.5,39.5C 339.167,37.5 337.5,35.8333 335.5,34.5C 331.833,30.5 328.167,26.5 324.5,22.5C 324.833,21.8333 325.167,21.1667 325.5,20.5C 326.833,19.8333 327.833,18.8333 328.5,17.5C 329.167,17.5 329.5,17.1667 329.5,16.5C 330.5,16.1667 331.167,15.5 331.5,14.5C 332.167,14.5 332.5,14.1667 332.5,13.5C 333.167,13.5 333.5,13.1667 333.5,12.5C 334.167,12.5 334.5,12.1667 334.5,11.5 Z"/></g>
<g><path style="opacity:0.165" fill="#606060" d="M 134.5,29.5 C 134.027,30.9063 133.027,31.573 131.5,31.5C 131.973,30.0937 132.973,29.427 134.5,29.5 Z"/></g>
<g><path style="opacity:0.005" fill="#000000" d="M 128.5,33.5 C 128.167,33.5 127.833,33.5 127.5,33.5C 126.227,32.9232 126.227,32.2565 127.5,31.5C 128.298,31.9569 128.631,32.6236 128.5,33.5 Z"/></g>
<g><path style="opacity:0.009" fill="#000002" d="M 380.5,33.5 C 381.167,33.5 381.5,33.8333 381.5,34.5C 380.91,35.766 380.41,37.0993 380,38.5C 377.935,36.549 378.102,34.8823 380.5,33.5 Z"/></g>
<g><path style="opacity:0.012" fill="#040404" d="M 324.5,37.5 C 325.5,37.5 326.5,37.5 327.5,37.5C 328.167,37.5 328.5,37.8333 328.5,38.5C 328.5,39.1667 328.5,39.8333 328.5,40.5C 327.128,39.4884 325.795,38.4884 324.5,37.5 Z"/></g>
<g><path style="opacity:0.007" fill="#000003" d="M 384.5,40.5 C 383.325,40.719 382.325,40.3857 381.5,39.5C 382.86,38.3347 383.86,38.668 384.5,40.5 Z"/></g>
<g><path style="opacity:0.008" fill="#000100" d="M 108.5,47.5 C 107.833,46.1667 107.833,46.1667 108.5,47.5 Z"/></g>
<g><path style="opacity:0.016" fill="#030303" d="M 106.5,48.5 C 106.5,49.1667 106.167,49.5 105.5,49.5C 105.062,49.5654 104.728,49.3988 104.5,49C 105.474,46.3355 106.141,46.1688 106.5,48.5 Z"/></g>
<g><path style="opacity:0.008" fill="#000000" d="M 99.5,55.5 C 99.5,56.1667 99.1667,56.5 98.5,56.5C 97.8333,56.5 97.5,56.8333 97.5,57.5C 92.4901,57.7214 92.3235,56.7214 97,54.5C 97.9021,54.7432 98.7354,55.0766 99.5,55.5 Z"/></g>
<g><path style="opacity:0.01" fill="#010105" d="M 354.5,57.5 C 355.167,57.5 355.833,57.5 356.5,57.5C 356.5,58.5 356.5,59.5 356.5,60.5C 355.29,60.0679 354.29,59.4013 353.5,58.5C 354.167,58.5 354.5,58.1667 354.5,57.5 Z"/></g>
<g><path style="opacity:0.016" fill="#000000" d="M 94.5,60.5 C 94.5,61.1667 94.1667,61.5 93.5,61.5C 92.8333,61.5 92.5,61.8333 92.5,62.5C 90.3544,62.3036 90.1878,61.3036 92,59.5C 93.159,58.434 93.9924,58.7673 94.5,60.5 Z"/></g>
<g><path style="opacity:0.005" fill="#000001" d="M 394.5,70.5 C 394.5,69.8333 394.167,69.5 393.5,69.5C 393.167,69.5 392.833,69.5 392.5,69.5C 391.833,69.5 391.5,69.8333 391.5,70.5C 391.5,71.1667 391.167,71.5 390.5,71.5C 388.9,70.488 387.566,70.988 386.5,73C 387.056,73.3826 387.389,73.8826 387.5,74.5C 385.856,76.4807 384.19,78.4807 382.5,80.5C 382.855,81.5223 383.522,82.189 384.5,82.5C 384.5,83.1667 384.833,83.5 385.5,83.5C 385.5,83.8333 385.5,84.1667 385.5,84.5C 384.85,84.8039 384.183,85.1373 383.5,85.5C 382.772,83.8068 381.772,82.3068 380.5,81C 379.563,80.3083 378.897,80.475 378.5,81.5C 376.833,80.5 375.5,79.1667 374.5,77.5C 375.118,75.3364 374.118,73.6697 371.5,72.5C 370.893,72.6236 370.56,72.9569 370.5,73.5C 369.167,72.8333 368.167,71.8333 367.5,70.5C 366.833,70.5 366.5,70.1667 366.5,69.5C 365.5,69.1667 364.833,68.5 364.5,67.5C 363.833,67.5 363.5,67.1667 363.5,66.5C 362.508,66.6716 361.842,66.3382 361.5,65.5C 362.833,65.1667 362.833,64.8333 361.5,64.5C 365.056,64.2217 368.723,63.2217 372.5,61.5C 379.058,63.0854 385.725,63.9187 392.5,64C 394.321,66.1366 396.654,66.9699 399.5,66.5C 399.66,68.1992 399.494,69.8659 399,71.5C 397.644,70.6198 396.144,70.2865 394.5,70.5 Z"/></g>
<g><path style="opacity:0.005" fill="#000000" d="M 89.5,64.5 C 86.2027,64.6713 85.8694,64.0046 88.5,62.5C 89.2975,62.9569 89.6309,63.6236 89.5,64.5 Z"/></g>
<g><path style="opacity:0.01" fill="#000000" d="M 85.5,69.5 C 82.316,69.6678 81.816,68.3345 84,65.5C 85.1882,66.5634 85.6882,67.8967 85.5,69.5 Z"/></g>
<g><path style="opacity:0.004" fill="#000000" d="M 79.5,70.5 C 80.7733,71.0768 80.7733,71.7435 79.5,72.5C 78.537,72.0302 78.537,71.3635 79.5,70.5 Z"/></g>
<g><path style="opacity:0.004" fill="#000000" d="M 83.5,72.5 C 82.7611,72.631 82.0944,72.4643 81.5,72C 82.4368,71.3083 83.1034,71.475 83.5,72.5 Z"/></g>
<g><path style="opacity:0.008" fill="#000000" d="M 82.5,74.5 C 81.8333,73.1667 81.8333,73.1667 82.5,74.5 Z"/></g>
<g><path style="opacity:0.013" fill="#000000" d="M 78.5,79.5 C 77.9744,81.2303 76.9744,82.5637 75.5,83.5C 76.3629,82.0597 76.3629,80.7264 75.5,79.5C 76.4246,78.4376 77.4246,78.4376 78.5,79.5 Z"/></g>
<g><path style="opacity:0.988" fill="#aaaebe" d="M 392.5,69.5 C 392.833,69.5 393.167,69.5 393.5,69.5C 394.167,69.5 394.5,69.8333 394.5,70.5C 399.833,76.5 405.5,82.1667 411.5,87.5C 411.833,88.5 412.5,89.1667 413.5,89.5C 411.204,93.7665 408.204,97.4331 404.5,100.5C 402.053,100.385 400.053,99.385 398.5,97.5C 398.158,96.6618 397.492,96.3284 396.5,96.5C 396.5,96.1667 396.5,95.8333 396.5,95.5C 394.167,92.5 391.5,89.8333 388.5,87.5C 388.167,86.5 387.5,85.8333 386.5,85.5C 386.5,84.8333 386.167,84.5 385.5,84.5C 385.5,84.1667 385.5,83.8333 385.5,83.5C 384.833,83.5 384.5,83.1667 384.5,82.5C 383.522,82.189 382.855,81.5223 382.5,80.5C 384.19,78.4807 385.856,76.4807 387.5,74.5C 388.5,73.5 389.5,72.5 390.5,71.5C 391.167,71.5 391.5,71.1667 391.5,70.5C 392.167,70.5 392.5,70.1667 392.5,69.5 Z"/></g>
<g><path style="opacity:0.005" fill="#010101" d="M 74.5,84.5 C 73.0331,85.2916 71.6998,85.2916 70.5,84.5C 70.8076,83.6919 71.3076,83.0253 72,82.5C 72.6667,83.8333 73.3333,83.8333 74,82.5C 74.4643,83.0944 74.631,83.7611 74.5,84.5 Z"/></g>
<g><path style="opacity:1" fill="#050505" d="M 327.5,305.5 C 326.35,302.573 325.35,299.573 324.5,296.5C 327.78,294.38 330.78,292.046 333.5,289.5C 334.494,279.013 334.828,268.346 334.5,257.5C 333.209,257.263 332.209,257.596 331.5,258.5C 314.728,264.023 297.394,267.523 279.5,269C 266.171,269.5 252.837,269.667 239.5,269.5C 233.926,267.547 227.926,266.88 221.5,267.5C 214.81,267.052 208.143,266.385 201.5,265.5C 193.876,263.55 186.209,261.217 178.5,258.5C 177.167,269.5 177.167,280.5 178.5,291.5C 181.695,292.409 184.029,294.242 185.5,297C 184.383,299.731 183.717,302.565 183.5,305.5C 181.393,308.057 180.059,311.057 179.5,314.5C 168.17,312.008 160.337,305.341 156,294.5C 155.019,234.463 155.353,174.463 157,114.5C 158.647,109.844 161.48,106.011 165.5,103C 181.375,94.2851 198.375,88.9518 216.5,87C 256.608,81.7141 295.941,85.0475 334.5,97C 344.719,100.552 351.552,107.385 355,117.5C 355.667,176.167 355.667,234.833 355,293.5C 353.517,299.991 350.017,305.158 344.5,309C 339.036,312.068 333.369,314.568 327.5,316.5C 327.5,312.833 327.5,309.167 327.5,305.5 Z"/></g>
<g><path style="opacity:0.008" fill="#010107" d="M 386.5,85.5 C 387.5,85.8333 388.167,86.5 388.5,87.5C 387.5,88.1667 386.5,88.8333 385.5,89.5C 384.833,89.5 384.5,89.1667 384.5,88.5C 383.833,88.5 383.5,88.1667 383.5,87.5C 382.833,87.5 382.5,87.1667 382.5,86.5C 383.959,86.5674 385.292,86.2341 386.5,85.5 Z"/></g>
<g><path style="opacity:0.004" fill="#000001" d="M 414.5,86.5 C 415.525,86.8966 415.692,87.5632 415,88.5C 414.536,87.9056 414.369,87.2389 414.5,86.5 Z"/></g>
<g><path style="opacity:0.012" fill="#020507" d="M 413.5,89.5 C 412.5,89.1667 411.833,88.5 411.5,87.5C 413.203,86.3398 413.869,87.0065 413.5,89.5 Z"/></g>
<g><path style="opacity:0.006" fill="#020202" d="M 71.5,90.5 C 71.1667,91.1667 70.8333,91.8333 70.5,92.5C 69.6236,92.6309 68.9569,92.2975 68.5,91.5C 69.325,90.6143 70.325,90.281 71.5,90.5 Z"/></g>
<g><path style="opacity:0.004" fill="#000005" d="M 388.5,87.5 C 391.5,89.8333 394.167,92.5 396.5,95.5C 392.833,93.8333 390.167,91.1667 388.5,87.5 Z"/></g>
<g><path style="opacity:0.012" fill="#05040a" d="M 390.5,95.5 C 390.56,94.9569 390.893,94.6236 391.5,94.5C 392.287,95.2421 392.953,96.0754 393.5,97C 393.272,97.3988 392.938,97.5654 392.5,97.5C 391.833,97.5 391.5,97.1667 391.5,96.5C 390.833,96.5 390.5,96.1667 390.5,95.5 Z"/></g>
<g><path style="opacity:0.016" fill="#030303" d="M 66.5,97.5 C 66.1075,99.2838 65.4408,100.95 64.5,102.5C 63.1332,100.21 63.7998,98.5437 66.5,97.5 Z"/></g>
<g><path style="opacity:0.012" fill="#000008" d="M 398.5,97.5 C 400.053,99.385 402.053,100.385 404.5,100.5C 404.5,102.5 403.5,103.5 401.5,103.5C 401.5,102.833 401.167,102.5 400.5,102.5C 400.5,101.833 400.167,101.5 399.5,101.5C 399.167,100.167 398.833,98.8333 398.5,97.5 Z"/></g>
<g><path style="opacity:0.013" fill="#010101" d="M 62.5,105.5 C 62.3404,107.153 61.6737,108.486 60.5,109.5C 58.1107,107.397 58.7774,106.063 62.5,105.5 Z"/></g>
<g><path style="opacity:0.004" fill="#000006" d="M 404.5,107.5 C 404.586,106.504 404.252,105.671 403.5,105C 404.167,104.333 404.833,104.333 405.5,105C 408.447,108.963 408.113,109.796 404.5,107.5 Z"/></g>
<g><path style="opacity:0.006" fill="#020107" d="M 396.5,96.5 C 397.598,97.397 397.598,98.2303 396.5,99C 397.373,100.045 398.373,100.878 399.5,101.5C 400.167,101.5 400.5,101.833 400.5,102.5C 401.167,102.5 401.5,102.833 401.5,103.5C 401.738,105.404 402.738,106.738 404.5,107.5C 407.159,112.129 410.326,116.462 414,120.5C 414.833,122.167 415.667,123.833 416.5,125.5C 415.757,126.182 415.091,126.849 414.5,127.5C 413.662,127.158 413.328,126.492 413.5,125.5C 412.5,125.167 411.833,124.5 411.5,123.5C 414.167,123.167 414.167,122.833 411.5,122.5C 410.833,122.5 410.5,122.167 410.5,121.5C 408.808,119.795 407.475,117.795 406.5,115.5C 404.453,113.45 402.786,111.117 401.5,108.5C 402.833,108.167 402.833,107.833 401.5,107.5C 400.833,107.5 400.5,107.167 400.5,106.5C 399.833,106.5 399.5,106.167 399.5,105.5C 398.833,105.5 398.5,105.167 398.5,104.5C 396.413,103.415 395.08,101.749 394.5,99.5C 394.285,97.8212 394.952,96.8212 396.5,96.5 Z"/></g>
<g><path style="opacity:1" fill="#f0f0f0" d="M 203.5,129.5 C 202.934,127.922 201.934,126.588 200.5,125.5C 199.167,121.5 199.167,117.5 200.5,113.5C 202.598,113.043 204.264,112.043 205.5,110.5C 241.238,104.753 276.904,105.253 312.5,112C 317.489,113.663 322.489,115.33 327.5,117C 334.102,119.814 333.769,122.148 326.5,124C 308.699,130.21 290.366,133.543 271.5,134C 258.167,134.667 244.833,134.667 231.5,134C 221.905,133.255 212.571,131.755 203.5,129.5 Z"/></g>
<g><path style="opacity:1" fill="#d3d3d3" d="M 205.5,110.5 C 204.264,112.043 202.598,113.043 200.5,113.5C 199.167,117.5 199.167,121.5 200.5,125.5C 201.934,126.588 202.934,127.922 203.5,129.5C 194.452,128.475 186.118,125.475 178.5,120.5C 186.723,115.202 195.723,111.868 205.5,110.5 Z"/></g>
<g><path style="opacity:0.011" fill="#010101" d="M 52.5,127.5 C 52.5,127.833 52.5,128.167 52.5,128.5C 51.8333,128.5 51.5,128.833 51.5,129.5C 51.5,130.167 51.5,130.833 51.5,131.5C 50.8333,131.5 50.5,131.833 50.5,132.5C 50.7373,133.791 50.404,134.791 49.5,135.5C 48.8761,135.083 48.5427,134.416 48.5,133.5C 49.8149,130.658 50.8149,127.658 51.5,124.5C 52.3857,125.325 52.719,126.325 52.5,127.5 Z"/></g>
<g><path style="opacity:0.006" fill="#020204" d="M 421.5,134.5 C 420.833,134.833 420.167,135.167 419.5,135.5C 419.167,134.833 418.833,134.167 418.5,133.5C 417.833,133.5 417.5,133.167 417.5,132.5C 417.5,132.167 417.5,131.833 417.5,131.5C 419.96,130.366 421.293,131.366 421.5,134.5 Z"/></g>
<g><path style="opacity:0.006" fill="#000003" d="M 421.5,134.5 C 422.525,134.897 422.692,135.563 422,136.5C 421.536,135.906 421.369,135.239 421.5,134.5 Z"/></g>
<g><path style="opacity:0.004" fill="#010005" d="M 446.5,185.5 C 445.833,185.5 445.5,185.167 445.5,184.5C 445.167,183.833 444.833,183.167 444.5,182.5C 445.833,182.167 445.833,181.833 444.5,181.5C 443.833,181.5 443.5,181.167 443.5,180.5C 444.833,180.167 444.833,179.833 443.5,179.5C 443.5,179.167 443.5,178.833 443.5,178.5C 442.833,178.5 442.5,178.167 442.5,177.5C 442.167,176.833 441.833,176.167 441.5,175.5C 442.715,174.221 442.382,173.221 440.5,172.5C 439.833,172.5 439.5,172.167 439.5,171.5C 439.5,171.167 439.5,170.833 439.5,170.5C 438.833,170.5 438.5,170.167 438.5,169.5C 438.5,169.167 438.5,168.833 438.5,168.5C 437.833,168.5 437.5,168.167 437.5,167.5C 436.833,167.5 436.5,167.167 436.5,166.5C 436.443,165.391 436.11,164.391 435.5,163.5C 435.672,162.508 435.338,161.842 434.5,161.5C 433.833,161.5 433.5,161.167 433.5,160.5C 433.5,160.167 433.5,159.833 433.5,159.5C 432.833,159.5 432.5,159.167 432.5,158.5C 432.5,158.167 432.5,157.833 432.5,157.5C 431.833,157.5 431.5,157.167 431.5,156.5C 431.5,156.167 431.5,155.833 431.5,155.5C 430.833,155.5 430.5,155.167 430.5,154.5C 429.5,152.5 428.5,150.5 427.5,148.5C 426.833,148.5 426.5,148.167 426.5,147.5C 426.5,147.167 426.5,146.833 426.5,146.5C 425.833,146.5 425.5,146.167 425.5,145.5C 425.5,145.167 425.5,144.833 425.5,144.5C 424.833,144.5 424.5,144.167 424.5,143.5C 423.4,142.395 422.733,141.062 422.5,139.5C 423.234,138.292 423.567,136.959 423.5,135.5C 426.167,135.5 428.833,135.5 431.5,135.5C 431.5,138.167 431.5,140.833 431.5,143.5C 436.833,143.5 442.167,143.5 447.5,143.5C 447.829,157.677 447.496,171.677 446.5,185.5 Z"/></g>
<g><path style="opacity:0.013" fill="#010101" d="M 49.5,136.5 C 49.1667,137.833 48.8333,139.167 48.5,140.5C 47.1472,138.872 47.4805,137.538 49.5,136.5 Z"/></g>
<g><path style="opacity:0.004" fill="#010201" d="M 46.5,146.5 C 46.1667,147.167 45.8333,147.833 45.5,148.5C 44.2426,147.377 44.5759,146.711 46.5,146.5 Z"/></g>
<g><path style="opacity:1" fill="#2fdd83" d="M 207.5,187.5 C 205.365,185.631 202.698,184.964 199.5,185.5C 198.59,174.198 198.257,162.864 198.5,151.5C 199.5,151.5 200.5,151.5 201.5,151.5C 225.327,155.121 249.327,156.454 273.5,155.5C 279.726,155.612 285.726,154.946 291.5,153.5C 305.485,151.95 319.151,148.95 332.5,144.5C 333.833,155.5 333.833,166.5 332.5,177.5C 324.153,182.342 315.153,185.509 305.5,187C 272.817,192.744 240.15,192.91 207.5,187.5 Z"/></g>
<g><path style="opacity:0.006" fill="#000000" d="M 44.5,150.5 C 44.634,152.292 44.3007,153.958 43.5,155.5C 42.8614,154.903 42.528,154.07 42.5,153C 42.6842,151.624 43.3509,150.791 44.5,150.5 Z"/></g>
<g><path style="opacity:1" fill="#266e4c" d="M 291.5,153.5 C 285.726,154.946 279.726,155.612 273.5,155.5C 279.288,154.19 285.288,153.523 291.5,153.5 Z"/></g>
<g><path style="opacity:1" fill="#04b473" d="M 201.5,151.5 C 200.5,151.5 199.5,151.5 198.5,151.5C 198.257,162.864 198.59,174.198 199.5,185.5C 202.698,184.964 205.365,185.631 207.5,187.5C 200.992,186.719 194.659,185.219 188.5,183C 185.048,181.774 181.715,180.274 178.5,178.5C 177.167,167.167 177.167,155.833 178.5,144.5C 186.183,147.198 193.85,149.531 201.5,151.5 Z"/></g>
<g><path style="opacity:0.016" fill="#000000" d="M 41.5,160.5 C 42.1667,160.5 42.5,160.833 42.5,161.5C 41.8902,162.391 41.5569,163.391 41.5,164.5C 41.1667,164.5 40.8333,164.5 40.5,164.5C 40.2322,162.901 40.5655,161.568 41.5,160.5 Z"/></g>
<g><path style="opacity:0.013" fill="#000000" d="M 40.5,164.5 C 40.5,165.167 40.8333,165.5 41.5,165.5C 40.8902,166.391 40.5569,167.391 40.5,168.5C 39.1667,167.167 39.1667,165.833 40.5,164.5 Z"/></g>
<g><path style="opacity:0.02" fill="#070709" d="M 451.5,198.5 C 453.424,198.711 453.757,199.377 452.5,200.5C 452.167,199.833 451.833,199.167 451.5,198.5 Z"/></g>
<g><path style="opacity:0.005" fill="#000002" d="M 478.5,305.5 C 477.962,303.883 477.629,302.216 477.5,300.5C 478.833,299.5 478.833,298.5 477.5,297.5C 477.5,296.5 477.5,295.5 477.5,294.5C 478.742,292.654 478.409,292.321 476.5,293.5C 476.5,292.5 476.5,291.5 476.5,290.5C 477.833,290.167 477.833,289.833 476.5,289.5C 476.443,288.391 476.11,287.391 475.5,286.5C 478.167,285.833 478.167,285.167 475.5,284.5C 475.167,282.5 474.833,280.5 474.5,278.5C 475.434,277.432 475.768,276.099 475.5,274.5C 474.833,274.5 474.5,274.833 474.5,275.5C 473.566,274.432 473.232,273.099 473.5,271.5C 474.507,268.857 474.507,268.523 473.5,270.5C 472.566,269.432 472.232,268.099 472.5,266.5C 473.644,265.151 473.644,264.817 472.5,265.5C 471.469,263.039 470.802,260.373 470.5,257.5C 471.833,257.167 471.833,256.833 470.5,256.5C 469.596,255.791 469.263,254.791 469.5,253.5C 470.833,253.167 470.833,252.833 469.5,252.5C 467.209,245.346 465.209,238.013 463.5,230.5C 462.833,230.5 462.5,230.167 462.5,229.5C 462.5,228.833 462.5,228.167 462.5,227.5C 462.737,226.209 462.404,225.209 461.5,224.5C 460.596,223.791 460.263,222.791 460.5,221.5C 459.833,221.5 459.5,221.167 459.5,220.5C 459.5,219.833 459.5,219.167 459.5,218.5C 459.672,217.508 459.338,216.842 458.5,216.5C 457.833,216.5 457.5,216.167 457.5,215.5C 456.508,212.177 455.508,208.844 454.5,205.5C 455.167,205.5 455.5,205.167 455.5,204.5C 456.833,204.167 456.833,203.833 455.5,203.5C 455.5,202.167 455.5,200.833 455.5,199.5C 458.167,199.5 460.833,199.5 463.5,199.5C 463.5,207.5 463.5,215.5 463.5,223.5C 466.167,223.5 468.833,223.5 471.5,223.5C 471.5,226.167 471.5,228.833 471.5,231.5C 474.167,231.5 476.833,231.5 479.5,231.5C 479.831,256.339 479.498,281.006 478.5,305.5 Z M 475.5,274.5 C 474.537,273.637 474.537,272.97 475.5,272.5C 476.773,273.257 476.773,273.923 475.5,274.5 Z"/></g>
<g><path style="opacity:1" fill="#525353" d="M 332.5,201.5 C 332.56,200.957 332.893,200.624 333.5,200.5C 334.824,211.66 334.824,222.66 333.5,233.5C 333.828,222.654 333.494,211.987 332.5,201.5 Z"/></g>
<g><path style="opacity:1" fill="#d8d8da" d="M 198.5,207.5 C 198.334,217.172 198.5,226.839 199,236.5C 199.623,239.532 201.123,241.865 203.5,243.5C 194.408,242.104 185.908,239.104 178,234.5C 177.168,223.485 177.334,212.485 178.5,201.5C 185.02,204.119 191.687,206.119 198.5,207.5 Z"/></g>
<g><path style="opacity:0.01" fill="#010101" d="M 33.5,211.5 C 33.5,213.167 33.5,214.833 33.5,216.5C 31.0776,214.952 31.0776,213.286 33.5,211.5 Z"/></g>
<g><path style="opacity:1" fill="#f1f1f1" d="M 332.5,201.5 C 333.494,211.987 333.828,222.654 333.5,233.5C 326.105,237.916 318.105,241.082 309.5,243C 274.139,249.992 238.805,250.158 203.5,243.5C 201.123,241.865 199.623,239.532 199,236.5C 198.5,226.839 198.334,217.172 198.5,207.5C 233.417,213.572 268.417,214.072 303.5,209C 313.401,207.275 323.067,204.775 332.5,201.5 Z"/></g>
<g><path style="opacity:1" fill="#2b5343" d="M 331.5,258.5 C 332.209,257.596 333.209,257.263 334.5,257.5C 334.828,268.346 334.494,279.013 333.5,289.5C 334.142,278.779 333.475,268.446 331.5,258.5 Z"/></g>
<g><path style="opacity:1" fill="#2fde84" d="M 331.5,258.5 C 333.475,268.446 334.142,278.779 333.5,289.5C 330.78,292.046 327.78,294.38 324.5,296.5C 325.35,299.573 326.35,302.573 327.5,305.5C 315.796,309.425 303.796,312.092 291.5,313.5C 280.56,315.006 269.56,315.672 258.5,315.5C 246.637,313.178 234.637,311.011 222.5,309C 217.58,306.804 212.58,304.804 207.5,303C 205.201,299.523 202.201,297.023 198.5,295.5C 198.334,285.828 198.5,276.161 199,266.5C 199.671,265.748 200.504,265.414 201.5,265.5C 208.143,266.385 214.81,267.052 221.5,267.5C 227.301,268.682 233.301,269.348 239.5,269.5C 252.837,269.667 266.171,269.5 279.5,269C 297.394,267.523 314.728,264.023 331.5,258.5 Z"/></g>
<g><path style="opacity:1" fill="#0ab775" d="M 201.5,265.5 C 200.504,265.414 199.671,265.748 199,266.5C 198.5,276.161 198.334,285.828 198.5,295.5C 202.201,297.023 205.201,299.523 207.5,303C 212.58,304.804 217.58,306.804 222.5,309C 234.637,311.011 246.637,313.178 258.5,315.5C 252.833,315.5 247.167,315.5 241.5,315.5C 221.342,315.831 202.008,312.498 183.5,305.5C 183.717,302.565 184.383,299.731 185.5,297C 184.029,294.242 181.695,292.409 178.5,291.5C 177.167,280.5 177.167,269.5 178.5,258.5C 186.209,261.217 193.876,263.55 201.5,265.5 Z"/></g>
<g><path style="opacity:1" fill="#0e3318" d="M 221.5,267.5 C 227.926,266.88 233.926,267.547 239.5,269.5C 233.301,269.348 227.301,268.682 221.5,267.5 Z"/></g>
<g><path style="opacity:0.018" fill="#010101" d="M 32.5,300.5 C 33.3382,300.842 33.6716,301.508 33.5,302.5C 31.8946,301.994 31.5613,301.327 32.5,300.5 Z"/></g>
<g><path style="opacity:1" fill="#cdf1df" d="M 291.5,313.5 C 288.597,315.104 285.263,316.104 281.5,316.5C 274.833,316.833 268.167,317.167 261.5,317.5C 254.465,317.497 247.798,316.83 241.5,315.5C 247.167,315.5 252.833,315.5 258.5,315.5C 269.56,315.672 280.56,315.006 291.5,313.5 Z"/></g>
<g><path style="opacity:0.004" fill="#000000" d="M 33.5,321.5 C 33.5651,324.428 34.2318,327.095 35.5,329.5C 36.2653,332.096 36.5987,334.763 36.5,337.5C 35.6618,337.842 35.3284,338.508 35.5,339.5C 34.1667,340.167 34.1667,340.833 35.5,341.5C 35.8993,345.116 36.8993,348.45 38.5,351.5C 39.7846,354.589 40.4512,357.922 40.5,361.5C 39.7109,361.783 39.0442,362.283 38.5,363C 40.4049,369.449 42.2383,375.949 44,382.5C 44.8518,383.571 45.6851,384.571 46.5,385.5C 46.2627,386.791 46.596,387.791 47.5,388.5C 48.1667,388.5 48.5,388.833 48.5,389.5C 47.1667,389.833 47.1667,390.167 48.5,390.5C 48.5,391.167 48.5,391.833 48.5,392.5C 48.0618,392.435 47.7284,392.601 47.5,393C 48.4056,395.447 49.2389,397.947 50,400.5C 50.4643,399.906 50.631,399.239 50.5,398.5C 51.3382,398.842 51.6716,399.508 51.5,400.5C 49.9893,402.838 50.3227,403.504 52.5,402.5C 53.1098,403.391 53.4431,404.391 53.5,405.5C 52.2426,406.623 52.5759,407.289 54.5,407.5C 55.2271,409.954 56.2271,412.287 57.5,414.5C 56.6618,414.842 56.3284,415.508 56.5,416.5C 54.8562,413.249 52.6895,410.249 50,407.5C 49.2652,405.129 48.4318,402.795 47.5,400.5C 42.2079,399.505 36.8746,399.172 31.5,399.5C 31.3334,372.498 31.5,345.498 32,318.5C 32.2321,319.737 32.7321,320.737 33.5,321.5 Z"/></g>
<g><path style="opacity:0.02" fill="#000000" d="M 36.5,338.5 C 37.404,339.209 37.7373,340.209 37.5,341.5C 36.8333,341.5 36.1667,341.5 35.5,341.5C 35.5,340.833 35.5,340.167 35.5,339.5C 36.1667,339.5 36.5,339.167 36.5,338.5 Z"/></g>
<g><path style="opacity:1" fill="#050505" d="M 176.5,425.5 C 165.167,425.5 153.833,425.5 142.5,425.5C 142.5,418.833 142.5,412.167 142.5,405.5C 153.014,405.828 163.347,405.494 173.5,404.5C 177.845,402.275 178.512,399.108 175.5,395C 152.273,395.773 141.107,384.607 142,361.5C 144.74,352.162 150.573,345.662 159.5,342C 172.426,340.557 185.426,340.057 198.5,340.5C 198.5,347.833 198.5,355.167 198.5,362.5C 187.495,362.333 176.495,362.5 165.5,363C 163.271,365.553 162.938,368.386 164.5,371.5C 184.65,370.53 195.983,379.863 198.5,399.5C 197.949,414.042 190.616,422.708 176.5,425.5 Z"/></g>
<g><path style="opacity:1" fill="#030303" d="M 247.5,340.5 C 259.775,338.57 270.275,341.903 279,350.5C 280.908,353.215 282.241,356.215 283,359.5C 283.812,376.032 283.645,392.532 282.5,409C 283.961,411.298 285.628,413.465 287.5,415.5C 282.848,420.652 278.015,425.652 273,430.5C 271.5,429 270,427.5 268.5,426C 261.53,426.455 254.53,426.455 247.5,426C 237.407,423.573 230.907,417.406 228,407.5C 227.333,391.5 227.333,375.5 228,359.5C 231.112,349.553 237.612,343.219 247.5,340.5 Z"/></g>
<g><path style="opacity:1" fill="#020204" d="M 333.5,404.5 C 344.988,405.495 356.655,405.828 368.5,405.5C 368.5,412.167 368.5,418.833 368.5,425.5C 352.167,425.5 335.833,425.5 319.5,425.5C 316.155,424.32 313.989,421.987 313,418.5C 312.5,392.502 312.333,366.502 312.5,340.5C 319.5,340.5 326.5,340.5 333.5,340.5C 333.5,361.833 333.5,383.167 333.5,404.5 Z"/></g>
<g><path style="opacity:1" fill="#ebebeb" d="M 249.5,362.5 C 253.767,362.203 257.934,362.536 262,363.5C 262.667,372.167 262.667,380.833 262,389.5C 261,388.5 260,387.5 259,386.5C 255.667,389.833 252.333,393.167 249,396.5C 248.19,385.091 248.357,373.757 249.5,362.5 Z"/></g>
<g><path style="opacity:0.022" fill="#010101" d="M 475.5,376.5 C 475.946,379.01 475.28,381.01 473.5,382.5C 473.875,380.302 474.542,378.302 475.5,376.5 Z"/></g>
<g><path style="opacity:0.004" fill="#000000" d="M 471.5,391.5 C 471.833,392.833 472.167,392.833 472.5,391.5C 474.833,391.5 477.167,391.5 479.5,391.5C 479.5,399.5 479.5,407.5 479.5,415.5C 474.167,415.5 468.833,415.5 463.5,415.5C 463.443,414.391 463.11,413.391 462.5,412.5C 463.338,412.158 463.672,411.492 463.5,410.5C 463.557,409.391 463.89,408.391 464.5,407.5C 465.167,407.5 465.5,407.167 465.5,406.5C 466.496,406.586 467.329,406.252 468,405.5C 469,403.5 470,401.5 471,399.5C 471.789,397.288 471.622,395.288 470.5,393.5C 470.328,392.508 470.662,391.842 471.5,391.5 Z"/></g>
<g><path style="opacity:0.007" fill="#010101" d="M 463.5,415.5 C 464.167,420.833 464.833,426.167 465.5,431.5C 461.633,433.946 457.633,434.113 453.5,432C 452.649,429.566 452.649,427.4 453.5,425.5C 453.932,424.29 454.599,423.29 455.5,422.5C 456.167,422.5 456.5,422.167 456.5,421.5C 456.5,420.833 456.833,420.5 457.5,420.5C 457.511,423.001 458.178,423.168 459.5,421C 458.748,420.329 458.414,419.496 458.5,418.5C 460.664,418.279 462.33,417.279 463.5,415.5 Z"/></g>
<g><path style="opacity:0.01" fill="#010101" d="M 56.5,416.5 C 56.8333,416.5 57.1667,416.5 57.5,416.5C 58.3382,416.842 58.6716,417.508 58.5,418.5C 58.1667,419.167 57.8333,419.833 57.5,420.5C 56.5655,419.432 56.2322,418.099 56.5,416.5 Z"/></g>
<g><path style="opacity:0.005" fill="#000000" d="M 57.5,420.5 C 58.3957,421.506 59.0623,421.506 59.5,420.5C 60.3382,420.842 60.6716,421.508 60.5,422.5C 60.3893,423.117 60.056,423.617 59.5,424C 61.9221,426.003 62.7554,428.503 62,431.5C 59.3839,428.271 57.8839,424.604 57.5,420.5 Z"/></g>
<g><path style="opacity:1" fill="#4d4d4d" d="M 173.5,404.5 C 163.347,405.494 153.014,405.828 142.5,405.5C 142.5,412.167 142.5,418.833 142.5,425.5C 153.833,425.5 165.167,425.5 176.5,425.5C 165.012,426.495 153.345,426.828 141.5,426.5C 141.5,419.167 141.5,411.833 141.5,404.5C 152.167,404.5 162.833,404.5 173.5,404.5 Z"/></g>
<g><path style="opacity:1" fill="#4f4f51" d="M 333.5,404.5 C 345.5,404.5 357.5,404.5 369.5,404.5C 369.5,411.833 369.5,419.167 369.5,426.5C 352.658,426.83 335.992,426.497 319.5,425.5C 335.833,425.5 352.167,425.5 368.5,425.5C 368.5,418.833 368.5,412.167 368.5,405.5C 356.655,405.828 344.988,405.495 333.5,404.5 Z"/></g>
<g><path style="opacity:0.022" fill="#000100" d="M 450.5,429.5 C 451.525,429.897 451.692,430.563 451,431.5C 450.536,430.906 450.369,430.239 450.5,429.5 Z"/></g>
<g><path style="opacity:0.018" fill="#030303" d="M 64.5,429.5 C 64.8333,430.167 65.1667,430.833 65.5,431.5C 63.5759,431.289 63.2426,430.623 64.5,429.5 Z"/></g>
<g><path style="opacity:0.004" fill="#000100" d="M 64.5,433.5 C 63.8333,432.167 63.8333,432.167 64.5,433.5 Z"/></g>
<g><path style="opacity:0.006" fill="#010101" d="M 447.5,432.5 C 448.239,432.369 448.906,432.536 449.5,433C 448.059,437.69 447.392,442.523 447.5,447.5C 444.833,447.5 442.167,447.5 439.5,447.5C 439.368,444.43 439.701,441.43 440.5,438.5C 442.219,435.781 444.553,433.781 447.5,432.5 Z"/></g>
<g><path style="opacity:0.004" fill="#040504" d="M 64.5,433.5 C 65.1667,433.5 65.5,433.833 65.5,434.5C 65.1667,434.167 64.8333,433.833 64.5,433.5 Z"/></g>
<g><path style="opacity:0.009" fill="#010101" d="M 65.5,434.5 C 65.8333,434.5 66.1667,434.5 66.5,434.5C 67.1667,434.5 67.5,434.833 67.5,435.5C 67.6495,436.552 67.4828,437.552 67,438.5C 66.2086,437.255 65.7086,435.922 65.5,434.5 Z"/></g>
<g><path style="opacity:0.025" fill="#010101" d="M 69.5,438.5 C 70.1667,439.833 70.8333,441.167 71.5,442.5C 71.5,442.833 71.5,443.167 71.5,443.5C 68.8083,442.409 68.1416,440.743 69.5,438.5 Z"/></g>
<g><path style="opacity:0.012" fill="#010101" d="M 437.5,440.5 C 437.779,445.497 436.113,446.497 432.5,443.5C 433.899,442.11 435.566,441.11 437.5,440.5 Z"/></g>
<g><path style="opacity:0.012" fill="#000000" d="M 73.5,445.5 C 74.4013,446.29 75.0679,447.29 75.5,448.5C 76.1667,448.5 76.5,448.833 76.5,449.5C 76.6495,450.552 76.4828,451.552 76,452.5C 74.5886,450.35 73.7553,448.016 73.5,445.5 Z"/></g>
<g><path style="opacity:0.004" fill="#030303" d="M 428.5,445.5 C 428.167,446.167 427.833,446.833 427.5,447.5C 427.167,447.5 426.833,447.5 426.5,447.5C 426.5,447.167 426.5,446.833 426.5,446.5C 426.842,445.662 427.508,445.328 428.5,445.5 Z"/></g>
<g><path style="opacity:0.006" fill="#000002" d="M 422.5,447.5 C 422.833,447.5 423.167,447.5 423.5,447.5C 424.5,447.5 425.5,447.5 426.5,447.5C 426.833,448.833 427.167,448.833 427.5,447.5C 428.833,447.5 430.167,447.5 431.5,447.5C 431.5,452.833 431.5,458.167 431.5,463.5C 394.081,463.605 356.748,463.605 319.5,463.5C 320.167,468.833 320.833,474.167 321.5,479.5C 309.523,482.124 297.523,482.124 285.5,479.5C 285.5,477.833 285.5,476.167 285.5,474.5C 283.43,474.449 281.597,475.115 280,476.5C 278.699,476.361 277.866,475.695 277.5,474.5C 278.708,473.766 280.041,473.433 281.5,473.5C 282.791,473.737 283.791,473.404 284.5,472.5C 285.671,471.655 287.005,470.989 288.5,470.5C 289.167,471.833 289.833,471.833 290.5,470.5C 291.391,469.89 292.391,469.557 293.5,469.5C 294.791,469.737 295.791,469.404 296.5,468.5C 296.833,468.5 297.167,468.5 297.5,468.5C 299.698,468.88 301.365,468.213 302.5,466.5C 303.167,466.5 303.833,466.5 304.5,466.5C 305.791,466.737 306.791,466.404 307.5,465.5C 310.937,464.055 314.603,463.055 318.5,462.5C 319.167,462.5 319.5,462.167 319.5,461.5C 322.903,461.149 326.237,460.482 329.5,459.5C 330.5,460.833 331.5,460.833 332.5,459.5C 332.833,459.5 333.167,459.5 333.5,459.5C 334.622,460.156 335.955,460.489 337.5,460.5C 347.442,459.078 357.442,458.078 367.5,457.5C 361.537,456.504 355.537,456.171 349.5,456.5C 354.598,455.043 359.931,454.376 365.5,454.5C 367.265,453.539 369.265,453.205 371.5,453.5C 395.064,454.44 398.064,454.44 380.5,453.5C 387.313,452.509 394.313,452.175 401.5,452.5C 402.833,453.833 404.167,453.833 405.5,452.5C 407.857,452.663 410.19,452.497 412.5,452C 414.119,451.764 415.119,450.931 415.5,449.5C 416.167,449.5 416.833,449.5 417.5,449.5C 417.56,450.043 417.893,450.376 418.5,450.5C 420.115,449.846 421.782,449.346 423.5,449C 422.944,448.617 422.611,448.117 422.5,447.5 Z"/></g>
<g><path style="opacity:0.012" fill="#000000" d="M 79.5,453.5 C 80.3382,453.842 80.6716,454.508 80.5,455.5C 78.3023,455.591 77.9689,454.925 79.5,453.5 Z"/></g>
<g><path style="opacity:0.004" fill="#000000" d="M 81.5,458.5 C 80.8333,457.167 80.8333,457.167 81.5,458.5 Z"/></g>
<g><path style="opacity:0.004" fill="#000000" d="M 81.5,458.5 C 81.8333,458.5 82.1667,458.5 82.5,458.5C 82.3147,459.17 81.9813,459.17 81.5,458.5 Z"/></g>
<g><path style="opacity:0.005" fill="#000000" d="M 85.5,461.5 C 86.1667,461.5 86.5,461.833 86.5,462.5C 87.5,462.833 88.1667,463.5 88.5,464.5C 87.4427,465.206 87.7761,465.539 89.5,465.5C 91.8333,467.167 93.8333,469.167 95.5,471.5C 96.1667,471.5 96.5,471.833 96.5,472.5C 97.8333,473.5 99.1667,474.5 100.5,475.5C 101.167,475.5 101.5,475.833 101.5,476.5C 102.167,476.5 102.5,476.833 102.5,477.5C 104.5,478.833 106.5,480.167 108.5,481.5C 109.167,481.5 109.5,481.833 109.5,482.5C 110.5,482.833 111.167,483.5 111.5,484.5C 112.221,486.382 113.221,486.715 114.5,485.5C 115.167,485.5 115.5,485.833 115.5,486.5C 116.167,486.5 116.5,486.833 116.5,487.5C 117.609,487.557 118.609,487.89 119.5,488.5C 120.167,488.5 120.5,488.833 120.5,489.5C 120.833,489.5 121.167,489.5 121.5,489.5C 122.167,489.5 122.5,489.833 122.5,490.5C 123.492,490.328 124.158,490.662 124.5,491.5C 124.842,492.338 125.508,492.672 126.5,492.5C 128.5,493.167 130.5,493.833 132.5,494.5C 120.345,495.495 108.011,495.829 95.5,495.5C 95.5,490.167 95.5,484.833 95.5,479.5C 90.1667,479.5 84.8333,479.5 79.5,479.5C 79.5,474.167 79.5,468.833 79.5,463.5C 81.6854,463.296 83.6854,462.63 85.5,461.5 Z"/></g>
<g><path style="opacity:0.007" fill="#000000" d="M 263.5,479.5 C 264.388,482.054 264.721,484.721 264.5,487.5C 266.833,487.5 269.167,487.5 271.5,487.5C 271.5,490.167 271.5,492.833 271.5,495.5C 266.341,496.079 261.175,496.746 256,497.5C 252.371,497.219 248.871,496.553 245.5,495.5C 246.036,492.302 245.369,489.635 243.5,487.5C 244.671,486.655 246.005,485.989 247.5,485.5C 247.833,486.833 248.167,486.833 248.5,485.5C 248.5,484.833 248.833,484.5 249.5,484.5C 250.5,485.833 251.5,485.833 252.5,484.5C 254.38,484.771 255.713,484.104 256.5,482.5C 256.5,481.833 256.833,481.5 257.5,481.5C 257.833,482.833 258.167,482.833 258.5,481.5C 260.167,480.833 261.833,480.167 263.5,479.5 Z"/></g>
<g><path style="opacity:0.007" fill="#030303" d="M 234.5,490.5 C 234.833,490.5 235.167,490.5 235.5,490.5C 235.918,491.222 236.584,491.722 237.5,492C 234.312,492.755 231.145,493.589 228,494.5C 227.235,494.43 226.735,494.097 226.5,493.5C 227.492,493.672 228.158,493.338 228.5,492.5C 228.833,492.5 229.167,492.5 229.5,492.5C 230.791,492.737 231.791,492.404 232.5,491.5C 233.492,491.672 234.158,491.338 234.5,490.5 Z"/></g>
<g><path style="opacity:0.01" fill="#030303" d="M 221.5,495.5 C 219.41,497.39 217.077,499.057 214.5,500.5C 212.829,500.332 211.496,499.665 210.5,498.5C 214.019,497.036 217.686,496.036 221.5,495.5 Z"/></g>
<g><path style="opacity:0.012" fill="#010101" d="M 139.5,497.5 C 140.492,497.328 141.158,497.662 141.5,498.5C 140.673,499.439 140.006,499.105 139.5,497.5 Z"/></g>
<g><path style="opacity:0.02" fill="#000000" d="M 148.5,500.5 C 151.167,500.833 153.833,501.167 156.5,501.5C 156.631,502.376 156.298,503.043 155.5,503.5C 152.984,502.67 150.65,501.67 148.5,500.5 Z"/></g>
<g><path style="opacity:0.018" fill="#010101" d="M 197.5,501.5 C 197.289,503.424 196.623,503.757 195.5,502.5C 195.842,501.662 196.508,501.328 197.5,501.5 Z"/></g>
</svg>
