<?xml version="1.0" encoding="UTF-8"?>
<!DOCTYPE svg PUBLIC "-//W3C//DTD SVG 1.1//EN" "http://www.w3.org/Graphics/SVG/1.1/DTD/svg11.dtd">
<svg xmlns="http://www.w3.org/2000/svg" version="1.1" width="240px" height="240px" style="shape-rendering:geometricPrecision; text-rendering:geometricPrecision; image-rendering:optimizeQuality; fill-rule:evenodd; clip-rule:evenodd" xmlns:xlink="http://www.w3.org/1999/xlink">
<g><path style="opacity:1" fill="#1a76d2" d="M 29.5,29.5 C 89.5,29.5 149.5,29.5 209.5,29.5C 209.5,89.5 209.5,149.5 209.5,209.5C 149.5,209.5 89.5,209.5 29.5,209.5C 29.5,149.5 29.5,89.5 29.5,29.5 Z"/></g>
<g><path style="opacity:1" fill="#fdfdfe" d="M 70.5,109.5 C 92.5,109.5 114.5,109.5 136.5,109.5C 136.5,114.833 136.5,120.167 136.5,125.5C 128.833,125.5 121.167,125.5 113.5,125.5C 113.5,150.167 113.5,174.833 113.5,199.5C 107.167,199.5 100.833,199.5 94.5,199.5C 94.5,174.833 94.5,150.167 94.5,125.5C 86.5,125.5 78.5,125.5 70.5,125.5C 70.5,120.167 70.5,114.833 70.5,109.5 Z"/></g>
<g><path style="opacity:1" fill="#fbfcfe" d="M 164.5,109.5 C 174.697,108.842 184.697,109.842 194.5,112.5C 195.833,118.167 195.833,123.833 194.5,129.5C 184.933,123.762 175.099,123.096 165,127.5C 162.729,130.12 162.062,133.12 163,136.5C 169.912,142.712 177.746,147.545 186.5,151C 201.006,161.728 203.506,174.894 194,190.5C 186.226,196.867 177.226,199.867 167,199.5C 158.976,199.19 151.142,197.857 143.5,195.5C 143.17,189.132 143.504,182.798 144.5,176.5C 153.944,183.277 164.277,185.11 175.5,182C 181.102,176.608 180.768,171.608 174.5,167C 166.172,162.838 158.172,158.171 150.5,153C 141.348,142.666 140.182,131.5 147,119.5C 151.946,114.449 157.779,111.115 164.5,109.5 Z"/></g>
</svg>
