<?xml version="1.0" encoding="UTF-8"?>
<!DOCTYPE svg PUBLIC "-//W3C//DTD SVG 1.1//EN" "http://www.w3.org/Graphics/SVG/1.1/DTD/svg11.dtd">
<svg xmlns="http://www.w3.org/2000/svg" version="1.1" width="225px" height="225px" style="shape-rendering:geometricPrecision; text-rendering:geometricPrecision; image-rendering:optimizeQuality; fill-rule:evenodd; clip-rule:evenodd" xmlns:xlink="http://www.w3.org/1999/xlink">
<g><path style="opacity:1" fill="#fdd105" d="M 9.5,-0.5 C 78.1667,-0.5 146.833,-0.5 215.5,-0.5C 215.369,0.376442 215.702,1.04311 216.5,1.5C 220.508,2.86766 223.174,5.53433 224.5,9.5C 224.5,18.8333 224.5,28.1667 224.5,37.5C 217.91,37.811 211.41,37.4777 205,36.5C 203.938,39.029 203.105,41.6957 202.5,44.5C 201.897,39.8898 200.563,35.5564 198.5,31.5C 197.304,31.8457 197.304,32.3457 198.5,33C 197.692,33.3076 197.025,33.8076 196.5,34.5C 199.763,36.6796 200.263,39.3463 198,42.5C 197.829,49.6787 197.329,56.6787 196.5,63.5C 196.666,55.4931 196.5,47.4931 196,39.5C 194.257,34.0896 190.757,30.2563 185.5,28C 166.833,27.3333 148.167,27.3333 129.5,28C 124.184,30.1465 120.851,33.9799 119.5,39.5C 118.683,41.9686 118.183,44.6353 118,47.5C 117.333,43.5 117.333,39.5 118,35.5C 120.522,31.8772 122.355,28.2106 123.5,24.5C 142.456,25.6537 161.456,25.8203 180.5,25C 181.5,24.6667 182.5,24.3333 183.5,24C 181.267,21.0929 178.267,19.9262 174.5,20.5C 174.5,19.5 174.5,18.5 174.5,17.5C 164.478,17.1681 154.478,17.5015 144.5,18.5C 144.709,19.086 145.043,19.586 145.5,20C 141.167,20.6667 136.833,20.6667 132.5,20C 130.707,17.1542 128.873,16.9875 127,19.5C 126.044,18.1059 124.711,17.4393 123,17.5C 118.704,19.8872 114.537,22.5539 110.5,25.5C 109.05,24.3446 108.05,22.8446 107.5,21C 104.367,20.04 101.2,19.2067 98,18.5C 94.7677,20.9109 91.1011,21.9109 87,21.5C 79.3465,19.9894 71.5131,19.3228 63.5,19.5C 57.6587,19.547 51.9921,20.2137 46.5,21.5C 45.5224,21.0233 44.6891,20.3567 44,19.5C 43.9152,17.9154 43.7486,16.5821 43.5,15.5C 41.5466,16.7607 39.5466,17.9274 37.5,19C 38.3366,20.0113 38.67,21.1779 38.5,22.5C 25.5791,20.7969 12.5791,20.1302 -0.5,20.5C -0.5,16.5 -0.5,12.5 -0.5,8.5C 2.28459,4.70622 5.61792,1.70622 9.5,-0.5 Z"/></g>
<g><path style="opacity:1" fill="#fcf6e7" d="M -0.5,-0.5 C 2.83333,-0.5 6.16667,-0.5 9.5,-0.5C 5.61792,1.70622 2.28459,4.70622 -0.5,8.5C -0.5,5.5 -0.5,2.5 -0.5,-0.5 Z"/></g>
<g><path style="opacity:1" fill="#fef9e8" d="M 215.5,-0.5 C 218.5,-0.5 221.5,-0.5 224.5,-0.5C 224.5,2.83333 224.5,6.16667 224.5,9.5C 223.174,5.53433 220.508,2.86766 216.5,1.5C 215.702,1.04311 215.369,0.376442 215.5,-0.5 Z"/></g>
<g><path style="opacity:1" fill="#fdcc05" d="M 119.5,39.5 C 119.162,47.1558 122.495,52.4891 129.5,55.5C 127.143,55.6633 124.81,55.4966 122.5,55C 121,52.8333 119.167,51 117,49.5C 116.952,46.6706 115.952,44.3373 114,42.5C 113.667,43.1667 113.333,43.8333 113,44.5C 112.333,43.1667 111.667,43.1667 111,44.5C 110.676,42.4311 109.842,42.0977 108.5,43.5C 107.561,46.7093 106.561,49.876 105.5,53C 103.866,54.3083 102.032,55.1416 100,55.5C 98.6244,55.3158 97.7911,54.6491 97.5,53.5C 104.833,48.2013 106.333,41.5347 102,33.5C 100.269,31.3834 98.1024,29.8834 95.5,29C 85.5697,27.8705 75.5697,27.3705 65.5,27.5C 56.5,27.6667 47.5,27.8333 38.5,28C 33.2425,30.2563 29.7425,34.0896 28,39.5C 27.5001,57.1635 27.3334,74.8302 27.5,92.5C 27.7989,94.604 27.4656,96.604 26.5,98.5C 25.7132,97.7579 25.0465,96.9246 24.5,96C 26.4202,90.8027 27.0868,85.3027 26.5,79.5C 26.2874,66.7936 25.6207,54.1269 24.5,41.5C 21.6118,41.2196 20.1118,42.5529 20,45.5C 18.8061,46.4303 17.4728,47.0969 16,47.5C 10.5496,46.5701 5.04956,46.2367 -0.5,46.5C -0.5,37.8333 -0.5,29.1667 -0.5,20.5C 12.5791,20.1302 25.5791,20.7969 38.5,22.5C 38.67,21.1779 38.3366,20.0113 37.5,19C 39.5466,17.9274 41.5466,16.7607 43.5,15.5C 43.7486,16.5821 43.9152,17.9154 44,19.5C 44.6891,20.3567 45.5224,21.0233 46.5,21.5C 51.9921,20.2137 57.6587,19.547 63.5,19.5C 71.5131,19.3228 79.3465,19.9894 87,21.5C 91.1011,21.9109 94.7677,20.9109 98,18.5C 101.2,19.2067 104.367,20.04 107.5,21C 108.05,22.8446 109.05,24.3446 110.5,25.5C 114.537,22.5539 118.704,19.8872 123,17.5C 124.711,17.4393 126.044,18.1059 127,19.5C 128.873,16.9875 130.707,17.1542 132.5,20C 136.833,20.6667 141.167,20.6667 145.5,20C 145.043,19.586 144.709,19.086 144.5,18.5C 154.478,17.5015 164.478,17.1681 174.5,17.5C 174.5,18.5 174.5,19.5 174.5,20.5C 178.267,19.9262 181.267,21.0929 183.5,24C 182.5,24.3333 181.5,24.6667 180.5,25C 161.456,25.8203 142.456,25.6537 123.5,24.5C 122.355,28.2106 120.522,31.8772 118,35.5C 117.333,39.5 117.333,43.5 118,47.5C 118.183,44.6353 118.683,41.9686 119.5,39.5 Z"/></g>
<g><path style="opacity:1" fill="#342302" d="M 97.5,53.5 C 96.234,54.0899 94.9007,54.5899 93.5,55C 85.8333,55.3333 78.1667,55.6667 70.5,56C 74.1885,60.6858 78.1885,65.0191 82.5,69C 90.0115,69.1712 97.3448,69.6712 104.5,70.5C 104.5,77.1667 104.5,83.8333 104.5,90.5C 100.395,90.2338 96.3951,90.7338 92.5,92C 90.6876,95.922 90.021,100.089 90.5,104.5C 83.5,104.5 76.5,104.5 69.5,104.5C 69.6663,97.1591 69.4997,89.8258 69,82.5C 64.6667,78.5 60.3333,74.5 56,70.5C 55.6667,78.1667 55.3333,85.8333 55,93.5C 52.4185,102.414 46.5851,105.914 37.5,104C 32.1709,101.806 28.8375,97.9729 27.5,92.5C 27.3334,74.8302 27.5001,57.1635 28,39.5C 29.7425,34.0896 33.2425,30.2563 38.5,28C 47.5,27.8333 56.5,27.6667 65.5,27.5C 75.5697,27.3705 85.5697,27.8705 95.5,29C 98.1024,29.8834 100.269,31.3834 102,33.5C 106.333,41.5347 104.833,48.2013 97.5,53.5 Z"/></g>
<g><path style="opacity:1" fill="#342303" d="M 196.5,63.5 C 196.5,73.1667 196.5,82.8333 196.5,92.5C 192.653,103.423 185.32,106.756 174.5,102.5C 172.748,100.754 171.415,98.7541 170.5,96.5C 170.248,87.1266 170.582,77.7933 171.5,68.5C 168.753,68.1866 166.086,68.52 163.5,69.5C 162.504,71.8163 160.837,73.483 158.5,74.5C 158.709,75.086 159.043,75.586 159.5,76C 157.895,77.3603 156.395,78.8603 155,80.5C 154.586,80.0426 154.086,79.7093 153.5,79.5C 152.692,81.4233 152.192,83.4233 152,85.5C 151.5,86.6667 150.667,87.5 149.5,88C 150.654,91.5808 151.654,95.5808 152.5,100C 152.355,100.772 152.022,101.439 151.5,102C 145.956,103.404 140.29,103.904 134.5,103.5C 134.806,100.615 134.473,97.9479 133.5,95.5C 132.833,95.5 132.5,95.1667 132.5,94.5C 132.244,92.2239 130.91,91.0572 128.5,91C 125.518,90.502 122.518,90.3354 119.5,90.5C 119.5,83.8333 119.5,77.1667 119.5,70.5C 126.687,70.8245 133.687,70.4912 140.5,69.5C 145.091,65.5752 149.425,61.2419 153.5,56.5C 145.528,55.5023 137.528,55.169 129.5,55.5C 122.495,52.4891 119.162,47.1558 119.5,39.5C 120.851,33.9799 124.184,30.1465 129.5,28C 148.167,27.3333 166.833,27.3333 185.5,28C 190.757,30.2563 194.257,34.0896 196,39.5C 196.5,47.4931 196.666,55.4931 196.5,63.5 Z"/></g>
<g><path style="opacity:1" fill="#fac108" d="M 129.5,55.5 C 137.528,55.169 145.528,55.5023 153.5,56.5C 149.425,61.2419 145.091,65.5752 140.5,69.5C 133.167,69.5 125.833,69.5 118.5,69.5C 118.5,76.8333 118.5,84.1667 118.5,91.5C 123.6,90.9098 128.267,91.9098 132.5,94.5C 132.5,95.1667 132.833,95.5 133.5,95.5C 133.5,98.5 133.5,101.5 133.5,104.5C 132.042,101.786 131.042,98.7855 130.5,95.5C 126.564,92.9493 122.731,92.9493 119,95.5C 118.309,93.1088 117.309,93.1088 116,95.5C 114.908,92.9556 114.241,90.2889 114,87.5C 113.182,92.7937 112.682,92.7937 112.5,87.5C 109.921,87.0833 107.754,87.75 106,89.5C 105.828,82.9867 105.328,76.6534 104.5,70.5C 97.3448,69.6712 90.0115,69.1712 82.5,69C 78.1885,65.0191 74.1885,60.6858 70.5,56C 78.1667,55.6667 85.8333,55.3333 93.5,55C 94.9007,54.5899 96.234,54.0899 97.5,53.5C 97.7911,54.6491 98.6244,55.3158 100,55.5C 102.032,55.1416 103.866,54.3083 105.5,53C 106.561,49.876 107.561,46.7093 108.5,43.5C 109.842,42.0977 110.676,42.4311 111,44.5C 111.667,43.1667 112.333,43.1667 113,44.5C 113.333,43.8333 113.667,43.1667 114,42.5C 115.952,44.3373 116.952,46.6706 117,49.5C 119.167,51 121,52.8333 122.5,55C 124.81,55.4966 127.143,55.6633 129.5,55.5 Z"/></g>
<g><path style="opacity:1" fill="#fec402" d="M 26.5,79.5 C 23.9636,74.6897 22.6303,69.3563 22.5,63.5C 21.5,63.5 20.5,63.5 19.5,63.5C 20.1846,76.7163 19.3513,89.7163 17,102.5C 16.0093,101.57 15.5093,100.404 15.5,99C 17.0247,95.2259 17.6914,91.2259 17.5,87C 17.225,81.8236 16.8916,76.657 16.5,71.5C 10.8333,71.5 5.16667,71.5 -0.5,71.5C -0.5,63.1667 -0.5,54.8333 -0.5,46.5C 5.04956,46.2367 10.5496,46.5701 16,47.5C 17.4728,47.0969 18.8061,46.4303 20,45.5C 20.1118,42.5529 21.6118,41.2196 24.5,41.5C 25.6207,54.1269 26.2874,66.7936 26.5,79.5 Z"/></g>
<g><path style="opacity:1" fill="#fec103" d="M 224.5,37.5 C 224.5,51.5 224.5,65.5 224.5,79.5C 219.617,80.5977 214.784,80.5977 210,79.5C 208.451,84.31 207.451,89.31 207,94.5C 206.622,89.6989 205.622,85.0322 204,80.5C 203.411,85.5454 202.578,90.5454 201.5,95.5C 199.788,87.5952 198.621,79.5952 198,71.5C 197.873,79.8905 197.373,86.8905 196.5,92.5C 196.5,82.8333 196.5,73.1667 196.5,63.5C 197.329,56.6787 197.829,49.6787 198,42.5C 200.263,39.3463 199.763,36.6796 196.5,34.5C 197.025,33.8076 197.692,33.3076 198.5,33C 197.304,32.3457 197.304,31.8457 198.5,31.5C 200.563,35.5564 201.897,39.8898 202.5,44.5C 203.105,41.6957 203.938,39.029 205,36.5C 211.41,37.4777 217.91,37.811 224.5,37.5 Z"/></g>
<g><path style="opacity:1" fill="#aa8008" d="M 140.5,69.5 C 133.687,70.4912 126.687,70.8245 119.5,70.5C 119.5,77.1667 119.5,83.8333 119.5,90.5C 122.518,90.3354 125.518,90.502 128.5,91C 130.91,91.0572 132.244,92.2239 132.5,94.5C 128.267,91.9098 123.6,90.9098 118.5,91.5C 118.5,84.1667 118.5,76.8333 118.5,69.5C 125.833,69.5 133.167,69.5 140.5,69.5 Z"/></g>
<g><path style="opacity:1" fill="#371903" d="M 170.5,96.5 C 169.732,95.7375 169.232,94.7375 169,93.5C 168.667,85.5 168.333,77.5 168,69.5C 163.324,74.0089 158.824,78.6755 154.5,83.5C 153.509,90.3134 153.175,97.3134 153.5,104.5C 146.833,104.5 140.167,104.5 133.5,104.5C 133.5,101.5 133.5,98.5 133.5,95.5C 134.473,97.9479 134.806,100.615 134.5,103.5C 140.29,103.904 145.956,103.404 151.5,102C 152.022,101.439 152.355,100.772 152.5,100C 151.654,95.5808 150.654,91.5808 149.5,88C 150.667,87.5 151.5,86.6667 152,85.5C 152.192,83.4233 152.692,81.4233 153.5,79.5C 154.086,79.7093 154.586,80.0426 155,80.5C 156.395,78.8603 157.895,77.3603 159.5,76C 159.043,75.586 158.709,75.086 158.5,74.5C 160.837,73.483 162.504,71.8163 163.5,69.5C 166.086,68.52 168.753,68.1866 171.5,68.5C 170.582,77.7933 170.248,87.1266 170.5,96.5 Z"/></g>
<g><path style="opacity:1" fill="#ebba10" d="M 170.5,96.5 C 171.415,98.7541 172.748,100.754 174.5,102.5C 171.249,103.959 168.915,102.959 167.5,99.5C 167.5,91.5 167.5,83.5 167.5,75.5C 164.58,76.4422 161.914,77.7755 159.5,79.5C 158.102,82.4815 157.102,85.6481 156.5,89C 156.671,93.8277 156.837,98.661 157,103.5C 156.23,104.598 155.397,104.598 154.5,103.5C 154.5,96.8333 154.5,90.1667 154.5,83.5C 158.824,78.6755 163.324,74.0089 168,69.5C 168.333,77.5 168.667,85.5 169,93.5C 169.232,94.7375 169.732,95.7375 170.5,96.5 Z"/></g>
<g><path style="opacity:1" fill="#fab705" d="M 26.5,79.5 C 27.0868,85.3027 26.4202,90.8027 24.5,96C 25.0465,96.9246 25.7132,97.7579 26.5,98.5C 27.4656,96.604 27.7989,94.604 27.5,92.5C 28.8375,97.9729 32.1709,101.806 37.5,104C 46.5851,105.914 52.4185,102.414 55,93.5C 55.3333,85.8333 55.6667,78.1667 56,70.5C 60.3333,74.5 64.6667,78.5 69,82.5C 69.4997,89.8258 69.6663,97.1591 69.5,104.5C 76.5,104.5 83.5,104.5 90.5,104.5C 90.021,100.089 90.6876,95.922 92.5,92C 96.3951,90.7338 100.395,90.2338 104.5,90.5C 104.5,83.8333 104.5,77.1667 104.5,70.5C 105.328,76.6534 105.828,82.9867 106,89.5C 107.754,87.75 109.921,87.0833 112.5,87.5C 112.682,92.7937 113.182,92.7937 114,87.5C 114.241,90.2889 114.908,92.9556 116,95.5C 117.309,93.1088 118.309,93.1088 119,95.5C 122.731,92.9493 126.564,92.9493 130.5,95.5C 131.042,98.7855 132.042,101.786 133.5,104.5C 136.817,105.165 140.317,105.499 144,105.5C 147.902,105.488 151.402,104.821 154.5,103.5C 155.397,104.598 156.23,104.598 157,103.5C 156.837,98.661 156.671,93.8277 156.5,89C 157.102,85.6481 158.102,82.4815 159.5,79.5C 161.914,77.7755 164.58,76.4422 167.5,75.5C 167.5,83.5 167.5,91.5 167.5,99.5C 162.048,96.6298 161.048,97.9632 164.5,103.5C 168.566,104.733 171.566,107.233 173.5,111C 171.899,111.273 170.399,111.773 169,112.5C 164.92,111.7 160.753,111.2 156.5,111C 154.431,110.676 154.098,109.842 155.5,108.5C 151.649,107.695 147.816,108.028 144,109.5C 142.374,108.711 140.874,107.711 139.5,106.5C 137.059,108.793 137.226,111.127 140,113.5C 140.689,112.643 141.522,111.977 142.5,111.5C 148.012,114.007 153.679,114.674 159.5,113.5C 159.5,114.833 159.5,116.167 159.5,117.5C 154.281,116.907 153.614,117.907 157.5,120.5C 156.833,121.833 156.167,123.167 155.5,124.5C 156.325,125.386 157.325,125.719 158.5,125.5C 157.133,127.511 156.133,130.178 155.5,133.5C 155.064,138.468 157.064,141.968 161.5,144C 161.167,144.333 160.833,144.667 160.5,145C 162.439,145.908 163.439,147.408 163.5,149.5C 160.889,146.627 158.056,143.961 155,141.5C 154.829,133.989 154.329,126.655 153.5,119.5C 146.687,118.509 139.687,118.175 132.5,118.5C 132.5,121.833 132.5,125.167 132.5,128.5C 132.084,130.752 130.751,132.252 128.5,133C 125.518,133.498 122.518,133.665 119.5,133.5C 119.461,132.244 119.961,131.244 121,130.5C 123.982,131.177 126.815,131.177 129.5,130.5C 130.659,126.878 130.825,123.211 130,119.5C 126.533,117.283 126.699,115.449 130.5,114C 129.5,113.667 128.5,113.333 127.5,113C 129.5,112.667 131.5,112.333 133.5,112C 130.972,110.983 130.972,109.816 133.5,108.5C 132.311,107.571 130.978,107.238 129.5,107.5C 129.33,108.822 129.663,109.989 130.5,111C 118.819,111.833 107.152,111.666 95.5,110.5C 94.8333,109.5 94.1667,108.5 93.5,107.5C 95.4011,106.065 95.7345,104.398 94.5,102.5C 92.794,104.705 91.294,107.038 90,109.5C 89.6121,108.572 88.9454,107.905 88,107.5C 84.8145,108.121 81.6478,108.788 78.5,109.5C 77.1585,107.995 75.4918,107.328 73.5,107.5C 73.423,110.509 74.7563,112.676 77.5,114C 76.062,114.219 74.7287,114.719 73.5,115.5C 73.8333,115.833 74.1667,116.167 74.5,116.5C 78.9669,117.114 83.3002,117.78 87.5,118.5C 81.5,118.5 75.5,118.5 69.5,118.5C 69.5,121.5 69.5,124.5 69.5,127.5C 68.5,127.5 67.5,127.5 66.5,127.5C 67.1587,124.545 67.4921,121.545 67.5,118.5C 66.1667,118.5 64.8333,118.5 63.5,118.5C 63.5,116.833 63.5,115.167 63.5,113.5C 65.1992,113.34 66.8659,113.506 68.5,114C 67.0072,115.156 67.1739,115.99 69,116.5C 70.3012,115.902 71.1345,114.902 71.5,113.5C 69.0587,110.494 67.7253,107.327 67.5,104C 65.8688,103.776 64.8688,104.61 64.5,106.5C 65.3094,108.071 65.6427,109.738 65.5,111.5C 63.8762,111.64 62.7096,110.973 62,109.5C 59.1592,111.504 55.9926,112.004 52.5,111C 55.8049,108.219 57.4715,104.719 57.5,100.5C 56.448,100.351 55.448,100.517 54.5,101C 54.8333,102 55.1667,103 55.5,104C 52.0287,105.451 49.362,107.784 47.5,111C 44.8333,111.667 42.1667,111.667 39.5,111C 40.3279,110.085 41.3279,109.419 42.5,109C 41.5838,108.626 40.7504,108.126 40,107.5C 38.2521,109.879 35.9188,111.546 33,112.5C 21.8722,111.532 10.7055,111.199 -0.5,111.5C -0.5,98.1667 -0.5,84.8333 -0.5,71.5C 5.16667,71.5 10.8333,71.5 16.5,71.5C 16.8916,76.657 17.225,81.8236 17.5,87C 17.6914,91.2259 17.0247,95.2259 15.5,99C 15.5093,100.404 16.0093,101.57 17,102.5C 19.3513,89.7163 20.1846,76.7163 19.5,63.5C 20.5,63.5 21.5,63.5 22.5,63.5C 22.6303,69.3563 23.9636,74.6897 26.5,79.5 Z"/></g>
<g><path style="opacity:1" fill="#a07608" d="M 154.5,83.5 C 154.5,90.1667 154.5,96.8333 154.5,103.5C 151.402,104.821 147.902,105.488 144,105.5C 140.317,105.499 136.817,105.165 133.5,104.5C 140.167,104.5 146.833,104.5 153.5,104.5C 153.175,97.3134 153.509,90.3134 154.5,83.5 Z"/></g>
<g><path style="opacity:1" fill="#fcb205" d="M 224.5,79.5 C 224.5,95.5 224.5,111.5 224.5,127.5C 219.156,127.334 213.823,127.501 208.5,128C 207.726,130.405 207.226,132.905 207,135.5C 207.113,131.737 205.947,128.57 203.5,126C 204.576,124.274 204.743,122.441 204,120.5C 202.388,117.921 200.888,117.921 199.5,120.5C 202.89,127.916 203.39,135.582 201,143.5C 200.617,142.944 200.117,142.611 199.5,142.5C 199.666,137.821 199.499,133.155 199,128.5C 197.405,130.425 197.238,132.425 198.5,134.5C 197.847,151.294 197.18,167.961 196.5,184.5C 196.667,166.497 196.5,148.497 196,130.5C 192.258,120.713 185.425,117.546 175.5,121C 172.567,123.264 170.4,126.098 169,129.5C 168.667,137.5 168.333,145.5 168,153.5C 166.333,152.267 164.833,150.933 163.5,149.5C 163.439,147.408 162.439,145.908 160.5,145C 160.833,144.667 161.167,144.333 161.5,144C 157.064,141.968 155.064,138.468 155.5,133.5C 156.133,130.178 157.133,127.511 158.5,125.5C 157.325,125.719 156.325,125.386 155.5,124.5C 156.167,123.167 156.833,121.833 157.5,120.5C 153.614,117.907 154.281,116.907 159.5,117.5C 159.5,116.167 159.5,114.833 159.5,113.5C 153.679,114.674 148.012,114.007 142.5,111.5C 141.522,111.977 140.689,112.643 140,113.5C 137.226,111.127 137.059,108.793 139.5,106.5C 140.874,107.711 142.374,108.711 144,109.5C 147.816,108.028 151.649,107.695 155.5,108.5C 154.098,109.842 154.431,110.676 156.5,111C 160.753,111.2 164.92,111.7 169,112.5C 170.399,111.773 171.899,111.273 173.5,111C 171.566,107.233 168.566,104.733 164.5,103.5C 161.048,97.9632 162.048,96.6298 167.5,99.5C 168.915,102.959 171.249,103.959 174.5,102.5C 185.32,106.756 192.653,103.423 196.5,92.5C 197.373,86.8905 197.873,79.8905 198,71.5C 198.621,79.5952 199.788,87.5952 201.5,95.5C 202.578,90.5454 203.411,85.5454 204,80.5C 205.622,85.0322 206.622,89.6989 207,94.5C 207.451,89.31 208.451,84.31 210,79.5C 214.784,80.5977 219.617,80.5977 224.5,79.5 Z"/></g>
<g><path style="opacity:1" fill="#fbae05" d="M 119.5,133.5 C 119.5,140.5 119.5,147.5 119.5,154.5C 126.841,154.334 134.174,154.5 141.5,155C 142.883,156.271 143.883,157.771 144.5,159.5C 141.813,159.664 139.146,159.497 136.5,159C 137.451,158.282 137.617,157.449 137,156.5C 132.582,158.21 128.082,158.544 123.5,157.5C 121.889,158.32 121.222,159.654 121.5,161.5C 118.724,161.911 118.057,161.078 119.5,159C 117.975,154.915 116.475,154.748 115,158.5C 112.695,155.185 109.528,153.518 105.5,153.5C 105.824,146.646 105.491,139.979 104.5,133.5C 101.15,133.665 97.8168,133.498 94.5,133C 92.5743,132.578 91.5743,131.411 91.5,129.5C 91.1667,128.833 90.8333,128.167 90.5,127.5C 90.5,124.833 90.5,122.167 90.5,119.5C 89.791,118.596 88.791,118.263 87.5,118.5C 83.3002,117.78 78.9669,117.114 74.5,116.5C 74.1667,116.167 73.8333,115.833 73.5,115.5C 74.7287,114.719 76.062,114.219 77.5,114C 74.7563,112.676 73.423,110.509 73.5,107.5C 75.4918,107.328 77.1585,107.995 78.5,109.5C 81.6478,108.788 84.8145,108.121 88,107.5C 88.9454,107.905 89.6121,108.572 90,109.5C 91.294,107.038 92.794,104.705 94.5,102.5C 95.7345,104.398 95.4011,106.065 93.5,107.5C 94.1667,108.5 94.8333,109.5 95.5,110.5C 107.152,111.666 118.819,111.833 130.5,111C 129.663,109.989 129.33,108.822 129.5,107.5C 130.978,107.238 132.311,107.571 133.5,108.5C 130.972,109.816 130.972,110.983 133.5,112C 131.5,112.333 129.5,112.667 127.5,113C 128.5,113.333 129.5,113.667 130.5,114C 126.699,115.449 126.533,117.283 130,119.5C 130.825,123.211 130.659,126.878 129.5,130.5C 126.815,131.177 123.982,131.177 121,130.5C 119.961,131.244 119.461,132.244 119.5,133.5 Z"/></g>
<g><path style="opacity:1" fill="#feb003" d="M 69.5,127.5 C 69.1786,133.026 69.5119,138.36 70.5,143.5C 72.2623,148.929 75.929,152.262 81.5,153.5C 89.3159,154.492 97.3159,154.826 105.5,154.5C 105.281,155.675 105.614,156.675 106.5,157.5C 108.117,157.669 109.784,158.003 111.5,158.5C 108.554,159.655 105.554,159.821 102.5,159C 101.663,157.989 101.33,156.822 101.5,155.5C 100.167,155.5 98.8333,155.5 97.5,155.5C 97.67,156.822 97.3366,157.989 96.5,159C 89.9776,159.464 83.6443,159.464 77.5,159C 76.8095,157.933 76.3095,156.766 76,155.5C 74.3335,156.34 74.1669,155.84 75.5,154C 72.2712,153.644 70.7712,151.81 71,148.5C 69.7268,146.428 67.8935,145.095 65.5,144.5C 64.6143,143.675 64.281,142.675 64.5,141.5C 63.4968,138.779 63.8301,136.113 65.5,133.5C 64.4232,126.584 63.7565,126.251 63.5,132.5C 42.1667,132.5 20.8333,132.5 -0.5,132.5C -0.5,125.5 -0.5,118.5 -0.5,111.5C 10.7055,111.199 21.8722,111.532 33,112.5C 35.9188,111.546 38.2521,109.879 40,107.5C 40.7504,108.126 41.5838,108.626 42.5,109C 41.3279,109.419 40.3279,110.085 39.5,111C 42.1667,111.667 44.8333,111.667 47.5,111C 49.362,107.784 52.0287,105.451 55.5,104C 55.1667,103 54.8333,102 54.5,101C 55.448,100.517 56.448,100.351 57.5,100.5C 57.4715,104.719 55.8049,108.219 52.5,111C 55.9926,112.004 59.1592,111.504 62,109.5C 62.7096,110.973 63.8762,111.64 65.5,111.5C 65.6427,109.738 65.3094,108.071 64.5,106.5C 64.8688,104.61 65.8688,103.776 67.5,104C 67.7253,107.327 69.0587,110.494 71.5,113.5C 71.1345,114.902 70.3012,115.902 69,116.5C 67.1739,115.99 67.0072,115.156 68.5,114C 66.8659,113.506 65.1992,113.34 63.5,113.5C 63.5,115.167 63.5,116.833 63.5,118.5C 64.8333,118.5 66.1667,118.5 67.5,118.5C 67.4921,121.545 67.1587,124.545 66.5,127.5C 67.5,127.5 68.5,127.5 69.5,127.5 Z"/></g>
<g><path style="opacity:1" fill="#ae8100" d="M 153.5,119.5 C 146.833,119.5 140.167,119.5 133.5,119.5C 133.81,122.713 133.477,125.713 132.5,128.5C 132.5,125.167 132.5,121.833 132.5,118.5C 139.687,118.175 146.687,118.509 153.5,119.5 Z"/></g>
<g><path style="opacity:1" fill="#feac01" d="M 224.5,127.5 C 224.5,135.5 224.5,143.5 224.5,151.5C 219.167,151.5 213.833,151.5 208.5,151.5C 208.461,148.679 207.795,146.012 206.5,143.5C 205.958,149.311 205.124,154.978 204,160.5C 203.502,157.518 203.335,154.518 203.5,151.5C 202.167,151.5 200.833,151.5 199.5,151.5C 199.5,148.5 199.5,145.5 199.5,142.5C 200.117,142.611 200.617,142.944 201,143.5C 203.39,135.582 202.89,127.916 199.5,120.5C 200.888,117.921 202.388,117.921 204,120.5C 204.743,122.441 204.576,124.274 203.5,126C 205.947,128.57 207.113,131.737 207,135.5C 207.226,132.905 207.726,130.405 208.5,128C 213.823,127.501 219.156,127.334 224.5,127.5 Z"/></g>
<g><path style="opacity:1" fill="#352002" d="M 90.5,119.5 C 90.5,122.167 90.5,124.833 90.5,127.5C 88.6921,126.082 88.0254,124.082 88.5,121.5C 83.5,121.5 78.5,121.5 73.5,121.5C 73.5,123.167 73.5,124.833 73.5,126.5C 75.4835,126.617 77.1502,125.95 78.5,124.5C 79.4519,126.045 79.7852,127.712 79.5,129.5C 81.5,129.167 83.5,128.833 85.5,128.5C 85.6633,130.857 85.4966,133.19 85,135.5C 83.5186,138.11 82.3519,140.777 81.5,143.5C 83.1667,143.5 84.8333,143.5 86.5,143.5C 88.7577,135.517 91.2577,135.517 94,143.5C 94.8333,142.5 95.6667,141.5 96.5,140.5C 97.624,141.914 98.624,143.414 99.5,145C 100.448,145.483 101.448,145.649 102.5,145.5C 102.5,142.167 102.5,138.833 102.5,135.5C 99.1212,135.322 95.9546,135.322 93,135.5C 90.8711,133.666 90.3711,131.666 91.5,129.5C 91.5743,131.411 92.5743,132.578 94.5,133C 97.8168,133.498 101.15,133.665 104.5,133.5C 104.5,140.167 104.5,146.833 104.5,153.5C 96.8333,153.5 89.1667,153.5 81.5,153.5C 75.929,152.262 72.2623,148.929 70.5,143.5C 70.5,135.5 70.5,127.5 70.5,119.5C 77.1667,119.5 83.8333,119.5 90.5,119.5 Z"/></g>
<g><path style="opacity:1" fill="#feab01" d="M 64.5,141.5 C 63.9345,144.254 63.6011,147.087 63.5,150C 65.2182,150.346 66.8849,150.846 68.5,151.5C 69.1867,153.274 70.0201,154.941 71,156.5C 71.3333,155.833 71.6667,155.167 72,154.5C 74.5008,159.411 73.0008,160.744 67.5,158.5C 66.3514,155.571 64.6847,155.071 62.5,157C 41.5026,157.5 20.5026,157.667 -0.5,157.5C -0.5,149.167 -0.5,140.833 -0.5,132.5C 20.8333,132.5 42.1667,132.5 63.5,132.5C 63.7565,126.251 64.4232,126.584 65.5,133.5C 63.8301,136.113 63.4968,138.779 64.5,141.5 Z"/></g>
<g><path style="opacity:1" fill="#352302" d="M 153.5,119.5 C 154.329,126.655 154.829,133.989 155,141.5C 158.056,143.961 160.889,146.627 163.5,149.5C 164.833,150.933 166.333,152.267 168,153.5C 168.333,145.5 168.667,137.5 169,129.5C 170.4,126.098 172.567,123.264 175.5,121C 185.425,117.546 192.258,120.713 196,130.5C 196.5,148.497 196.667,166.497 196.5,184.5C 194.44,189.729 190.774,193.563 185.5,196C 166.833,196.667 148.167,196.667 129.5,196C 121.436,192.371 118.269,186.205 120,177.5C 122.222,173.612 125.388,170.779 129.5,169C 137.5,168.667 145.5,168.333 153.5,168C 151.266,164.264 148.266,161.43 144.5,159.5C 143.883,157.771 142.883,156.271 141.5,155C 134.174,154.5 126.841,154.334 119.5,154.5C 119.5,147.5 119.5,140.5 119.5,133.5C 122.518,133.665 125.518,133.498 128.5,133C 130.751,132.252 132.084,130.752 132.5,128.5C 133.477,125.713 133.81,122.713 133.5,119.5C 140.167,119.5 146.833,119.5 153.5,119.5 Z"/></g>
<g><path style="opacity:1" fill="#946b03" d="M 87.5,118.5 C 88.791,118.263 89.791,118.596 90.5,119.5C 83.8333,119.5 77.1667,119.5 70.5,119.5C 70.5,127.5 70.5,135.5 70.5,143.5C 69.5119,138.36 69.1786,133.026 69.5,127.5C 69.5,124.5 69.5,121.5 69.5,118.5C 75.5,118.5 81.5,118.5 87.5,118.5 Z"/></g>
<g><path style="opacity:1" fill="#2f2405" d="M 90.5,127.5 C 90.8333,128.167 91.1667,128.833 91.5,129.5C 90.3711,131.666 90.8711,133.666 93,135.5C 95.9546,135.322 99.1212,135.322 102.5,135.5C 102.5,138.833 102.5,142.167 102.5,145.5C 101.448,145.649 100.448,145.483 99.5,145C 98.624,143.414 97.624,141.914 96.5,140.5C 95.6667,141.5 94.8333,142.5 94,143.5C 91.2577,135.517 88.7577,135.517 86.5,143.5C 84.8333,143.5 83.1667,143.5 81.5,143.5C 82.3519,140.777 83.5186,138.11 85,135.5C 85.4966,133.19 85.6633,130.857 85.5,128.5C 83.5,128.833 81.5,129.167 79.5,129.5C 79.7852,127.712 79.4519,126.045 78.5,124.5C 77.1502,125.95 75.4835,126.617 73.5,126.5C 73.5,124.833 73.5,123.167 73.5,121.5C 78.5,121.5 83.5,121.5 88.5,121.5C 88.0254,124.082 88.6921,126.082 90.5,127.5 Z"/></g>
<g><path style="opacity:1" fill="#926301" d="M 104.5,133.5 C 105.491,139.979 105.824,146.646 105.5,153.5C 105.5,153.833 105.5,154.167 105.5,154.5C 97.3159,154.826 89.3159,154.492 81.5,153.5C 89.1667,153.5 96.8333,153.5 104.5,153.5C 104.5,146.833 104.5,140.167 104.5,133.5 Z"/></g>
<g><path style="opacity:1" fill="#fda302" d="M 199.5,142.5 C 199.5,145.5 199.5,148.5 199.5,151.5C 200.833,151.5 202.167,151.5 203.5,151.5C 203.335,154.518 203.502,157.518 204,160.5C 205.124,154.978 205.958,149.311 206.5,143.5C 207.795,146.012 208.461,148.679 208.5,151.5C 213.833,151.5 219.167,151.5 224.5,151.5C 224.5,165.167 224.5,178.833 224.5,192.5C 218.167,192.5 211.833,192.5 205.5,192.5C 205.799,190.396 205.466,188.396 204.5,186.5C 202.717,188.023 202.051,190.023 202.5,192.5C 196.05,190.701 192.55,193.034 192,199.5C 191.549,197.071 190.715,196.904 189.5,199C 187.167,199.167 184.833,199.333 182.5,199.5C 169.887,197.638 157.22,197.138 144.5,198C 142.431,198.324 142.098,199.158 143.5,200.5C 137.827,201.396 132.327,201.729 127,201.5C 125.421,199.959 123.587,198.792 121.5,198C 122.167,197.667 122.833,197.333 123.5,197C 120.74,195.821 118.74,193.988 117.5,191.5C 118.634,189.034 118.801,186.367 118,183.5C 117.29,184.973 116.124,185.64 114.5,185.5C 114.186,180.969 113.186,176.969 111.5,173.5C 87.5093,172.5 63.5093,172.167 39.5,172.5C 39.5,173.5 39.5,174.5 39.5,175.5C 26.1667,175.5 12.8333,175.5 -0.5,175.5C -0.5,169.5 -0.5,163.5 -0.5,157.5C 20.5026,157.667 41.5026,157.5 62.5,157C 64.6847,155.071 66.3514,155.571 67.5,158.5C 73.0008,160.744 74.5008,159.411 72,154.5C 71.6667,155.167 71.3333,155.833 71,156.5C 70.0201,154.941 69.1867,153.274 68.5,151.5C 66.8849,150.846 65.2182,150.346 63.5,150C 63.6011,147.087 63.9345,144.254 64.5,141.5C 64.281,142.675 64.6143,143.675 65.5,144.5C 67.8935,145.095 69.7268,146.428 71,148.5C 70.7712,151.81 72.2712,153.644 75.5,154C 74.1669,155.84 74.3335,156.34 76,155.5C 76.3095,156.766 76.8095,157.933 77.5,159C 83.6443,159.464 89.9776,159.464 96.5,159C 97.3366,157.989 97.67,156.822 97.5,155.5C 98.8333,155.5 100.167,155.5 101.5,155.5C 101.33,156.822 101.663,157.989 102.5,159C 105.554,159.821 108.554,159.655 111.5,158.5C 109.784,158.003 108.117,157.669 106.5,157.5C 105.614,156.675 105.281,155.675 105.5,154.5C 105.5,154.167 105.5,153.833 105.5,153.5C 109.528,153.518 112.695,155.185 115,158.5C 116.475,154.748 117.975,154.915 119.5,159C 118.057,161.078 118.724,161.911 121.5,161.5C 121.222,159.654 121.889,158.32 123.5,157.5C 128.082,158.544 132.582,158.21 137,156.5C 137.617,157.449 137.451,158.282 136.5,159C 139.146,159.497 141.813,159.664 144.5,159.5C 148.266,161.43 151.266,164.264 153.5,168C 145.5,168.333 137.5,168.667 129.5,169C 125.388,170.779 122.222,173.612 120,177.5C 118.269,186.205 121.436,192.371 129.5,196C 148.167,196.667 166.833,196.667 185.5,196C 190.774,193.563 194.44,189.729 196.5,184.5C 197.18,167.961 197.847,151.294 198.5,134.5C 197.238,132.425 197.405,130.425 199,128.5C 199.499,133.155 199.666,137.821 199.5,142.5 Z"/></g>
<g><path style="opacity:1" fill="#fe9f00" d="M 117.5,191.5 C 117.762,190.022 117.429,188.689 116.5,187.5C 115.534,189.396 115.201,191.396 115.5,193.5C 103.526,192.608 91.5261,192.275 79.5,192.5C 79.5,194.833 79.5,197.167 79.5,199.5C 52.8333,199.5 26.1667,199.5 -0.5,199.5C -0.5,191.5 -0.5,183.5 -0.5,175.5C 12.8333,175.5 26.1667,175.5 39.5,175.5C 39.5,174.5 39.5,173.5 39.5,172.5C 63.5093,172.167 87.5093,172.5 111.5,173.5C 113.186,176.969 114.186,180.969 114.5,185.5C 116.124,185.64 117.29,184.973 118,183.5C 118.801,186.367 118.634,189.034 117.5,191.5 Z"/></g>
<g><path style="opacity:1" fill="#fe9702" d="M 224.5,192.5 C 224.5,199.5 224.5,206.5 224.5,213.5C 222.5,218.833 218.833,222.5 213.5,224.5C 145.5,224.5 77.5,224.5 9.5,224.5C 7.13181,223.217 4.96514,221.55 3,219.5C 2.4005,217.09 1.23383,215.09 -0.5,213.5C -0.5,208.833 -0.5,204.167 -0.5,199.5C 26.1667,199.5 52.8333,199.5 79.5,199.5C 79.5,197.167 79.5,194.833 79.5,192.5C 91.5261,192.275 103.526,192.608 115.5,193.5C 115.201,191.396 115.534,189.396 116.5,187.5C 117.429,188.689 117.762,190.022 117.5,191.5C 118.74,193.988 120.74,195.821 123.5,197C 122.833,197.333 122.167,197.667 121.5,198C 123.587,198.792 125.421,199.959 127,201.5C 132.327,201.729 137.827,201.396 143.5,200.5C 142.098,199.158 142.431,198.324 144.5,198C 157.22,197.138 169.887,197.638 182.5,199.5C 184.833,199.333 187.167,199.167 189.5,199C 190.715,196.904 191.549,197.071 192,199.5C 192.55,193.034 196.05,190.701 202.5,192.5C 202.051,190.023 202.717,188.023 204.5,186.5C 205.466,188.396 205.799,190.396 205.5,192.5C 211.833,192.5 218.167,192.5 224.5,192.5 Z"/></g>
<g><path style="opacity:1" fill="#fef4e6" d="M 224.5,213.5 C 224.5,217.167 224.5,220.833 224.5,224.5C 220.833,224.5 217.167,224.5 213.5,224.5C 218.833,222.5 222.5,218.833 224.5,213.5 Z"/></g>
<g><path style="opacity:1" fill="#fcf2e0" d="M -0.5,213.5 C 1.23383,215.09 2.4005,217.09 3,219.5C 4.96514,221.55 7.13181,223.217 9.5,224.5C 6.16667,224.5 2.83333,224.5 -0.5,224.5C -0.5,220.833 -0.5,217.167 -0.5,213.5 Z"/></g>
</svg>
