<?xml version="1.0" encoding="UTF-8"?>
<!DOCTYPE svg PUBLIC "-//W3C//DTD SVG 1.1//EN" "http://www.w3.org/Graphics/SVG/1.1/DTD/svg11.dtd">
<svg xmlns="http://www.w3.org/2000/svg" version="1.1" width="512px" height="512px" style="shape-rendering:geometricPrecision; text-rendering:geometricPrecision; image-rendering:optimizeQuality; fill-rule:evenodd; clip-rule:evenodd" xmlns:xlink="http://www.w3.org/1999/xlink">
<g><path style="opacity:0.966" fill="#000000" d="M 176.5,25.5 C 229.168,25.3333 281.834,25.5 334.5,26C 360.756,26.4862 386.089,31.4862 410.5,41C 445.23,56.9442 467.397,83.4442 477,120.5C 480.492,133.629 482.826,146.962 484,160.5C 485.099,192.152 485.599,223.818 485.5,255.5C 485.599,287.182 485.099,318.848 484,350.5C 477.5,433 433,477.5 350.5,484C 318.848,485.099 287.182,485.599 255.5,485.5C 223.818,485.599 192.152,485.099 160.5,484C 135.092,482.315 111.092,475.649 88.5,464C 56.7416,444.195 37.575,415.695 31,378.5C 28.2133,364.3 26.5466,349.966 26,335.5C 25.3333,314.833 25.3333,294.167 26,273.5C 31.3324,260.95 40.1657,257.783 52.5,264C 54.9686,266.441 56.802,269.274 58,272.5C 58.3333,293.167 58.6667,313.833 59,334.5C 59.3767,357.433 64.0434,379.433 73,400.5C 85.2733,423.566 104.107,438.399 129.5,445C 144.888,449.176 160.555,451.509 176.5,452C 229.167,452.667 281.833,452.667 334.5,452C 354.802,451.672 374.468,448.005 393.5,441C 420.648,429.849 437.815,410.016 445,381.5C 449.285,365.789 451.618,349.789 452,333.5C 452.667,281.5 452.667,229.5 452,177.5C 451.924,150.53 445.591,125.196 433,101.5C 417.147,80.1463 395.981,67.313 369.5,63C 357.928,60.8624 346.261,59.529 334.5,59C 281.833,58.3333 229.167,58.3333 176.5,59C 152.755,59.2888 130.089,64.2888 108.5,74C 82.5508,89.0194 67.3841,111.519 63,141.5C 60.0562,159.711 58.3896,178.044 58,196.5C 54.0162,206.241 46.8495,209.741 36.5,207C 27.4436,202.701 23.777,195.534 25.5,185.5C 25.3341,156.165 30.5008,127.832 41,100.5C 59.6953,62.0413 90.1953,38.8746 132.5,31C 147.223,28.3847 161.889,26.5514 176.5,25.5 Z M 165.5,143.5 C 176.34,144.505 183.507,150.172 187,160.5C 187.5,169.494 187.666,178.494 187.5,187.5C 178.494,187.666 169.494,187.5 160.5,187C 144.698,180.222 140.531,169.056 148,153.5C 152.687,147.913 158.521,144.58 165.5,143.5 Z M 344.5,143.5 C 364.388,147.943 370.554,159.61 363,178.5C 360.408,181.762 357.241,184.262 353.5,186C 343.58,187.423 333.58,187.923 323.5,187.5C 323.077,177.42 323.577,167.42 325,157.5C 329.048,149.242 335.548,144.575 344.5,143.5 Z M 160.5,323.5 C 169.5,323.5 178.5,323.5 187.5,323.5C 187.923,333.58 187.423,343.58 186,353.5C 178.06,367.116 167.227,370.283 153.5,363C 143.726,354.306 141.892,344.14 148,332.5C 151.299,328.118 155.466,325.118 160.5,323.5 Z M 323.5,323.5 C 332.506,323.334 341.506,323.5 350.5,324C 366.302,330.778 370.469,341.944 363,357.5C 351,370.833 339,370.833 327,357.5C 325.725,355.283 324.725,352.949 324,350.5C 323.5,341.506 323.334,332.506 323.5,323.5 Z"/></g>
<g><path style="opacity:0.97" fill="#000000" d="M 155.5,111.5 C 187.079,108.529 208.246,121.863 219,151.5C 220.391,163.447 220.891,175.447 220.5,187.5C 243.833,187.5 267.167,187.5 290.5,187.5C 290.334,177.161 290.5,166.828 291,156.5C 299.909,123.611 321.409,108.778 355.5,112C 379,117.5 393.5,132 399,155.5C 402.222,189.591 387.389,211.091 354.5,220C 344.172,220.5 333.839,220.666 323.5,220.5C 323.5,243.833 323.5,267.167 323.5,290.5C 333.839,290.334 344.172,290.5 354.5,291C 387.421,299.935 402.255,321.435 399,355.5C 393.5,379 379,393.5 355.5,399C 321.409,402.222 299.909,387.389 291,354.5C 290.5,344.172 290.334,333.839 290.5,323.5C 267.167,323.5 243.833,323.5 220.5,323.5C 220.666,333.839 220.5,344.172 220,354.5C 211.091,387.389 189.591,402.222 155.5,399C 132,393.5 117.5,379 112,355.5C 108.778,321.409 123.611,299.909 156.5,291C 166.828,290.5 177.161,290.334 187.5,290.5C 187.5,267.167 187.5,243.833 187.5,220.5C 177.161,220.666 166.828,220.5 156.5,220C 123.611,211.091 108.778,189.591 112,155.5C 117.681,131.986 132.181,117.319 155.5,111.5 Z M 165.5,143.5 C 158.521,144.58 152.687,147.913 148,153.5C 140.531,169.056 144.698,180.222 160.5,187C 169.494,187.5 178.494,187.666 187.5,187.5C 187.666,178.494 187.5,169.494 187,160.5C 183.507,150.172 176.34,144.505 165.5,143.5 Z M 344.5,143.5 C 335.548,144.575 329.048,149.242 325,157.5C 323.577,167.42 323.077,177.42 323.5,187.5C 333.58,187.923 343.58,187.423 353.5,186C 357.241,184.262 360.408,181.762 363,178.5C 370.554,159.61 364.388,147.943 344.5,143.5 Z M 220.5,220.5 C 243.833,220.5 267.167,220.5 290.5,220.5C 290.5,243.833 290.5,267.167 290.5,290.5C 267.167,290.5 243.833,290.5 220.5,290.5C 220.5,267.167 220.5,243.833 220.5,220.5 Z M 160.5,323.5 C 155.466,325.118 151.299,328.118 148,332.5C 141.892,344.14 143.726,354.306 153.5,363C 167.227,370.283 178.06,367.116 186,353.5C 187.423,343.58 187.923,333.58 187.5,323.5C 178.5,323.5 169.5,323.5 160.5,323.5 Z M 323.5,323.5 C 323.334,332.506 323.5,341.506 324,350.5C 324.725,352.949 325.725,355.283 327,357.5C 339,370.833 351,370.833 363,357.5C 370.469,341.944 366.302,330.778 350.5,324C 341.506,323.5 332.506,323.334 323.5,323.5 Z"/></g>
</svg>
