<?xml version="1.0" encoding="UTF-8"?>
<!DOCTYPE svg PUBLIC "-//W3C//DTD SVG 1.1//EN" "http://www.w3.org/Graphics/SVG/1.1/DTD/svg11.dtd">
<svg xmlns="http://www.w3.org/2000/svg" version="1.1" width="512px" height="512px" style="shape-rendering:geometricPrecision; text-rendering:geometricPrecision; image-rendering:optimizeQuality; fill-rule:evenodd; clip-rule:evenodd" xmlns:xlink="http://www.w3.org/1999/xlink">
<g><path style="opacity:0.969" fill="#010102" d="M 118.5,-0.5 C 209.833,-0.5 301.167,-0.5 392.5,-0.5C 398.122,1.62437 401.955,5.62437 404,11.5C 404.667,22.8333 404.667,34.1667 404,45.5C 401.833,51.6667 397.667,55.8333 391.5,58C 387.129,58.1725 382.796,58.6725 378.5,59.5C 375.705,72.1425 373.038,84.8092 370.5,97.5C 388.503,97.3334 406.503,97.5001 424.5,98C 425.931,98.4652 427.097,99.2986 428,100.5C 428.667,127.5 428.667,154.5 428,181.5C 422.242,211.257 404.742,230.091 375.5,238C 362.859,239.041 350.192,239.875 337.5,240.5C 333.292,249.758 327.959,258.258 321.5,266C 322.191,267.067 322.691,268.234 323,269.5C 323.578,281.207 323.578,292.874 323,304.5C 334.505,312.172 341.338,322.839 343.5,336.5C 350.841,336.334 358.174,336.5 365.5,337C 370.757,339.256 374.257,343.09 376,348.5C 376.5,384.165 376.667,419.832 376.5,455.5C 386.839,455.334 397.172,455.5 407.5,456C 408,456.5 408.5,457 409,457.5C 410.638,474.409 410.971,491.409 410,508.5C 408.955,509.373 408.122,510.373 407.5,511.5C 306.167,511.5 204.833,511.5 103.5,511.5C 102.878,510.373 102.045,509.373 101,508.5C 100.029,491.409 100.362,474.409 102,457.5C 102.5,457 103,456.5 103.5,456C 113.828,455.5 124.161,455.334 134.5,455.5C 134.333,419.832 134.5,384.165 135,348.5C 136.743,343.09 140.243,339.256 145.5,337C 152.826,336.5 160.159,336.334 167.5,336.5C 169.662,322.839 176.495,312.172 188,304.5C 187.422,292.874 187.422,281.207 188,269.5C 188.309,268.234 188.809,267.067 189.5,266C 182.782,258.432 177.449,249.932 173.5,240.5C 160.808,239.875 148.141,239.041 135.5,238C 106.71,230.21 89.2103,211.71 83,182.5C 82.3333,155.167 82.3333,127.833 83,100.5C 83.9025,99.2986 85.0692,98.4652 86.5,98C 104.497,97.5001 122.497,97.3334 140.5,97.5C 137.962,84.8092 135.295,72.1425 132.5,59.5C 120.895,60.9287 112.395,56.5953 107,46.5C 106.333,34.8333 106.333,23.1667 107,11.5C 109.019,5.64984 112.852,1.64984 118.5,-0.5 Z M 95.5,110.5 C 111.5,110.5 127.5,110.5 143.5,110.5C 150.605,149.358 158.605,188.025 167.5,226.5C 141.913,230.368 121.08,222.368 105,202.5C 100.638,195.753 97.6379,188.419 96,180.5C 95.5,157.169 95.3334,133.836 95.5,110.5 Z M 367.5,110.5 C 383.5,110.5 399.5,110.5 415.5,110.5C 415.667,133.502 415.5,156.502 415,179.5C 409.531,204.969 394.031,220.469 368.5,226C 360.173,226.5 351.84,226.666 343.5,226.5C 352.139,187.97 360.139,149.303 367.5,110.5 Z"/></g>
<g><path style="opacity:1" fill="#f8bc2b" d="M 121.5,11.5 C 210.834,11.3333 300.167,11.5 389.5,12C 390.333,12.8333 391.167,13.6667 392,14.5C 392.667,23.8333 392.667,33.1667 392,42.5C 391.5,44.3333 390.333,45.5 388.5,46C 299.833,46.6667 211.167,46.6667 122.5,46C 120.667,45.5 119.5,44.3333 119,42.5C 118.333,33.1667 118.333,23.8333 119,14.5C 120.045,13.6266 120.878,12.6266 121.5,11.5 Z"/></g>
<g><path style="opacity:1" fill="#fbd642" d="M 145.5,57.5 C 218.833,57.5 292.167,57.5 365.5,57.5C 355.4,107.834 345.233,158.167 335,208.5C 331.007,228.151 322.507,245.484 309.5,260.5C 273.505,261.667 237.505,261.833 201.5,261C 187.095,244.158 178.262,224.658 175,202.5C 164.972,154.192 155.138,105.859 145.5,57.5 Z"/></g>
<g><path style="opacity:1" fill="#050303" d="M 253.5,84.5 C 255.936,84.317 258.103,84.9837 260,86.5C 266.708,97.4177 273.542,108.251 280.5,119C 292.833,122 305.167,125 317.5,128C 319.478,130.497 319.978,133.331 319,136.5C 310.443,146.053 302.276,155.886 294.5,166C 296.07,178.791 296.903,191.625 297,204.5C 296.5,205.667 295.667,206.5 294.5,207C 291.406,207.652 288.406,207.318 285.5,206C 275.61,201.554 265.61,197.388 255.5,193.5C 244.465,197.901 233.465,202.401 222.5,207C 219.001,208.12 216.167,207.287 214,204.5C 214.024,191.621 214.857,178.788 216.5,166C 208.724,155.886 200.557,146.053 192,136.5C 190.282,131.615 191.782,128.449 196.5,127C 207.833,124.333 219.167,121.667 230.5,119C 238.063,107.3 245.73,95.8005 253.5,84.5 Z"/></g>
<g><path style="opacity:1" fill="#f8a927" d="M 254.5,102.5 C 256.074,102.937 257.241,103.937 258,105.5C 262.457,113.584 267.291,121.418 272.5,129C 282.864,131.54 293.197,134.206 303.5,137C 296.294,144.537 289.46,152.371 283,160.5C 283.297,168.481 283.797,176.481 284.5,184.5C 284.167,187.167 283.833,189.833 283.5,192.5C 274.46,188.043 265.127,184.376 255.5,181.5C 245.873,184.376 236.54,188.043 227.5,192.5C 227.167,189.833 226.833,187.167 226.5,184.5C 227.203,176.481 227.703,168.481 228,160.5C 221.54,152.371 214.706,144.537 207.5,137C 217.774,134.181 228.108,131.515 238.5,129C 244.233,120.36 249.566,111.527 254.5,102.5 Z"/></g>
<g><path style="opacity:1" fill="#f7bb2b" d="M 200.5,272.5 C 237.167,272.5 273.833,272.5 310.5,272.5C 310.5,280.833 310.5,289.167 310.5,297.5C 273.833,297.5 237.167,297.5 200.5,297.5C 200.5,289.167 200.5,280.833 200.5,272.5 Z"/></g>
<g><path style="opacity:1" fill="#fcd642" d="M 206.5,309.5 C 240.208,309.035 273.874,309.535 307.5,311C 320.284,314.948 327.951,323.448 330.5,336.5C 280.5,336.5 230.5,336.5 180.5,336.5C 183.741,322.259 192.408,313.259 206.5,309.5 Z"/></g>
<g><path style="opacity:0.999" fill="#464e52" d="M 149.5,348.5 C 220.167,348.333 290.834,348.5 361.5,349C 362.333,349.833 363.167,350.667 364,351.5C 364.5,386.165 364.667,420.832 364.5,455.5C 291.833,455.5 219.167,455.5 146.5,455.5C 146.333,420.832 146.5,386.165 147,351.5C 148.045,350.627 148.878,349.627 149.5,348.5 Z"/></g>
<g><path style="opacity:1" fill="#040303" d="M 168.5,367.5 C 226.501,367.333 284.501,367.5 342.5,368C 343.701,368.903 344.535,370.069 345,371.5C 345.667,391.833 345.667,412.167 345,432.5C 344.535,433.931 343.701,435.097 342.5,436C 284.5,436.667 226.5,436.667 168.5,436C 167.299,435.097 166.465,433.931 166,432.5C 165.333,412.167 165.333,391.833 166,371.5C 166.662,370.016 167.496,368.683 168.5,367.5 Z"/></g>
<g><path style="opacity:0.999" fill="#fcd642" d="M 177.5,379.5 C 229.5,379.5 281.5,379.5 333.5,379.5C 333.5,394.833 333.5,410.167 333.5,425.5C 281.5,425.5 229.5,425.5 177.5,425.5C 177.5,410.167 177.5,394.833 177.5,379.5 Z"/></g>
<g><path style="opacity:1" fill="#31383e" d="M 112.5,467.5 C 207.833,467.5 303.167,467.5 398.5,467.5C 398.5,478.167 398.5,488.833 398.5,499.5C 303.167,499.5 207.833,499.5 112.5,499.5C 112.5,488.833 112.5,478.167 112.5,467.5 Z"/></g>
</svg>
