<?xml version="1.0" encoding="UTF-8"?>
<!DOCTYPE svg PUBLIC "-//W3C//DTD SVG 1.1//EN" "http://www.w3.org/Graphics/SVG/1.1/DTD/svg11.dtd">
<svg xmlns="http://www.w3.org/2000/svg" version="1.1" width="512px" height="512px" style="shape-rendering:geometricPrecision; text-rendering:geometricPrecision; image-rendering:optimizeQuality; fill-rule:evenodd; clip-rule:evenodd" xmlns:xlink="http://www.w3.org/1999/xlink">
<g><path style="opacity:0.989" fill="#7fbeff" d="M 395.5,-0.5 C 399.167,-0.5 402.833,-0.5 406.5,-0.5C 415.446,6.28066 423.279,14.2807 430,23.5C 431.068,28.7683 430.401,33.7683 428,38.5C 410.667,55.8333 393.333,73.1667 376,90.5C 377.167,103.84 378.667,117.174 380.5,130.5C 297.5,214.167 214.167,297.5 130.5,380.5C 117.188,378.536 103.855,377.036 90.5,376C 73.1667,393.333 55.8333,410.667 38.5,428C 32.1667,431.333 25.8333,431.333 19.5,428C 12.207,421.215 5.54036,414.048 -0.5,406.5C -0.5,402.833 -0.5,399.167 -0.5,395.5C 12.8919,368.38 26.0585,341.047 39,313.5C 42.5213,310.156 46.6879,307.989 51.5,307C 84.1667,298.333 116.833,289.667 149.5,281C 193.333,237.167 237.167,193.333 281,149.5C 290.071,113.212 300.071,77.2118 311,41.5C 316.761,37.3673 322.927,33.8673 329.5,31C 351.713,20.7251 373.713,10.2251 395.5,-0.5 Z"/></g>
<g><path style="opacity:0.972" fill="#ff4d88" d="M 124.5,36.5 C 137.224,38.4042 142.391,45.7375 140,58.5C 133.226,94.1467 126.559,129.813 120,165.5C 115.693,177.072 107.86,180.572 96.5,176C 89.9767,170.996 87.81,164.496 90,156.5C 96.7744,120.853 103.441,85.1866 110,49.5C 111.915,41.7445 116.748,37.4112 124.5,36.5 Z"/></g>
<g><path style="opacity:0.977" fill="#ff4d88" d="M -0.5,113.5 C -0.5,109.5 -0.5,105.5 -0.5,101.5C 11.9692,86.8646 25.6359,73.3646 40.5,61C 53.0608,57.6077 60.3941,62.2743 62.5,75C 62.1346,78.7628 60.968,82.2628 59,85.5C 51.652,92.681 44.4854,100.014 37.5,107.5C 44.4854,114.986 51.652,122.319 59,129.5C 63.9677,137.384 63.4677,144.884 57.5,152C 50.5,156.667 43.5,156.667 36.5,152C 23.5714,139.575 11.238,126.741 -0.5,113.5 Z"/></g>
<g><path style="opacity:0.977" fill="#ff4d88" d="M 178.5,59.5 C 183.947,58.8256 188.947,59.9922 193.5,63C 206.398,75.2285 218.564,88.0618 230,101.5C 231.354,107.668 230.354,113.334 227,118.5C 215.833,129.667 204.667,140.833 193.5,152C 186.5,156.667 179.5,156.667 172.5,152C 166.532,144.884 166.032,137.384 171,129.5C 178.348,122.319 185.515,114.986 192.5,107.5C 185.515,100.014 178.348,92.681 171,85.5C 164.569,74.0735 167.069,65.4069 178.5,59.5 Z"/></g>
<g><path style="opacity:0.989" fill="#6699ff" d="M 511.5,104.5 C 511.5,108.167 511.5,111.833 511.5,115.5C 498.108,142.62 484.941,169.953 472,197.5C 468.479,200.844 464.312,203.011 459.5,204C 426.833,212.667 394.167,221.333 361.5,230C 317.667,273.833 273.833,317.667 230,361.5C 220.929,397.788 210.929,433.788 200,469.5C 193.571,473.967 186.738,477.8 179.5,481C 157.954,490.942 136.621,501.108 115.5,511.5C 111.833,511.5 108.167,511.5 104.5,511.5C 96.6185,505.126 89.1185,498.126 82,490.5C 79.7441,484.325 80.0775,478.325 83,472.5C 100.333,455.167 117.667,437.833 135,420.5C 133.833,407.16 132.333,393.826 130.5,380.5C 214.167,297.5 297.5,214.167 380.5,130.5C 393.67,132.13 406.837,133.797 420,135.5C 437.5,118 455,100.5 472.5,83C 478.325,80.0775 484.325,79.7441 490.5,82C 498.126,89.1185 505.126,96.6185 511.5,104.5 Z"/></g>
<g><path style="opacity:0.98" fill="#493372" d="M 425.5,336.5 C 415.49,335.271 405.49,335.271 395.5,336.5C 395.08,329.716 395.58,323.05 397,316.5C 400.017,311.408 404.517,309.074 410.5,309.5C 416.483,309.074 420.983,311.408 424,316.5C 425.42,323.05 425.92,329.716 425.5,336.5 Z"/></g>
<g><path style="opacity:0.971" fill="#493273" d="M 369.5,346.5 C 365.693,350.135 361.693,353.635 357.5,357C 353.968,361.36 350.301,365.527 346.5,369.5C 343.871,366.369 341.038,363.369 338,360.5C 333.821,354.04 333.488,347.373 337,340.5C 344.135,333.503 351.968,332.67 360.5,338C 363.369,341.038 366.369,343.871 369.5,346.5 Z"/></g>
<g><path style="opacity:0.969" fill="#493273" d="M 474.5,369.5 C 470.865,365.693 467.365,361.693 464,357.5C 459.64,353.968 455.473,350.301 451.5,346.5C 454.631,343.871 457.631,341.038 460.5,338C 466.96,333.821 473.627,333.488 480.5,337C 487.497,344.135 488.33,351.968 483,360.5C 479.962,363.369 477.129,366.369 474.5,369.5 Z"/></g>
<g><path style="opacity:0.993" fill="#624d8c" d="M 425.5,336.5 C 434.697,338.455 443.364,341.788 451.5,346.5C 455.473,350.301 459.64,353.968 464,357.5C 467.365,361.693 470.865,365.693 474.5,369.5C 479.212,377.636 482.545,386.303 484.5,395.5C 485.729,405.49 485.729,415.49 484.5,425.5C 482.537,434.726 479.204,443.393 474.5,451.5C 471.198,454.974 468.032,458.641 465,462.5C 460.306,466.365 455.806,470.365 451.5,474.5C 443.405,479.2 434.738,482.534 425.5,484.5C 415.5,485.833 405.5,485.833 395.5,484.5C 386.302,482.545 377.635,479.212 369.5,474.5C 365.693,470.865 361.693,467.365 357.5,464C 353.968,459.64 350.301,455.473 346.5,451.5C 341.788,443.364 338.455,434.697 336.5,425.5C 335.201,415.497 335.201,405.497 336.5,395.5C 338.455,386.303 341.788,377.636 346.5,369.5C 350.301,365.527 353.968,361.36 357.5,357C 361.693,353.635 365.693,350.135 369.5,346.5C 377.636,341.788 386.303,338.455 395.5,336.5C 405.49,335.271 415.49,335.271 425.5,336.5 Z"/></g>
<g><path style="opacity:1" fill="#e4eef1" d="M 403.5,365.5 C 428.559,364.102 445.392,375.102 454,398.5C 458.237,421.517 450.404,439.017 430.5,451C 400.241,461.45 379.074,451.95 367,422.5C 362.559,392.69 374.726,373.69 403.5,365.5 Z"/></g>
<g><path style="opacity:0.98" fill="#483272" d="M 336.5,395.5 C 335.201,405.497 335.201,415.497 336.5,425.5C 329.716,425.92 323.05,425.42 316.5,424C 309.411,418.312 307.578,411.145 311,402.5C 312.167,400 314,398.167 316.5,397C 323.05,395.58 329.716,395.08 336.5,395.5 Z"/></g>
<g><path style="opacity:0.979" fill="#483272" d="M 484.5,395.5 C 490.509,395.334 496.509,395.501 502.5,396C 506.685,397.688 509.685,400.521 511.5,404.5C 511.5,408.5 511.5,412.5 511.5,416.5C 509.685,420.479 506.685,423.312 502.5,425C 496.509,425.499 490.509,425.666 484.5,425.5C 485.729,415.49 485.729,405.49 484.5,395.5 Z"/></g>
<g><path style="opacity:1" fill="#634e8d" d="M 406.5,395.5 C 419.513,394.681 425.68,400.681 425,413.5C 420.836,424.446 413.336,427.613 402.5,423C 392.223,412.108 393.556,402.941 406.5,395.5 Z"/></g>
<g><path style="opacity:0.969" fill="#493273" d="M 346.5,451.5 C 350.301,455.473 353.968,459.64 357.5,464C 361.693,467.365 365.693,470.865 369.5,474.5C 366.369,477.129 363.369,479.962 360.5,483C 354.04,487.179 347.373,487.512 340.5,484C 333.503,476.865 332.67,469.032 338,460.5C 341.038,457.631 343.871,454.631 346.5,451.5 Z"/></g>
<g><path style="opacity:0.968" fill="#493272" d="M 474.5,451.5 C 477.129,454.631 479.962,457.631 483,460.5C 487.179,466.96 487.512,473.627 484,480.5C 476.865,487.497 469.032,488.33 460.5,483C 457.631,479.962 454.631,477.129 451.5,474.5C 455.806,470.365 460.306,466.365 465,462.5C 468.032,458.641 471.198,454.974 474.5,451.5 Z"/></g>
<g><path style="opacity:0.982" fill="#493272" d="M 395.5,484.5 C 405.5,485.833 415.5,485.833 425.5,484.5C 425.666,490.509 425.499,496.509 425,502.5C 423.312,506.685 420.479,509.685 416.5,511.5C 412.5,511.5 408.5,511.5 404.5,511.5C 400.521,509.685 397.688,506.685 396,502.5C 395.501,496.509 395.334,490.509 395.5,484.5 Z"/></g>
</svg>
