<?xml version="1.0" encoding="UTF-8"?>
<!DOCTYPE svg PUBLIC "-//W3C//DTD SVG 1.1//EN" "http://www.w3.org/Graphics/SVG/1.1/DTD/svg11.dtd">
<svg xmlns="http://www.w3.org/2000/svg" version="1.1" width="512px" height="512px" style="shape-rendering:geometricPrecision; text-rendering:geometricPrecision; image-rendering:optimizeQuality; fill-rule:evenodd; clip-rule:evenodd" xmlns:xlink="http://www.w3.org/1999/xlink">
<g><path style="opacity:0.983" fill="#fefffe" d="M 312.5,455.5 C 313.641,454.661 314.974,453.994 316.5,453.5C 317.666,428.507 317.833,403.507 317,378.5C 314.966,362.811 308.133,349.644 296.5,339C 317.396,334.384 336.396,325.717 353.5,313C 377.741,290.213 385.241,262.713 376,230.5C 371.652,216.848 364.818,204.681 355.5,194C 359.739,173.077 359.406,152.243 354.5,131.5C 344.042,132.115 334.042,134.615 324.5,139C 314.422,144.438 304.922,150.604 296,157.5C 274.653,151.946 253.153,150.78 231.5,154C 225.972,155.039 220.472,156.206 215,157.5C 206.078,150.604 196.578,144.438 186.5,139C 176.958,134.615 166.958,132.115 156.5,131.5C 152.705,147.27 151.538,163.27 153,179.5C 153.699,183.965 154.866,188.298 156.5,192.5C 140.527,210.409 132.194,231.409 131.5,255.5C 131.611,281.223 141.944,301.723 162.5,317C 178.509,327.448 195.843,334.781 214.5,339C 203.353,349.456 196.52,362.289 194,377.5C 176.293,384.587 161.293,380.92 149,366.5C 143.949,357.45 137.449,349.617 129.5,343C 123.144,338.988 116.811,338.655 110.5,342C 115.666,346.166 120.499,350.666 125,355.5C 129.48,365.732 133.814,376.065 138,386.5C 151.459,406.622 169.792,412.955 193,405.5C 193.167,421.51 193.667,437.51 194.5,453.5C 196.026,453.994 197.359,454.661 198.5,455.5C 135.822,436.987 90.9885,397.987 64,338.5C 34.4123,262.193 43.7456,191.193 92,125.5C 145.906,62.5224 214.073,37.6891 296.5,51C 362.07,65.5944 410.57,102.428 442,161.5C 463.587,206.198 469.254,252.864 459,301.5C 441.812,369.022 401.645,417.522 338.5,447C 330.111,450.741 321.444,453.574 312.5,455.5 Z"/></g>
<g><path style="opacity:0.026" fill="#fefffe" d="M 198.5,455.5 C 199.978,455.238 201.311,455.571 202.5,456.5C 202.333,456.833 202.167,457.167 202,457.5C 200.698,456.915 199.531,456.249 198.5,455.5 Z"/></g>
<g><path style="opacity:0.027" fill="#fefffe" d="M 312.5,455.5 C 311.469,456.249 310.302,456.915 309,457.5C 308.833,457.167 308.667,456.833 308.5,456.5C 309.689,455.571 311.022,455.238 312.5,455.5 Z"/></g>
<g><path style="opacity:0.031" fill="#fefffe" d="M 203.5,457.5 C 204.386,456.224 205.386,456.224 206.5,457.5C 205.767,458.087 204.767,458.087 203.5,457.5 Z"/></g>
<g><path style="opacity:0.031" fill="#fefffe" d="M 304.5,456.5 C 308.243,456.459 308.41,457.126 305,458.5C 304.536,457.906 304.369,457.239 304.5,456.5 Z"/></g>
<g><path style="opacity:0.004" fill="#fefffe" d="M 220.5,460.5 C 218.801,460.66 217.134,460.494 215.5,460C 217.387,459.22 219.054,459.387 220.5,460.5 Z"/></g>
<g><path style="opacity:0.004" fill="#fefffe" d="M 290.5,460.5 C 291.946,459.387 293.613,459.22 295.5,460C 293.866,460.494 292.199,460.66 290.5,460.5 Z"/></g>
<g><path style="opacity:0.004" fill="#fefffe" d="M 220.5,460.5 C 223.059,460.198 225.393,460.532 227.5,461.5C 224.941,461.802 222.607,461.468 220.5,460.5 Z"/></g>
<g><path style="opacity:0.004" fill="#fefffe" d="M 283.5,461.5 C 285.607,460.532 287.941,460.198 290.5,460.5C 288.393,461.468 286.059,461.802 283.5,461.5 Z"/></g>
<g><path style="opacity:0.004" fill="#fefffe" d="M 227.5,461.5 C 229.199,461.34 230.866,461.506 232.5,462C 230.613,462.78 228.946,462.613 227.5,461.5 Z"/></g>
<g><path style="opacity:0.004" fill="#fefffe" d="M 233.5,461.5 C 234.833,462.167 234.833,462.167 233.5,461.5 Z"/></g>
<g><path style="opacity:0.004" fill="#fefffe" d="M 276.5,461.5 C 277.833,462.167 277.833,462.167 276.5,461.5 Z"/></g>
<g><path style="opacity:0.004" fill="#fefffe" d="M 283.5,461.5 C 282.054,462.613 280.387,462.78 278.5,462C 280.134,461.506 281.801,461.34 283.5,461.5 Z"/></g>
<g><path style="opacity:0.004" fill="#fefffe" d="M 243.5,462.5 C 244.833,463.167 244.833,463.167 243.5,462.5 Z"/></g>
<g><path style="opacity:0.004" fill="#fefffe" d="M 245.5,463.5 C 246.251,462.427 247.251,462.26 248.5,463C 247.552,463.483 246.552,463.649 245.5,463.5 Z"/></g>
<g><path style="opacity:0.008" fill="#fefffe" d="M 250.5,462.5 C 251.833,463.167 251.833,463.167 250.5,462.5 Z"/></g>
<g><path style="opacity:0.004" fill="#fefffe" d="M 253.5,462.5 C 254.833,463.167 254.833,463.167 253.5,462.5 Z"/></g>
<g><path style="opacity:0.004" fill="#fefffe" d="M 256.5,462.5 C 257.833,463.167 257.833,463.167 256.5,462.5 Z"/></g>
<g><path style="opacity:0.008" fill="#fefffe" d="M 259.5,462.5 C 260.833,463.167 260.833,463.167 259.5,462.5 Z"/></g>
<g><path style="opacity:0.004" fill="#fefffe" d="M 262.5,463.5 C 263.251,462.427 264.251,462.26 265.5,463C 264.552,463.483 263.552,463.649 262.5,463.5 Z"/></g>
<g><path style="opacity:0.004" fill="#fefffe" d="M 266.5,462.5 C 267.833,463.167 267.833,463.167 266.5,462.5 Z"/></g>
</svg>
