<?xml version="1.0" encoding="UTF-8"?>
<!DOCTYPE svg PUBLIC "-//W3C//DTD SVG 1.1//EN" "http://www.w3.org/Graphics/SVG/1.1/DTD/svg11.dtd">
<svg xmlns="http://www.w3.org/2000/svg" version="1.1" width="512px" height="512px" style="shape-rendering:geometricPrecision; text-rendering:geometricPrecision; image-rendering:optimizeQuality; fill-rule:evenodd; clip-rule:evenodd" xmlns:xlink="http://www.w3.org/1999/xlink">
<g><path style="opacity:0.995" fill="#bcbccb" d="M 255.5,70.5 C 255.5,91.8333 255.5,113.167 255.5,134.5C 232.83,137.008 222.33,149.675 224,172.5C 228.645,188.315 239.145,196.982 255.5,198.5C 255.5,219.5 255.5,240.5 255.5,261.5C 253.265,261.205 251.265,261.539 249.5,262.5C 241.629,264.191 235.129,268.191 230,274.5C 224.408,285.363 218.075,295.697 211,305.5C 192.443,295.806 174.276,285.473 156.5,274.5C 163.636,262.859 170.136,250.859 176,238.5C 178.922,217.824 170.422,204.657 150.5,199C 137.838,198.5 125.171,198.333 112.5,198.5C 112.81,187.419 112.477,176.419 111.5,165.5C 111.5,155.167 111.5,144.833 111.5,134.5C 125.551,134.909 139.551,134.409 153.5,133C 171.965,124.903 178.798,111.07 174,91.5C 168.252,81.0029 162.252,70.6696 156,60.5C 155.333,59.5 155.333,58.5 156,57.5C 174.249,46.9594 192.416,36.2928 210.5,25.5C 217.583,37.3352 224.917,49.0018 232.5,60.5C 238.943,66.5404 246.61,69.8737 255.5,70.5 Z"/></g>
<g><path style="opacity:0.995" fill="#9f9fab" d="M 399.5,165.5 C 398.524,176.085 398.191,186.752 398.5,197.5C 385.496,197.333 372.496,197.5 359.5,198C 339.976,204.537 331.809,218.037 335,238.5C 340.993,250.489 347.493,262.156 354.5,273.5C 336.487,284.664 318.32,295.664 300,306.5C 293.21,294.417 286.044,282.584 278.5,271C 271.968,265.1 264.301,262.267 255.5,262.5C 253.5,262.5 251.5,262.5 249.5,262.5C 251.265,261.539 253.265,261.205 255.5,261.5C 255.5,240.5 255.5,219.5 255.5,198.5C 255.5,198.167 255.5,197.833 255.5,197.5C 274.833,196.002 285.5,185.502 287.5,166C 285.537,146.536 274.87,136.036 255.5,134.5C 255.5,113.167 255.5,91.8333 255.5,70.5C 265.551,69.7243 273.718,65.391 280,57.5C 286.263,46.6308 292.763,35.9641 299.5,25.5C 318.192,35.8413 336.525,46.6746 354.5,58C 347.581,69.9254 341.081,82.0921 335,94.5C 332.562,112.128 339.395,124.628 355.5,132C 370.116,133.413 384.783,133.913 399.5,133.5C 399.5,144.167 399.5,154.833 399.5,165.5 Z"/></g>
<g><path style="opacity:1" fill="#d9d9ea" d="M 255.5,134.5 C 255.5,155.5 255.5,176.5 255.5,197.5C 255.5,197.833 255.5,198.167 255.5,198.5C 239.145,196.982 228.645,188.315 224,172.5C 222.33,149.675 232.83,137.008 255.5,134.5 Z"/></g>
<g><path style="opacity:1" fill="#bcbccb" d="M 255.5,134.5 C 274.87,136.036 285.537,146.536 287.5,166C 285.5,185.502 274.833,196.002 255.5,197.5C 255.5,176.5 255.5,155.5 255.5,134.5 Z"/></g>
<g><path style="opacity:0.999" fill="#48484c" d="M 111.5,165.5 C 112.477,176.419 112.81,187.419 112.5,198.5C 125.171,198.333 137.838,198.5 150.5,199C 170.422,204.657 178.922,217.824 176,238.5C 170.136,250.859 163.636,262.859 156.5,274.5C 174.276,285.473 192.443,295.806 211,305.5C 218.075,295.697 224.408,285.363 230,274.5C 235.129,268.191 241.629,264.191 249.5,262.5C 251.5,262.5 253.5,262.5 255.5,262.5C 255.5,315.167 255.5,367.833 255.5,420.5C 324.5,420.5 393.5,420.5 462.5,420.5C 415.003,421.499 367.336,421.832 319.5,421.5C 298.167,421.5 276.833,421.5 255.5,421.5C 234.167,421.5 212.833,421.5 191.5,421.5C 143.428,421.828 95.4281,421.495 47.5,420.5C 47.5,335.5 47.5,250.5 47.5,165.5C 68.8333,165.5 90.1667,165.5 111.5,165.5 Z"/></g>
<g><path style="opacity:0.993" fill="#2c2c2f" d="M 399.5,165.5 C 420.833,165.5 442.167,165.5 463.5,165.5C 463.5,250.5 463.5,335.5 463.5,420.5C 463.167,420.5 462.833,420.5 462.5,420.5C 393.5,420.5 324.5,420.5 255.5,420.5C 255.5,367.833 255.5,315.167 255.5,262.5C 264.301,262.267 271.968,265.1 278.5,271C 286.044,282.584 293.21,294.417 300,306.5C 318.32,295.664 336.487,284.664 354.5,273.5C 347.493,262.156 340.993,250.489 335,238.5C 331.809,218.037 339.976,204.537 359.5,198C 372.496,197.5 385.496,197.333 398.5,197.5C 398.191,186.752 398.524,176.085 399.5,165.5 Z"/></g>
<g><path style="opacity:0.989" fill="#9997cf" d="M -0.5,420.5 C 15.5,420.5 31.5,420.5 47.5,420.5C 95.4281,421.495 143.428,421.828 191.5,421.5C 191.5,442.833 191.5,464.167 191.5,485.5C 146.165,485.667 100.832,485.5 55.5,485C 25.6582,479.322 6.99152,461.822 -0.5,432.5C -0.5,428.5 -0.5,424.5 -0.5,420.5 Z"/></g>
<g><path style="opacity:0.988" fill="#7d7ac6" d="M 462.5,420.5 C 462.833,420.5 463.167,420.5 463.5,420.5C 479.5,420.5 495.5,420.5 511.5,420.5C 511.5,424.5 511.5,428.5 511.5,432.5C 504.035,461.795 485.368,479.295 455.5,485C 410.168,485.5 364.835,485.667 319.5,485.5C 319.5,464.167 319.5,442.833 319.5,421.5C 367.336,421.832 415.003,421.499 462.5,420.5 Z"/></g>
<g><path style="opacity:0.991" fill="#7e7bc6" d="M 191.5,421.5 C 212.833,421.5 234.167,421.5 255.5,421.5C 255.5,442.833 255.5,464.167 255.5,485.5C 234.167,485.5 212.833,485.5 191.5,485.5C 191.5,464.167 191.5,442.833 191.5,421.5 Z"/></g>
<g><path style="opacity:0.991" fill="#625fb2" d="M 255.5,421.5 C 276.833,421.5 298.167,421.5 319.5,421.5C 319.5,442.833 319.5,464.167 319.5,485.5C 298.167,485.5 276.833,485.5 255.5,485.5C 255.5,464.167 255.5,442.833 255.5,421.5 Z"/></g>
</svg>
