<?xml version="1.0" encoding="UTF-8"?>
<!DOCTYPE svg PUBLIC "-//W3C//DTD SVG 1.1//EN" "http://www.w3.org/Graphics/SVG/1.1/DTD/svg11.dtd">
<svg xmlns="http://www.w3.org/2000/svg" version="1.1" width="512px" height="512px" style="shape-rendering:geometricPrecision; text-rendering:geometricPrecision; image-rendering:optimizeQuality; fill-rule:evenodd; clip-rule:evenodd" xmlns:xlink="http://www.w3.org/1999/xlink">
<g><path style="opacity:0.973" fill="#010101" d="M 214.5,-0.5 C 220.833,-0.5 227.167,-0.5 233.5,-0.5C 241.625,1.89879 248.959,5.89879 255.5,11.5C 262.041,5.89879 269.375,1.89879 277.5,-0.5C 283.833,-0.5 290.167,-0.5 296.5,-0.5C 311.377,3.53679 322.211,12.5368 329,26.5C 350.31,40.0617 358.644,59.395 354,84.5C 351.878,92.9118 348.044,100.412 342.5,107C 355.75,124.144 358.583,142.978 351,163.5C 345.742,173.591 338.242,181.591 328.5,187.5C 317.105,209.695 299.105,218.195 274.5,213C 271.105,211.885 267.939,210.385 265,208.5C 264.5,232.498 264.333,256.498 264.5,280.5C 258.5,280.5 252.5,280.5 246.5,280.5C 246.667,256.498 246.5,232.498 246,208.5C 223.97,219.328 204.637,215.662 188,197.5C 185.959,193.916 183.792,190.416 181.5,187C 153.844,174.855 143.344,154.022 150,124.5C 152.103,117.787 155.603,111.954 160.5,107C 143.03,84.427 143.197,61.927 161,39.5C 166.903,33.7929 173.737,29.4595 181.5,26.5C 188.644,12.6803 199.644,3.68033 214.5,-0.5 Z"/></g>
<g><path style="opacity:1" fill="#e8be9a" d="M 222.5,140.5 C 217.025,139.511 211.358,139.178 205.5,139.5C 205.5,144.167 205.5,148.833 205.5,153.5C 199.702,158.797 194.035,164.297 188.5,170C 173.035,165.979 165.035,155.812 164.5,139.5C 164.798,130.071 168.465,122.238 175.5,116C 181.528,115.17 187.528,115.336 193.5,116.5C 195.012,120.201 197.012,123.534 199.5,126.5C 204.189,124.493 208.522,121.993 212.5,119C 210.55,115.102 208.883,111.102 207.5,107C 208.883,102.898 210.55,98.8975 212.5,95C 212.355,94.228 212.022,93.5613 211.5,93C 207.255,90.9609 203.088,88.7942 199,86.5C 196.707,90.2522 194.54,94.0856 192.5,98C 186.833,98.6667 181.167,98.6667 175.5,98C 160.318,80.6963 160.985,64.0297 177.5,48C 180.673,45.9128 184.006,44.0795 187.5,42.5C 193.854,48.1877 199.854,54.1877 205.5,60.5C 205.5,65.1667 205.5,69.8333 205.5,74.5C 211.358,74.8222 217.025,74.4889 222.5,73.5C 222.5,70.8333 222.5,68.1667 222.5,65.5C 225.167,65.5 227.833,65.5 230.5,65.5C 230.5,60.1667 230.5,54.8333 230.5,49.5C 226.154,49.6657 221.821,49.499 217.5,49C 211.318,42.9855 205.318,36.8188 199.5,30.5C 207.847,17.3366 219.514,13.17 234.5,18C 239.475,20.0743 243.642,23.2409 247,27.5C 247.667,80.5 247.667,133.5 247,186.5C 236.315,198.084 223.815,200.584 209.5,194C 205.31,191.31 201.976,187.81 199.5,183.5C 205.318,177.181 211.318,171.014 217.5,165C 221.821,164.501 226.154,164.334 230.5,164.5C 230.5,159.167 230.5,153.833 230.5,148.5C 227.833,148.5 225.167,148.5 222.5,148.5C 222.5,145.833 222.5,143.167 222.5,140.5 Z"/></g>
<g><path style="opacity:1" fill="#e8be99" d="M 288.5,73.5 C 293.975,74.4889 299.642,74.8222 305.5,74.5C 305.5,69.8333 305.5,65.1667 305.5,60.5C 310.812,54.521 316.479,48.8543 322.5,43.5C 332.996,49.8186 338.329,59.152 338.5,71.5C 338.24,81.7882 334.573,90.6215 327.5,98C 321.472,98.8303 315.472,98.6636 309.5,97.5C 307.667,93.8333 305.833,90.1667 304,86.5C 299.086,89.0398 294.253,91.7064 289.5,94.5C 291.636,98.6058 293.636,102.772 295.5,107C 293.764,111.139 291.764,115.139 289.5,119C 294.008,121.754 298.674,124.254 303.5,126.5C 305.988,123.534 307.988,120.201 309.5,116.5C 315.472,115.336 321.472,115.17 327.5,116C 340.728,130.907 341.895,146.74 331,163.5C 328.603,166.4 325.77,168.733 322.5,170.5C 317.146,164.479 311.479,158.812 305.5,153.5C 305.5,148.833 305.5,144.167 305.5,139.5C 299.642,139.178 293.975,139.511 288.5,140.5C 288.5,143.167 288.5,145.833 288.5,148.5C 285.833,148.5 283.167,148.5 280.5,148.5C 280.5,153.833 280.5,159.167 280.5,164.5C 284.846,164.334 289.179,164.501 293.5,165C 299.682,171.014 305.682,177.181 311.5,183.5C 302.233,196.865 289.9,200.699 274.5,195C 270.542,192.766 267.042,189.933 264,186.5C 263.333,133.5 263.333,80.5 264,27.5C 275.397,15.309 288.564,13.1423 303.5,21C 306.731,23.7273 309.397,26.894 311.5,30.5C 305.682,36.8188 299.682,42.9855 293.5,49C 289.179,49.499 284.846,49.6657 280.5,49.5C 280.5,54.8333 280.5,60.1667 280.5,65.5C 283.167,65.5 285.833,65.5 288.5,65.5C 288.5,68.1667 288.5,70.8333 288.5,73.5 Z"/></g>
<g><path style="opacity:0.973" fill="#020202" d="M 511.5,98.5 C 511.5,115.167 511.5,131.833 511.5,148.5C 507.154,148.334 502.821,148.501 498.5,149C 501.333,151.833 504.167,154.667 507,157.5C 507.667,158.167 507.667,158.833 507,159.5C 495.833,170.667 484.667,181.833 473.5,193C 472.5,193.667 471.5,193.667 470.5,193C 468,190.5 465.5,188 463,185.5C 462.501,189.821 462.334,194.154 462.5,198.5C 456.833,198.5 451.167,198.5 445.5,198.5C 445.667,212.171 445.5,225.837 445,239.5C 443.939,242.562 442.106,245.062 439.5,247C 397.872,262.932 356.206,278.765 314.5,294.5C 313.5,317.157 313.167,339.824 313.5,362.5C 365.559,362.013 417.559,362.513 469.5,364C 473.388,366.222 476.221,369.388 478,373.5C 478.5,391.83 478.667,410.164 478.5,428.5C 485.508,428.334 492.508,428.5 499.5,429C 504.932,430.936 508.932,434.436 511.5,439.5C 511.5,454.5 511.5,469.5 511.5,484.5C 508.932,489.564 504.932,493.064 499.5,495C 430.167,495.333 360.833,495.667 291.5,496C 284.404,503.956 275.737,509.122 265.5,511.5C 258.833,511.5 252.167,511.5 245.5,511.5C 235.263,509.122 226.596,503.956 219.5,496C 150.167,495.667 80.8333,495.333 11.5,495C 6.0678,493.064 2.0678,489.564 -0.5,484.5C -0.5,469.5 -0.5,454.5 -0.5,439.5C 2.0678,434.436 6.0678,430.936 11.5,429C 18.4921,428.5 25.4921,428.334 32.5,428.5C 32.3334,410.164 32.5001,391.83 33,373.5C 34.7786,369.388 37.6119,366.222 41.5,364C 93.4406,362.513 145.441,362.013 197.5,362.5C 197.5,339.833 197.5,317.167 197.5,294.5C 152.604,279.368 107.937,263.534 63.5,247C 60.1929,244.222 58.0262,240.722 57,236.5C 56.8315,228.812 56.3315,221.145 55.5,213.5C 38.2683,206.401 30.1016,193.401 31,174.5C 23.3333,162.167 15.6667,149.833 8,137.5C 4.24803,130.393 1.41469,123.06 -0.5,115.5C -0.5,107.833 -0.5,100.167 -0.5,92.5C 11.2616,53.6504 37.5949,36.4837 78.5,41C 111.888,48.7269 129.888,69.7269 132.5,104C 132.054,115.953 128.887,127.12 123,137.5C 115.083,149.665 107.416,161.999 100,174.5C 100.439,193.348 92.106,206.348 75,213.5C 74.3333,219.833 74.3333,226.167 75,232.5C 119.67,248.278 164.17,264.445 208.5,281C 211.467,283.1 213.3,285.934 214,289.5C 214.5,313.831 214.667,338.164 214.5,362.5C 225.446,362.157 235.78,364.491 245.5,369.5C 246.499,356.183 246.833,342.85 246.5,329.5C 252.5,329.5 258.5,329.5 264.5,329.5C 264.167,342.85 264.501,356.183 265.5,369.5C 275.22,364.491 285.554,362.157 296.5,362.5C 296.333,337.831 296.5,313.164 297,288.5C 299.167,283.667 302.667,280.167 307.5,278C 347.578,263.197 387.578,248.197 427.5,233C 428.488,221.581 428.821,210.081 428.5,198.5C 422.833,198.5 417.167,198.5 411.5,198.5C 411.666,194.154 411.499,189.821 411,185.5C 408.5,188 406,190.5 403.5,193C 402.5,193.667 401.5,193.667 400.5,193C 389.333,181.833 378.167,170.667 367,159.5C 366.333,158.833 366.333,158.167 367,157.5C 369.833,154.667 372.667,151.833 375.5,149C 371.179,148.501 366.846,148.334 362.5,148.5C 362.5,131.833 362.5,115.167 362.5,98.5C 366.846,98.6657 371.179,98.499 375.5,98C 372.667,95.1667 369.833,92.3333 367,89.5C 366.333,88.8333 366.333,88.1667 367,87.5C 378.667,75.8333 390.333,64.1667 402,52.5C 405,55.5 408,58.5 411,61.5C 411.499,57.1794 411.666,52.8461 411.5,48.5C 428.5,48.5 445.5,48.5 462.5,48.5C 462.334,52.8461 462.501,57.1794 463,61.5C 466,58.5 469,55.5 472,52.5C 483.667,64.1667 495.333,75.8333 507,87.5C 507.667,88.1667 507.667,88.8333 507,89.5C 504.167,92.3333 501.333,95.1667 498.5,98C 502.821,98.499 507.154,98.6657 511.5,98.5 Z M 430.5,99.5 C 444.451,97.39 454.284,102.723 460,115.5C 463.431,131.138 457.598,141.638 442.5,147C 425.233,148.525 415.233,140.692 412.5,123.5C 413.688,111.752 419.688,103.752 430.5,99.5 Z"/></g>
<g><path style="opacity:1" fill="#fbe6a4" d="M 53.5,57.5 C 76.9424,53.8004 95.4424,61.4671 109,80.5C 116.696,94.5158 117.363,108.849 111,123.5C 103.084,137 94.9176,150.334 86.5,163.5C 82.2172,164.492 77.8839,164.826 73.5,164.5C 73.3335,153.162 73.5001,141.828 74,130.5C 89.935,122.288 94.2683,109.955 87,93.5C 79.8602,83.9937 70.3602,80.4937 58.5,83C 42.5848,90.3377 37.9182,102.171 44.5,118.5C 47.2227,123.556 51.2227,127.223 56.5,129.5C 57.4989,141.148 57.8322,152.814 57.5,164.5C 52.9014,164.8 48.4014,164.467 44,163.5C 36,150.167 28,136.833 20,123.5C 11.3767,100.485 16.5433,81.3188 35.5,66C 41.2079,62.3101 47.2079,59.4768 53.5,57.5 Z"/></g>
<g><path style="opacity:1" fill="#f4d06c" d="M 428.5,65.5 C 434.176,65.3339 439.843,65.5006 445.5,66C 450.139,79.8593 458.972,83.3593 472,76.5C 476.016,80.3484 479.849,84.3484 483.5,88.5C 478.581,97.9931 480.248,106.16 488.5,113C 490.677,114.202 493.011,114.702 495.5,114.5C 495.666,120.176 495.499,125.843 495,131.5C 484.375,134.468 479.709,141.468 481,152.5C 482.59,154.65 483.257,156.983 483,159.5C 479.333,163.167 475.667,166.833 472,170.5C 462.755,164.269 454.755,165.602 448,174.5C 446.589,176.65 445.755,178.984 445.5,181.5C 439.833,181.5 434.167,181.5 428.5,181.5C 427.656,174.148 423.656,169.315 416.5,167C 410.887,166.452 405.553,167.119 400.5,169C 397.536,165.034 394.203,161.367 390.5,158C 395.286,149.515 394.286,141.849 387.5,135C 385.091,133.293 382.425,132.46 379.5,132.5C 379.5,126.5 379.5,120.5 379.5,114.5C 390.486,111.895 394.986,104.895 393,93.5C 391.699,91.5979 391.032,89.5979 391,87.5C 394.682,83.651 398.515,79.9844 402.5,76.5C 408.174,79.9093 414.174,80.4093 420.5,78C 425.061,75.0436 427.728,70.8769 428.5,65.5 Z M 430.5,99.5 C 419.688,103.752 413.688,111.752 412.5,123.5C 415.233,140.692 425.233,148.525 442.5,147C 457.598,141.638 463.431,131.138 460,115.5C 454.284,102.723 444.451,97.39 430.5,99.5 Z"/></g>
<g><path style="opacity:1" fill="#8e755e" d="M 205.5,60.5 C 206.485,64.6344 206.818,68.9677 206.5,73.5C 211.833,73.5 217.167,73.5 222.5,73.5C 217.025,74.4889 211.358,74.8222 205.5,74.5C 205.5,69.8333 205.5,65.1667 205.5,60.5 Z"/></g>
<g><path style="opacity:1" fill="#8e755e" d="M 305.5,60.5 C 305.5,65.1667 305.5,69.8333 305.5,74.5C 299.642,74.8222 293.975,74.4889 288.5,73.5C 293.833,73.5 299.167,73.5 304.5,73.5C 304.182,68.9677 304.515,64.6344 305.5,60.5 Z"/></g>
<g><path style="opacity:0.973" fill="#020201" d="M 427.5,82.5 C 453.303,80.1322 470.136,91.1322 478,115.5C 479.337,145.327 465.171,161.66 435.5,164.5C 423.307,163.653 413.14,158.653 405,149.5C 397.301,138.697 394.634,126.697 397,113.5C 402.017,97.9836 412.184,87.6502 427.5,82.5 Z M 430.5,99.5 C 419.688,103.752 413.688,111.752 412.5,123.5C 415.233,140.692 425.233,148.525 442.5,147C 457.598,141.638 463.431,131.138 460,115.5C 454.284,102.723 444.451,97.39 430.5,99.5 Z"/></g>
<g><path style="opacity:1" fill="#eecb6a" d="M 62.5,98.5 C 71.8741,98.3565 75.3741,102.69 73,111.5C 67.1857,117.205 62.1857,116.538 58,109.5C 57.3333,107.833 57.3333,106.167 58,104.5C 59.332,102.34 60.832,100.34 62.5,98.5 Z"/></g>
<g><path style="opacity:1" fill="#625041" d="M 222.5,140.5 C 217.167,140.5 211.833,140.5 206.5,140.5C 206.818,145.032 206.485,149.366 205.5,153.5C 206.485,149.366 206.818,145.032 206.5,140.5C 211.833,140.5 217.167,140.5 222.5,140.5 Z"/></g>
<g><path style="opacity:1" fill="#625041" d="M 288.5,140.5 C 293.975,139.511 299.642,139.178 305.5,139.5C 305.5,144.167 305.5,148.833 305.5,153.5C 304.515,149.366 304.182,145.032 304.5,140.5C 299.167,140.5 293.833,140.5 288.5,140.5 Z"/></g>
<g><path style="opacity:1" fill="#434547" d="M 48.5,181.5 C 59.6544,180.505 70.9877,180.172 82.5,180.5C 82.7678,182.099 82.4345,183.432 81.5,184.5C 81.5,183.5 81.5,182.5 81.5,181.5C 70.5,181.5 59.5,181.5 48.5,181.5 Z"/></g>
<g><path style="opacity:1" fill="#c9ced6" d="M 48.5,181.5 C 59.5,181.5 70.5,181.5 81.5,181.5C 81.5,182.5 81.5,183.5 81.5,184.5C 77.9484,195.114 70.6151,199.28 59.5,197C 52.7674,194.043 49.1008,188.876 48.5,181.5 Z"/></g>
<g><path style="opacity:0.892" fill="#000000" d="M 246.5,296.5 C 252.5,296.5 258.5,296.5 264.5,296.5C 264.5,302.167 264.5,307.833 264.5,313.5C 258.5,313.5 252.5,313.5 246.5,313.5C 246.5,307.833 246.5,302.167 246.5,296.5 Z"/></g>
<g><path style="opacity:1" fill="#e5e8ec" d="M 246.5,390.5 C 247.089,394.971 246.423,398.971 244.5,402.5C 236.92,398.882 228.92,396.715 220.5,396C 163.501,395.5 106.501,395.333 49.5,395.5C 49.5,390.167 49.5,384.833 49.5,379.5C 107.168,379.333 164.834,379.5 222.5,380C 231.539,381.285 239.539,384.785 246.5,390.5 Z"/></g>
<g><path style="opacity:1" fill="#e5e8ec" d="M 286.5,379.5 C 344.833,379.5 403.167,379.5 461.5,379.5C 461.5,384.833 461.5,390.167 461.5,395.5C 403.499,395.333 345.499,395.5 287.5,396C 279.179,397.608 271.179,400.108 263.5,403.5C 263.174,399.116 263.508,394.783 264.5,390.5C 271.143,385.296 278.477,381.629 286.5,379.5 Z"/></g>
<g><path style="opacity:1" fill="#a0a3a6" d="M 246.5,390.5 C 247.648,394.981 247.815,399.648 247,404.5C 246.005,403.934 245.172,403.267 244.5,402.5C 246.423,398.971 247.089,394.971 246.5,390.5 Z"/></g>
<g><path style="opacity:1" fill="#cacfd7" d="M 49.5,412.5 C 107.834,412.333 166.168,412.5 224.5,413C 232.743,414.687 240.076,418.187 246.5,423.5C 247.833,430.5 247.833,437.5 246.5,444.5C 233.476,435.88 219.143,430.713 203.5,429C 152.168,428.5 100.834,428.333 49.5,428.5C 49.5,423.167 49.5,417.833 49.5,412.5 Z"/></g>
<g><path style="opacity:1" fill="#cbd0d8" d="M 286.5,412.5 C 344.833,412.5 403.167,412.5 461.5,412.5C 461.5,417.833 461.5,423.167 461.5,428.5C 409.832,428.333 358.166,428.5 306.5,429C 291.023,430.603 276.856,435.77 264,444.5C 263.169,437.476 263.336,430.476 264.5,423.5C 271.143,418.296 278.477,414.629 286.5,412.5 Z"/></g>
<g><path style="opacity:1" fill="#a9b1bc" d="M 15.5,445.5 C 78.1676,445.333 140.834,445.5 203.5,446C 224.352,448.592 241.686,457.759 255.5,473.5C 268.371,458.897 284.371,449.731 303.5,446C 367.499,445.5 431.499,445.333 495.5,445.5C 495.5,456.5 495.5,467.5 495.5,478.5C 425.166,478.333 354.833,478.5 284.5,479C 271.996,494.84 256.662,498.507 238.5,490C 234.2,486.702 230.2,483.035 226.5,479C 156.167,478.5 85.8341,478.333 15.5,478.5C 15.5,467.5 15.5,456.5 15.5,445.5 Z"/></g>
</svg>
