<?xml version="1.0" encoding="UTF-8"?>
<!DOCTYPE svg PUBLIC "-//W3C//DTD SVG 1.1//EN" "http://www.w3.org/Graphics/SVG/1.1/DTD/svg11.dtd">
<svg xmlns="http://www.w3.org/2000/svg" version="1.1" width="512px" height="512px" style="shape-rendering:geometricPrecision; text-rendering:geometricPrecision; image-rendering:optimizeQuality; fill-rule:evenodd; clip-rule:evenodd" xmlns:xlink="http://www.w3.org/1999/xlink">
<g><path style="opacity:0.991" fill="#0076b7" d="M 35.5,-0.5 C 182.167,-0.5 328.833,-0.5 475.5,-0.5C 493.833,5.16667 505.833,17.1667 511.5,35.5C 511.5,182.167 511.5,328.833 511.5,475.5C 505.833,493.833 493.833,505.833 475.5,511.5C 328.833,511.5 182.167,511.5 35.5,511.5C 17.1667,505.833 5.16667,493.833 -0.5,475.5C -0.5,328.833 -0.5,182.167 -0.5,35.5C 5.16667,17.1667 17.1667,5.16667 35.5,-0.5 Z M 108.5,56.5 C 131.466,54.9008 149.299,63.5675 162,82.5C 175.611,110.782 170.445,134.949 146.5,155C 115.542,171.593 89.7087,165.759 69,137.5C 55.7419,108.7 61.5752,84.5331 86.5,65C 93.4613,60.8523 100.795,58.019 108.5,56.5 Z M 343.5,184.5 C 406.53,178.392 443.363,206.392 454,268.5C 455.661,280.444 456.661,292.444 457,304.5C 457.667,351.167 457.667,397.833 457,444.5C 455.932,449.235 453.099,452.402 448.5,454C 425.833,454.667 403.167,454.667 380.5,454C 377.265,452.64 374.765,450.473 373,447.5C 371.986,396.184 370.986,344.851 370,293.5C 362.088,260.945 341.922,249.445 309.5,259C 295.022,266.496 286.189,278.329 283,294.5C 281.615,299.761 280.615,305.094 280,310.5C 279.99,356.583 279.323,402.583 278,448.5C 276.337,450.917 274.171,452.75 271.5,454C 249.5,454.667 227.5,454.667 205.5,454C 201.333,452.5 198.5,449.667 197,445.5C 196.006,361.752 196.339,278.085 198,194.5C 199.663,192.083 201.829,190.25 204.5,189C 227.167,188.333 249.833,188.333 272.5,189C 275.728,190.563 277.895,193.063 279,196.5C 279.168,204.853 279.668,213.187 280.5,221.5C 295.824,199.511 316.824,187.178 343.5,184.5 Z M 82.5,188.5 C 104.503,188.333 126.503,188.5 148.5,189C 153.099,190.598 155.932,193.765 157,198.5C 157.667,280.5 157.667,362.5 157,444.5C 155.833,449.667 152.667,452.833 147.5,454C 126.167,454.667 104.833,454.667 83.5,454C 79.3074,452.474 76.4741,449.641 75,445.5C 74.3333,362.5 74.3333,279.5 75,196.5C 77.0282,193.308 79.5282,190.641 82.5,188.5 Z"/></g>
</svg>
