<?xml version="1.0" encoding="UTF-8"?>
<!DOCTYPE svg PUBLIC "-//W3C//DTD SVG 1.1//EN" "http://www.w3.org/Graphics/SVG/1.1/DTD/svg11.dtd">
<svg xmlns="http://www.w3.org/2000/svg" version="1.1" width="256px" height="256px" style="shape-rendering:geometricPrecision; text-rendering:geometricPrecision; image-rendering:optimizeQuality; fill-rule:evenodd; clip-rule:evenodd" xmlns:xlink="http://www.w3.org/1999/xlink">
<g><path style="opacity:0.723" fill="#333231" d="M 204.5,171.5 C 202.896,172.287 202.229,173.62 202.5,175.5C 201.234,182.43 197.234,186.764 190.5,188.5C 192.424,186.417 194.591,184.417 197,182.5C 201.531,176.063 200.031,172.23 192.5,171C 187.833,170.333 183.167,170.333 178.5,171C 174.252,176.862 174.919,182.195 180.5,187C 183.628,187.841 186.628,188.675 189.5,189.5C 179.784,191.099 174.45,187.099 173.5,177.5C 173.5,176.833 173.5,176.167 173.5,175.5C 174.533,170.808 177.533,168.141 182.5,167.5C 184.076,165.021 185.076,162.354 185.5,159.5C 190.224,144.35 186.224,131.85 173.5,122C 174.167,121.333 174.833,121.333 175.5,122C 177.907,124.183 180.24,126.35 182.5,128.5C 189.03,136.707 191.197,146.041 189,156.5C 187.924,160.559 186.757,164.559 185.5,168.5C 190.746,168.349 195.746,169.349 200.5,171.5C 201.386,170.675 201.719,169.675 201.5,168.5C 202.927,166.852 203.76,164.852 204,162.5C 204.405,151.109 202.405,140.109 198,129.5C 196.301,126.079 194.135,123.079 191.5,120.5C 185.909,112.396 180.076,104.396 174,96.5C 170.008,88.6827 166.508,80.6827 163.5,72.5C 163.108,70.8211 162.608,69.1545 162,67.5C 161.838,55.4637 161.171,43.4637 160,31.5C 156.651,24.3188 151.484,18.9854 144.5,15.5C 143.833,15.5 143.167,15.5 142.5,15.5C 140.044,13.1324 137.044,12.1324 133.5,12.5C 127.582,11.379 121.582,11.2124 115.5,12C 114.584,12.2784 113.918,12.7784 113.5,13.5C 109.539,14.4792 106.206,16.4792 103.5,19.5C 101.738,20.2623 100.738,21.5956 100.5,23.5C 99.8333,23.5 99.5,23.8333 99.5,24.5C 95.8341,29.8454 94.1674,35.8454 94.5,42.5C 95.2691,52.8312 95.9358,63.1645 96.5,73.5C 96.4013,76.2372 96.7347,78.9039 97.5,81.5C 97.8222,85.747 96.9889,89.747 95,93.5C 89.3769,101.124 83.5436,108.458 77.5,115.5C 71.9934,130.182 65.66,144.515 58.5,158.5C 55.3712,161.595 54.7045,165.261 56.5,169.5C 56.1667,170.5 55.5,171.167 54.5,171.5C 53.4886,167.888 53.3219,164.221 54,160.5C 61.8419,149.134 67.0085,137.301 69.5,125C 72.4594,120.249 75.2928,115.416 78,110.5C 83.6858,103.808 89.0191,96.8082 94,89.5C 93.8323,74.6483 92.999,59.8149 91.5,45C 92.7236,17.4485 107.057,5.44846 134.5,9C 150.591,12.0921 160.424,21.5921 164,37.5C 164.333,47.5 164.667,57.5 165,67.5C 168.641,79.1154 173.641,90.1154 180,100.5C 195.006,115.846 204.173,134.179 207.5,155.5C 207.01,160.946 206.01,166.28 204.5,171.5 Z"/></g>
<g><path style="opacity:1" fill="#9f9f9f" d="M 103.5,19.5 C 106.206,16.4792 109.539,14.4792 113.5,13.5C 118.472,12.5784 123.472,12.4117 128.5,13C 127.833,13.3333 127.167,13.6667 126.5,14C 127.833,14.6667 128.833,15.6667 129.5,17C 119.622,16.8492 110.788,19.6825 103,25.5C 102.51,23.4546 102.677,21.4546 103.5,19.5 Z"/></g>
<g><path style="opacity:1" fill="#828282" d="M 133.5,12.5 C 134.73,14.2972 135.396,16.2972 135.5,18.5C 132.813,18.3359 130.146,18.5026 127.5,19C 128.966,23.2776 127.966,26.9442 124.5,30C 124.833,30.3333 125.167,30.6667 125.5,31C 118.263,37.3749 110.763,37.8749 103,32.5C 101.092,29.7935 100.259,26.7935 100.5,23.5C 100.738,21.5956 101.738,20.2623 103.5,19.5C 102.677,21.4546 102.51,23.4546 103,25.5C 110.788,19.6825 119.622,16.8492 129.5,17C 128.833,15.6667 127.833,14.6667 126.5,14C 127.167,13.6667 127.833,13.3333 128.5,13C 123.472,12.4117 118.472,12.5784 113.5,13.5C 113.918,12.7784 114.584,12.2784 115.5,12C 121.582,11.2124 127.582,11.379 133.5,12.5 Z"/></g>
<g><path style="opacity:1" fill="#787878" d="M 133.5,12.5 C 137.044,12.1324 140.044,13.1324 142.5,15.5C 142.799,17.604 142.466,19.604 141.5,21.5C 139.484,20.2941 137.484,20.2941 135.5,21.5C 135.396,28.5384 132.396,34.3717 126.5,39C 121.944,40.8816 117.778,42.7149 114,44.5C 112.522,44.2102 111.022,44.2102 109.5,44.5C 107.621,43.6586 105.621,43.3253 103.5,43.5C 103.611,42.8826 103.944,42.3826 104.5,42C 99.8636,37.1654 98.197,31.332 99.5,24.5C 99.5,23.8333 99.8333,23.5 100.5,23.5C 100.259,26.7935 101.092,29.7935 103,32.5C 110.763,37.8749 118.263,37.3749 125.5,31C 125.167,30.6667 124.833,30.3333 124.5,30C 127.966,26.9442 128.966,23.2776 127.5,19C 130.146,18.5026 132.813,18.3359 135.5,18.5C 135.396,16.2972 134.73,14.2972 133.5,12.5 Z"/></g>
<g><path style="opacity:1" fill="#676767" d="M 142.5,15.5 C 143.167,15.5 143.833,15.5 144.5,15.5C 145.167,16.8333 146.167,17.8333 147.5,18.5C 147.5,20.5 147.5,22.5 147.5,24.5C 146.178,24.67 145.011,24.3366 144,23.5C 143.441,27.1864 142.774,30.853 142,34.5C 140.25,36.7343 138.75,39.0676 137.5,41.5C 131.613,41.3947 127.613,44.0614 125.5,49.5C 121.416,49.9569 117.583,49.2902 114,47.5C 113.601,47.7284 113.435,48.0618 113.5,48.5C 112.5,46.8333 111.167,45.5 109.5,44.5C 111.022,44.2102 112.522,44.2102 114,44.5C 117.778,42.7149 121.944,40.8816 126.5,39C 132.396,34.3717 135.396,28.5384 135.5,21.5C 137.484,20.2941 139.484,20.2941 141.5,21.5C 142.466,19.604 142.799,17.604 142.5,15.5 Z"/></g>
<g><path style="opacity:1" fill="#545454" d="M 147.5,18.5 C 156.126,28.4971 155.126,37.4971 144.5,45.5C 142.61,43.4224 140.276,42.0891 137.5,41.5C 138.75,39.0676 140.25,36.7343 142,34.5C 142.774,30.853 143.441,27.1864 144,23.5C 145.011,24.3366 146.178,24.67 147.5,24.5C 147.5,22.5 147.5,20.5 147.5,18.5 Z"/></g>
<g><path style="opacity:1" fill="#595959" d="M 99.5,24.5 C 98.197,31.332 99.8636,37.1654 104.5,42C 103.944,42.3826 103.611,42.8826 103.5,43.5C 100.263,45.973 98.5967,49.3063 98.5,53.5C 99.547,58.5887 100.88,63.5887 102.5,68.5C 100.5,70.1667 98.5,71.8333 96.5,73.5C 95.9358,63.1645 95.2691,52.8312 94.5,42.5C 94.1674,35.8454 95.8341,29.8454 99.5,24.5 Z"/></g>
<g><path style="opacity:1" fill="#edecec" d="M 137.5,41.5 C 140.276,42.0891 142.61,43.4224 144.5,45.5C 145.11,46.391 145.443,47.391 145.5,48.5C 145.31,51.855 144.31,54.855 142.5,57.5C 140.97,51.3154 137.47,49.6487 132,52.5C 130.711,55.3508 130.211,58.3508 130.5,61.5C 128.883,60.962 127.216,60.6287 125.5,60.5C 125.5,60.1667 125.5,59.8333 125.5,59.5C 125.5,56.1667 125.5,52.8333 125.5,49.5C 127.613,44.0614 131.613,41.3947 137.5,41.5 Z"/></g>
<g><path style="opacity:1" fill="#e0dfdf" d="M 103.5,43.5 C 105.621,43.3253 107.621,43.6586 109.5,44.5C 111.167,45.5 112.5,46.8333 113.5,48.5C 114.414,51.728 114.747,55.0613 114.5,58.5C 113.71,59.4013 112.71,60.0679 111.5,60.5C 112.084,54.9717 109.751,51.6383 104.5,50.5C 103.167,51.1667 102.167,52.1667 101.5,53.5C 101.337,55.8568 101.503,58.1902 102,60.5C 102.223,62.8808 103.39,64.5475 105.5,65.5C 104.833,66.8333 103.833,67.8333 102.5,68.5C 100.88,63.5887 99.547,58.5887 98.5,53.5C 98.5967,49.3063 100.263,45.973 103.5,43.5 Z"/></g>
<g><path style="opacity:1" fill="#4b4b4b" d="M 125.5,49.5 C 125.5,52.8333 125.5,56.1667 125.5,59.5C 121.901,58.6561 118.234,58.3227 114.5,58.5C 114.747,55.0613 114.414,51.728 113.5,48.5C 113.435,48.0618 113.601,47.7284 114,47.5C 117.583,49.2902 121.416,49.9569 125.5,49.5 Z"/></g>
<g><path style="opacity:1" fill="#696969" d="M 104.5,50.5 C 104.833,51.1667 105.167,51.8333 105.5,52.5C 104.167,52.5 103.5,53.1667 103.5,54.5C 102.833,54.1667 102.167,53.8333 101.5,53.5C 102.167,52.1667 103.167,51.1667 104.5,50.5 Z"/></g>
<g><path style="opacity:1" fill="#0a0908" d="M 104.5,50.5 C 109.751,51.6383 112.084,54.9717 111.5,60.5C 109.5,62.1667 107.5,63.8333 105.5,65.5C 103.39,64.5475 102.223,62.8808 102,60.5C 101.503,58.1902 101.337,55.8568 101.5,53.5C 102.167,53.8333 102.833,54.1667 103.5,54.5C 103.897,55.525 104.563,55.6917 105.5,55C 106.774,54.0228 106.774,53.1894 105.5,52.5C 105.167,51.8333 104.833,51.1667 104.5,50.5 Z"/></g>
<g><path style="opacity:1" fill="#121110" d="M 142.5,57.5 C 142.606,60.6145 141.606,63.2812 139.5,65.5C 136.673,64.8916 134.007,63.8916 131.5,62.5C 130.833,62.5 130.5,62.1667 130.5,61.5C 130.211,58.3508 130.711,55.3508 132,52.5C 137.47,49.6487 140.97,51.3154 142.5,57.5 Z"/></g>
<g><path style="opacity:1" fill="#e3e3e3" d="M 105.5,52.5 C 106.774,53.1894 106.774,54.0228 105.5,55C 104.563,55.6917 103.897,55.525 103.5,54.5C 103.5,53.1667 104.167,52.5 105.5,52.5 Z"/></g>
<g><path style="opacity:1" fill="#eaeaea" d="M 134.5,52.5 C 135.5,52.5 136.5,52.5 137.5,52.5C 137.5,53.5 137.5,54.5 137.5,55.5C 136.5,55.5 135.5,55.5 134.5,55.5C 134.5,54.5 134.5,53.5 134.5,52.5 Z"/></g>
<g><path style="opacity:1" fill="#ffdc0d" d="M 114.5,61.5 C 116.948,60.5269 119.615,60.1936 122.5,60.5C 122.196,61.1499 121.863,61.8165 121.5,62.5C 125.746,71.1732 123.412,77.3399 114.5,81C 110.23,82.0754 105.897,82.5754 101.5,82.5C 100.164,80.9897 98.9973,79.3231 98,77.5C 97.2599,76.2506 97.4265,75.2506 98.5,74.5C 99.4687,75.3094 100.302,76.3094 101,77.5C 109.89,77.2773 115.056,72.7773 116.5,64C 116.316,62.6244 115.649,61.7911 114.5,61.5 Z"/></g>
<g><path style="opacity:1" fill="#ffe938" d="M 114.5,61.5 C 115.649,61.7911 116.316,62.6244 116.5,64C 115.056,72.7773 109.89,77.2773 101,77.5C 100.302,76.3094 99.4687,75.3094 98.5,74.5C 103.248,69.4159 108.581,65.0826 114.5,61.5 Z"/></g>
<g><path style="opacity:1" fill="#fec919" d="M 122.5,60.5 C 122.833,60.5 123.167,60.5 123.5,60.5C 128.718,69.6795 126.718,76.8461 117.5,82C 117.728,82.3988 118.062,82.5654 118.5,82.5C 116.735,83.4614 114.735,83.7947 112.5,83.5C 113.282,87.28 114.948,90.6134 117.5,93.5C 110.563,92.2392 105.229,88.5725 101.5,82.5C 105.897,82.5754 110.23,82.0754 114.5,81C 123.412,77.3399 125.746,71.1732 121.5,62.5C 121.863,61.8165 122.196,61.1499 122.5,60.5 Z"/></g>
<g><path style="opacity:1" fill="#feba04" d="M 123.5,60.5 C 124.167,60.5 124.833,60.5 125.5,60.5C 127.216,60.6287 128.883,60.962 130.5,61.5C 130.5,62.1667 130.833,62.5 131.5,62.5C 131.423,63.7498 130.756,64.5831 129.5,65C 131.562,66.5325 132.896,68.5325 133.5,71C 137.246,69.5072 141.246,68.6739 145.5,68.5C 146.5,68.8333 147.167,69.5 147.5,70.5C 147.737,71.791 147.404,72.791 146.5,73.5C 142.673,73.7516 139.34,75.0849 136.5,77.5C 133.795,78.8527 131.128,80.1861 128.5,81.5C 127.391,81.5569 126.391,81.8902 125.5,82.5C 123.374,81.8968 121.041,81.8968 118.5,82.5C 118.062,82.5654 117.728,82.3988 117.5,82C 126.718,76.8461 128.718,69.6795 123.5,60.5 Z"/></g>
<g><path style="opacity:1" fill="#9b9a9a" d="M 145.5,48.5 C 147.017,50.4621 147.684,52.7954 147.5,55.5C 147.091,59.6501 146.091,63.6501 144.5,67.5C 142.833,66.8333 141.167,66.1667 139.5,65.5C 141.606,63.2812 142.606,60.6145 142.5,57.5C 144.31,54.855 145.31,51.855 145.5,48.5 Z"/></g>
<g><path style="opacity:1" fill="#f9a004" d="M 131.5,62.5 C 134.007,63.8916 136.673,64.8916 139.5,65.5C 141.167,66.1667 142.833,66.8333 144.5,67.5C 145.167,67.5 145.5,67.8333 145.5,68.5C 141.246,68.6739 137.246,69.5072 133.5,71C 132.896,68.5325 131.562,66.5325 129.5,65C 130.756,64.5831 131.423,63.7498 131.5,62.5 Z"/></g>
<g><path style="opacity:1" fill="#383838" d="M 144.5,15.5 C 151.484,18.9854 156.651,24.3188 160,31.5C 161.171,43.4637 161.838,55.4637 162,67.5C 162.608,69.1545 163.108,70.8211 163.5,72.5C 162.883,72.3893 162.383,72.056 162,71.5C 160.685,80.9263 162.685,89.5929 168,97.5C 175.06,106.061 182.893,113.727 191.5,120.5C 194.135,123.079 196.301,126.079 198,129.5C 202.405,140.109 204.405,151.109 204,162.5C 203.76,164.852 202.927,166.852 201.5,168.5C 199.582,158.438 197.082,148.438 194,138.5C 192.235,134.136 189.401,130.636 185.5,128C 184.251,127.26 183.251,127.427 182.5,128.5C 180.24,126.35 177.907,124.183 175.5,122C 174.833,121.333 174.167,121.333 173.5,122C 186.224,131.85 190.224,144.35 185.5,159.5C 182.657,155.482 179.157,152.149 175,149.5C 174.667,150.167 174.333,150.833 174,151.5C 173.722,150.584 173.222,149.918 172.5,149.5C 171.69,143.598 170.357,137.931 168.5,132.5C 166.985,126.471 164.152,121.137 160,116.5C 159.136,112.616 157.97,108.949 156.5,105.5C 153.736,97.1924 150.402,89.1924 146.5,81.5C 147.891,79.2085 148.891,76.7085 149.5,74C 149.613,72.3009 148.947,71.1342 147.5,70.5C 147.167,69.5 146.5,68.8333 145.5,68.5C 145.5,67.8333 145.167,67.5 144.5,67.5C 146.091,63.6501 147.091,59.6501 147.5,55.5C 147.684,52.7954 147.017,50.4621 145.5,48.5C 145.443,47.391 145.11,46.391 144.5,45.5C 155.126,37.4971 156.126,28.4971 147.5,18.5C 146.167,17.8333 145.167,16.8333 144.5,15.5 Z"/></g>
<g><path style="opacity:1" fill="#f39617" d="M 114.5,58.5 C 118.234,58.3227 121.901,58.6561 125.5,59.5C 125.5,59.8333 125.5,60.1667 125.5,60.5C 124.833,60.5 124.167,60.5 123.5,60.5C 123.167,60.5 122.833,60.5 122.5,60.5C 119.615,60.1936 116.948,60.5269 114.5,61.5C 108.581,65.0826 103.248,69.4159 98.5,74.5C 97.4265,75.2506 97.2599,76.2506 98,77.5C 98.9973,79.3231 100.164,80.9897 101.5,82.5C 105.229,88.5725 110.563,92.2392 117.5,93.5C 118.5,93.5 119.5,93.5 120.5,93.5C 127.455,93.1037 130.121,89.937 128.5,84C 129.167,83.6667 129.833,83.3333 130.5,83C 129.584,82.7216 128.918,82.2216 128.5,81.5C 131.128,80.1861 133.795,78.8527 136.5,77.5C 135.71,78.7942 134.71,79.9609 133.5,81C 133.19,82.8741 133.69,84.7074 135,86.5C 138.322,84.9598 141.656,82.6264 145,79.5C 145.813,77.5643 146.313,75.5643 146.5,73.5C 147.404,72.791 147.737,71.791 147.5,70.5C 148.947,71.1342 149.613,72.3009 149.5,74C 148.891,76.7085 147.891,79.2085 146.5,81.5C 138.967,86.4309 131.301,91.0976 123.5,95.5C 115.996,96.2441 109.663,93.9108 104.5,88.5C 104.167,87.5 103.5,86.8333 102.5,86.5C 101.167,84.5 99.5,82.8333 97.5,81.5C 96.7347,78.9039 96.4013,76.2372 96.5,73.5C 98.5,71.8333 100.5,70.1667 102.5,68.5C 103.833,67.8333 104.833,66.8333 105.5,65.5C 107.5,63.8333 109.5,62.1667 111.5,60.5C 112.71,60.0679 113.71,59.4013 114.5,58.5 Z"/></g>
<g><path style="opacity:1" fill="#fed36a" d="M 125.5,82.5 C 122.546,83.4279 119.546,84.2612 116.5,85C 118.167,87.3333 119.833,89.6667 121.5,92C 120.944,92.3826 120.611,92.8826 120.5,93.5C 119.5,93.5 118.5,93.5 117.5,93.5C 114.948,90.6134 113.282,87.28 112.5,83.5C 114.735,83.7947 116.735,83.4614 118.5,82.5C 121.041,81.8968 123.374,81.8968 125.5,82.5 Z"/></g>
<g><path style="opacity:1" fill="#f9a917" d="M 128.5,81.5 C 128.918,82.2216 129.584,82.7216 130.5,83C 129.833,83.3333 129.167,83.6667 128.5,84C 130.121,89.937 127.455,93.1037 120.5,93.5C 120.611,92.8826 120.944,92.3826 121.5,92C 119.833,89.6667 118.167,87.3333 116.5,85C 119.546,84.2612 122.546,83.4279 125.5,82.5C 126.391,81.8902 127.391,81.5569 128.5,81.5 Z"/></g>
<g><path style="opacity:1" fill="#ee7d05" d="M 146.5,73.5 C 146.313,75.5643 145.813,77.5643 145,79.5C 141.656,82.6264 138.322,84.9598 135,86.5C 133.69,84.7074 133.19,82.8741 133.5,81C 134.71,79.9609 135.71,78.7942 136.5,77.5C 139.34,75.0849 142.673,73.7516 146.5,73.5 Z"/></g>
<g><path style="opacity:1" fill="#e1e1e1" d="M 102.5,86.5 C 103.5,86.8333 104.167,87.5 104.5,88.5C 103.957,88.56 103.624,88.8933 103.5,89.5C 104.808,91.6414 106.308,93.6414 108,95.5C 116.607,102.039 126.107,106.873 136.5,110C 137.833,110.667 137.833,111.333 136.5,112C 138.478,112.481 139.811,113.647 140.5,115.5C 141.069,118.468 141.403,121.468 141.5,124.5C 139.516,145.36 134.349,165.027 126,183.5C 122.059,191.887 115.559,197.054 106.5,199C 105.934,199.995 105.267,200.828 104.5,201.5C 104.5,200.833 104.167,200.5 103.5,200.5C 103.371,198.784 103.038,197.117 102.5,195.5C 103.55,195.095 103.55,194.429 102.5,193.5C 106.489,191.708 109.655,189.708 112,187.5C 113.248,184.421 115.081,181.754 117.5,179.5C 117.291,178.914 116.957,178.414 116.5,178C 118.167,177 119.833,176 121.5,175C 120.643,174.311 119.977,173.478 119.5,172.5C 123.018,165.828 125.684,159.161 127.5,152.5C 127.167,151.833 126.833,151.167 126.5,150.5C 127.731,144.927 129.564,139.26 132,133.5C 133.038,126.897 132.204,120.897 129.5,115.5C 118.668,109.663 109.001,102.33 100.5,93.5C 100.171,90.7718 100.837,88.4385 102.5,86.5 Z"/></g>
<g><path style="opacity:1" fill="#5c5c5c" d="M 163.5,72.5 C 166.508,80.6827 170.008,88.6827 174,96.5C 180.076,104.396 185.909,112.396 191.5,120.5C 182.893,113.727 175.06,106.061 168,97.5C 162.685,89.5929 160.685,80.9263 162,71.5C 162.383,72.056 162.883,72.3893 163.5,72.5 Z"/></g>
<g><path style="opacity:1" fill="#b7b7b6" d="M 146.5,81.5 C 150.402,89.1924 153.736,97.1924 156.5,105.5C 150.218,107.339 144.551,106.173 139.5,102C 133.416,100.646 127.416,98.979 121.5,97C 122.416,96.7216 123.082,96.2216 123.5,95.5C 131.301,91.0976 138.967,86.4309 146.5,81.5 Z"/></g>
<g><path style="opacity:1" fill="#cecece" d="M 104.5,88.5 C 109.663,93.9108 115.996,96.2441 123.5,95.5C 123.082,96.2216 122.416,96.7216 121.5,97C 127.416,98.979 133.416,100.646 139.5,102C 144.551,106.173 150.218,107.339 156.5,105.5C 157.97,108.949 159.136,112.616 160,116.5C 164.152,121.137 166.985,126.471 168.5,132.5C 167.883,132.611 167.383,132.944 167,133.5C 166.896,142.936 165.896,152.269 164,161.5C 159.248,172.21 154.414,182.877 149.5,193.5C 141.87,203.291 132.537,211.124 121.5,217C 117.285,217.855 113.285,219.022 109.5,220.5C 108.041,220.567 106.708,220.234 105.5,219.5C 109.09,216.361 113.09,213.694 117.5,211.5C 120.024,209.81 122.024,207.643 123.5,205C 116.794,205.094 110.461,203.927 104.5,201.5C 105.267,200.828 105.934,199.995 106.5,199C 115.559,197.054 122.059,191.887 126,183.5C 134.349,165.027 139.516,145.36 141.5,124.5C 141.403,121.468 141.069,118.468 140.5,115.5C 139.811,113.647 138.478,112.481 136.5,112C 137.833,111.333 137.833,110.667 136.5,110C 126.107,106.873 116.607,102.039 108,95.5C 106.308,93.6414 104.808,91.6414 103.5,89.5C 103.624,88.8933 103.957,88.56 104.5,88.5 Z"/></g>
<g><path style="opacity:1" fill="#eeeeee" d="M 100.5,93.5 C 109.001,102.33 118.668,109.663 129.5,115.5C 132.204,120.897 133.038,126.897 132,133.5C 129.564,139.26 127.731,144.927 126.5,150.5C 126.833,151.167 127.167,151.833 127.5,152.5C 125.684,159.161 123.018,165.828 119.5,172.5C 119.977,173.478 120.643,174.311 121.5,175C 119.833,176 118.167,177 116.5,178C 116.957,178.414 117.291,178.914 117.5,179.5C 115.081,181.754 113.248,184.421 112,187.5C 109.655,189.708 106.489,191.708 102.5,193.5C 103.55,194.429 103.55,195.095 102.5,195.5C 99.1486,192.152 95.4819,189.152 91.5,186.5C 93.3612,184.216 95.6945,182.382 98.5,181C 97.8333,180.667 97.1667,180.333 96.5,180C 98.8333,178.5 101.167,177 103.5,175.5C 102.975,174.808 102.308,174.308 101.5,174C 107.049,170.086 111.049,164.919 113.5,158.5C 113.899,154.102 113.899,149.602 113.5,145C 115.697,142.042 116.53,138.875 116,135.5C 119.048,134.217 119.215,132.551 116.5,130.5C 117.737,129.719 118.737,128.719 119.5,127.5C 116.186,118.084 110.353,109.417 102,101.5C 100.951,102.517 99.7839,102.684 98.5,102C 99.7736,101.023 99.7736,100.189 98.5,99.5C 99.1667,97.5 99.8333,95.5 100.5,93.5 Z"/></g>
<g><path style="opacity:1" fill="#f6f5f5" d="M 98.5,99.5 C 99.7736,100.189 99.7736,101.023 98.5,102C 99.7839,102.684 100.951,102.517 102,101.5C 110.353,109.417 116.186,118.084 119.5,127.5C 118.737,128.719 117.737,129.719 116.5,130.5C 119.215,132.551 119.048,134.217 116,135.5C 116.53,138.875 115.697,142.042 113.5,145C 113.899,149.602 113.899,154.102 113.5,158.5C 111.049,164.919 107.049,170.086 101.5,174C 102.308,174.308 102.975,174.808 103.5,175.5C 101.167,177 98.8333,178.5 96.5,180C 97.1667,180.333 97.8333,180.667 98.5,181C 95.6945,182.382 93.3612,184.216 91.5,186.5C 87.6641,184.416 83.9974,182.083 80.5,179.5C 78.0584,176.271 75.3918,173.271 72.5,170.5C 72.3868,163.745 73.0534,157.078 74.5,150.5C 78.0293,142.439 81.8626,134.439 86,126.5C 86.6373,115.707 90.804,106.707 98.5,99.5 Z"/></g>
<g><path style="opacity:1" fill="#505050" d="M 97.5,81.5 C 99.5,82.8333 101.167,84.5 102.5,86.5C 100.837,88.4385 100.171,90.7718 100.5,93.5C 99.8333,95.5 99.1667,97.5 98.5,99.5C 90.804,106.707 86.6373,115.707 86,126.5C 81.8626,134.439 78.0293,142.439 74.5,150.5C 74.2792,147.903 73.7792,147.903 73,150.5C 72.8333,149.667 72.6667,148.833 72.5,148C 74.8979,140.576 77.0646,133.076 79,125.5C 79.8007,122.633 79.6341,119.966 78.5,117.5C 78.6716,116.508 78.3382,115.842 77.5,115.5C 83.5436,108.458 89.3769,101.124 95,93.5C 96.9889,89.747 97.8222,85.747 97.5,81.5 Z"/></g>
<g><path style="opacity:1" fill="#424241" d="M 78.5,117.5 C 79.6341,119.966 79.8007,122.633 79,125.5C 77.0646,133.076 74.8979,140.576 72.5,148C 72.6667,148.833 72.8333,149.667 73,150.5C 73.7792,147.903 74.2792,147.903 74.5,150.5C 73.0534,157.078 72.3868,163.745 72.5,170.5C 70.6316,169.737 68.9649,168.737 67.5,167.5C 68.3279,161.347 68.8279,155.013 69,148.5C 69.8615,145.051 71.0282,141.717 72.5,138.5C 72.3764,137.893 72.0431,137.56 71.5,137.5C 73.8318,130.838 76.1651,124.172 78.5,117.5 Z"/></g>
<g><path style="opacity:1" fill="#464646" d="M 201.5,168.5 C 201.719,169.675 201.386,170.675 200.5,171.5C 195.746,169.349 190.746,168.349 185.5,168.5C 186.757,164.559 187.924,160.559 189,156.5C 191.197,146.041 189.03,136.707 182.5,128.5C 183.251,127.427 184.251,127.26 185.5,128C 189.401,130.636 192.235,134.136 194,138.5C 197.082,148.438 199.582,158.438 201.5,168.5 Z"/></g>
<g><path style="opacity:1" fill="#bababa" d="M 154.5,127.5 C 157.822,128.658 159.988,130.992 161,134.5C 163.335,140.453 163.668,146.453 162,152.5C 159.098,164.232 154.098,174.899 147,184.5C 145.144,186.406 142.977,187.24 140.5,187C 142.211,171.054 144.878,155.054 148.5,139C 148.167,138.667 147.833,138.333 147.5,138C 149.733,134.349 152.066,130.849 154.5,127.5 Z"/></g>
<g><path style="opacity:1" fill="#eaeae9" d="M 168.5,132.5 C 170.357,137.931 171.69,143.598 172.5,149.5C 173.833,157.167 173.833,164.833 172.5,172.5C 169.15,172.335 165.817,172.502 162.5,173C 161.667,173.833 160.833,174.667 160,175.5C 159.5,184.494 159.334,193.494 159.5,202.5C 145.817,217.059 129.151,223.059 109.5,220.5C 113.285,219.022 117.285,217.855 121.5,217C 132.537,211.124 141.87,203.291 149.5,193.5C 154.414,182.877 159.248,172.21 164,161.5C 165.896,152.269 166.896,142.936 167,133.5C 167.383,132.944 167.883,132.611 168.5,132.5 Z"/></g>
<g><path style="opacity:1" fill="#6c6c6c" d="M 77.5,115.5 C 78.3382,115.842 78.6716,116.508 78.5,117.5C 76.1651,124.172 73.8318,130.838 71.5,137.5C 67.1892,143.431 64.8558,150.097 64.5,157.5C 62.6481,158.089 60.8148,158.756 59,159.5C 58.6012,159.272 58.4346,158.938 58.5,158.5C 65.66,144.515 71.9934,130.182 77.5,115.5 Z"/></g>
<g><path style="opacity:1" fill="#2d2d2d" d="M 71.5,137.5 C 72.0431,137.56 72.3764,137.893 72.5,138.5C 71.0282,141.717 69.8615,145.051 69,148.5C 68.8279,155.013 68.3279,161.347 67.5,167.5C 67.1667,167.5 66.8333,167.5 66.5,167.5C 65.6261,164.211 64.9595,160.877 64.5,157.5C 64.8558,150.097 67.1892,143.431 71.5,137.5 Z"/></g>
<g><path style="opacity:1" fill="#4c4b4b" d="M 172.5,149.5 C 173.222,149.918 173.722,150.584 174,151.5C 174.333,150.833 174.667,150.167 175,149.5C 179.157,152.149 182.657,155.482 185.5,159.5C 185.076,162.354 184.076,165.021 182.5,167.5C 177.533,168.141 174.533,170.808 173.5,175.5C 173.443,174.391 173.11,173.391 172.5,172.5C 173.833,164.833 173.833,157.167 172.5,149.5 Z"/></g>
<g><path style="opacity:1" fill="#545352" d="M 64.5,157.5 C 64.9595,160.877 65.6261,164.211 66.5,167.5C 62.9153,167.152 59.582,167.819 56.5,169.5C 54.7045,165.261 55.3712,161.595 58.5,158.5C 58.4346,158.938 58.6012,159.272 59,159.5C 60.8148,158.756 62.6481,158.089 64.5,157.5 Z"/></g>
<g><path style="opacity:1" fill="#4b4b4b" d="M 190.5,188.5 C 190.5,189.167 190.167,189.5 189.5,189.5C 186.628,188.675 183.628,187.841 180.5,187C 174.919,182.195 174.252,176.862 178.5,171C 183.167,170.333 187.833,170.333 192.5,171C 200.031,172.23 201.531,176.063 197,182.5C 194.591,184.417 192.424,186.417 190.5,188.5 Z"/></g>
<g><path style="opacity:1" fill="#797979" d="M 181.5,171.5 C 184.167,171.5 186.833,171.5 189.5,171.5C 190.746,177.256 188.412,179.923 182.5,179.5C 179.638,179.636 177.971,178.302 177.5,175.5C 178.437,173.712 179.77,172.379 181.5,171.5 Z"/></g>
<g><path style="opacity:1" fill="#3b3a39" d="M 80.5,179.5 C 83.9974,182.083 87.6641,184.416 91.5,186.5C 95.4819,189.152 99.1486,192.152 102.5,195.5C 103.038,197.117 103.371,198.784 103.5,200.5C 103.899,205.056 101.899,207.722 97.5,208.5C 95.5305,206.353 93.6971,204.02 92,201.5C 88.9488,193.73 85.1155,186.397 80.5,179.5 Z"/></g>
<g><path style="opacity:1" fill="#b2b1b1" d="M 103.5,200.5 C 104.167,200.5 104.5,200.833 104.5,201.5C 110.461,203.927 116.794,205.094 123.5,205C 122.024,207.643 120.024,209.81 117.5,211.5C 113.09,213.694 109.09,216.361 105.5,219.5C 105.167,219.5 104.833,219.5 104.5,219.5C 101.745,216.083 99.412,212.417 97.5,208.5C 101.899,207.722 103.899,205.056 103.5,200.5 Z"/></g>
<g><path style="opacity:1" fill="#363535" d="M 159.5,202.5 C 156.542,212.957 154.876,223.624 154.5,234.5C 138.401,231.694 122.068,232.027 105.5,235.5C 108.46,229.88 108.126,224.546 104.5,219.5C 104.833,219.5 105.167,219.5 105.5,219.5C 106.708,220.234 108.041,220.567 109.5,220.5C 129.151,223.059 145.817,217.059 159.5,202.5 Z"/></g>
<g><path style="opacity:0.733" fill="#fb9705" d="M 204.5,171.5 C 207.019,171.848 208.853,173.181 210,175.5C 211.106,180.769 211.773,186.103 212,191.5C 218.167,194.916 224.167,198.582 230,202.5C 232.681,210.652 230.181,216.819 222.5,221C 216.579,223.529 210.579,225.863 204.5,228C 199.351,231.982 194.685,236.482 190.5,241.5C 179.773,248.932 168.939,249.265 158,242.5C 156.544,239.924 155.377,237.258 154.5,234.5C 154.876,223.624 156.542,212.957 159.5,202.5C 159.334,193.494 159.5,184.494 160,175.5C 160.833,174.667 161.667,173.833 162.5,173C 165.817,172.502 169.15,172.335 172.5,172.5C 173.11,173.391 173.443,174.391 173.5,175.5C 173.5,176.167 173.5,176.833 173.5,177.5C 170.288,175.347 166.955,175.014 163.5,176.5C 161.983,178.462 161.316,180.795 161.5,183.5C 162.242,189.479 162.575,195.479 162.5,201.5C 161.065,208.688 159.731,216.022 158.5,223.5C 156.974,228.882 157.474,234.216 160,239.5C 161.113,240.305 162.279,240.972 163.5,241.5C 175.133,246.631 185.133,244.297 193.5,234.5C 196.833,231.833 199.833,228.833 202.5,225.5C 209.596,222.966 216.596,220.133 223.5,217C 226.379,215.164 227.879,212.664 228,209.5C 222.894,216.312 216.061,220.478 207.5,222C 201.026,222.327 194.86,223.827 189,226.5C 187.338,226.612 186.171,225.946 185.5,224.5C 186.7,221.41 188.533,218.743 191,216.5C 194.168,216.235 197.501,216.568 201,217.5C 204.108,216.966 206.941,215.966 209.5,214.5C 215.524,212.121 221.524,209.788 227.5,207.5C 227.737,206.209 227.404,205.209 226.5,204.5C 225.833,204.167 225.167,203.833 224.5,203.5C 221.011,200.863 217.345,198.363 213.5,196C 211.959,194.629 210.625,193.129 209.5,191.5C 209.001,187.51 208.501,183.51 208,179.5C 207.722,178.584 207.222,177.918 206.5,177.5C 205.713,175.896 204.38,175.229 202.5,175.5C 202.229,173.62 202.896,172.287 204.5,171.5 Z"/></g>
<g><path style="opacity:1" fill="#ffa910" d="M 202.5,225.5 C 200.801,225.34 199.134,225.506 197.5,226C 191.501,231.508 184.501,233.841 176.5,233C 175.483,231.951 175.316,230.784 176,229.5C 178.963,223.067 182.797,217.234 187.5,212C 188.833,211.833 190.167,211.667 191.5,211.5C 197.47,212.717 203.47,213.717 209.5,214.5C 206.941,215.966 204.108,216.966 201,217.5C 197.501,216.568 194.168,216.235 191,216.5C 188.533,218.743 186.7,221.41 185.5,224.5C 186.171,225.946 187.338,226.612 189,226.5C 194.86,223.827 201.026,222.327 207.5,222C 216.061,220.478 222.894,216.312 228,209.5C 227.879,212.664 226.379,215.164 223.5,217C 216.596,220.133 209.596,222.966 202.5,225.5 Z"/></g>
<g><path style="opacity:1" fill="#fdb801" d="M 163.5,176.5 C 166.955,175.014 170.288,175.347 173.5,177.5C 174.45,187.099 179.784,191.099 189.5,189.5C 186.562,190.07 184.228,190.737 182.5,191.5C 181.016,194.584 181.182,197.584 183,200.5C 186.062,202.402 189.228,204.069 192.5,205.5C 193.167,205.167 193.833,204.833 194.5,204.5C 198.72,207.352 203.387,209.018 208.5,209.5C 214.829,208.607 220.829,206.94 226.5,204.5C 227.404,205.209 227.737,206.209 227.5,207.5C 221.524,209.788 215.524,212.121 209.5,214.5C 203.47,213.717 197.47,212.717 191.5,211.5C 190.167,211.667 188.833,211.833 187.5,212C 182.797,217.234 178.963,223.067 176,229.5C 175.316,230.784 175.483,231.951 176.5,233C 184.501,233.841 191.501,231.508 197.5,226C 199.134,225.506 200.801,225.34 202.5,225.5C 199.833,228.833 196.833,231.833 193.5,234.5C 193.565,234.062 193.399,233.728 193,233.5C 190.658,236.754 187.491,238.588 183.5,239C 177.833,239.333 172.167,239.667 166.5,240C 165.263,240.232 164.263,240.732 163.5,241.5C 162.279,240.972 161.113,240.305 160,239.5C 157.474,234.216 156.974,228.882 158.5,223.5C 159.736,223.011 161.236,223.011 163,223.5C 165.573,222.194 167.906,220.527 170,218.5C 170.711,215.266 171.545,212.099 172.5,209C 172.167,208 171.833,207 171.5,206C 173.152,204.53 174.152,202.697 174.5,200.5C 173.941,192.872 171.274,186.205 166.5,180.5C 166.262,178.596 165.262,177.262 163.5,176.5 Z"/></g>
<g><path style="opacity:1" fill="#ffd700" d="M 209.5,191.5 C 210.625,193.129 211.959,194.629 213.5,196C 217.345,198.363 221.011,200.863 224.5,203.5C 219.359,205.452 214.026,206.785 208.5,207.5C 205.972,207.237 203.639,206.404 201.5,205C 199.789,203.867 199.289,202.367 200,200.5C 202.379,196.62 205.546,193.62 209.5,191.5 Z"/></g>
<g><path style="opacity:1" fill="#ffcc00" d="M 166.5,180.5 C 171.274,186.205 173.941,192.872 174.5,200.5C 174.152,202.697 173.152,204.53 171.5,206C 171.833,207 172.167,208 172.5,209C 171.545,212.099 170.711,215.266 170,218.5C 167.906,220.527 165.573,222.194 163,223.5C 161.236,223.011 159.736,223.011 158.5,223.5C 159.731,216.022 161.065,208.688 162.5,201.5C 162.775,203.842 163.608,203.842 165,201.5C 167.761,194.692 168.261,187.692 166.5,180.5 Z"/></g>
<g><path style="opacity:1" fill="#ffc800" d="M 206.5,177.5 C 207.222,177.918 207.722,178.584 208,179.5C 208.501,183.51 209.001,187.51 209.5,191.5C 205.546,193.62 202.379,196.62 200,200.5C 199.289,202.367 199.789,203.867 201.5,205C 203.639,206.404 205.972,207.237 208.5,207.5C 214.026,206.785 219.359,205.452 224.5,203.5C 225.167,203.833 225.833,204.167 226.5,204.5C 220.829,206.94 214.829,208.607 208.5,209.5C 203.387,209.018 198.72,207.352 194.5,204.5C 193.833,204.833 193.167,205.167 192.5,205.5C 189.228,204.069 186.062,202.402 183,200.5C 181.182,197.584 181.016,194.584 182.5,191.5C 183.496,191.414 184.329,191.748 185,192.5C 185.953,198.788 189.453,202.288 195.5,203C 202.364,195.917 206.031,187.417 206.5,177.5 Z"/></g>
<g><path style="opacity:1" fill="#ffe201" d="M 163.5,176.5 C 165.262,177.262 166.262,178.596 166.5,180.5C 168.261,187.692 167.761,194.692 165,201.5C 163.608,203.842 162.775,203.842 162.5,201.5C 162.575,195.479 162.242,189.479 161.5,183.5C 161.316,180.795 161.983,178.462 163.5,176.5 Z"/></g>
<g><path style="opacity:1" fill="#fddf01" d="M 202.5,175.5 C 204.38,175.229 205.713,175.896 206.5,177.5C 206.031,187.417 202.364,195.917 195.5,203C 189.453,202.288 185.953,198.788 185,192.5C 184.329,191.748 183.496,191.414 182.5,191.5C 184.228,190.737 186.562,190.07 189.5,189.5C 190.167,189.5 190.5,189.167 190.5,188.5C 197.234,186.764 201.234,182.43 202.5,175.5 Z"/></g>
<g><path style="opacity:0.692" fill="#fb9702" d="M 66.5,167.5 C 66.8333,167.5 67.1667,167.5 67.5,167.5C 68.9649,168.737 70.6316,169.737 72.5,170.5C 75.3918,173.271 78.0584,176.271 80.5,179.5C 85.1155,186.397 88.9488,193.73 92,201.5C 93.6971,204.02 95.5305,206.353 97.5,208.5C 99.412,212.417 101.745,216.083 104.5,219.5C 108.126,224.546 108.46,229.88 105.5,235.5C 102.82,241.679 98.3204,246.012 92,248.5C 87.5855,247.697 83.0855,247.197 78.5,247C 71.8639,244.017 65.1972,241.017 58.5,238C 50.4527,236.548 42.4527,234.881 34.5,233C 31.0589,231.224 27.8922,229.057 25,226.5C 24.3333,224.5 24.3333,222.5 25,220.5C 26.4488,217.268 27.6155,213.935 28.5,210.5C 27.7955,206.68 26.6288,203.014 25,199.5C 24.0877,194.397 25.921,190.564 30.5,188C 34.9177,187.792 39.251,187.126 43.5,186C 47.7668,181.574 51.4335,176.741 54.5,171.5C 55.5,171.167 56.1667,170.5 56.5,169.5C 59.582,167.819 62.9153,167.152 66.5,167.5 Z"/></g>
<g><path style="opacity:1" fill="#ffad00" d="M 102.5,222.5 C 105.566,229.337 104.233,235.337 98.5,240.5C 97.6868,239.347 96.6868,239.347 95.5,240.5C 92.7766,238.602 89.9432,236.935 87,235.5C 82.6096,236.234 78.1096,237.568 73.5,239.5C 69.9149,237.871 66.2482,236.538 62.5,235.5C 61.6529,232.84 61.1529,230.174 61,227.5C 62.8161,226.671 64.6494,225.837 66.5,225C 71.1948,224.328 75.8614,225.328 80.5,228C 87.9567,229.39 94.9567,228.224 101.5,224.5C 102.298,224.043 102.631,223.376 102.5,222.5 Z"/></g>
<g><path style="opacity:1" fill="#ffcf00" d="M 28.5,219.5 C 28.9628,216.779 29.6295,214.112 30.5,211.5C 31.397,210.402 32.2303,210.402 33,211.5C 34.1667,213.833 35.3333,216.167 36.5,218.5C 33.9995,224.596 31.3328,224.929 28.5,219.5 Z"/></g>
<g><path style="opacity:1" fill="#ffbe00" d="M 60.5,178.5 C 65.5354,185.252 69.8687,192.585 73.5,200.5C 72.5693,205.572 72.5693,210.405 73.5,215C 76.3616,215.93 78.695,217.597 80.5,220C 85.4715,221.817 90.4715,221.817 95.5,220C 97.5444,219.502 98.8777,218.335 99.5,216.5C 100.674,217.514 101.34,218.847 101.5,220.5C 95.5708,224.866 89.0708,226.533 82,225.5C 77.489,222.486 72.6557,220.153 67.5,218.5C 67.8808,216.058 67.2141,215.391 65.5,216.5C 63.2241,215.787 60.8907,215.287 58.5,215C 60.7147,214.612 62.048,213.612 62.5,212C 61.8333,211.333 61.1667,210.667 60.5,210C 56.7897,209.627 53.4564,208.293 50.5,206C 46.4145,201.983 42.4145,197.983 38.5,194C 36.0748,192.787 33.7415,191.621 31.5,190.5C 32.9187,189.549 34.5853,189.216 36.5,189.5C 41.8573,194.494 47.8573,198.827 54.5,202.5C 55.521,201.998 55.6877,201.332 55,200.5C 51.6349,196.307 48.1349,192.307 44.5,188.5C 46.0913,187.781 47.5913,186.781 49,185.5C 53.3773,189.703 58.2106,193.37 63.5,196.5C 63.8333,195.833 64.1667,195.167 64.5,194.5C 63.1575,189.13 61.8242,183.797 60.5,178.5 Z"/></g>
<g><path style="opacity:1" fill="#ffa700" d="M 29.5,192.5 C 32.0309,195.119 35.0309,197.286 38.5,199C 42.1141,201.209 43.4475,204.209 42.5,208C 38.7959,208.804 35.2959,208.304 32,206.5C 31.7679,207.737 31.2679,208.737 30.5,209.5C 30.1237,205.034 29.1237,200.701 27.5,196.5C 27.9943,194.974 28.661,193.641 29.5,192.5 Z"/></g>
<g><path style="opacity:1" fill="#ffb800" d="M 31.5,190.5 C 33.7415,191.621 36.0748,192.787 38.5,194C 42.4145,197.983 46.4145,201.983 50.5,206C 53.4564,208.293 56.7897,209.627 60.5,210C 61.1667,210.667 61.8333,211.333 62.5,212C 62.048,213.612 60.7147,214.612 58.5,215C 60.8907,215.287 63.2241,215.787 65.5,216.5C 67.2141,215.391 67.8808,216.058 67.5,218.5C 72.6557,220.153 77.489,222.486 82,225.5C 89.0708,226.533 95.5708,224.866 101.5,220.5C 102.338,220.842 102.672,221.508 102.5,222.5C 102.631,223.376 102.298,224.043 101.5,224.5C 94.9567,228.224 87.9567,229.39 80.5,228C 75.8614,225.328 71.1948,224.328 66.5,225C 64.6494,225.837 62.8161,226.671 61,227.5C 61.1529,230.174 61.6529,232.84 62.5,235.5C 66.2482,236.538 69.9149,237.871 73.5,239.5C 78.1096,237.568 82.6096,236.234 87,235.5C 89.9432,236.935 92.7766,238.602 95.5,240.5C 96.6868,239.347 97.6868,239.347 98.5,240.5C 92.7756,244.324 86.4423,245.49 79.5,244C 73.5,241.333 67.5,238.667 61.5,236C 51.7666,233.85 42.1,231.516 32.5,229C 27.7867,227.07 26.4534,223.903 28.5,219.5C 31.3328,224.929 33.9995,224.596 36.5,218.5C 35.3333,216.167 34.1667,213.833 33,211.5C 32.2303,210.402 31.397,210.402 30.5,211.5C 30.5,210.833 30.5,210.167 30.5,209.5C 31.2679,208.737 31.7679,207.737 32,206.5C 35.2959,208.304 38.7959,208.804 42.5,208C 43.4475,204.209 42.1141,201.209 38.5,199C 35.0309,197.286 32.0309,195.119 29.5,192.5C 29.8333,191.5 30.5,190.833 31.5,190.5 Z"/></g>
<g><path style="opacity:1" fill="#ffd700" d="M 44.5,188.5 C 48.1349,192.307 51.6349,196.307 55,200.5C 55.6877,201.332 55.521,201.998 54.5,202.5C 47.8573,198.827 41.8573,194.494 36.5,189.5C 39.2788,189.721 41.9455,189.388 44.5,188.5 Z"/></g>
<g><path style="opacity:1" fill="#ffcd00" d="M 60.5,170.5 C 66.4451,178.636 72.2784,186.969 78,195.5C 81.247,199.291 84.9137,202.624 89,205.5C 89.3988,205.272 89.5654,204.938 89.5,204.5C 93.1803,208.183 96.5136,212.183 99.5,216.5C 98.8777,218.335 97.5444,219.502 95.5,220C 90.4715,221.817 85.4715,221.817 80.5,220C 78.695,217.597 76.3616,215.93 73.5,215C 72.5693,210.405 72.5693,205.572 73.5,200.5C 69.8687,192.585 65.5354,185.252 60.5,178.5C 59.7417,175.648 59.7417,172.981 60.5,170.5 Z"/></g>
<g><path style="opacity:1" fill="#ffdf00" d="M 60.5,170.5 C 66.4211,169.877 71.2544,171.877 75,176.5C 81.1501,185.133 85.9835,194.466 89.5,204.5C 89.5654,204.938 89.3988,205.272 89,205.5C 84.9137,202.624 81.247,199.291 78,195.5C 72.2784,186.969 66.4451,178.636 60.5,170.5 Z"/></g>
<g><path style="opacity:1" fill="#ffc801" d="M 193.5,234.5 C 185.133,244.297 175.133,246.631 163.5,241.5C 164.263,240.732 165.263,240.232 166.5,240C 172.167,239.667 177.833,239.333 183.5,239C 187.491,238.588 190.658,236.754 193,233.5C 193.399,233.728 193.565,234.062 193.5,234.5 Z"/></g>
</svg>
