<?xml version="1.0" encoding="UTF-8"?>
<!DOCTYPE svg PUBLIC "-//W3C//DTD SVG 1.1//EN" "http://www.w3.org/Graphics/SVG/1.1/DTD/svg11.dtd">
<svg xmlns="http://www.w3.org/2000/svg" version="1.1" width="512px" height="512px" style="shape-rendering:geometricPrecision; text-rendering:geometricPrecision; image-rendering:optimizeQuality; fill-rule:evenodd; clip-rule:evenodd" xmlns:xlink="http://www.w3.org/1999/xlink">
<g><path style="opacity:0.954" fill="#010202" d="M 408.5,84.5 C 405.398,84.846 402.565,84.1793 400,82.5C 392.515,61.5073 378.015,48.5073 356.5,43.5C 327.744,39.2966 306.91,50.2966 294,76.5C 285.705,102.157 291.539,123.991 311.5,142C 324.581,152.05 339.248,155.55 355.5,152.5C 379.624,147.211 394.791,132.544 401,108.5C 403.326,106.131 406.16,104.797 409.5,104.5C 413.56,105.801 415.56,108.634 415.5,113C 412.73,125.17 407.397,136.003 399.5,145.5C 402.041,150.082 404.707,154.582 407.5,159C 418.5,159.333 429.5,159.667 440.5,160C 441.833,160.667 443.167,161.333 444.5,162C 451.71,172.916 458.543,184.083 465,195.5C 467,200.167 467,204.833 465,209.5C 458.543,220.917 451.71,232.084 444.5,243C 442.913,243.862 441.246,244.529 439.5,245C 425.833,245.667 412.167,245.667 398.5,245C 394.814,243.911 391.981,241.745 390,238.5C 385.333,230.5 380.667,222.5 376,214.5C 370,206.5 370,198.5 376,190.5C 381.366,181.964 386.532,173.297 391.5,164.5C 390.32,161.46 388.653,158.794 386.5,156.5C 357.693,173.899 329.359,173.066 301.5,154C 275.513,130.718 268.513,102.718 280.5,70C 277.481,68.8206 274.481,67.4872 271.5,66C 267.431,58.5723 269.431,53.7389 277.5,51.5C 281.403,53.0859 285.403,53.9192 289.5,54C 310.592,29.3062 336.926,21.3062 368.5,30C 389.935,37.7691 404.769,52.2691 413,73.5C 413.667,76.1667 413.667,78.8333 413,81.5C 411.871,83.1412 410.371,84.1412 408.5,84.5 Z"/></g>
<g><path style="opacity:1" fill="#0dd08e" d="M 356.5,43.5 C 342.551,51.0418 333.051,62.3751 328,77.5C 326.53,81.3776 325.697,85.3776 325.5,89.5C 320.661,85.1675 316.161,85.5008 312,90.5C 311.21,93.634 311.543,96.634 313,99.5C 318.037,104.369 322.87,109.369 327.5,114.5C 331.99,130.844 341.323,143.511 355.5,152.5C 339.248,155.55 324.581,152.05 311.5,142C 291.539,123.991 285.705,102.157 294,76.5C 306.91,50.2966 327.744,39.2966 356.5,43.5 Z"/></g>
<g><path style="opacity:0.901" fill="#000000" d="M 189.5,43.5 C 194.565,43.219 199.565,43.5524 204.5,44.5C 207.845,48.0847 208.345,52.0847 206,56.5C 204.352,57.717 202.519,58.5503 200.5,59C 194.295,59.5532 188.128,60.3865 182,61.5C 174.668,59.8343 172.334,55.501 175,48.5C 175.833,47.6667 176.667,46.8333 177.5,46C 181.665,45.2946 185.665,44.4613 189.5,43.5 Z"/></g>
<g><path style="opacity:0.91" fill="#000000" d="M 225.5,43.5 C 234.295,43.1637 242.962,43.997 251.5,46C 255.212,48.513 256.378,52.013 255,56.5C 253.688,59.5809 251.355,61.2476 248,61.5C 240.544,60.3023 233.044,59.1356 225.5,58C 220.272,53.1772 220.272,48.3438 225.5,43.5 Z"/></g>
<g><path style="opacity:0.999" fill="#04e19a" d="M 356.5,43.5 C 378.015,48.5073 392.515,61.5073 400,82.5C 402.565,84.1793 405.398,84.846 408.5,84.5C 409.276,91.1373 409.609,97.8039 409.5,104.5C 406.16,104.797 403.326,106.131 401,108.5C 394.791,132.544 379.624,147.211 355.5,152.5C 341.323,143.511 331.99,130.844 327.5,114.5C 330.667,117.498 334,120.331 337.5,123C 340.783,123.743 343.783,123.076 346.5,121C 357,110.5 367.5,100 378,89.5C 382.303,80.6195 379.47,76.4528 369.5,77C 360.292,86.543 350.792,95.7097 341,104.5C 335.342,100.009 330.176,95.0089 325.5,89.5C 325.697,85.3776 326.53,81.3776 328,77.5C 333.051,62.3751 342.551,51.0418 356.5,43.5 Z"/></g>
<g><path style="opacity:0.903" fill="#000000" d="M 148.5,52.5 C 158.043,51.5307 161.543,55.5307 159,64.5C 157.786,66.0488 156.286,67.2155 154.5,68C 149.012,69.607 143.678,71.607 138.5,74C 129.783,74.949 126.283,71.1156 128,62.5C 129.731,60.3834 131.898,58.8834 134.5,58C 139.306,56.2372 143.972,54.4039 148.5,52.5 Z"/></g>
<g><path style="opacity:0.951" fill="#010202" d="M 38.5,66.5 C 53.837,66.3334 69.1703,66.5001 84.5,67C 89.6295,69.419 93.2962,73.2524 95.5,78.5C 99.442,75.5344 103.775,73.5344 108.5,72.5C 113.44,72.7726 116.106,75.4392 116.5,80.5C 115.85,83.6551 114.183,86.1551 111.5,88C 108.567,89.2709 105.901,90.9376 103.5,93C 106.714,97.9261 109.548,103.093 112,108.5C 112.667,111.5 112.667,114.5 112,117.5C 105.253,129.996 98.2531,142.329 91,154.5C 89.2691,156.617 87.1024,158.117 84.5,159C 70.1667,159.333 55.8333,159.667 41.5,160C 39.9053,163.858 37.572,167.191 34.5,170C 25.8844,171.717 22.051,168.217 23,159.5C 25.0872,156.327 26.9205,152.994 28.5,149.5C 22.8007,140.297 17.3007,130.964 12,121.5C 8.66667,115.833 8.66667,110.167 12,104.5C 18.7074,92.9174 25.5407,81.4174 32.5,70C 34.4319,68.5415 36.4319,67.3748 38.5,66.5 Z"/></g>
<g><path style="opacity:1" fill="#020805" d="M 327.5,114.5 C 322.87,109.369 318.037,104.369 313,99.5C 311.543,96.634 311.21,93.634 312,90.5C 316.161,85.5008 320.661,85.1675 325.5,89.5C 330.176,95.0089 335.342,100.009 341,104.5C 350.792,95.7097 360.292,86.543 369.5,77C 379.47,76.4528 382.303,80.6195 378,89.5C 367.5,100 357,110.5 346.5,121C 343.783,123.076 340.783,123.743 337.5,123C 334,120.331 330.667,117.498 327.5,114.5 Z"/></g>
<g><path style="opacity:1" fill="#61d6f5" d="M 61.5,82.5 C 56.6114,91.9399 51.4448,101.273 46,110.5C 45.3333,111.833 45.3333,113.167 46,114.5C 50.8987,123.962 56.0653,133.296 61.5,142.5C 67.4632,143.496 73.4632,143.829 79.5,143.5C 67.6738,144.66 55.6738,144.826 43.5,144C 37.0846,133.916 31.0846,123.582 25.5,113C 30.9065,102.854 36.5732,92.8537 42.5,83C 48.8246,82.5005 55.1579,82.3338 61.5,82.5 Z"/></g>
<g><path style="opacity:1" fill="#98e4fa" d="M 61.5,82.5 C 67.5092,82.3338 73.5092,82.5005 79.5,83C 85.4268,92.8537 91.0935,102.854 96.5,113C 90.9551,123.259 85.2884,133.425 79.5,143.5C 73.4632,143.829 67.4632,143.496 61.5,142.5C 56.0653,133.296 50.8987,123.962 46,114.5C 45.3333,113.167 45.3333,111.833 46,110.5C 51.4448,101.273 56.6114,91.9399 61.5,82.5 Z"/></g>
<g><path style="opacity:0.971" fill="#020201" d="M 293.5,198.5 C 291.333,197.731 289.166,196.731 287,195.5C 277.082,151.046 249.582,130.046 204.5,132.5C 167.653,140.517 147.653,163.35 144.5,201C 144.48,210.86 146.313,220.36 150,229.5C 160.6,249.09 171.6,268.424 183,287.5C 191.081,288.482 199.248,288.816 207.5,288.5C 207.5,287.5 207.5,286.5 207.5,285.5C 207.833,269.819 207.499,254.152 206.5,238.5C 185.372,230.918 175.872,215.918 178,193.5C 186.476,169.012 203.309,159.845 228.5,166C 250.032,176.576 257.198,193.409 250,216.5C 244.316,227.846 235.316,235.18 223,238.5C 222.5,255.163 222.333,271.83 222.5,288.5C 230.86,288.831 239.193,288.498 247.5,287.5C 260.801,264.733 273.801,241.9 286.5,219C 288.473,218.505 290.473,218.338 292.5,218.5C 294.371,218.859 295.871,219.859 297,221.5C 297.809,226.363 297.142,231.03 295,235.5C 285.42,252.996 275.586,270.329 265.5,287.5C 268.404,289.055 271.07,291.055 273.5,293.5C 275.717,296.068 276.884,299.068 277,302.5C 277.93,316.889 277.597,331.222 276,345.5C 273.685,349.817 270.185,352.65 265.5,354C 259.843,354.499 254.176,354.666 248.5,354.5C 250.269,367.16 247.769,378.826 241,389.5C 223.38,405.6 206.047,405.267 189,388.5C 186.196,384.557 184.196,380.223 183,375.5C 182.5,368.508 182.334,361.508 182.5,354.5C 176.491,354.666 170.491,354.499 164.5,354C 159,352.5 155.5,349 154,343.5C 153.333,328.833 153.333,314.167 154,299.5C 155.833,293.667 159.667,289.833 165.5,288C 157,273.5 148.5,259 140,244.5C 119.834,200.678 128.001,163.178 164.5,132C 190.474,115.214 218.14,111.88 247.5,122C 279.047,135.619 296.547,159.452 300,193.5C 298.841,196.493 296.675,198.16 293.5,198.5 Z"/></g>
<g><path style="opacity:1" fill="#fcc143" d="M 204.5,132.5 C 207.187,132.336 209.854,132.503 212.5,133C 176.194,155.815 164.027,187.981 176,229.5C 185.753,248.683 196.253,267.349 207.5,285.5C 207.5,286.5 207.5,287.5 207.5,288.5C 199.248,288.816 191.081,288.482 183,287.5C 171.6,268.424 160.6,249.09 150,229.5C 146.313,220.36 144.48,210.86 144.5,201C 147.653,163.35 167.653,140.517 204.5,132.5 Z"/></g>
<g><path style="opacity:1" fill="#fcce5a" d="M 204.5,132.5 C 249.582,130.046 277.082,151.046 287,195.5C 289.166,196.731 291.333,197.731 293.5,198.5C 293.902,205.113 293.569,211.78 292.5,218.5C 290.473,218.338 288.473,218.505 286.5,219C 273.801,241.9 260.801,264.733 247.5,287.5C 239.193,288.498 230.86,288.831 222.5,288.5C 222.333,271.83 222.5,255.163 223,238.5C 235.316,235.18 244.316,227.846 250,216.5C 257.198,193.409 250.032,176.576 228.5,166C 203.309,159.845 186.476,169.012 178,193.5C 175.872,215.918 185.372,230.918 206.5,238.5C 207.499,254.152 207.833,269.819 207.5,285.5C 196.253,267.349 185.753,248.683 176,229.5C 164.027,187.981 176.194,155.815 212.5,133C 209.854,132.503 207.187,132.336 204.5,132.5 Z"/></g>
<g><path style="opacity:1" fill="#61d9f9" d="M 423.5,175.5 C 418.586,184.326 413.92,193.326 409.5,202.5C 414.185,211.511 418.852,220.511 423.5,229.5C 416.468,229.83 409.468,229.497 402.5,228.5C 397.5,219.833 392.5,211.167 387.5,202.5C 392.627,193.748 397.627,184.914 402.5,176C 409.492,175.5 416.492,175.334 423.5,175.5 Z"/></g>
<g><path style="opacity:1" fill="#97e4fa" d="M 423.5,175.5 C 427.514,175.334 431.514,175.501 435.5,176C 440.88,184.59 445.88,193.423 450.5,202.5C 445.466,211.039 440.633,219.706 436,228.5C 431.934,229.464 427.767,229.797 423.5,229.5C 418.852,220.511 414.185,211.511 409.5,202.5C 413.92,193.326 418.586,184.326 423.5,175.5 Z"/></g>
<g><path style="opacity:1" fill="#ede5e1" d="M 220.5,179.5 C 210.25,188.982 207.75,200.316 213,213.5C 214.928,217.032 217.095,220.366 219.5,223.5C 203.211,224.995 194.211,217.495 192.5,201C 194.887,184.418 204.22,177.252 220.5,179.5 Z"/></g>
<g><path style="opacity:1" fill="#fbfbfb" d="M 220.5,179.5 C 234.795,184.084 240.295,193.75 237,208.5C 233.724,216.618 227.89,221.618 219.5,223.5C 217.095,220.366 214.928,217.032 213,213.5C 207.75,200.316 210.25,188.982 220.5,179.5 Z"/></g>
<g><path style="opacity:0.892" fill="#000000" d="M 16.5,182.5 C 22.7848,181.956 26.1181,184.789 26.5,191C 24.6695,198.658 22.3362,206.158 19.5,213.5C 15.3853,217.378 11.2187,217.378 7,213.5C 6.04189,211.801 5.54189,209.967 5.5,208C 6.92297,201.063 8.7563,194.23 11,187.5C 12.1065,184.887 13.9399,183.22 16.5,182.5 Z"/></g>
<g><path style="opacity:0.95" fill="#000201" d="M 61.5,224.5 C 73.1714,224.333 84.8381,224.5 96.5,225C 97.8333,225.667 99.1667,226.333 100.5,227C 106.125,235.749 111.625,244.583 117,253.5C 118.405,257.072 118.738,260.739 118,264.5C 112.963,274.855 107.13,284.689 100.5,294C 99.1667,294.667 97.8333,295.333 96.5,296C 90.8333,296.167 85.1667,296.333 79.5,296.5C 72.7568,296.607 66.0901,296.107 59.5,295C 58.0692,294.535 56.9025,293.701 56,292.5C 50.6667,283.167 45.3333,273.833 40,264.5C 39.3333,261.833 39.3333,259.167 40,256.5C 45.3333,247.167 50.6667,237.833 56,228.5C 57.8121,227.023 59.6455,225.69 61.5,224.5 Z"/></g>
<g><path style="opacity:0.905" fill="#000000" d="M -0.5,259.5 C -0.5,253.167 -0.5,246.833 -0.5,240.5C -0.564786,234.642 2.26855,230.975 8,229.5C 13.0752,230.408 15.9085,233.408 16.5,238.5C 16.0365,245.92 15.2032,253.253 14,260.5C 11.0913,263.394 7.59129,264.227 3.5,263C 1.64977,262.31 0.316435,261.144 -0.5,259.5 Z"/></g>
<g><path style="opacity:1" fill="#0dcc8b" d="M 91.5,240.5 C 87.9929,239.994 84.8263,240.66 82,242.5C 78.5612,248.379 75.3945,254.379 72.5,260.5C 75.6545,267.478 79.3211,274.145 83.5,280.5C 77.7945,280.829 72.1278,280.495 66.5,279.5C 62.5808,273.33 58.9141,266.997 55.5,260.5C 59.1216,253.42 63.1216,246.587 67.5,240C 75.6775,239.177 83.6775,239.344 91.5,240.5 Z"/></g>
<g><path style="opacity:1" fill="#05e09a" d="M 91.5,240.5 C 95.1544,247.14 98.8211,253.806 102.5,260.5C 99,266.833 95.5,273.167 92,279.5C 89.2809,280.444 86.4475,280.777 83.5,280.5C 79.3211,274.145 75.6545,267.478 72.5,260.5C 75.3945,254.379 78.5612,248.379 82,242.5C 84.8263,240.66 87.9929,239.994 91.5,240.5 Z"/></g>
<g><path style="opacity:0.964" fill="#020202" d="M 511.5,348.5 C 511.5,363.833 511.5,379.167 511.5,394.5C 509.181,399.64 505.181,402.806 499.5,404C 492.833,404.333 486.167,404.667 479.5,405C 484,409.5 488.5,414 493,418.5C 496.333,424.833 496.333,431.167 493,437.5C 483.833,446.667 474.667,455.833 465.5,465C 458.833,469.667 452.167,469.667 445.5,465C 441,460.5 436.5,456 432,451.5C 431.667,459.167 431.333,466.833 431,474.5C 429.558,478.275 427.058,481.108 423.5,483C 408.235,484.619 392.901,484.952 377.5,484C 372.815,482.65 369.315,479.817 367,475.5C 365.765,467.577 365.098,459.577 365,451.5C 360.167,456.333 355.333,461.167 350.5,466C 344.833,469.333 339.167,469.333 333.5,466C 327.985,460.318 322.319,454.818 316.5,449.5C 311.499,452.251 306.332,454.585 301,456.5C 293.677,454.853 291.343,450.52 294,443.5C 297.416,441.208 300.916,439.041 304.5,437C 301.385,432.089 300.885,426.922 303,421.5C 307.8,415.698 312.967,410.198 318.5,405C 291.604,409.104 280.604,397.771 285.5,371C 280.463,344.037 291.463,333.037 318.5,338C 312.59,332.761 307.423,326.928 303,320.5C 300.828,314.855 301.495,309.522 305,304.5C 314.167,295.333 323.333,286.167 332.5,277C 338.833,273.667 345.167,273.667 351.5,277C 356,281.5 360.5,286 365,290.5C 365.333,283.833 365.667,277.167 366,270.5C 366.996,264.841 370.162,261.007 375.5,259C 390.833,258.333 406.167,258.333 421.5,259C 426,260.833 429.167,264 431,268.5C 431.333,276.167 431.667,283.833 432,291.5C 437.571,285.258 443.738,279.758 450.5,275C 455.44,273.959 460.106,274.626 464.5,277C 475.399,287.23 485.566,298.063 495,309.5C 496.041,314.44 495.374,319.106 493,323.5C 488.167,328.333 483.333,333.167 478.5,338C 486.167,338.333 493.833,338.667 501.5,339C 506.02,341.022 509.353,344.189 511.5,348.5 Z"/></g>
<g><path style="opacity:1" fill="#dfd1cc" d="M 416.5,448.5 C 415.691,450.292 415.191,452.292 415,454.5C 373.24,441.982 348.24,414.315 340,371.5C 335.932,347.704 339.932,325.371 352,304.5C 352.708,303.619 353.542,302.953 354.5,302.5C 362.542,309.307 370.375,308.974 378,301.5C 379.275,299.283 380.275,296.949 381,294.5C 381.5,287.508 381.666,280.508 381.5,273.5C 393.167,273.5 404.833,273.5 416.5,273.5C 416.334,280.841 416.5,288.174 417,295.5C 422.563,307.909 431.063,310.409 442.5,303C 446.5,299 450.5,295 454.5,291C 455.167,290.333 455.833,290.333 456.5,291C 464.348,298.681 472.015,306.514 479.5,314.5C 475.515,318.985 471.349,323.318 467,327.5C 460.117,338.2 462.284,346.7 473.5,353C 481.159,353.5 488.826,353.666 496.5,353.5C 496.5,365.167 496.5,376.833 496.5,388.5C 489.159,388.334 481.826,388.5 474.5,389C 463.257,394.112 460.424,402.279 466,413.5C 470.833,418.333 475.667,423.167 480.5,428C 472.5,436 464.5,444 456.5,452C 455.833,452.667 455.167,452.667 454.5,452C 449.833,447.333 445.167,442.667 440.5,438C 428.416,432.547 420.416,436.047 416.5,448.5 Z"/></g>
<g><path style="opacity:0.907" fill="#000000" d="M 5.5,278.5 C 9.51639,277.9 13.0164,278.9 16,281.5C 17.4977,288.988 18.9977,296.488 20.5,304C 19.2502,310.901 15.2502,313.234 8.5,311C 6.66667,310.5 5.5,309.333 5,307.5C 2.43105,299.331 1.43105,290.998 2,282.5C 2.68972,280.65 3.85639,279.316 5.5,278.5 Z"/></g>
<g><path style="opacity:1" fill="#cabcb7" d="M 354.5,302.5 C 353.542,302.953 352.708,303.619 352,304.5C 339.932,325.371 335.932,347.704 340,371.5C 348.24,414.315 373.24,441.982 415,454.5C 415.191,452.292 415.691,450.292 416.5,448.5C 416.5,455.5 416.5,462.5 416.5,469.5C 404.833,469.5 393.167,469.5 381.5,469.5C 381.666,462.159 381.5,454.826 381,447.5C 375.635,435.489 367.135,432.656 355.5,439C 351,443.5 346.5,448 342,452.5C 333.833,444.333 325.667,436.167 317.5,428C 323.41,422.761 328.577,416.928 333,410.5C 336.398,399.462 332.564,392.295 321.5,389C 314.508,388.5 307.508,388.334 300.5,388.5C 300.5,376.833 300.5,365.167 300.5,353.5C 308.507,353.666 316.507,353.5 324.5,353C 334.019,347.442 336.519,339.609 332,329.5C 326.985,324.652 322.152,319.652 317.5,314.5C 325.486,306.014 333.652,297.681 342,289.5C 346.37,293.702 350.537,298.036 354.5,302.5 Z"/></g>
<g><path style="opacity:1" fill="#766e6b" d="M 261.5,304.5 C 239.5,304.5 217.5,304.5 195.5,304.5C 186.833,304.5 178.167,304.5 169.5,304.5C 169.5,315.833 169.5,327.167 169.5,338.5C 168.505,327.012 168.172,315.345 168.5,303.5C 199.671,303.169 230.671,303.502 261.5,304.5 Z"/></g>
<g><path style="opacity:1" fill="#c3b6b1" d="M 195.5,304.5 C 195.5,315.833 195.5,327.167 195.5,338.5C 217.5,338.5 239.5,338.5 261.5,338.5C 230.833,339.833 200.167,339.833 169.5,338.5C 169.5,327.167 169.5,315.833 169.5,304.5C 178.167,304.5 186.833,304.5 195.5,304.5 Z"/></g>
<g><path style="opacity:1" fill="#e0d3cd" d="M 195.5,304.5 C 217.5,304.5 239.5,304.5 261.5,304.5C 261.5,315.833 261.5,327.167 261.5,338.5C 239.5,338.5 217.5,338.5 195.5,338.5C 195.5,327.167 195.5,315.833 195.5,304.5 Z"/></g>
<g><path style="opacity:1" fill="#040303" d="M 389.5,317.5 C 421.678,315.532 442.511,329.865 452,360.5C 455.015,395.469 439.515,416.969 405.5,425C 372.164,426.003 351.998,410.169 345,377.5C 344.443,345.912 359.276,325.912 389.5,317.5 Z"/></g>
<g><path style="opacity:0.952" fill="#010000" d="M 126.5,391.5 C 123.281,391.141 120.447,389.808 118,387.5C 111.702,367.032 98.2023,354.366 77.5,349.5C 47.2673,345.214 26.7673,357.548 16,386.5C 10.8722,418.428 23.3722,439.928 53.5,451C 62.3666,453.151 71.0333,452.984 79.5,450.5C 98.6256,444.877 111.459,432.544 118,413.5C 120.565,411.821 123.398,411.154 126.5,411.5C 130.003,412.649 131.669,415.149 131.5,419C 130.28,425.109 127.947,430.775 124.5,436C 128.75,438.374 132.916,440.874 137,443.5C 140.215,452.58 137.048,456.747 127.5,456C 122.713,454.107 118.047,451.94 113.5,449.5C 92.9824,467.437 69.6491,472.271 43.5,464C 19.8199,454.439 5.15324,437.272 -0.5,412.5C -0.5,404.5 -0.5,396.5 -0.5,388.5C 2.95722,374.257 9.62388,361.59 19.5,350.5C 16.7713,344.646 14.438,338.646 12.5,332.5C 13.5754,327.924 16.4087,325.257 21,324.5C 23.831,324.958 26.1643,326.292 28,328.5C 29.2516,332.952 31.2516,336.952 34,340.5C 66.1515,326.024 94.4849,331.357 119,356.5C 125.611,364.389 130.111,373.389 132.5,383.5C 131.925,387.349 129.925,390.016 126.5,391.5 Z"/></g>
<g><path style="opacity:1" fill="#736b6b" d="M 407.5,333.5 C 401.338,335.656 396.671,339.656 393.5,345.5C 372.212,354.196 367.379,368.529 379,388.5C 383.569,392.695 388.735,395.695 394.5,397.5C 394.062,397.435 393.728,397.601 393.5,398C 397.034,402.032 400.7,405.865 404.5,409.5C 377.323,410.503 362.323,397.336 359.5,370C 361.857,350.937 372.191,338.603 390.5,333C 396.349,332.182 402.015,332.348 407.5,333.5 Z"/></g>
<g><path style="opacity:1" fill="#9b9494" d="M 407.5,333.5 C 426.571,338.738 436.571,351.238 437.5,371C 436.394,392.409 425.394,405.242 404.5,409.5C 400.7,405.865 397.034,402.032 393.5,398C 393.728,397.601 394.062,397.435 394.5,397.5C 417.59,396.244 427.09,384.244 423,361.5C 417.044,349.268 407.21,343.935 393.5,345.5C 396.671,339.656 401.338,335.656 407.5,333.5 Z"/></g>
<g><path style="opacity:1" fill="#030303" d="M 393.5,345.5 C 407.21,343.935 417.044,349.268 423,361.5C 427.09,384.244 417.59,396.244 394.5,397.5C 388.735,395.695 383.569,392.695 379,388.5C 367.379,368.529 372.212,354.196 393.5,345.5 Z"/></g>
<g><path style="opacity:1" fill="#eb4323" d="M 77.5,349.5 C 67.3566,356.316 59.6899,365.316 54.5,376.5C 47.9289,372.681 43.2623,374.181 40.5,381C 40.6251,382.627 41.1251,384.127 42,385.5C 46.8799,390.044 51.3799,394.878 55.5,400C 51.3799,405.122 46.8799,409.956 42,414.5C 39.1385,422.606 41.9719,426.439 50.5,426C 51.9839,425.338 53.3172,424.504 54.5,423.5C 59.0755,436.072 67.4088,445.072 79.5,450.5C 71.0333,452.984 62.3666,453.151 53.5,451C 23.3722,439.928 10.8722,418.428 16,386.5C 26.7673,357.548 47.2673,345.214 77.5,349.5 Z"/></g>
<g><path style="opacity:0.999" fill="#fa672f" d="M 77.5,349.5 C 98.2023,354.366 111.702,367.032 118,387.5C 120.447,389.808 123.281,391.141 126.5,391.5C 127.511,398.144 127.511,404.811 126.5,411.5C 123.398,411.154 120.565,411.821 118,413.5C 111.459,432.544 98.6256,444.877 79.5,450.5C 67.4088,445.072 59.0755,436.072 54.5,423.5C 58.1766,418.99 62.3433,414.99 67,411.5C 72.4562,415.954 77.6228,420.787 82.5,426C 91.6177,426.206 94.4511,422.039 91,413.5C 86.5,409 82,404.5 77.5,400C 82,395.5 86.5,391 91,386.5C 94.4162,377.249 91.2495,373.415 81.5,375C 76.6667,379.833 71.8333,384.667 67,389.5C 62.6298,385.298 58.4632,380.964 54.5,376.5C 59.6899,365.316 67.3566,356.316 77.5,349.5 Z"/></g>
<g><path style="opacity:1" fill="#716a6a" d="M 232.5,354.5 C 226.833,354.5 221.167,354.5 215.5,354.5C 214.391,364.309 215.891,373.643 220,382.5C 220.671,383.252 221.504,383.586 222.5,383.5C 209.961,387.85 201.794,383.517 198,370.5C 197.501,364.843 197.334,359.176 197.5,353.5C 209.345,353.172 221.012,353.505 232.5,354.5 Z"/></g>
<g><path style="opacity:1" fill="#9d9696" d="M 232.5,354.5 C 232.884,361.589 232.384,368.589 231,375.5C 229.587,379.748 226.754,382.415 222.5,383.5C 221.504,383.586 220.671,383.252 220,382.5C 215.891,373.643 214.391,364.309 215.5,354.5C 221.167,354.5 226.833,354.5 232.5,354.5 Z"/></g>
<g><path style="opacity:1" fill="#f7f7f7" d="M 394.5,360.5 C 406.044,359.208 410.877,364.208 409,375.5C 401.533,385.089 394.533,384.756 388,374.5C 387.209,368.417 389.376,363.75 394.5,360.5 Z"/></g>
<g><path style="opacity:1" fill="#050100" d="M 54.5,376.5 C 58.4632,380.964 62.6298,385.298 67,389.5C 71.8333,384.667 76.6667,379.833 81.5,375C 91.2495,373.415 94.4162,377.249 91,386.5C 86.5,391 82,395.5 77.5,400C 82,404.5 86.5,409 91,413.5C 94.4511,422.039 91.6177,426.206 82.5,426C 77.6228,420.787 72.4562,415.954 67,411.5C 62.3433,414.99 58.1766,418.99 54.5,423.5C 53.3172,424.504 51.9839,425.338 50.5,426C 41.9719,426.439 39.1385,422.606 42,414.5C 46.8799,409.956 51.3799,405.122 55.5,400C 51.3799,394.878 46.8799,390.044 42,385.5C 41.1251,384.127 40.6251,382.627 40.5,381C 43.2623,374.181 47.9289,372.681 54.5,376.5 Z"/></g>
<g><path style="opacity:0.901" fill="#000000" d="M 157.5,450.5 C 165.194,452.173 172.861,454.007 180.5,456C 185.823,460.714 185.823,465.38 180.5,470C 171.583,470.485 162.917,469.151 154.5,466C 148.936,459.533 149.936,454.366 157.5,450.5 Z"/></g>
<g><path style="opacity:0.903" fill="#000000" d="M 270.5,450.5 C 277.808,450.639 280.974,454.305 280,461.5C 279.535,462.931 278.701,464.097 277.5,465C 268.854,468.747 259.854,470.413 250.5,470C 245.167,465.333 245.167,460.667 250.5,456C 257.339,454.341 264.006,452.508 270.5,450.5 Z"/></g>
<g><path style="opacity:0.901" fill="#000000" d="M 203.5,458.5 C 211.507,458.334 219.507,458.5 227.5,459C 232.143,461.072 233.643,464.572 232,469.5C 231.167,471.667 229.667,473.167 227.5,474C 219.5,474.667 211.5,474.667 203.5,474C 198.465,470.987 197.298,466.82 200,461.5C 201.145,460.364 202.312,459.364 203.5,458.5 Z"/></g>
</svg>
