<?xml version="1.0" encoding="UTF-8"?>
<!DOCTYPE svg PUBLIC "-//W3C//DTD SVG 1.1//EN" "http://www.w3.org/Graphics/SVG/1.1/DTD/svg11.dtd">
<svg xmlns="http://www.w3.org/2000/svg" version="1.1" width="208px" height="208px" style="shape-rendering:geometricPrecision; text-rendering:geometricPrecision; image-rendering:optimizeQuality; fill-rule:evenodd; clip-rule:evenodd" xmlns:xlink="http://www.w3.org/1999/xlink">
<g><path style="opacity:0.004" fill="#11200a" d="M 86.5,8.5 C 84.3469,9.57292 82.3469,9.57292 80.5,8.5C 80.5,7.83333 80.5,7.16667 80.5,6.5C 81.6009,5.40168 82.9343,5.23502 84.5,6C 85.756,6.41691 86.4226,7.25025 86.5,8.5 Z"/></g>
<g><path style="opacity:0.004" fill="#fefffe" d="M 80.5,6.5 C 80.5,7.16667 80.5,7.83333 80.5,8.5C 76.5,7.83333 76.5,7.16667 80.5,6.5 Z"/></g>
<g><path style="opacity:0.004" fill="#000000" d="M 86.5,8.5 C 87.1667,8.5 87.5,8.83333 87.5,9.5C 87.1667,9.16667 86.8333,8.83333 86.5,8.5 Z"/></g>
<g><path style="opacity:0.008" fill="#535353" d="M 77.5,12.5 C 75.5,12.5 73.5,12.5 71.5,12.5C 71.5,11.5 71.5,10.5 71.5,9.5C 73.5,9.5 75.5,9.5 77.5,9.5C 77.5,10.5 77.5,11.5 77.5,12.5 Z"/></g>
<g><path style="opacity:0.008" fill="#00ff00" d="M 87.5,9.5 C 88.5,9.5 89.5,9.5 90.5,9.5C 90.5,10.5 90.5,11.5 90.5,12.5C 89.5,12.5 88.5,12.5 87.5,12.5C 87.5,11.5 87.5,10.5 87.5,9.5 Z"/></g>
<g><path style="opacity:0.008" fill="#95ff8a" d="M 71.5,12.5 C 71.5,13.5 71.5,14.5 71.5,15.5C 70.1667,15.5 68.8333,15.5 67.5,15.5C 67.5,14.5 67.5,13.5 67.5,12.5C 68.8333,12.5 70.1667,12.5 71.5,12.5 Z"/></g>
<g><path style="opacity:0.284" fill="#617265" d="M 77.5,12.5 C 80.8333,12.5 84.1667,12.5 87.5,12.5C 87.5,13.5 87.5,14.5 87.5,15.5C 85.1667,15.5 82.8333,15.5 80.5,15.5C 79.5,15.5 78.5,15.5 77.5,15.5C 77.5,14.5 77.5,13.5 77.5,12.5 Z"/></g>
<g><path style="opacity:0.008" fill="#80ff7f" d="M 90.5,12.5 C 91.5,12.5 92.5,12.5 93.5,12.5C 93.5,13.5 93.5,14.5 93.5,15.5C 92.5,15.5 91.5,15.5 90.5,15.5C 90.5,14.5 90.5,13.5 90.5,12.5 Z"/></g>
<g><path style="opacity:0.004" fill="#fefffe" d="M 93.5,12.5 C 94.5,12.5 95.5,12.5 96.5,12.5C 96.5,13.5 96.5,14.5 96.5,15.5C 95.5,15.5 94.5,15.5 93.5,15.5C 93.5,14.5 93.5,13.5 93.5,12.5 Z"/></g>
<g><path style="opacity:0.004" fill="#fe00ff" d="M 64.5,15.5 C 64.5,16.5 64.5,17.5 64.5,18.5C 63.5,18.5 62.5,18.5 61.5,18.5C 61.5,17.5 61.5,16.5 61.5,15.5C 62.5,15.5 63.5,15.5 64.5,15.5 Z"/></g>
<g><path style="opacity:0.004" fill="#4bfffe" d="M 96.5,15.5 C 98.8333,15.5 101.167,15.5 103.5,15.5C 103.5,16.5 103.5,17.5 103.5,18.5C 101.5,18.8333 99.5,19.1667 97.5,19.5C 97.5,18.8333 97.1667,18.5 96.5,18.5C 96.5,17.5 96.5,16.5 96.5,15.5 Z"/></g>
<g><path style="opacity:0.004" fill="#000000" d="M 145.5,15.5 C 147.5,15.5 149.5,15.5 151.5,15.5C 151.5,16.5 151.5,17.5 151.5,18.5C 149.5,18.5 147.5,18.5 145.5,18.5C 145.5,17.5 145.5,16.5 145.5,15.5 Z"/></g>
<g><path style="opacity:0.898" fill="#a8c8b5" d="M 80.5,15.5 C 82.8333,15.5 85.1667,15.5 87.5,15.5C 88.5,15.5 89.5,15.5 90.5,15.5C 90.5,16.5 90.5,17.5 90.5,18.5C 91.8333,18.5 93.1667,18.5 94.5,18.5C 94.5,19.5 94.5,20.5 94.5,21.5C 95.5,21.5 96.5,21.5 97.5,21.5C 98.5,21.5 99.5,21.5 100.5,21.5C 100.5,22.8333 100.5,24.1667 100.5,25.5C 99.5,25.5 98.5,25.5 97.5,25.5C 97.5,24.5 97.5,23.5 97.5,22.5C 95.1667,22.5 92.8333,22.5 90.5,22.5C 90.5,21.5 90.5,20.5 90.5,19.5C 88.5,19.5 86.5,19.5 84.5,19.5C 83.2921,18.7659 81.9587,18.4326 80.5,18.5C 80.5,17.5 80.5,16.5 80.5,15.5 Z"/></g>
<g><path style="opacity:0.062" fill="#000000" d="M 94.5,18.5 C 95.1667,18.5 95.8333,18.5 96.5,18.5C 97.1667,18.5 97.5,18.8333 97.5,19.5C 97.5,20.1667 97.5,20.8333 97.5,21.5C 96.5,21.5 95.5,21.5 94.5,21.5C 94.5,20.5 94.5,19.5 94.5,18.5 Z"/></g>
<g><path style="opacity:0.004" fill="#fe00ff" d="M 58.5,21.5 C 58.6395,19.663 59.3061,19.3296 60.5,20.5C 60.0431,21.2975 59.3764,21.6309 58.5,21.5 Z"/></g>
<g><path style="opacity:0.008" fill="#517070" d="M 103.5,18.5 C 106.216,18.3862 108.216,19.3862 109.5,21.5C 107.565,22.1495 105.565,22.4828 103.5,22.5C 103.5,21.1667 103.5,19.8333 103.5,18.5 Z"/></g>
<g><path style="opacity:0.004" fill="#000000" d="M 142.5,19.5 C 142.5,20.1667 142.5,20.8333 142.5,21.5C 142.5,21.8333 142.5,22.1667 142.5,22.5C 141.5,22.5 140.5,22.5 139.5,22.5C 139.5,21.5 139.5,20.5 139.5,19.5C 140.5,19.5 141.5,19.5 142.5,19.5 Z"/></g>
<g><path style="opacity:0.004" fill="#00fffe" d="M 142.5,19.5 C 146.5,20.1667 146.5,20.8333 142.5,21.5C 142.5,20.8333 142.5,20.1667 142.5,19.5 Z"/></g>
<g><path style="opacity:0.004" fill="#000000" d="M 158.5,21.5 C 156.396,21.7989 154.396,21.4656 152.5,20.5C 153.5,20.1667 154.5,19.8333 155.5,19.5C 157.03,19.6399 158.03,20.3065 158.5,21.5 Z"/></g>
<g><path style="opacity:0.008" fill="#fefffe" d="M 55.5,22.5 C 55.5,23.5 55.5,24.5 55.5,25.5C 55.5,26.8333 55.5,28.1667 55.5,29.5C 54.2921,28.7659 52.9587,28.4326 51.5,28.5C 51.5,27.5 51.5,26.5 51.5,25.5C 52.5,25.5 53.5,25.5 54.5,25.5C 54.2627,24.209 54.596,23.209 55.5,22.5 Z"/></g>
<g><path style="opacity:0.008" fill="#ff6aff" d="M 58.5,21.5 C 58.5,22.8333 58.5,24.1667 58.5,25.5C 58.1667,25.5 57.8333,25.5 57.5,25.5C 56.8333,25.5 56.1667,25.5 55.5,25.5C 55.5,24.5 55.5,23.5 55.5,22.5C 56.609,22.4431 57.609,22.1098 58.5,21.5 Z"/></g>
<g><path style="opacity:0.004" fill="#000000" d="M 64.5,22.5 C 64.5,23.5 64.5,24.5 64.5,25.5C 63.5,25.5 62.5,25.5 61.5,25.5C 61.5,24.5 61.5,23.5 61.5,22.5C 62.5,22.5 63.5,22.5 64.5,22.5 Z"/></g>
<g><path style="opacity:0.004" fill="#101f1f" d="M 109.5,21.5 C 111.717,22.3686 114.05,22.702 116.5,22.5C 116.5,23.5 116.5,24.5 116.5,25.5C 115.5,25.5 114.5,25.5 113.5,25.5C 112.167,25.5 110.833,25.5 109.5,25.5C 109.5,24.1667 109.5,22.8333 109.5,21.5 Z"/></g>
<g><path style="opacity:0.004" fill="#000000" d="M 136.5,22.5 C 136.5,23.5 136.5,24.5 136.5,25.5C 136.167,25.5 135.833,25.5 135.5,25.5C 134.5,25.5 133.5,25.5 132.5,25.5C 132.5,24.5 132.5,23.5 132.5,22.5C 133.833,22.5 135.167,22.5 136.5,22.5 Z"/></g>
<g><path style="opacity:0.004" fill="#00fffe" d="M 136.5,22.5 C 137.5,22.5 138.5,22.5 139.5,22.5C 140.5,22.5 141.5,22.5 142.5,22.5C 142.5,23.5 142.5,24.5 142.5,25.5C 140.5,25.5 138.5,25.5 136.5,25.5C 136.5,24.5 136.5,23.5 136.5,22.5 Z"/></g>
<g><path style="opacity:0.008" fill="#3580f2" d="M 158.5,21.5 C 159.708,22.2341 161.041,22.5674 162.5,22.5C 162.5,23.5 162.5,24.5 162.5,25.5C 161.167,25.5 159.833,25.5 158.5,25.5C 158.5,24.1667 158.5,22.8333 158.5,21.5 Z"/></g>
<g><path style="opacity:0.004" fill="#000000" d="M 162.5,22.5 C 164.048,22.8212 164.715,23.8212 164.5,25.5C 163.833,25.5 163.167,25.5 162.5,25.5C 162.5,24.5 162.5,23.5 162.5,22.5 Z"/></g>
<g><path style="opacity:1" fill="#efeadc" d="M 64.5,15.5 C 65.5,15.5 66.5,15.5 67.5,15.5C 67.5,16.5 67.5,17.5 67.5,18.5C 69.5,18.5 71.5,18.5 73.5,18.5C 73.5,17.5 73.5,16.5 73.5,15.5C 74.8333,15.5 76.1667,15.5 77.5,15.5C 78.5,15.5 79.5,15.5 80.5,15.5C 80.5,16.5 80.5,17.5 80.5,18.5C 79.5,18.5 78.5,18.5 77.5,18.5C 77.5,21.8333 77.5,25.1667 77.5,28.5C 73.1667,28.5 68.8333,28.5 64.5,28.5C 64.5,33.8333 64.5,39.1667 64.5,44.5C 66.8333,44.5 69.1667,44.5 71.5,44.5C 71.5,42.5 71.5,40.5 71.5,38.5C 73.5,38.5 75.5,38.5 77.5,38.5C 77.5,39.5 77.5,40.5 77.5,41.5C 77.5,42.5 77.5,43.5 77.5,44.5C 74.2139,45.2071 70.8806,45.5405 67.5,45.5C 67.5,46.5 67.5,47.5 67.5,48.5C 66.5,48.5 65.5,48.5 64.5,48.5C 64.5,49.5 64.5,50.5 64.5,51.5C 62.1667,51.5 59.8333,51.5 57.5,51.5C 57.5,42.8333 57.5,34.1667 57.5,25.5C 57.8333,25.5 58.1667,25.5 58.5,25.5C 59.5,25.5 60.5,25.5 61.5,25.5C 62.5,25.5 63.5,25.5 64.5,25.5C 64.5,24.5 64.5,23.5 64.5,22.5C 65.3984,21.8423 66.3984,21.1757 67.5,20.5C 66.3984,19.8243 65.3984,19.1577 64.5,18.5C 64.5,17.5 64.5,16.5 64.5,15.5 Z"/></g>
<g><path style="opacity:0.004" fill="#00fffe" d="M 113.5,25.5 C 114.5,25.5 115.5,25.5 116.5,25.5C 116.5,26.5 116.5,27.5 116.5,28.5C 115.5,28.5 114.5,28.5 113.5,28.5C 113.5,27.5 113.5,26.5 113.5,25.5 Z"/></g>
<g><path style="opacity:0.004" fill="#2b2b2b" d="M 116.5,25.5 C 118.5,25.5 120.5,25.5 122.5,25.5C 122.5,26.5 122.5,27.5 122.5,28.5C 121.5,28.5 120.5,28.5 119.5,28.5C 118.5,28.5 117.5,28.5 116.5,28.5C 116.5,27.5 116.5,26.5 116.5,25.5 Z"/></g>
<g><path style="opacity:0.004" fill="#fefffe" d="M 132.5,25.5 C 133.5,25.5 134.5,25.5 135.5,25.5C 135.5,26.5 135.5,27.5 135.5,28.5C 133.5,28.5 131.5,28.5 129.5,28.5C 129.5,27.5 129.5,26.5 129.5,25.5C 130.5,25.5 131.5,25.5 132.5,25.5 Z"/></g>
<g><path style="opacity:0.004" fill="#0000ff" d="M 162.5,25.5 C 163.167,25.5 163.833,25.5 164.5,25.5C 164.833,25.5 165.167,25.5 165.5,25.5C 165.5,26.5 165.5,27.5 165.5,28.5C 164.5,28.5 163.5,28.5 162.5,28.5C 162.5,27.5 162.5,26.5 162.5,25.5 Z"/></g>
<g><path style="opacity:0.008" fill="#00807f" d="M 165.5,25.5 C 166.5,25.5 167.5,25.5 168.5,25.5C 168.5,26.5 168.5,27.5 168.5,28.5C 167.5,28.5 166.5,28.5 165.5,28.5C 165.5,27.5 165.5,26.5 165.5,25.5 Z"/></g>
<g><path style="opacity:0.012" fill="#98ff92" d="M 51.5,28.5 C 52.9587,28.4326 54.2921,28.7659 55.5,29.5C 55.5,31.5 55.5,33.5 55.5,35.5C 54.2921,34.7659 52.9587,34.4326 51.5,34.5C 51.5,32.5 51.5,30.5 51.5,28.5 Z"/></g>
<g><path style="opacity:0.994" fill="#f2fbf7" d="M 84.5,19.5 C 86.5,19.5 88.5,19.5 90.5,19.5C 90.5,20.5 90.5,21.5 90.5,22.5C 92.8333,22.5 95.1667,22.5 97.5,22.5C 97.5,23.5 97.5,24.5 97.5,25.5C 98.5,25.5 99.5,25.5 100.5,25.5C 101.5,25.5 102.5,25.5 103.5,25.5C 103.5,26.5 103.5,27.5 103.5,28.5C 104.5,28.5 105.5,28.5 106.5,28.5C 106.5,29.8333 106.5,31.1667 106.5,32.5C 107.5,32.5 108.5,32.5 109.5,32.5C 109.5,33.5 109.5,34.5 109.5,35.5C 111.833,35.5 114.167,35.5 116.5,35.5C 116.5,36.5 116.5,37.5 116.5,38.5C 117.5,38.5 118.5,38.5 119.5,38.5C 119.5,40.5 119.5,42.5 119.5,44.5C 118.209,44.2627 117.209,44.596 116.5,45.5C 116.5,46.5 116.5,47.5 116.5,48.5C 115.5,48.5 114.5,48.5 113.5,48.5C 113.5,49.5 113.5,50.5 113.5,51.5C 112.5,51.5 111.5,51.5 110.5,51.5C 109.167,51.5 107.833,51.5 106.5,51.5C 103.5,51.5 100.5,51.5 97.5,51.5C 97.1667,49.5 96.8333,47.5 96.5,45.5C 94.5,45.1667 92.5,44.8333 90.5,44.5C 90.5,43.5 90.5,42.5 90.5,41.5C 88.5,41.5 86.5,41.5 84.5,41.5C 84.5,40.5 84.5,39.5 84.5,38.5C 84.5,32.1667 84.5,25.8333 84.5,19.5 Z"/></g>
<g><path style="opacity:0.066" fill="#000000" d="M 110.5,28.5 C 111.5,28.5 112.5,28.5 113.5,28.5C 113.5,29.5 113.5,30.5 113.5,31.5C 112.5,31.5 111.5,31.5 110.5,31.5C 110.5,30.5 110.5,29.5 110.5,28.5 Z"/></g>
<g><path style="opacity:0.004" fill="#00ff00" d="M 119.5,28.5 C 120.5,28.5 121.5,28.5 122.5,28.5C 122.833,28.5 123.167,28.5 123.5,28.5C 123.737,29.791 123.404,30.791 122.5,31.5C 121.5,31.5 120.5,31.5 119.5,31.5C 119.5,30.5 119.5,29.5 119.5,28.5 Z"/></g>
<g><path style="opacity:0.004" fill="#54bfbe" d="M 123.5,28.5 C 125.5,28.5 127.5,28.5 129.5,28.5C 129.5,29.5 129.5,30.5 129.5,31.5C 126.995,32.4171 124.662,32.4171 122.5,31.5C 123.404,30.791 123.737,29.791 123.5,28.5 Z"/></g>
<g><path style="opacity:0.012" fill="#000000" d="M 159.5,28.5 C 160.5,28.5 161.5,28.5 162.5,28.5C 162.5,29.5 162.5,30.5 162.5,31.5C 161.5,31.5 160.5,31.5 159.5,31.5C 159.5,30.5 159.5,29.5 159.5,28.5 Z"/></g>
<g><path style="opacity:0.004" fill="#00fffe" d="M 168.5,28.5 C 169.5,28.5 170.5,28.5 171.5,28.5C 171.5,29.5 171.5,30.5 171.5,31.5C 170.5,31.5 169.5,31.5 168.5,31.5C 168.5,30.5 168.5,29.5 168.5,28.5 Z"/></g>
<g><path style="opacity:1" fill="#f5f5bd" d="M 80.5,18.5 C 81.9587,18.4326 83.2921,18.7659 84.5,19.5C 84.5,25.8333 84.5,32.1667 84.5,38.5C 82.1667,38.5 79.8333,38.5 77.5,38.5C 75.5,38.5 73.5,38.5 71.5,38.5C 71.5,40.5 71.5,42.5 71.5,44.5C 69.1667,44.5 66.8333,44.5 64.5,44.5C 64.5,39.1667 64.5,33.8333 64.5,28.5C 68.8333,28.5 73.1667,28.5 77.5,28.5C 77.5,25.1667 77.5,21.8333 77.5,18.5C 78.5,18.5 79.5,18.5 80.5,18.5 Z"/></g>
<g><path style="opacity:0.997" fill="#b1f0fa" d="M 142.5,25.5 C 143.5,25.5 144.5,25.5 145.5,25.5C 145.5,34.1667 145.5,42.8333 145.5,51.5C 144.5,51.5 143.5,51.5 142.5,51.5C 142.5,49.1667 142.5,46.8333 142.5,44.5C 137.167,44.5 131.833,44.5 126.5,44.5C 125.167,44.5 123.833,44.5 122.5,44.5C 122.833,42.5 123.167,40.5 123.5,38.5C 125.176,37.8166 125.843,36.4832 125.5,34.5C 127.833,34.5 130.167,34.5 132.5,34.5C 132.5,33.5 132.5,32.5 132.5,31.5C 134.5,31.5 136.5,31.5 138.5,31.5C 138.5,30.5 138.5,29.5 138.5,28.5C 139.833,28.5 141.167,28.5 142.5,28.5C 142.5,27.5 142.5,26.5 142.5,25.5 Z"/></g>
<g><path style="opacity:0.004" fill="#1122ff" d="M 172.5,35.5 C 171.833,35.5 171.5,35.1667 171.5,34.5C 171.948,32.5354 172.948,32.2021 174.5,33.5C 173.757,34.1818 173.091,34.8485 172.5,35.5 Z"/></g>
<g><path style="opacity:0.012" fill="#8b8b8b" d="M 51.5,34.5 C 52.9587,34.4326 54.2921,34.7659 55.5,35.5C 55.7373,36.791 55.404,37.791 54.5,38.5C 53.5,38.5 52.5,38.5 51.5,38.5C 51.5,37.1667 51.5,35.8333 51.5,34.5 Z"/></g>
<g><path style="opacity:0.929" fill="#b8cfc7" d="M 103.5,25.5 C 104.833,25.5 106.167,25.5 107.5,25.5C 107.5,26.5 107.5,27.5 107.5,28.5C 108.5,28.5 109.5,28.5 110.5,28.5C 110.5,29.5 110.5,30.5 110.5,31.5C 111.5,31.5 112.5,31.5 113.5,31.5C 114.5,31.5 115.5,31.5 116.5,31.5C 116.5,32.5 116.5,33.5 116.5,34.5C 118.833,34.5 121.167,34.5 123.5,34.5C 123.5,35.8333 123.5,37.1667 123.5,38.5C 123.167,40.5 122.833,42.5 122.5,44.5C 121.5,44.5 120.5,44.5 119.5,44.5C 119.5,42.5 119.5,40.5 119.5,38.5C 118.5,38.5 117.5,38.5 116.5,38.5C 116.5,37.5 116.5,36.5 116.5,35.5C 114.167,35.5 111.833,35.5 109.5,35.5C 109.5,34.5 109.5,33.5 109.5,32.5C 108.5,32.5 107.5,32.5 106.5,32.5C 106.5,31.1667 106.5,29.8333 106.5,28.5C 105.5,28.5 104.5,28.5 103.5,28.5C 103.5,27.5 103.5,26.5 103.5,25.5 Z"/></g>
<g><path style="opacity:0.992" fill="#0afdfd" d="M 172.5,41.5 C 172.5,44.8333 172.5,48.1667 172.5,51.5C 170.167,51.5 167.833,51.5 165.5,51.5C 165.5,54.8333 165.5,58.1667 165.5,61.5C 166.5,61.5 167.5,61.5 168.5,61.5C 168.5,68.8333 168.5,76.1667 168.5,83.5C 167.5,83.5 166.5,83.5 165.5,83.5C 165.5,84.8333 165.5,86.1667 165.5,87.5C 166.5,87.5 167.5,87.5 168.5,87.5C 168.5,89.5 168.5,91.5 168.5,93.5C 169.5,93.5 170.5,93.5 171.5,93.5C 171.5,95.8333 171.5,98.1667 171.5,100.5C 172.833,100.5 174.167,100.5 175.5,100.5C 176.167,102.5 176.833,104.5 177.5,106.5C 175.5,106.5 173.5,106.5 171.5,106.5C 171.5,105.5 171.5,104.5 171.5,103.5C 169.5,103.5 167.5,103.5 165.5,103.5C 165.5,104.5 165.5,105.5 165.5,106.5C 163.167,106.5 160.833,106.5 158.5,106.5C 157.5,106.5 156.5,106.5 155.5,106.5C 155.5,105.5 155.5,104.5 155.5,103.5C 154.5,103.5 153.5,103.5 152.5,103.5C 152.5,79.8333 152.5,56.1667 152.5,32.5C 154.5,32.5 156.5,32.5 158.5,32.5C 158.5,33.5 158.5,34.5 158.5,35.5C 160.833,35.5 163.167,35.5 165.5,35.5C 165.5,36.5 165.5,37.5 165.5,38.5C 166.5,38.5 167.5,38.5 168.5,38.5C 168.5,39.5 168.5,40.5 168.5,41.5C 169.833,41.5 171.167,41.5 172.5,41.5 Z"/></g>
<g><path style="opacity:0.004" fill="#00fffe" d="M 175.5,35.5 C 177.465,35.9483 177.798,36.9483 176.5,38.5C 175.614,37.675 175.281,36.675 175.5,35.5 Z"/></g>
<g><path style="opacity:0.008" fill="#80ff7f" d="M 51.5,38.5 C 52.5,38.5 53.5,38.5 54.5,38.5C 54.5,39.5 54.5,40.5 54.5,41.5C 53.5,41.5 52.5,41.5 51.5,41.5C 51.5,40.5 51.5,39.5 51.5,38.5 Z"/></g>
<g><path style="opacity:0.008" fill="#007fff" d="M 181.5,57.5 C 180.5,57.5 179.5,57.5 178.5,57.5C 178.5,51.1667 178.5,44.8333 178.5,38.5C 179.5,38.5 180.5,38.5 181.5,38.5C 181.5,44.8333 181.5,51.1667 181.5,57.5 Z"/></g>
<g><path style="opacity:0.008" fill="#ff88ff" d="M 51.5,41.5 C 52.5,41.5 53.5,41.5 54.5,41.5C 54.5,42.5 54.5,43.5 54.5,44.5C 53.791,45.404 52.791,45.7373 51.5,45.5C 51.5,45.1667 51.5,44.8333 51.5,44.5C 51.5,43.5 51.5,42.5 51.5,41.5 Z"/></g>
<g><path style="opacity:0.02" fill="#ffdddd" d="M 54.5,44.5 C 55.4345,45.5676 55.7678,46.901 55.5,48.5C 54.1667,48.5 52.8333,48.5 51.5,48.5C 51.5,47.5 51.5,46.5 51.5,45.5C 52.791,45.7373 53.791,45.404 54.5,44.5 Z"/></g>
<g><path style="opacity:1" fill="#28dbdd" d="M 155.5,28.5 C 156.833,28.5 158.167,28.5 159.5,28.5C 159.5,29.5 159.5,30.5 159.5,31.5C 160.5,31.5 161.5,31.5 162.5,31.5C 163.5,31.5 164.5,31.5 165.5,31.5C 165.5,32.5 165.5,33.5 165.5,34.5C 167.5,34.5 169.5,34.5 171.5,34.5C 171.5,35.1667 171.833,35.5 172.5,35.5C 172.5,37.5 172.5,39.5 172.5,41.5C 171.167,41.5 169.833,41.5 168.5,41.5C 168.5,40.5 168.5,39.5 168.5,38.5C 167.5,38.5 166.5,38.5 165.5,38.5C 165.5,37.5 165.5,36.5 165.5,35.5C 163.167,35.5 160.833,35.5 158.5,35.5C 158.5,34.5 158.5,33.5 158.5,32.5C 156.5,32.5 154.5,32.5 152.5,32.5C 152.5,56.1667 152.5,79.8333 152.5,103.5C 151.5,103.5 150.5,103.5 149.5,103.5C 149.824,96.6457 149.491,89.979 148.5,83.5C 148.5,77.1667 148.5,70.8333 148.5,64.5C 148.5,52.5 148.5,40.5 148.5,28.5C 150.833,28.5 153.167,28.5 155.5,28.5 Z"/></g>
<g><path style="opacity:1" fill="#21eff2" d="M 84.5,41.5 C 86.5,41.5 88.5,41.5 90.5,41.5C 90.5,42.5 90.5,43.5 90.5,44.5C 92.5,44.8333 94.5,45.1667 96.5,45.5C 96.8333,47.5 97.1667,49.5 97.5,51.5C 100.5,51.5 103.5,51.5 106.5,51.5C 106.5,52.5 106.5,53.5 106.5,54.5C 107.5,54.5 108.5,54.5 109.5,54.5C 109.5,62.1667 109.5,69.8333 109.5,77.5C 107.5,77.5 105.5,77.5 103.5,77.5C 103.5,76.5 103.5,75.5 103.5,74.5C 102.5,74.5 101.5,74.5 100.5,74.5C 99.1667,74.5 97.8333,74.5 96.5,74.5C 96.5,73.5 96.5,72.5 96.5,71.5C 94.5,71.5 92.5,71.5 90.5,71.5C 90.5,70.1667 90.5,68.8333 90.5,67.5C 89.5,67.5 88.5,67.5 87.5,67.5C 87.5,66.5 87.5,65.5 87.5,64.5C 86.1667,64.5 84.8333,64.5 83.5,64.5C 83.1746,56.6484 83.508,48.9818 84.5,41.5 Z"/></g>
<g><path style="opacity:0.012" fill="#a9aaa9" d="M 41.5,51.5 C 41.5,52.5 41.5,53.5 41.5,54.5C 40.5,54.5 39.5,54.5 38.5,54.5C 38.5,53.5 38.5,52.5 38.5,51.5C 39.5,51.5 40.5,51.5 41.5,51.5 Z"/></g>
<g><path style="opacity:0.012" fill="#5a3759" d="M 51.5,44.5 C 51.5,44.8333 51.5,45.1667 51.5,45.5C 51.5,46.5 51.5,47.5 51.5,48.5C 50.5,48.5 49.5,48.5 48.5,48.5C 48.5,49.5 48.5,50.5 48.5,51.5C 47.5,51.5 46.5,51.5 45.5,51.5C 45.5,52.5 45.5,53.5 45.5,54.5C 43.283,55.3686 40.9496,55.702 38.5,55.5C 38.5,56.5 38.5,57.5 38.5,58.5C 37.5,58.5 36.5,58.5 35.5,58.5C 35.5,57.1667 35.5,55.8333 35.5,54.5C 36.5,54.5 37.5,54.5 38.5,54.5C 39.5,54.5 40.5,54.5 41.5,54.5C 41.5,53.5 41.5,52.5 41.5,51.5C 42.5,51.5 43.5,51.5 44.5,51.5C 44.1667,48.5 45.5,47.1667 48.5,47.5C 48.5,46.5 48.5,45.5 48.5,44.5C 49.5,44.5 50.5,44.5 51.5,44.5 Z"/></g>
<g><path style="opacity:0.004" fill="#00ff00" d="M 35.5,54.5 C 35.5,55.8333 35.5,57.1667 35.5,58.5C 35.1667,58.5 34.8333,58.5 34.5,58.5C 34.1583,57.6618 33.4916,57.3284 32.5,57.5C 32.5,56.5 32.5,55.5 32.5,54.5C 33.5,54.5 34.5,54.5 35.5,54.5 Z"/></g>
<g><path style="opacity:0.998" fill="#b99cd4" d="M 77.5,44.5 C 77.5,51.1667 77.5,57.8333 77.5,64.5C 76.5,64.5 75.5,64.5 74.5,64.5C 73.1667,64.5 71.8333,64.5 70.5,64.5C 70.5,63.5 70.5,62.5 70.5,61.5C 71.8333,61.5 73.1667,61.5 74.5,61.5C 74.5,60.5 74.5,59.5 74.5,58.5C 70.1667,58.5 65.8333,58.5 61.5,58.5C 61.5,57.5 61.5,56.5 61.5,55.5C 58.342,56.8758 55.0087,57.5424 51.5,57.5C 51.5,58.8333 51.5,60.1667 51.5,61.5C 50.5,61.5 49.5,61.5 48.5,61.5C 48.5,62.5 48.5,63.5 48.5,64.5C 46.1667,64.5 43.8333,64.5 41.5,64.5C 41.5,65.5 41.5,66.5 41.5,67.5C 40.5,67.5 39.5,67.5 38.5,67.5C 38.5,68.8333 38.5,70.1667 38.5,71.5C 33.6836,70.9926 29.3503,71.9926 25.5,74.5C 25.5,75.5 25.5,76.5 25.5,77.5C 22.1667,77.5 18.8333,77.5 15.5,77.5C 15.5,76.1667 15.5,74.8333 15.5,73.5C 17.1788,73.7148 18.1788,73.0481 18.5,71.5C 18.5,70.8333 18.8333,70.5 19.5,70.5C 21.5,70.5 23.5,70.5 25.5,70.5C 25.5,69.5 25.5,68.5 25.5,67.5C 27.5,67.5 29.5,67.5 31.5,67.5C 31.5,66.5 31.5,65.5 31.5,64.5C 32.5,64.5 33.5,64.5 34.5,64.5C 34.5,63.1667 34.5,61.8333 34.5,60.5C 36.8333,60.5 39.1667,60.5 41.5,60.5C 41.5,59.5 41.5,58.5 41.5,57.5C 42.8333,57.5 44.1667,57.5 45.5,57.5C 45.5,56.5 45.5,55.5 45.5,54.5C 47.5,54.5 49.5,54.5 51.5,54.5C 51.5,53.5 51.5,52.5 51.5,51.5C 53.5,51.5 55.5,51.5 57.5,51.5C 59.8333,51.5 62.1667,51.5 64.5,51.5C 64.5,50.5 64.5,49.5 64.5,48.5C 65.5,48.5 66.5,48.5 67.5,48.5C 67.5,47.5 67.5,46.5 67.5,45.5C 70.8806,45.5405 74.2139,45.2071 77.5,44.5 Z"/></g>
<g><path style="opacity:1" fill="#6b88a3" d="M 77.5,41.5 C 78.5,41.5 79.5,41.5 80.5,41.5C 80.5,49.1667 80.5,56.8333 80.5,64.5C 79.5,64.5 78.5,64.5 77.5,64.5C 77.5,57.8333 77.5,51.1667 77.5,44.5C 77.5,43.5 77.5,42.5 77.5,41.5 Z"/></g>
<g><path style="opacity:0.016" fill="#0a0e42" d="M 172.5,51.5 C 173.5,51.5 174.5,51.5 175.5,51.5C 175.5,55.8333 175.5,60.1667 175.5,64.5C 174.5,64.5 173.5,64.5 172.5,64.5C 172.5,60.1667 172.5,55.8333 172.5,51.5 Z"/></g>
<g><path style="opacity:1" fill="#64b8c9" d="M 77.5,38.5 C 79.8333,38.5 82.1667,38.5 84.5,38.5C 84.5,39.5 84.5,40.5 84.5,41.5C 83.508,48.9818 83.1746,56.6484 83.5,64.5C 82.5,64.5 81.5,64.5 80.5,64.5C 80.5,56.8333 80.5,49.1667 80.5,41.5C 79.5,41.5 78.5,41.5 77.5,41.5C 77.5,40.5 77.5,39.5 77.5,38.5 Z"/></g>
<g><path style="opacity:0.008" fill="#00807f" d="M 178.5,57.5 C 179.5,57.5 180.5,57.5 181.5,57.5C 181.5,61.8333 181.5,66.1667 181.5,70.5C 180.5,70.5 179.5,70.5 178.5,70.5C 178.5,66.1667 178.5,61.8333 178.5,57.5 Z"/></g>
<g><path style="opacity:0.996" fill="#9181b8" d="M 74.5,64.5 C 74.5,65.5 74.5,66.5 74.5,67.5C 73.1667,67.5 71.8333,67.5 70.5,67.5C 70.5,68.5 70.5,69.5 70.5,70.5C 68.2646,70.2053 66.2646,70.5386 64.5,71.5C 63.5,71.5 62.5,71.5 61.5,71.5C 61.5,72.5 61.5,73.5 61.5,74.5C 58.1667,74.5 54.8333,74.5 51.5,74.5C 51.5,75.5 51.5,76.5 51.5,77.5C 49.5,77.5 47.5,77.5 45.5,77.5C 45.5,76.5 45.5,75.5 45.5,74.5C 38.8333,74.5 32.1667,74.5 25.5,74.5C 29.3503,71.9926 33.6836,70.9926 38.5,71.5C 38.5,70.1667 38.5,68.8333 38.5,67.5C 39.5,67.5 40.5,67.5 41.5,67.5C 41.5,66.5 41.5,65.5 41.5,64.5C 43.8333,64.5 46.1667,64.5 48.5,64.5C 48.5,63.5 48.5,62.5 48.5,61.5C 49.5,61.5 50.5,61.5 51.5,61.5C 51.5,60.1667 51.5,58.8333 51.5,57.5C 55.0087,57.5424 58.342,56.8758 61.5,55.5C 61.5,56.5 61.5,57.5 61.5,58.5C 65.8333,58.5 70.1667,58.5 74.5,58.5C 74.5,59.5 74.5,60.5 74.5,61.5C 73.1667,61.5 71.8333,61.5 70.5,61.5C 70.5,62.5 70.5,63.5 70.5,64.5C 71.8333,64.5 73.1667,64.5 74.5,64.5 Z"/></g>
<g><path style="opacity:1" fill="#7fdfed" d="M 145.5,25.5 C 148.833,25.5 152.167,25.5 155.5,25.5C 155.5,26.5 155.5,27.5 155.5,28.5C 153.167,28.5 150.833,28.5 148.5,28.5C 148.5,40.5 148.5,52.5 148.5,64.5C 146.5,64.5 144.5,64.5 142.5,64.5C 142.5,63.5 142.5,62.5 142.5,61.5C 141.5,61.5 140.5,61.5 139.5,61.5C 139.5,59.1667 139.5,56.8333 139.5,54.5C 138.5,54.5 137.5,54.5 136.5,54.5C 136.5,53.5 136.5,52.5 136.5,51.5C 135.167,51.5 133.833,51.5 132.5,51.5C 132.5,50.5 132.5,49.5 132.5,48.5C 131.5,48.5 130.5,48.5 129.5,48.5C 129.5,47.5 129.5,46.5 129.5,45.5C 128.209,45.7373 127.209,45.404 126.5,44.5C 131.833,44.5 137.167,44.5 142.5,44.5C 142.5,46.8333 142.5,49.1667 142.5,51.5C 143.5,51.5 144.5,51.5 145.5,51.5C 145.5,42.8333 145.5,34.1667 145.5,25.5 Z"/></g>
<g><path style="opacity:0.016" fill="#715b7d" d="M 32.5,57.5 C 33.4916,57.3284 34.1583,57.6618 34.5,58.5C 34.5,59.1667 34.5,59.8333 34.5,60.5C 32.8828,61.038 31.2161,61.3713 29.5,61.5C 29.5,62.5 29.5,63.5 29.5,64.5C 27.1667,64.5 24.8333,64.5 22.5,64.5C 22.5,63.5 22.5,62.5 22.5,61.5C 24.5,61.1667 26.5,60.8333 28.5,60.5C 28.5,59.5 28.5,58.5 28.5,57.5C 29.8333,57.5 31.1667,57.5 32.5,57.5 Z"/></g>
<g><path style="opacity:1" fill="#043639" d="M 116.5,45.5 C 118.5,45.5 120.5,45.5 122.5,45.5C 122.5,47.5 122.5,49.5 122.5,51.5C 123.833,51.5 125.167,51.5 126.5,51.5C 126.5,52.5 126.5,53.5 126.5,54.5C 126.5,62.1667 126.5,69.8333 126.5,77.5C 127.5,77.5 128.5,77.5 129.5,77.5C 129.5,80.8333 129.5,84.1667 129.5,87.5C 128.5,87.5 127.5,87.5 126.5,87.5C 126.5,86.5 126.5,85.5 126.5,84.5C 124.167,84.5 121.833,84.5 119.5,84.5C 118.791,83.596 117.791,83.2627 116.5,83.5C 116.5,82.5 116.5,81.5 116.5,80.5C 115.5,80.5 114.5,80.5 113.5,80.5C 113.5,79.5 113.5,78.5 113.5,77.5C 112.5,77.5 111.5,77.5 110.5,77.5C 110.5,68.8333 110.5,60.1667 110.5,51.5C 111.5,51.5 112.5,51.5 113.5,51.5C 113.5,50.5 113.5,49.5 113.5,48.5C 114.5,48.5 115.5,48.5 116.5,48.5C 116.5,47.5 116.5,46.5 116.5,45.5 Z"/></g>
<g><path style="opacity:0.02" fill="#bebebe" d="M 22.5,64.5 C 22.5,65.8333 22.5,67.1667 22.5,68.5C 21.5,68.5 20.5,68.5 19.5,68.5C 18.4324,67.5655 17.099,67.2322 15.5,67.5C 15.5,66.5 15.5,65.5 15.5,64.5C 17.8333,64.5 20.1667,64.5 22.5,64.5 Z"/></g>
<g><path style="opacity:1" fill="#2485a0" d="M 116.5,45.5 C 117.209,44.596 118.209,44.2627 119.5,44.5C 120.5,44.5 121.5,44.5 122.5,44.5C 123.833,44.5 125.167,44.5 126.5,44.5C 127.209,45.404 128.209,45.7373 129.5,45.5C 129.5,46.5 129.5,47.5 129.5,48.5C 130.5,48.5 131.5,48.5 132.5,48.5C 132.5,49.5 132.5,50.5 132.5,51.5C 132.5,52.5 132.5,53.5 132.5,54.5C 133.5,54.5 134.5,54.5 135.5,54.5C 136.014,59.8378 136.681,65.1711 137.5,70.5C 139.111,71.3202 139.778,72.6536 139.5,74.5C 137.887,74.0557 136.72,73.0557 136,71.5C 135.503,69.1902 135.337,66.8568 135.5,64.5C 134.5,64.5 133.5,64.5 132.5,64.5C 132.5,62.1667 132.5,59.8333 132.5,57.5C 131.5,57.5 130.5,57.5 129.5,57.5C 129.5,56.5 129.5,55.5 129.5,54.5C 128.5,54.5 127.5,54.5 126.5,54.5C 126.5,53.5 126.5,52.5 126.5,51.5C 125.167,51.5 123.833,51.5 122.5,51.5C 122.5,49.5 122.5,47.5 122.5,45.5C 120.5,45.5 118.5,45.5 116.5,45.5 Z"/></g>
<g><path style="opacity:0.004" fill="#fe00ff" d="M 15.5,67.5 C 15.5,68.5 15.5,69.5 15.5,70.5C 14.5,70.5 13.5,70.5 12.5,70.5C 12.5,69.5 12.5,68.5 12.5,67.5C 13.5,67.5 14.5,67.5 15.5,67.5 Z"/></g>
<g><path style="opacity:0.006" fill="#000000" d="M 15.5,67.5 C 17.099,67.2322 18.4324,67.5655 19.5,68.5C 19.5,69.1667 19.5,69.8333 19.5,70.5C 18.8333,70.5 18.5,70.8333 18.5,71.5C 17.209,71.7373 16.209,71.404 15.5,70.5C 15.5,69.5 15.5,68.5 15.5,67.5 Z"/></g>
<g><path style="opacity:0.004" fill="#000000" d="M 178.5,70.5 C 179.5,70.5 180.5,70.5 181.5,70.5C 181.5,75.1667 181.5,79.8333 181.5,84.5C 180.5,84.5 179.5,84.5 178.5,84.5C 178.5,79.8333 178.5,75.1667 178.5,70.5 Z"/></g>
<g><path style="opacity:0.004" fill="#000000" d="M 9.5,71.5 C 10.675,71.281 11.675,71.6143 12.5,72.5C 10.9483,73.7979 9.94835,73.4646 9.5,71.5 Z"/></g>
<g><path style="opacity:0.051" fill="#0da0c4" d="M 172.5,64.5 C 173.5,64.5 174.5,64.5 175.5,64.5C 175.5,72.1667 175.5,79.8333 175.5,87.5C 174.5,87.5 173.5,87.5 172.5,87.5C 172.5,79.8333 172.5,72.1667 172.5,64.5 Z"/></g>
<g><path style="opacity:1" fill="#2e3978" d="M 77.5,64.5 C 78.5,64.5 79.5,64.5 80.5,64.5C 81.5,64.5 82.5,64.5 83.5,64.5C 84.8333,64.5 86.1667,64.5 87.5,64.5C 87.5,65.5 87.5,66.5 87.5,67.5C 86.5,67.5 85.5,67.5 84.5,67.5C 84.5,72.8333 84.5,78.1667 84.5,83.5C 84.5,86.8333 84.5,90.1667 84.5,93.5C 84.1667,93.5 83.8333,93.5 83.5,93.5C 82.5,93.5 81.5,93.5 80.5,93.5C 80.5,90.5 80.5,87.5 80.5,84.5C 79.5,84.5 78.5,84.5 77.5,84.5C 77.5,77.8333 77.5,71.1667 77.5,64.5 Z"/></g>
<g><path style="opacity:1" fill="#033738" d="M 87.5,67.5 C 88.5,67.5 89.5,67.5 90.5,67.5C 90.5,68.8333 90.5,70.1667 90.5,71.5C 92.5,71.5 94.5,71.5 96.5,71.5C 96.5,72.5 96.5,73.5 96.5,74.5C 97.8333,74.5 99.1667,74.5 100.5,74.5C 100.5,75.5 100.5,76.5 100.5,77.5C 98.1667,77.5 95.8333,77.5 93.5,77.5C 93.5,78.5 93.5,79.5 93.5,80.5C 92.5,80.5 91.5,80.5 90.5,80.5C 90.5,81.5 90.5,82.5 90.5,83.5C 88.5,83.5 86.5,83.5 84.5,83.5C 84.5,78.1667 84.5,72.8333 84.5,67.5C 85.5,67.5 86.5,67.5 87.5,67.5 Z"/></g>
<g><path style="opacity:1" fill="#45b3cd" d="M 132.5,51.5 C 133.833,51.5 135.167,51.5 136.5,51.5C 136.5,52.5 136.5,53.5 136.5,54.5C 137.5,54.5 138.5,54.5 139.5,54.5C 139.5,56.8333 139.5,59.1667 139.5,61.5C 140.5,61.5 141.5,61.5 142.5,61.5C 142.5,62.5 142.5,63.5 142.5,64.5C 144.5,64.5 146.5,64.5 148.5,64.5C 148.5,70.8333 148.5,77.1667 148.5,83.5C 147.5,83.5 146.5,83.5 145.5,83.5C 145.5,82.5 145.5,81.5 145.5,80.5C 144.5,80.5 143.5,80.5 142.5,80.5C 142.5,79.5 142.5,78.5 142.5,77.5C 141.5,77.5 140.5,77.5 139.5,77.5C 139.5,76.5 139.5,75.5 139.5,74.5C 139.778,72.6536 139.111,71.3202 137.5,70.5C 136.681,65.1711 136.014,59.8378 135.5,54.5C 134.5,54.5 133.5,54.5 132.5,54.5C 132.5,53.5 132.5,52.5 132.5,51.5 Z"/></g>
<g><path style="opacity:0.004" fill="#000000" d="M 8.5,90.5 C 7.83333,90.5 7.16667,90.5 6.5,90.5C 7.16667,73.1667 7.83333,73.1667 8.5,90.5 Z"/></g>
<g><path style="opacity:1" fill="#016d74" d="M 106.5,51.5 C 107.833,51.5 109.167,51.5 110.5,51.5C 110.5,60.1667 110.5,68.8333 110.5,77.5C 111.5,77.5 112.5,77.5 113.5,77.5C 113.5,78.5 113.5,79.5 113.5,80.5C 110.167,80.5 106.833,80.5 103.5,80.5C 101.167,80.5 98.8333,80.5 96.5,80.5C 96.5,81.8333 96.5,83.1667 96.5,84.5C 94.5,84.5 92.5,84.5 90.5,84.5C 90.5,85.5 90.5,86.5 90.5,87.5C 89.5,87.5 88.5,87.5 87.5,87.5C 87.5,89.5 87.5,91.5 87.5,93.5C 86.5,93.5 85.5,93.5 84.5,93.5C 84.5,90.1667 84.5,86.8333 84.5,83.5C 86.5,83.5 88.5,83.5 90.5,83.5C 90.5,82.5 90.5,81.5 90.5,80.5C 91.5,80.5 92.5,80.5 93.5,80.5C 93.5,79.5 93.5,78.5 93.5,77.5C 95.8333,77.5 98.1667,77.5 100.5,77.5C 100.5,76.5 100.5,75.5 100.5,74.5C 101.5,74.5 102.5,74.5 103.5,74.5C 103.5,75.5 103.5,76.5 103.5,77.5C 105.5,77.5 107.5,77.5 109.5,77.5C 109.5,69.8333 109.5,62.1667 109.5,54.5C 108.5,54.5 107.5,54.5 106.5,54.5C 106.5,53.5 106.5,52.5 106.5,51.5 Z"/></g>
<g><path style="opacity:1" fill="#043147" d="M 126.5,54.5 C 127.5,54.5 128.5,54.5 129.5,54.5C 129.5,55.5 129.5,56.5 129.5,57.5C 130.5,57.5 131.5,57.5 132.5,57.5C 132.5,59.8333 132.5,62.1667 132.5,64.5C 132.5,68.8333 132.5,73.1667 132.5,77.5C 133.5,77.5 134.5,77.5 135.5,77.5C 135.5,78.5 135.5,79.5 135.5,80.5C 136.5,80.5 137.5,80.5 138.5,80.5C 138.5,81.5 138.5,82.5 138.5,83.5C 137.5,83.5 136.5,83.5 135.5,83.5C 135.5,84.8333 135.5,86.1667 135.5,87.5C 136.833,87.5 138.167,87.5 139.5,87.5C 139.5,88.5 139.5,89.5 139.5,90.5C 140.5,90.5 141.5,90.5 142.5,90.5C 142.5,91.5 142.5,92.5 142.5,93.5C 141.5,93.5 140.5,93.5 139.5,93.5C 138.5,93.5 137.5,93.5 136.5,93.5C 136.5,92.5 136.5,91.5 136.5,90.5C 135.167,90.5 133.833,90.5 132.5,90.5C 132.5,89.5 132.5,88.5 132.5,87.5C 131.5,87.5 130.5,87.5 129.5,87.5C 129.5,84.1667 129.5,80.8333 129.5,77.5C 128.5,77.5 127.5,77.5 126.5,77.5C 126.5,69.8333 126.5,62.1667 126.5,54.5 Z"/></g>
<g><path style="opacity:0.999" fill="#526693" d="M 64.5,71.5 C 64.5,76.8333 64.5,82.1667 64.5,87.5C 63.5,87.5 62.5,87.5 61.5,87.5C 61.5,84.1667 61.5,80.8333 61.5,77.5C 59.1667,77.5 56.8333,77.5 54.5,77.5C 54.5,78.5 54.5,79.5 54.5,80.5C 53.5,80.5 52.5,80.5 51.5,80.5C 51.5,81.5 51.5,82.5 51.5,83.5C 49.5,83.8333 47.5,84.1667 45.5,84.5C 45.5,85.5 45.5,86.5 45.5,87.5C 43.1667,87.5 40.8333,87.5 38.5,87.5C 38.5,88.5 38.5,89.5 38.5,90.5C 36.1667,90.5 33.8333,90.5 31.5,90.5C 31.5,91.5 31.5,92.5 31.5,93.5C 30.5,93.5 29.5,93.5 28.5,93.5C 28.5,94.5 28.5,95.5 28.5,96.5C 26.5,96.8333 24.5,97.1667 22.5,97.5C 22.5,98.5 22.5,99.5 22.5,100.5C 20.1667,100.5 17.8333,100.5 15.5,100.5C 15.5,102.5 15.5,104.5 15.5,106.5C 14.5,106.5 13.5,106.5 12.5,106.5C 12.5,96.8333 12.5,87.1667 12.5,77.5C 13.5,77.5 14.5,77.5 15.5,77.5C 18.8333,77.5 22.1667,77.5 25.5,77.5C 25.5,76.5 25.5,75.5 25.5,74.5C 32.1667,74.5 38.8333,74.5 45.5,74.5C 45.5,75.5 45.5,76.5 45.5,77.5C 47.5,77.5 49.5,77.5 51.5,77.5C 51.5,76.5 51.5,75.5 51.5,74.5C 54.8333,74.5 58.1667,74.5 61.5,74.5C 61.5,73.5 61.5,72.5 61.5,71.5C 62.5,71.5 63.5,71.5 64.5,71.5 Z"/></g>
<g><path style="opacity:0.004" fill="#1a35ff" d="M 178.5,84.5 C 179.5,84.5 180.5,84.5 181.5,84.5C 181.5,85.1667 181.5,85.8333 181.5,86.5C 180.5,87.8333 179.5,87.8333 178.5,86.5C 178.5,85.8333 178.5,85.1667 178.5,84.5 Z"/></g>
<g><path style="opacity:0.043" fill="#002f5f" d="M 172.5,87.5 C 173.5,87.5 174.5,87.5 175.5,87.5C 175.5,88.5 175.5,89.5 175.5,90.5C 174.5,90.5 173.5,90.5 172.5,90.5C 172.5,89.5 172.5,88.5 172.5,87.5 Z"/></g>
<g><path style="opacity:0.016" fill="#54b7bc" d="M 178.5,86.5 C 179.5,87.8333 180.5,87.8333 181.5,86.5C 182.552,86.3505 183.552,86.5172 184.5,87C 184.974,88.7286 185.974,89.8953 187.5,90.5C 187.5,91.5 187.5,92.5 187.5,93.5C 186.5,93.5 185.5,93.5 184.5,93.5C 184.5,92.5 184.5,91.5 184.5,90.5C 182.5,90.5 180.5,90.5 178.5,90.5C 178.5,91.5 178.5,92.5 178.5,93.5C 179.5,93.5 180.5,93.5 181.5,93.5C 181.5,94.5 181.5,95.5 181.5,96.5C 179.5,96.5 177.5,96.5 175.5,96.5C 175.5,94.5 175.5,92.5 175.5,90.5C 176.978,89.5525 177.978,88.2191 178.5,86.5 Z"/></g>
<g><path style="opacity:0.004" fill="#0000ff" d="M 6.5,90.5 C 7.16667,90.5 7.83333,90.5 8.5,90.5C 8.5,91.5 8.5,92.5 8.5,93.5C 7.83333,93.5 7.16667,93.5 6.5,93.5C 6.5,92.5 6.5,91.5 6.5,90.5 Z"/></g>
<g><path style="opacity:0.999" fill="#0fd4ef" d="M 61.5,87.5 C 61.5,92.8333 61.5,98.1667 61.5,103.5C 60.1667,103.5 58.8333,103.5 57.5,103.5C 57.5,104.5 57.5,105.5 57.5,106.5C 56.5,106.5 55.5,106.5 54.5,106.5C 54.5,107.5 54.5,108.5 54.5,109.5C 53.5,109.5 52.5,109.5 51.5,109.5C 51.5,110.833 51.5,112.167 51.5,113.5C 48.1667,113.5 44.8333,113.5 41.5,113.5C 41.5,112.167 41.5,110.833 41.5,109.5C 39.5,109.5 37.5,109.5 35.5,109.5C 35.5,108.5 35.5,107.5 35.5,106.5C 36.5,106.5 37.5,106.5 38.5,106.5C 38.5,105.5 38.5,104.5 38.5,103.5C 39.5,103.5 40.5,103.5 41.5,103.5C 41.5,102.5 41.5,101.5 41.5,100.5C 40.5,100.5 39.5,100.5 38.5,100.5C 38.5,98.1667 38.5,95.8333 38.5,93.5C 34.7996,94.2161 31.4662,95.5494 28.5,97.5C 28.5,98.5 28.5,99.5 28.5,100.5C 26.5,100.5 24.5,100.5 22.5,100.5C 22.5,99.5 22.5,98.5 22.5,97.5C 24.5,97.1667 26.5,96.8333 28.5,96.5C 28.5,95.5 28.5,94.5 28.5,93.5C 29.5,93.5 30.5,93.5 31.5,93.5C 31.5,92.5 31.5,91.5 31.5,90.5C 33.8333,90.5 36.1667,90.5 38.5,90.5C 38.5,89.5 38.5,88.5 38.5,87.5C 40.8333,87.5 43.1667,87.5 45.5,87.5C 45.5,86.5 45.5,85.5 45.5,84.5C 47.5,84.1667 49.5,83.8333 51.5,83.5C 51.5,82.5 51.5,81.5 51.5,80.5C 52.5,80.5 53.5,80.5 54.5,80.5C 54.5,79.5 54.5,78.5 54.5,77.5C 56.8333,77.5 59.1667,77.5 61.5,77.5C 61.5,80.8333 61.5,84.1667 61.5,87.5 Z"/></g>
<g><path style="opacity:1" fill="#056b74" d="M 119.5,84.5 C 121.833,84.5 124.167,84.5 126.5,84.5C 126.5,85.5 126.5,86.5 126.5,87.5C 127.5,87.5 128.5,87.5 129.5,87.5C 130.5,87.5 131.5,87.5 132.5,87.5C 132.5,88.5 132.5,89.5 132.5,90.5C 133.833,90.5 135.167,90.5 136.5,90.5C 136.5,91.5 136.5,92.5 136.5,93.5C 137.5,93.5 138.5,93.5 139.5,93.5C 141.99,95.8139 144.99,97.1473 148.5,97.5C 148.5,100.5 148.5,103.5 148.5,106.5C 147.5,106.5 146.5,106.5 145.5,106.5C 145.5,105.5 145.5,104.5 145.5,103.5C 144.5,103.5 143.5,103.5 142.5,103.5C 142.5,102.5 142.5,101.5 142.5,100.5C 140.167,100.5 137.833,100.5 135.5,100.5C 135.5,99.5 135.5,98.5 135.5,97.5C 133.5,97.5 131.5,97.5 129.5,97.5C 129.5,102.5 129.5,107.5 129.5,112.5C 132.211,112.815 134.544,112.148 136.5,110.5C 136.5,111.5 136.5,112.5 136.5,113.5C 134.167,113.5 131.833,113.5 129.5,113.5C 129.5,115.5 129.5,117.5 129.5,119.5C 130.5,119.5 131.5,119.5 132.5,119.5C 132.5,120.5 132.5,121.5 132.5,122.5C 135.059,122.198 137.393,122.532 139.5,123.5C 139.5,124.5 139.5,125.5 139.5,126.5C 138.167,126.5 136.833,126.5 135.5,126.5C 135.5,125.5 135.5,124.5 135.5,123.5C 132.5,123.5 129.5,123.5 126.5,123.5C 126.5,122.167 126.5,120.833 126.5,119.5C 125.5,119.5 124.5,119.5 123.5,119.5C 123.5,118.5 123.5,117.5 123.5,116.5C 124.5,116.5 125.5,116.5 126.5,116.5C 126.5,108.833 126.5,101.167 126.5,93.5C 124.167,93.5 121.833,93.5 119.5,93.5C 119.5,92.5 119.5,91.5 119.5,90.5C 120.5,90.5 121.5,90.5 122.5,90.5C 122.5,89.5 122.5,88.5 122.5,87.5C 121.5,87.5 120.5,87.5 119.5,87.5C 119.5,86.5 119.5,85.5 119.5,84.5 Z"/></g>
<g><path style="opacity:1" fill="#074a6b" d="M 132.5,64.5 C 133.5,64.5 134.5,64.5 135.5,64.5C 135.337,66.8568 135.503,69.1902 136,71.5C 136.72,73.0557 137.887,74.0557 139.5,74.5C 139.5,75.5 139.5,76.5 139.5,77.5C 140.5,77.5 141.5,77.5 142.5,77.5C 142.5,78.5 142.5,79.5 142.5,80.5C 143.5,80.5 144.5,80.5 145.5,80.5C 145.5,81.5 145.5,82.5 145.5,83.5C 146.5,83.5 147.5,83.5 148.5,83.5C 148.5,88.1667 148.5,92.8333 148.5,97.5C 144.99,97.1473 141.99,95.8139 139.5,93.5C 140.5,93.5 141.5,93.5 142.5,93.5C 142.5,92.5 142.5,91.5 142.5,90.5C 141.5,90.5 140.5,90.5 139.5,90.5C 139.5,89.5 139.5,88.5 139.5,87.5C 138.167,87.5 136.833,87.5 135.5,87.5C 135.5,86.1667 135.5,84.8333 135.5,83.5C 136.5,83.5 137.5,83.5 138.5,83.5C 138.5,82.5 138.5,81.5 138.5,80.5C 137.5,80.5 136.5,80.5 135.5,80.5C 135.5,79.5 135.5,78.5 135.5,77.5C 134.5,77.5 133.5,77.5 132.5,77.5C 132.5,73.1667 132.5,68.8333 132.5,64.5 Z"/></g>
<g><path style="opacity:0.004" fill="#0000ff" d="M 188.5,90.5 C 190.048,90.8212 190.715,91.8212 190.5,93.5C 188.952,93.1788 188.285,92.1788 188.5,90.5 Z"/></g>
<g><path style="opacity:0.005" fill="#0e0218" d="M 6.5,93.5 C 7.16667,93.5 7.83333,93.5 8.5,93.5C 9.20713,96.7861 9.54046,100.119 9.5,103.5C 8.16667,103.5 6.83333,103.5 5.5,103.5C 5.45954,100.119 5.79287,96.7861 6.5,93.5 Z"/></g>
<g><path style="opacity:0.012" fill="#249ed8" d="M 187.5,90.5 C 187.833,90.5 188.167,90.5 188.5,90.5C 188.285,92.1788 188.952,93.1788 190.5,93.5C 191.833,93.5 193.167,93.5 194.5,93.5C 194.5,94.8333 194.5,96.1667 194.5,97.5C 192.5,97.5 190.5,97.5 188.5,97.5C 188.5,96.8333 188.167,96.5 187.5,96.5C 186.9,95.1001 185.9,94.1001 184.5,93.5C 185.5,93.5 186.5,93.5 187.5,93.5C 187.5,92.5 187.5,91.5 187.5,90.5 Z"/></g>
<g><path style="opacity:1" fill="#049bb8" d="M 103.5,80.5 C 106.833,80.5 110.167,80.5 113.5,80.5C 114.5,80.5 115.5,80.5 116.5,80.5C 116.5,81.5 116.5,82.5 116.5,83.5C 117.791,83.2627 118.791,83.596 119.5,84.5C 119.5,85.5 119.5,86.5 119.5,87.5C 120.5,87.5 121.5,87.5 122.5,87.5C 122.5,88.5 122.5,89.5 122.5,90.5C 121.5,90.5 120.5,90.5 119.5,90.5C 119.5,91.5 119.5,92.5 119.5,93.5C 117.5,93.5 115.5,93.5 113.5,93.5C 113.5,94.5 113.5,95.5 113.5,96.5C 112.5,96.5 111.5,96.5 110.5,96.5C 110.768,98.099 110.434,99.4324 109.5,100.5C 106.5,100.5 103.5,100.5 100.5,100.5C 100.5,97.1667 100.5,93.8333 100.5,90.5C 101.5,90.5 102.5,90.5 103.5,90.5C 103.5,87.1667 103.5,83.8333 103.5,80.5 Z"/></g>
<g><path style="opacity:1" fill="#012f3e" d="M 145.5,106.5 C 143.5,106.5 141.5,106.5 139.5,106.5C 139.5,107.833 139.5,109.167 139.5,110.5C 138.5,110.5 137.5,110.5 136.5,110.5C 134.544,112.148 132.211,112.815 129.5,112.5C 129.5,107.5 129.5,102.5 129.5,97.5C 131.5,97.5 133.5,97.5 135.5,97.5C 135.5,98.5 135.5,99.5 135.5,100.5C 137.833,100.5 140.167,100.5 142.5,100.5C 142.5,101.5 142.5,102.5 142.5,103.5C 143.5,103.5 144.5,103.5 145.5,103.5C 145.5,104.5 145.5,105.5 145.5,106.5 Z"/></g>
<g><path style="opacity:0.004" fill="#000000" d="M 194.5,97.5 C 195.675,97.281 196.675,97.6143 197.5,98.5C 195.948,99.7979 194.948,99.4646 194.5,97.5 Z"/></g>
<g><path style="opacity:1" fill="#1bddf5" d="M 41.5,113.5 C 41.5,114.5 41.5,115.5 41.5,116.5C 40.5,116.5 39.5,116.5 38.5,116.5C 36.5,116.5 34.5,116.5 32.5,116.5C 32.5,117.5 32.5,118.5 32.5,119.5C 31.1667,119.5 29.8333,119.5 28.5,119.5C 28.5,118.5 28.5,117.5 28.5,116.5C 29.5,116.5 30.5,116.5 31.5,116.5C 31.5,115.5 31.5,114.5 31.5,113.5C 29.5,113.5 27.5,113.5 25.5,113.5C 25.5,114.5 25.5,115.5 25.5,116.5C 24.5,116.5 23.5,116.5 22.5,116.5C 21.5,116.5 20.5,116.5 19.5,116.5C 19.5,115.167 19.5,113.833 19.5,112.5C 21.604,112.799 23.604,112.466 25.5,111.5C 24.3112,110.571 22.9778,110.238 21.5,110.5C 21.5,109.5 21.5,108.5 21.5,107.5C 20.5,107.5 19.5,107.5 18.5,107.5C 17.209,107.737 16.209,107.404 15.5,106.5C 15.5,104.5 15.5,102.5 15.5,100.5C 17.8333,100.5 20.1667,100.5 22.5,100.5C 24.5,100.5 26.5,100.5 28.5,100.5C 28.5,99.5 28.5,98.5 28.5,97.5C 31.4662,95.5494 34.7996,94.2161 38.5,93.5C 38.5,95.8333 38.5,98.1667 38.5,100.5C 39.5,100.5 40.5,100.5 41.5,100.5C 41.5,101.5 41.5,102.5 41.5,103.5C 40.5,103.5 39.5,103.5 38.5,103.5C 38.5,104.5 38.5,105.5 38.5,106.5C 37.5,106.5 36.5,106.5 35.5,106.5C 35.5,107.5 35.5,108.5 35.5,109.5C 37.5,109.5 39.5,109.5 41.5,109.5C 41.5,110.833 41.5,112.167 41.5,113.5 Z M 28.5,116.5 C 27.5,116.5 26.5,116.5 25.5,116.5C 25.5,115.5 25.5,114.5 25.5,113.5C 27.5,113.5 29.5,113.5 31.5,113.5C 31.5,114.5 31.5,115.5 31.5,116.5C 30.5,116.5 29.5,116.5 28.5,116.5 Z"/></g>
<g><path style="opacity:0.985" fill="#17f5f8" d="M 172.5,51.5 C 172.5,55.8333 172.5,60.1667 172.5,64.5C 172.5,72.1667 172.5,79.8333 172.5,87.5C 172.5,88.5 172.5,89.5 172.5,90.5C 173.5,90.5 174.5,90.5 175.5,90.5C 175.5,92.5 175.5,94.5 175.5,96.5C 177.5,96.5 179.5,96.5 181.5,96.5C 183.5,96.5 185.5,96.5 187.5,96.5C 188.167,96.5 188.5,96.8333 188.5,97.5C 189.1,98.8999 190.1,99.8999 191.5,100.5C 191.5,101.5 191.5,102.5 191.5,103.5C 191.5,110.833 191.5,118.167 191.5,125.5C 190.5,125.5 189.5,125.5 188.5,125.5C 188.5,124.5 188.5,123.5 188.5,122.5C 186.167,122.5 183.833,122.5 181.5,122.5C 181.5,121.5 181.5,120.5 181.5,119.5C 179.167,119.5 176.833,119.5 174.5,119.5C 174.5,118.5 174.5,117.5 174.5,116.5C 173.5,116.5 172.5,116.5 171.5,116.5C 171.5,115.5 171.5,114.5 171.5,113.5C 169.5,113.5 167.5,113.5 165.5,113.5C 165.5,112.5 165.5,111.5 165.5,110.5C 163.139,110.326 160.806,109.993 158.5,109.5C 158.5,108.5 158.5,107.5 158.5,106.5C 160.833,106.5 163.167,106.5 165.5,106.5C 165.5,105.5 165.5,104.5 165.5,103.5C 167.5,103.5 169.5,103.5 171.5,103.5C 171.5,104.5 171.5,105.5 171.5,106.5C 173.5,106.5 175.5,106.5 177.5,106.5C 176.833,104.5 176.167,102.5 175.5,100.5C 174.167,100.5 172.833,100.5 171.5,100.5C 171.5,98.1667 171.5,95.8333 171.5,93.5C 170.5,93.5 169.5,93.5 168.5,93.5C 168.5,91.5 168.5,89.5 168.5,87.5C 167.5,87.5 166.5,87.5 165.5,87.5C 165.5,86.1667 165.5,84.8333 165.5,83.5C 166.5,83.5 167.5,83.5 168.5,83.5C 168.5,76.1667 168.5,68.8333 168.5,61.5C 167.5,61.5 166.5,61.5 165.5,61.5C 165.5,58.1667 165.5,54.8333 165.5,51.5C 167.833,51.5 170.167,51.5 172.5,51.5 Z"/></g>
<g><path style="opacity:0.012" fill="#000000" d="M 191.5,100.5 C 192.5,100.5 193.5,100.5 194.5,100.5C 194.5,101.5 194.5,102.5 194.5,103.5C 193.5,103.5 192.5,103.5 191.5,103.5C 191.5,102.5 191.5,101.5 191.5,100.5 Z"/></g>
<g><path style="opacity:0.004" fill="#0000ed" d="M 200.5,112.5 C 200.5,113.833 200.5,115.167 200.5,116.5C 199.5,116.5 198.5,116.5 197.5,116.5C 197.5,112.167 197.5,107.833 197.5,103.5C 198.5,103.5 199.5,103.5 200.5,103.5C 200.5,106.5 200.5,109.5 200.5,112.5 Z"/></g>
<g><path style="opacity:0.004" fill="#000000" d="M 12.5,106.5 C 12.5,107.5 12.5,108.5 12.5,109.5C 11.5,109.5 10.5,109.5 9.5,109.5C 9.5,108.5 9.5,107.5 9.5,106.5C 10.5,106.5 11.5,106.5 12.5,106.5 Z"/></g>
<g><path style="opacity:1" fill="#260f2d" d="M 77.5,84.5 C 78.5,84.5 79.5,84.5 80.5,84.5C 80.5,87.5 80.5,90.5 80.5,93.5C 80.5,101.167 80.5,108.833 80.5,116.5C 80.5,118.833 80.5,121.167 80.5,123.5C 79.5,123.5 78.5,123.5 77.5,123.5C 77.5,110.5 77.5,97.5 77.5,84.5 Z"/></g>
<g><path style="opacity:1" fill="#159da9" d="M 119.5,93.5 C 121.833,93.5 124.167,93.5 126.5,93.5C 126.5,101.167 126.5,108.833 126.5,116.5C 125.5,116.5 124.5,116.5 123.5,116.5C 123.5,117.5 123.5,118.5 123.5,119.5C 122.167,119.5 120.833,119.5 119.5,119.5C 119.5,120.5 119.5,121.5 119.5,122.5C 118.5,122.5 117.5,122.5 116.5,122.5C 112.167,122.5 107.833,122.5 103.5,122.5C 103.5,117.167 103.5,111.833 103.5,106.5C 105.5,106.5 107.5,106.5 109.5,106.5C 109.5,104.5 109.5,102.5 109.5,100.5C 110.434,99.4324 110.768,98.099 110.5,96.5C 111.5,96.5 112.5,96.5 113.5,96.5C 113.5,95.5 113.5,94.5 113.5,93.5C 115.5,93.5 117.5,93.5 119.5,93.5 Z"/></g>
<g><path style="opacity:1" fill="#07969b" d="M 103.5,80.5 C 103.5,83.8333 103.5,87.1667 103.5,90.5C 102.5,90.5 101.5,90.5 100.5,90.5C 100.5,93.8333 100.5,97.1667 100.5,100.5C 103.5,100.5 106.5,100.5 109.5,100.5C 109.5,102.5 109.5,104.5 109.5,106.5C 107.5,106.5 105.5,106.5 103.5,106.5C 103.5,111.833 103.5,117.167 103.5,122.5C 103.5,123.5 103.5,124.5 103.5,125.5C 100.364,126.021 98.0304,125.021 96.5,122.5C 97.8333,122.5 99.1667,122.5 100.5,122.5C 100.5,118.167 100.5,113.833 100.5,109.5C 97.1933,110.051 93.8599,110.384 90.5,110.5C 90.5,106.167 90.5,101.833 90.5,97.5C 88.5,97.5 86.5,97.5 84.5,97.5C 84.5,102.833 84.5,108.167 84.5,113.5C 84.1667,113.5 83.8333,113.5 83.5,113.5C 83.5,106.833 83.5,100.167 83.5,93.5C 83.8333,93.5 84.1667,93.5 84.5,93.5C 85.5,93.5 86.5,93.5 87.5,93.5C 87.5,91.5 87.5,89.5 87.5,87.5C 88.5,87.5 89.5,87.5 90.5,87.5C 90.5,86.5 90.5,85.5 90.5,84.5C 92.5,84.5 94.5,84.5 96.5,84.5C 96.5,83.1667 96.5,81.8333 96.5,80.5C 98.8333,80.5 101.167,80.5 103.5,80.5 Z"/></g>
<g><path style="opacity:0.008" fill="#000080" d="M 12.5,110.5 C 16.5,111.167 16.5,111.833 12.5,112.5C 12.5,111.833 12.5,111.167 12.5,110.5 Z"/></g>
<g><path style="opacity:0.012" fill="#117776" d="M 18.5,107.5 C 19.5,107.5 20.5,107.5 21.5,107.5C 21.5,108.5 21.5,109.5 21.5,110.5C 20.1667,110.5 19.5,111.167 19.5,112.5C 19.5,113.833 19.5,115.167 19.5,116.5C 18.596,115.791 18.2627,114.791 18.5,113.5C 16.2646,113.795 14.2646,113.461 12.5,112.5C 16.5,111.833 16.5,111.167 12.5,110.5C 12.5,110.167 12.5,109.833 12.5,109.5C 15.0821,109.975 17.0821,109.308 18.5,107.5 Z"/></g>
<g><path style="opacity:1" fill="#045e7f" d="M 61.5,103.5 C 61.5,105.833 61.5,108.167 61.5,110.5C 59.1667,110.5 56.8333,110.5 54.5,110.5C 54.5,111.5 54.5,112.5 54.5,113.5C 53.5,113.5 52.5,113.5 51.5,113.5C 51.5,112.167 51.5,110.833 51.5,109.5C 52.5,109.5 53.5,109.5 54.5,109.5C 54.5,108.5 54.5,107.5 54.5,106.5C 55.5,106.5 56.5,106.5 57.5,106.5C 57.5,105.5 57.5,104.5 57.5,103.5C 58.8333,103.5 60.1667,103.5 61.5,103.5 Z"/></g>
<g><path style="opacity:1" fill="#566b85" d="M 80.5,93.5 C 81.5,93.5 82.5,93.5 83.5,93.5C 83.5,100.167 83.5,106.833 83.5,113.5C 83.5,114.5 83.5,115.5 83.5,116.5C 82.5,116.5 81.5,116.5 80.5,116.5C 80.5,108.833 80.5,101.167 80.5,93.5 Z"/></g>
<g><path style="opacity:1" fill="#09161c" d="M 74.5,64.5 C 75.5,64.5 76.5,64.5 77.5,64.5C 77.5,71.1667 77.5,77.8333 77.5,84.5C 77.5,97.5 77.5,110.5 77.5,123.5C 78.5,123.5 79.5,123.5 80.5,123.5C 80.5,121.167 80.5,118.833 80.5,116.5C 81.5,116.5 82.5,116.5 83.5,116.5C 83.5,124.167 83.5,131.833 83.5,139.5C 82.5,139.5 81.5,139.5 80.5,139.5C 80.5,140.5 80.5,141.5 80.5,142.5C 79.5,142.5 78.5,142.5 77.5,142.5C 77.5,139.167 77.5,135.833 77.5,132.5C 76.1667,132.5 74.8333,132.5 73.5,132.5C 72.8826,128.578 72.2159,128.578 71.5,132.5C 70.7904,135.799 70.4571,139.133 70.5,142.5C 67.5,142.5 64.5,142.5 61.5,142.5C 61.5,137.167 61.5,131.833 61.5,126.5C 60.1667,126.5 58.8333,126.5 57.5,126.5C 57.5,125.5 57.5,124.5 57.5,123.5C 55.5,123.5 53.5,123.5 51.5,123.5C 51.5,122.167 51.5,120.833 51.5,119.5C 49.5,119.5 47.5,119.5 45.5,119.5C 45.5,118.5 45.5,117.5 45.5,116.5C 47.5,116.5 49.5,116.5 51.5,116.5C 51.5,115.5 51.5,114.5 51.5,113.5C 52.5,113.5 53.5,113.5 54.5,113.5C 54.5,112.5 54.5,111.5 54.5,110.5C 56.8333,110.5 59.1667,110.5 61.5,110.5C 61.5,108.167 61.5,105.833 61.5,103.5C 61.5,98.1667 61.5,92.8333 61.5,87.5C 62.5,87.5 63.5,87.5 64.5,87.5C 64.5,82.1667 64.5,76.8333 64.5,71.5C 66.2646,70.5386 68.2646,70.2053 70.5,70.5C 70.5,69.5 70.5,68.5 70.5,67.5C 71.8333,67.5 73.1667,67.5 74.5,67.5C 74.5,66.5 74.5,65.5 74.5,64.5 Z"/></g>
<g><path style="opacity:1" fill="#042112" d="M 71.5,71.5 C 72.5,71.5 73.5,71.5 74.5,71.5C 74.7257,78.8761 74.3924,86.2094 73.5,93.5C 71.5328,93.2606 69.6995,93.5939 68,94.5C 67.5004,87.8417 67.3337,81.175 67.5,74.5C 68.8333,74.5 70.1667,74.5 71.5,74.5C 71.5,73.5 71.5,72.5 71.5,71.5 Z"/></g>
<g><path style="opacity:0.004" fill="#000000" d="M 22.5,116.5 C 23.5,116.5 24.5,116.5 25.5,116.5C 25.5,117.5 25.5,118.5 25.5,119.5C 24.5,119.5 23.5,119.5 22.5,119.5C 22.5,118.5 22.5,117.5 22.5,116.5 Z"/></g>
<g><path style="opacity:1" fill="#0789a4" d="M 148.5,83.5 C 149.491,89.979 149.824,96.6457 149.5,103.5C 150.5,103.5 151.5,103.5 152.5,103.5C 153.5,103.5 154.5,103.5 155.5,103.5C 155.5,104.5 155.5,105.5 155.5,106.5C 156.5,106.5 157.5,106.5 158.5,106.5C 158.5,107.5 158.5,108.5 158.5,109.5C 160.806,109.993 163.139,110.326 165.5,110.5C 165.5,111.5 165.5,112.5 165.5,113.5C 164.5,113.5 163.5,113.5 162.5,113.5C 162.5,114.5 162.5,115.5 162.5,116.5C 160.167,116.5 157.833,116.5 155.5,116.5C 155.5,118.5 155.5,120.5 155.5,122.5C 154.167,122.5 152.833,122.5 151.5,122.5C 151.5,123.833 151.5,125.167 151.5,126.5C 148.5,126.5 145.5,126.5 142.5,126.5C 141.5,126.5 140.5,126.5 139.5,126.5C 139.5,125.5 139.5,124.5 139.5,123.5C 142.336,124.776 145.336,125.442 148.5,125.5C 148.5,122.5 148.5,119.5 148.5,116.5C 147.5,116.5 146.5,116.5 145.5,116.5C 145.5,114.5 145.5,112.5 145.5,110.5C 143.5,110.5 141.5,110.5 139.5,110.5C 139.5,109.167 139.5,107.833 139.5,106.5C 141.5,106.5 143.5,106.5 145.5,106.5C 146.5,106.5 147.5,106.5 148.5,106.5C 148.5,103.5 148.5,100.5 148.5,97.5C 148.5,92.8333 148.5,88.1667 148.5,83.5 Z"/></g>
<g><path style="opacity:0.008" fill="#167979" d="M 200.5,112.5 C 201.479,115.625 201.813,118.958 201.5,122.5C 199.859,123.147 198.526,124.147 197.5,125.5C 197.5,122.5 197.5,119.5 197.5,116.5C 198.5,116.5 199.5,116.5 200.5,116.5C 200.5,115.167 200.5,113.833 200.5,112.5 Z"/></g>
<g><path style="opacity:0.281" fill="#04c2d5" d="M 191.5,103.5 C 192.5,103.5 193.5,103.5 194.5,103.5C 194.5,112.167 194.5,120.833 194.5,129.5C 193.5,129.5 192.5,129.5 191.5,129.5C 190.5,129.5 189.5,129.5 188.5,129.5C 188.5,128.5 188.5,127.5 188.5,126.5C 187.167,126.5 185.833,126.5 184.5,126.5C 184.5,125.5 184.5,124.5 184.5,123.5C 183.209,123.737 182.209,123.404 181.5,122.5C 183.833,122.5 186.167,122.5 188.5,122.5C 188.5,123.5 188.5,124.5 188.5,125.5C 189.5,125.5 190.5,125.5 191.5,125.5C 191.5,118.167 191.5,110.833 191.5,103.5 Z"/></g>
<g><path style="opacity:0.016" fill="#1a8ba8" d="M 25.5,116.5 C 26.5,116.5 27.5,116.5 28.5,116.5C 28.5,117.5 28.5,118.5 28.5,119.5C 29.8333,119.5 31.1667,119.5 32.5,119.5C 33.1667,119.5 33.8333,119.5 34.5,119.5C 34.4729,121.199 33.8062,122.533 32.5,123.5C 32.1667,123.5 31.8333,123.5 31.5,123.5C 30.5,123.5 29.5,123.5 28.5,123.5C 28.5,122.5 28.5,121.5 28.5,120.5C 27.209,120.737 26.209,120.404 25.5,119.5C 25.5,118.5 25.5,117.5 25.5,116.5 Z"/></g>
<g><path style="opacity:1" fill="#07a69b" d="M 96.5,122.5 C 95.5,122.5 94.5,122.5 93.5,122.5C 93.5,121.5 93.5,120.5 93.5,119.5C 91.5,119.5 89.5,119.5 87.5,119.5C 86.5,119.5 85.5,119.5 84.5,119.5C 84.5,117.5 84.5,115.5 84.5,113.5C 84.5,108.167 84.5,102.833 84.5,97.5C 86.5,97.5 88.5,97.5 90.5,97.5C 90.5,101.833 90.5,106.167 90.5,110.5C 93.8599,110.384 97.1933,110.051 100.5,109.5C 100.5,113.833 100.5,118.167 100.5,122.5C 99.1667,122.5 97.8333,122.5 96.5,122.5 Z"/></g>
<g><path style="opacity:1" fill="#07a7bf" d="M 136.5,110.5 C 137.5,110.5 138.5,110.5 139.5,110.5C 141.5,110.5 143.5,110.5 145.5,110.5C 145.5,112.5 145.5,114.5 145.5,116.5C 146.5,116.5 147.5,116.5 148.5,116.5C 148.5,119.5 148.5,122.5 148.5,125.5C 145.336,125.442 142.336,124.776 139.5,123.5C 137.393,122.532 135.059,122.198 132.5,122.5C 132.5,121.5 132.5,120.5 132.5,119.5C 131.5,119.5 130.5,119.5 129.5,119.5C 129.5,117.5 129.5,115.5 129.5,113.5C 131.833,113.5 134.167,113.5 136.5,113.5C 136.5,112.5 136.5,111.5 136.5,110.5 Z"/></g>
<g><path style="opacity:0.008" fill="#00009e" d="M 28.5,123.5 C 29.5,123.5 30.5,123.5 31.5,123.5C 31.1788,125.048 30.1788,125.715 28.5,125.5C 28.5,124.833 28.5,124.167 28.5,123.5 Z"/></g>
<g><path style="opacity:0.006" fill="#000000" d="M 31.5,123.5 C 31.8333,123.5 32.1667,123.5 32.5,123.5C 32.8283,135.345 32.4949,147.012 31.5,158.5C 31.5,156.5 31.5,154.5 31.5,152.5C 30.5,152.5 29.5,152.5 28.5,152.5C 28.5,150.167 28.5,147.833 28.5,145.5C 29.5,145.5 30.5,145.5 31.5,145.5C 31.5,143.5 31.5,141.5 31.5,139.5C 30.5,139.5 29.5,139.5 28.5,139.5C 28.5,134.833 28.5,130.167 28.5,125.5C 30.1788,125.715 31.1788,125.048 31.5,123.5 Z"/></g>
<g><path style="opacity:0.012" fill="#3fffbe" d="M 34.5,119.5 C 35.404,120.209 35.7373,121.209 35.5,122.5C 36.5,122.5 37.5,122.5 38.5,122.5C 38.5,123.833 38.5,125.167 38.5,126.5C 37.5,126.5 36.5,126.5 35.5,126.5C 35.5,125.5 35.5,124.5 35.5,123.5C 34.5,123.5 33.5,123.5 32.5,123.5C 33.8062,122.533 34.4729,121.199 34.5,119.5 Z"/></g>
<g><path style="opacity:0.008" fill="#225aef" d="M 201.5,122.5 C 201.768,124.099 201.434,125.432 200.5,126.5C 199.5,126.5 198.5,126.5 197.5,126.5C 197.5,126.167 197.5,125.833 197.5,125.5C 198.526,124.147 199.859,123.147 201.5,122.5 Z"/></g>
<g><path style="opacity:1" fill="#3b8472" d="M 87.5,119.5 C 89.5,119.5 91.5,119.5 93.5,119.5C 93.5,120.5 93.5,121.5 93.5,122.5C 94.5,122.5 95.5,122.5 96.5,122.5C 98.0304,125.021 100.364,126.021 103.5,125.5C 103.5,124.5 103.5,123.5 103.5,122.5C 107.833,122.5 112.167,122.5 116.5,122.5C 116.5,122.833 116.5,123.167 116.5,123.5C 116.5,124.5 116.5,125.5 116.5,126.5C 114.5,126.5 112.5,126.5 110.5,126.5C 110.5,127.5 110.5,128.5 110.5,129.5C 108.167,129.5 105.833,129.5 103.5,129.5C 101.5,129.5 99.5,129.5 97.5,129.5C 97.67,128.178 97.3366,127.011 96.5,126C 93.8005,124.031 90.8005,122.864 87.5,122.5C 87.5,121.5 87.5,120.5 87.5,119.5 Z"/></g>
<g><path style="opacity:1" fill="#164836" d="M 83.5,113.5 C 83.8333,113.5 84.1667,113.5 84.5,113.5C 84.5,115.5 84.5,117.5 84.5,119.5C 85.5,119.5 86.5,119.5 87.5,119.5C 87.5,120.5 87.5,121.5 87.5,122.5C 90.8005,122.864 93.8005,124.031 96.5,126C 97.3366,127.011 97.67,128.178 97.5,129.5C 96.1667,129.5 94.8333,129.5 93.5,129.5C 93.5,130.5 93.5,131.5 93.5,132.5C 92.5,132.5 91.5,132.5 90.5,132.5C 90.5,133.5 90.5,134.5 90.5,135.5C 88.5,135.833 86.5,136.167 84.5,136.5C 84.5,138.5 84.5,140.5 84.5,142.5C 83.1667,142.5 81.8333,142.5 80.5,142.5C 80.5,141.5 80.5,140.5 80.5,139.5C 81.5,139.5 82.5,139.5 83.5,139.5C 83.5,131.833 83.5,124.167 83.5,116.5C 83.5,115.5 83.5,114.5 83.5,113.5 Z"/></g>
<g><path style="opacity:0.004" fill="#000000" d="M 197.5,126.5 C 198.5,126.5 199.5,126.5 200.5,126.5C 200.5,127.5 200.5,128.5 200.5,129.5C 199.5,129.5 198.5,129.5 197.5,129.5C 197.5,128.5 197.5,127.5 197.5,126.5 Z"/></g>
<g><path style="opacity:1" fill="#112616" d="M 77.5,142.5 C 77.5,143.5 77.5,144.5 77.5,145.5C 76.5,145.5 75.5,145.5 74.5,145.5C 74.5,146.5 74.5,147.5 74.5,148.5C 72.7354,149.461 70.7354,149.795 68.5,149.5C 68.5,150.5 68.5,151.5 68.5,152.5C 67.1667,152.5 65.8333,152.5 64.5,152.5C 63.5,152.5 62.5,152.5 61.5,152.5C 61.5,151.5 61.5,150.5 61.5,149.5C 62.5,149.5 63.5,149.5 64.5,149.5C 64.5,148.167 64.5,146.833 64.5,145.5C 63.5,145.5 62.5,145.5 61.5,145.5C 61.5,144.5 61.5,143.5 61.5,142.5C 64.5,142.5 67.5,142.5 70.5,142.5C 70.4571,139.133 70.7904,135.799 71.5,132.5C 72.2159,128.578 72.8826,128.578 73.5,132.5C 74.8333,132.5 76.1667,132.5 77.5,132.5C 77.5,135.833 77.5,139.167 77.5,142.5 Z"/></g>
<g><path style="opacity:0.992" fill="#04637c" d="M 165.5,113.5 C 167.5,113.5 169.5,113.5 171.5,113.5C 171.5,114.5 171.5,115.5 171.5,116.5C 172.5,116.5 173.5,116.5 174.5,116.5C 174.5,117.5 174.5,118.5 174.5,119.5C 176.833,119.5 179.167,119.5 181.5,119.5C 181.5,120.5 181.5,121.5 181.5,122.5C 182.209,123.404 183.209,123.737 184.5,123.5C 184.5,124.5 184.5,125.5 184.5,126.5C 184.5,128.5 184.5,130.5 184.5,132.5C 182.5,132.833 180.5,133.167 178.5,133.5C 178.5,134.5 178.5,135.5 178.5,136.5C 176.167,136.5 173.833,136.5 171.5,136.5C 171.5,138.5 171.5,140.5 171.5,142.5C 170.5,142.5 169.5,142.5 168.5,142.5C 168.5,143.833 168.5,145.167 168.5,146.5C 166.5,146.5 164.5,146.5 162.5,146.5C 162.5,147.5 162.5,148.5 162.5,149.5C 160.167,149.5 157.833,149.5 155.5,149.5C 155.5,150.5 155.5,151.5 155.5,152.5C 154.5,152.5 153.5,152.5 152.5,152.5C 151.5,152.5 150.5,152.5 149.5,152.5C 149.813,148.958 149.479,145.625 148.5,142.5C 148.5,140.167 148.5,137.833 148.5,135.5C 147.5,135.5 146.5,135.5 145.5,135.5C 145.5,133.5 145.5,131.5 145.5,129.5C 144.5,129.5 143.5,129.5 142.5,129.5C 142.5,128.5 142.5,127.5 142.5,126.5C 145.5,126.5 148.5,126.5 151.5,126.5C 151.5,125.167 151.5,123.833 151.5,122.5C 152.833,122.5 154.167,122.5 155.5,122.5C 155.5,120.5 155.5,118.5 155.5,116.5C 157.833,116.5 160.167,116.5 162.5,116.5C 162.5,115.5 162.5,114.5 162.5,113.5C 163.5,113.5 164.5,113.5 165.5,113.5 Z"/></g>
<g><path style="opacity:0.004" fill="#000000" d="M 194.5,135.5 C 194.5,134.5 194.5,133.5 194.5,132.5C 195.5,132.5 196.5,132.5 197.5,132.5C 197.5,133.5 197.5,134.5 197.5,135.5C 196.5,135.5 195.5,135.5 194.5,135.5 Z"/></g>
<g><path style="opacity:1" fill="#192d2d" d="M 116.5,123.5 C 118.5,123.5 120.5,123.5 122.5,123.5C 122.5,126.5 122.5,129.5 122.5,132.5C 120.5,132.833 118.5,133.167 116.5,133.5C 116.5,135.5 116.5,137.5 116.5,139.5C 110.167,139.5 103.833,139.5 97.5,139.5C 97.5,138.5 97.5,137.5 97.5,136.5C 98.791,136.737 99.791,136.404 100.5,135.5C 100.5,134.5 100.5,133.5 100.5,132.5C 101.5,132.5 102.5,132.5 103.5,132.5C 103.5,131.5 103.5,130.5 103.5,129.5C 105.833,129.5 108.167,129.5 110.5,129.5C 110.5,128.5 110.5,127.5 110.5,126.5C 112.5,126.5 114.5,126.5 116.5,126.5C 116.5,125.5 116.5,124.5 116.5,123.5 Z"/></g>
<g><path style="opacity:0.271" fill="#083d5b" d="M 184.5,126.5 C 185.833,126.5 187.167,126.5 188.5,126.5C 188.5,127.5 188.5,128.5 188.5,129.5C 189.5,129.5 190.5,129.5 191.5,129.5C 191.5,130.833 191.5,132.167 191.5,133.5C 189.5,133.5 187.5,133.5 185.5,133.5C 185.5,134.5 185.5,135.5 185.5,136.5C 184.167,136.5 182.833,136.5 181.5,136.5C 181.5,137.5 181.5,138.5 181.5,139.5C 179.5,139.5 177.5,139.5 175.5,139.5C 175.5,140.5 175.5,141.5 175.5,142.5C 174.167,142.5 172.833,142.5 171.5,142.5C 171.5,140.5 171.5,138.5 171.5,136.5C 173.833,136.5 176.167,136.5 178.5,136.5C 178.5,135.5 178.5,134.5 178.5,133.5C 180.5,133.167 182.5,132.833 184.5,132.5C 184.5,130.5 184.5,128.5 184.5,126.5 Z"/></g>
<g><path style="opacity:0.993" fill="#0c7695" d="M 41.5,113.5 C 44.8333,113.5 48.1667,113.5 51.5,113.5C 51.5,114.5 51.5,115.5 51.5,116.5C 49.5,116.5 47.5,116.5 45.5,116.5C 45.5,117.5 45.5,118.5 45.5,119.5C 47.5,119.5 49.5,119.5 51.5,119.5C 51.5,120.833 51.5,122.167 51.5,123.5C 53.5,123.5 55.5,123.5 57.5,123.5C 57.5,124.5 57.5,125.5 57.5,126.5C 57.5,129.5 57.5,132.5 57.5,135.5C 56.5,135.5 55.5,135.5 54.5,135.5C 54.5,136.833 54.5,138.167 54.5,139.5C 51.0921,140.172 48.4255,139.172 46.5,136.5C 45.5027,143.803 45.1694,151.137 45.5,158.5C 44.1667,158.5 42.8333,158.5 41.5,158.5C 41.5,145.5 41.5,132.5 41.5,119.5C 40.5,119.5 39.5,119.5 38.5,119.5C 38.5,118.5 38.5,117.5 38.5,116.5C 39.5,116.5 40.5,116.5 41.5,116.5C 41.5,115.5 41.5,114.5 41.5,113.5 Z"/></g>
<g><path style="opacity:1" fill="#53712f" d="M 97.5,129.5 C 99.5,129.5 101.5,129.5 103.5,129.5C 103.5,130.5 103.5,131.5 103.5,132.5C 102.5,132.5 101.5,132.5 100.5,132.5C 100.5,133.5 100.5,134.5 100.5,135.5C 98.139,135.674 95.8056,136.007 93.5,136.5C 93.5,137.5 93.5,138.5 93.5,139.5C 92.5,139.5 91.5,139.5 90.5,139.5C 90.5,140.5 90.5,141.5 90.5,142.5C 96.8333,142.5 103.167,142.5 109.5,142.5C 109.5,143.5 109.5,144.5 109.5,145.5C 98.8333,145.5 88.1667,145.5 77.5,145.5C 77.5,144.5 77.5,143.5 77.5,142.5C 78.5,142.5 79.5,142.5 80.5,142.5C 81.8333,142.5 83.1667,142.5 84.5,142.5C 84.5,140.5 84.5,138.5 84.5,136.5C 86.5,136.167 88.5,135.833 90.5,135.5C 90.5,134.5 90.5,133.5 90.5,132.5C 91.5,132.5 92.5,132.5 93.5,132.5C 93.5,131.5 93.5,130.5 93.5,129.5C 94.8333,129.5 96.1667,129.5 97.5,129.5 Z"/></g>
<g><path style="opacity:0.009" fill="#080d14" d="M 194.5,135.5 C 194.5,136.833 194.5,138.167 194.5,139.5C 192.5,139.5 190.5,139.5 188.5,139.5C 188.5,140.5 188.5,141.5 188.5,142.5C 187.167,142.5 185.833,142.5 184.5,142.5C 184.5,143.5 184.5,144.5 184.5,145.5C 183.5,145.5 182.5,145.5 181.5,145.5C 181.5,144.5 181.5,143.5 181.5,142.5C 181.5,141.5 181.5,140.5 181.5,139.5C 183.5,139.167 185.5,138.833 187.5,138.5C 187.5,137.5 187.5,136.5 187.5,135.5C 189.833,135.5 192.167,135.5 194.5,135.5 Z"/></g>
<g><path style="opacity:1" fill="#174230" d="M 123.5,119.5 C 124.5,119.5 125.5,119.5 126.5,119.5C 126.5,120.833 126.5,122.167 126.5,123.5C 129.5,123.5 132.5,123.5 135.5,123.5C 135.5,124.5 135.5,125.5 135.5,126.5C 136.833,126.5 138.167,126.5 139.5,126.5C 140.5,126.5 141.5,126.5 142.5,126.5C 142.5,127.5 142.5,128.5 142.5,129.5C 143.5,129.5 144.5,129.5 145.5,129.5C 145.5,131.5 145.5,133.5 145.5,135.5C 140.167,135.5 134.833,135.5 129.5,135.5C 129.5,136.833 129.5,138.167 129.5,139.5C 128.5,139.5 127.5,139.5 126.5,139.5C 126.5,140.5 126.5,141.5 126.5,142.5C 120.833,142.5 115.167,142.5 109.5,142.5C 103.167,142.5 96.8333,142.5 90.5,142.5C 90.5,141.5 90.5,140.5 90.5,139.5C 91.5,139.5 92.5,139.5 93.5,139.5C 93.5,138.5 93.5,137.5 93.5,136.5C 95.8056,136.007 98.139,135.674 100.5,135.5C 99.791,136.404 98.791,136.737 97.5,136.5C 97.5,137.5 97.5,138.5 97.5,139.5C 103.833,139.5 110.167,139.5 116.5,139.5C 116.5,137.5 116.5,135.5 116.5,133.5C 118.5,133.167 120.5,132.833 122.5,132.5C 122.5,129.5 122.5,126.5 122.5,123.5C 120.5,123.5 118.5,123.5 116.5,123.5C 116.5,123.167 116.5,122.833 116.5,122.5C 117.5,122.5 118.5,122.5 119.5,122.5C 119.5,121.5 119.5,120.5 119.5,119.5C 120.833,119.5 122.167,119.5 123.5,119.5 Z"/></g>
<g><path style="opacity:1" fill="#32804f" d="M 145.5,135.5 C 146.5,135.5 147.5,135.5 148.5,135.5C 148.5,137.833 148.5,140.167 148.5,142.5C 147.5,142.5 146.5,142.5 145.5,142.5C 145.5,141.5 145.5,140.5 145.5,139.5C 143.5,139.5 141.5,139.5 139.5,139.5C 139.5,138.5 139.5,137.5 139.5,136.5C 137.167,136.5 134.833,136.5 132.5,136.5C 132.5,137.5 132.5,138.5 132.5,139.5C 131.5,139.5 130.5,139.5 129.5,139.5C 129.5,138.167 129.5,136.833 129.5,135.5C 134.833,135.5 140.167,135.5 145.5,135.5 Z"/></g>
<g><path style="opacity:0.008" fill="#00009e" d="M 28.5,139.5 C 29.5,139.5 30.5,139.5 31.5,139.5C 31.5,141.5 31.5,143.5 31.5,145.5C 30.5,145.5 29.5,145.5 28.5,145.5C 28.5,143.5 28.5,141.5 28.5,139.5 Z"/></g>
<g><path style="opacity:1" fill="#86d589" d="M 145.5,142.5 C 142.5,142.5 139.5,142.5 136.5,142.5C 136.5,141.5 136.5,140.5 136.5,139.5C 135.167,139.5 133.833,139.5 132.5,139.5C 132.5,138.5 132.5,137.5 132.5,136.5C 134.833,136.5 137.167,136.5 139.5,136.5C 139.5,137.5 139.5,138.5 139.5,139.5C 141.5,139.5 143.5,139.5 145.5,139.5C 145.5,140.5 145.5,141.5 145.5,142.5 Z"/></g>
<g><path style="opacity:0.996" fill="#f7fbf5" d="M 129.5,139.5 C 130.5,139.5 131.5,139.5 132.5,139.5C 133.833,139.5 135.167,139.5 136.5,139.5C 136.5,140.5 136.5,141.5 136.5,142.5C 139.5,142.5 142.5,142.5 145.5,142.5C 145.5,153.167 145.5,163.833 145.5,174.5C 144.5,174.5 143.5,174.5 142.5,174.5C 140.5,174.5 138.5,174.5 136.5,174.5C 136.5,173.5 136.5,172.5 136.5,171.5C 135.167,171.5 133.833,171.5 132.5,171.5C 132.5,170.5 132.5,169.5 132.5,168.5C 130.5,168.5 128.5,168.5 126.5,168.5C 126.5,167.5 126.5,166.5 126.5,165.5C 124.167,165.5 121.833,165.5 119.5,165.5C 119.5,164.5 119.5,163.5 119.5,162.5C 117.5,162.167 115.5,161.833 113.5,161.5C 113.5,160.5 113.5,159.5 113.5,158.5C 112.167,158.5 110.833,158.5 109.5,158.5C 109.5,157.5 109.5,156.5 109.5,155.5C 107.5,155.5 105.5,155.5 103.5,155.5C 103.5,154.5 103.5,153.5 103.5,152.5C 102.5,152.5 101.5,152.5 100.5,152.5C 100.5,151.5 100.5,150.5 100.5,149.5C 103.455,148.841 106.455,148.508 109.5,148.5C 109.5,147.5 109.5,146.5 109.5,145.5C 109.5,144.5 109.5,143.5 109.5,142.5C 115.167,142.5 120.833,142.5 126.5,142.5C 126.5,141.5 126.5,140.5 126.5,139.5C 127.5,139.5 128.5,139.5 129.5,139.5 Z"/></g>
<g><path style="opacity:0.006" fill="#070f13" d="M 175.5,142.5 C 176.5,142.5 177.5,142.5 178.5,142.5C 178.5,143.5 178.5,144.5 178.5,145.5C 177.314,148.599 174.981,149.933 171.5,149.5C 171.5,150.5 171.5,151.5 171.5,152.5C 169.5,152.5 167.5,152.5 165.5,152.5C 165.5,153.5 165.5,154.5 165.5,155.5C 163.5,155.5 161.5,155.5 159.5,155.5C 159.167,155.5 158.833,155.5 158.5,155.5C 158.5,154.5 158.5,153.5 158.5,152.5C 160.5,152.5 162.5,152.5 164.5,152.5C 164.33,151.178 164.663,150.011 165.5,149C 167.473,148.505 169.473,148.338 171.5,148.5C 171.5,147.5 171.5,146.5 171.5,145.5C 172.833,145.5 174.167,145.5 175.5,145.5C 175.5,144.5 175.5,143.5 175.5,142.5 Z"/></g>
<g><path style="opacity:0.02" fill="#0000ac" d="M 178.5,142.5 C 179.5,142.5 180.5,142.5 181.5,142.5C 181.5,143.5 181.5,144.5 181.5,145.5C 180.5,146.833 179.5,146.833 178.5,145.5C 178.5,144.5 178.5,143.5 178.5,142.5 Z"/></g>
<g><path style="opacity:0.043" fill="#210465" d="M 35.5,129.5 C 36.5,129.5 37.5,129.5 38.5,129.5C 38.5,139.167 38.5,148.833 38.5,158.5C 37.1667,158.5 35.8333,158.5 34.5,158.5C 34.2452,148.794 34.5785,139.127 35.5,129.5 Z"/></g>
<g><path style="opacity:0.984" fill="#1b687d" d="M 57.5,126.5 C 58.8333,126.5 60.1667,126.5 61.5,126.5C 61.5,131.833 61.5,137.167 61.5,142.5C 61.5,143.5 61.5,144.5 61.5,145.5C 62.5,145.5 63.5,145.5 64.5,145.5C 64.5,146.833 64.5,148.167 64.5,149.5C 63.5,149.5 62.5,149.5 61.5,149.5C 61.5,150.5 61.5,151.5 61.5,152.5C 62.5,152.5 63.5,152.5 64.5,152.5C 64.5,153.5 64.5,154.5 64.5,155.5C 61.1667,155.5 57.8333,155.5 54.5,155.5C 54.5,156.5 54.5,157.5 54.5,158.5C 52.5,158.5 50.5,158.5 48.5,158.5C 48.5,159.833 48.5,161.167 48.5,162.5C 47.5,162.5 46.5,162.5 45.5,162.5C 45.5,163.5 45.5,164.5 45.5,165.5C 44.1667,165.5 42.8333,165.5 41.5,165.5C 41.5,164.167 41.5,162.833 41.5,161.5C 43.5,161.5 45.5,161.5 47.5,161.5C 47.7148,159.821 47.0481,158.821 45.5,158.5C 45.1694,151.137 45.5027,143.803 46.5,136.5C 48.4255,139.172 51.0921,140.172 54.5,139.5C 54.5,138.167 54.5,136.833 54.5,135.5C 55.5,135.5 56.5,135.5 57.5,135.5C 57.5,132.5 57.5,129.5 57.5,126.5 Z"/></g>
<g><path style="opacity:0.873" fill="#154f7f" d="M 38.5,119.5 C 39.5,119.5 40.5,119.5 41.5,119.5C 41.5,132.5 41.5,145.5 41.5,158.5C 42.8333,158.5 44.1667,158.5 45.5,158.5C 47.0481,158.821 47.7148,159.821 47.5,161.5C 45.5,161.5 43.5,161.5 41.5,161.5C 41.5,162.833 41.5,164.167 41.5,165.5C 41.5,166.5 41.5,167.5 41.5,168.5C 40.5,168.5 39.5,168.5 38.5,168.5C 38.5,165.167 38.5,161.833 38.5,158.5C 38.5,148.833 38.5,139.167 38.5,129.5C 37.5,129.5 36.5,129.5 35.5,129.5C 35.5,128.5 35.5,127.5 35.5,126.5C 36.5,126.5 37.5,126.5 38.5,126.5C 38.5,125.167 38.5,123.833 38.5,122.5C 38.5,121.5 38.5,120.5 38.5,119.5 Z"/></g>
<g><path style="opacity:1" fill="#84c17e" d="M 77.5,145.5 C 88.1667,145.5 98.8333,145.5 109.5,145.5C 109.5,146.5 109.5,147.5 109.5,148.5C 106.455,148.508 103.455,148.841 100.5,149.5C 100.5,150.5 100.5,151.5 100.5,152.5C 101.5,152.5 102.5,152.5 103.5,152.5C 103.5,153.5 103.5,154.5 103.5,155.5C 101.167,155.5 98.8333,155.5 96.5,155.5C 96.5,154.5 96.5,153.5 96.5,152.5C 94.5,152.5 92.5,152.5 90.5,152.5C 90.5,151.5 90.5,150.5 90.5,149.5C 88.4727,149.662 86.4727,149.495 84.5,149C 83.6195,147.529 82.2861,146.696 80.5,146.5C 78.4649,147.204 76.4649,147.871 74.5,148.5C 74.5,147.5 74.5,146.5 74.5,145.5C 75.5,145.5 76.5,145.5 77.5,145.5 Z"/></g>
<g><path style="opacity:0.004" fill="#0000d6" d="M 28.5,152.5 C 29.5,152.5 30.5,152.5 31.5,152.5C 31.5,154.5 31.5,156.5 31.5,158.5C 31.5,159.5 31.5,160.5 31.5,161.5C 30.5,161.5 29.5,161.5 28.5,161.5C 28.5,158.5 28.5,155.5 28.5,152.5 Z"/></g>
<g><path style="opacity:0.021" fill="#000000" d="M 149.5,152.5 C 150.5,152.5 151.5,152.5 152.5,152.5C 152.5,154.5 152.5,156.5 152.5,158.5C 151.5,158.5 150.5,158.5 149.5,158.5C 149.5,156.5 149.5,154.5 149.5,152.5 Z"/></g>
<g><path style="opacity:0.994" fill="#84fbd4" d="M 103.5,155.5 C 103.5,156.5 103.5,157.5 103.5,158.5C 104.5,158.5 105.5,158.5 106.5,158.5C 106.5,159.833 106.5,161.167 106.5,162.5C 108.833,162.5 111.167,162.5 113.5,162.5C 113.5,163.5 113.5,164.5 113.5,165.5C 111.167,165.5 108.833,165.5 106.5,165.5C 106.5,166.5 106.5,167.5 106.5,168.5C 105.5,168.5 104.5,168.5 103.5,168.5C 103.5,170.5 103.5,172.5 103.5,174.5C 100.167,174.5 96.8333,174.5 93.5,174.5C 93.5,173.5 93.5,172.5 93.5,171.5C 91.5,171.5 89.5,171.5 87.5,171.5C 87.5,170.5 87.5,169.5 87.5,168.5C 86.1667,168.5 84.8333,168.5 83.5,168.5C 83.5,167.5 83.5,166.5 83.5,165.5C 81.5,165.5 79.5,165.5 77.5,165.5C 77.5,164.167 77.5,162.833 77.5,161.5C 75.5,161.5 73.5,161.5 71.5,161.5C 71.5,160.5 71.5,159.5 71.5,158.5C 70.1667,158.5 68.8333,158.5 67.5,158.5C 67.5,157.5 67.5,156.5 67.5,155.5C 66.5,155.5 65.5,155.5 64.5,155.5C 64.5,154.5 64.5,153.5 64.5,152.5C 65.8333,152.5 67.1667,152.5 68.5,152.5C 68.5,151.5 68.5,150.5 68.5,149.5C 70.7354,149.795 72.7354,149.461 74.5,148.5C 76.4649,147.871 78.4649,147.204 80.5,146.5C 82.2861,146.696 83.6195,147.529 84.5,149C 86.4727,149.495 88.4727,149.662 90.5,149.5C 90.5,150.5 90.5,151.5 90.5,152.5C 92.5,152.5 94.5,152.5 96.5,152.5C 96.5,153.5 96.5,154.5 96.5,155.5C 98.8333,155.5 101.167,155.5 103.5,155.5 Z"/></g>
<g><path style="opacity:0.004" fill="#000000" d="M 28.5,161.5 C 29.5,161.5 30.5,161.5 31.5,161.5C 31.5,163.833 31.5,166.167 31.5,168.5C 30.5,168.5 29.5,168.5 28.5,168.5C 28.5,166.167 28.5,163.833 28.5,161.5 Z"/></g>
<g><path style="opacity:0.114" fill="#371e55" d="M 34.5,158.5 C 35.8333,158.5 37.1667,158.5 38.5,158.5C 38.5,161.833 38.5,165.167 38.5,168.5C 37.1667,168.5 35.8333,168.5 34.5,168.5C 34.5,165.167 34.5,161.833 34.5,158.5 Z"/></g>
<g><path style="opacity:0.051" fill="#09814e" d="M 149.5,158.5 C 150.5,158.5 151.5,158.5 152.5,158.5C 152.5,164.167 152.5,169.833 152.5,175.5C 151.85,175.196 151.183,174.863 150.5,174.5C 149.505,169.208 149.172,163.875 149.5,158.5 Z"/></g>
<g><path style="opacity:0.004" fill="#000000" d="M 34.5,168.5 C 34.719,169.675 34.3857,170.675 33.5,171.5C 32.2021,169.948 32.5354,168.948 34.5,168.5 Z"/></g>
<g><path style="opacity:0.086" fill="#1b549f" d="M 83.5,168.5 C 83.5,169.833 83.5,171.167 83.5,172.5C 81.5,172.5 79.5,172.5 77.5,172.5C 77.5,171.167 77.5,169.833 77.5,168.5C 79.5,168.5 81.5,168.5 83.5,168.5 Z"/></g>
<g><path style="opacity:0.855" fill="#bae0d6" d="M 145.5,142.5 C 146.5,142.5 147.5,142.5 148.5,142.5C 149.479,145.625 149.813,148.958 149.5,152.5C 149.5,154.5 149.5,156.5 149.5,158.5C 149.172,163.875 149.505,169.208 150.5,174.5C 151.183,174.863 151.85,175.196 152.5,175.5C 152.5,177.5 152.5,179.5 152.5,181.5C 151.5,181.5 150.5,181.5 149.5,181.5C 148.5,181.5 147.5,181.5 146.5,181.5C 145.167,181.5 143.833,181.5 142.5,181.5C 142.5,179.5 142.5,177.5 142.5,175.5C 142.5,175.167 142.5,174.833 142.5,174.5C 143.5,174.5 144.5,174.5 145.5,174.5C 145.5,163.833 145.5,153.167 145.5,142.5 Z"/></g>
<g><path style="opacity:0.19" fill="#4fc1e4" d="M 41.5,168.5 C 43.8333,168.5 46.1667,168.5 48.5,168.5C 48.5,169.5 48.5,170.5 48.5,171.5C 50.5,171.5 52.5,171.5 54.5,171.5C 54.5,172.833 54.5,174.167 54.5,175.5C 59.1667,175.5 63.8333,175.5 68.5,175.5C 68.5,176.5 68.5,177.5 68.5,178.5C 67.1667,178.5 65.8333,178.5 64.5,178.5C 62.1667,178.5 59.8333,178.5 57.5,178.5C 55.5,178.5 53.5,178.5 51.5,178.5C 51.5,177.5 51.5,176.5 51.5,175.5C 50.1667,175.5 48.8333,175.5 47.5,175.5C 47.5,174.5 47.5,173.5 47.5,172.5C 46.5,172.5 45.5,172.5 44.5,172.5C 43.5,172.5 42.5,172.5 41.5,172.5C 41.5,171.167 41.5,169.833 41.5,168.5 Z"/></g>
<g><path style="opacity:0.016" fill="#0cff2b" d="M 44.5,172.5 C 45.5,172.5 46.5,172.5 47.5,172.5C 47.5,173.5 47.5,174.5 47.5,175.5C 46.5,175.5 45.5,175.5 44.5,175.5C 44.5,174.5 44.5,173.5 44.5,172.5 Z"/></g>
<g><path style="opacity:1" fill="#20ebf7" d="M 64.5,155.5 C 65.5,155.5 66.5,155.5 67.5,155.5C 67.5,156.5 67.5,157.5 67.5,158.5C 68.8333,158.5 70.1667,158.5 71.5,158.5C 71.5,159.5 71.5,160.5 71.5,161.5C 73.5,161.5 75.5,161.5 77.5,161.5C 77.5,162.833 77.5,164.167 77.5,165.5C 79.5,165.5 81.5,165.5 83.5,165.5C 83.5,166.5 83.5,167.5 83.5,168.5C 81.5,168.5 79.5,168.5 77.5,168.5C 77.5,169.833 77.5,171.167 77.5,172.5C 76.5,172.5 75.5,172.5 74.5,172.5C 73.5,172.5 72.5,172.5 71.5,172.5C 71.5,173.5 71.5,174.5 71.5,175.5C 70.5,175.5 69.5,175.5 68.5,175.5C 63.8333,175.5 59.1667,175.5 54.5,175.5C 54.5,174.167 54.5,172.833 54.5,171.5C 52.5,171.5 50.5,171.5 48.5,171.5C 48.5,170.5 48.5,169.5 48.5,168.5C 46.1667,168.5 43.8333,168.5 41.5,168.5C 41.5,167.5 41.5,166.5 41.5,165.5C 42.8333,165.5 44.1667,165.5 45.5,165.5C 45.5,164.5 45.5,163.5 45.5,162.5C 46.5,162.5 47.5,162.5 48.5,162.5C 48.5,161.167 48.5,159.833 48.5,158.5C 50.5,158.5 52.5,158.5 54.5,158.5C 54.5,157.5 54.5,156.5 54.5,155.5C 57.8333,155.5 61.1667,155.5 64.5,155.5 Z"/></g>
<g><path style="opacity:0.094" fill="#001c48" d="M 74.5,172.5 C 74.5,173.5 74.5,174.5 74.5,175.5C 73.5,175.5 72.5,175.5 71.5,175.5C 71.5,174.5 71.5,173.5 71.5,172.5C 72.5,172.5 73.5,172.5 74.5,172.5 Z"/></g>
<g><path style="opacity:1" fill="#8ad1b3" d="M 103.5,155.5 C 105.5,155.5 107.5,155.5 109.5,155.5C 109.5,156.5 109.5,157.5 109.5,158.5C 110.833,158.5 112.167,158.5 113.5,158.5C 113.5,159.5 113.5,160.5 113.5,161.5C 115.5,161.833 117.5,162.167 119.5,162.5C 119.5,163.5 119.5,164.5 119.5,165.5C 121.833,165.5 124.167,165.5 126.5,165.5C 126.5,166.5 126.5,167.5 126.5,168.5C 128.5,168.5 130.5,168.5 132.5,168.5C 132.5,169.5 132.5,170.5 132.5,171.5C 133.833,171.5 135.167,171.5 136.5,171.5C 136.5,172.5 136.5,173.5 136.5,174.5C 138.5,174.5 140.5,174.5 142.5,174.5C 142.5,174.833 142.5,175.167 142.5,175.5C 138.167,175.5 133.833,175.5 129.5,175.5C 129.5,174.167 129.5,172.833 129.5,171.5C 127.167,171.5 124.833,171.5 122.5,171.5C 122.5,170.5 122.5,169.5 122.5,168.5C 120.5,168.5 118.5,168.5 116.5,168.5C 116.5,167.5 116.5,166.5 116.5,165.5C 115.5,165.5 114.5,165.5 113.5,165.5C 113.5,164.5 113.5,163.5 113.5,162.5C 111.167,162.5 108.833,162.5 106.5,162.5C 106.5,161.167 106.5,159.833 106.5,158.5C 105.5,158.5 104.5,158.5 103.5,158.5C 103.5,157.5 103.5,156.5 103.5,155.5 Z"/></g>
<g><path style="opacity:0.008" fill="#15084c" d="M 41.5,178.5 C 40.5,178.5 39.5,178.5 38.5,178.5C 38.5,177.167 38.5,175.833 38.5,174.5C 39.5,174.5 40.5,174.5 41.5,174.5C 41.5,175.833 41.5,177.167 41.5,178.5 Z"/></g>
<g><path style="opacity:0.008" fill="#14fe5b" d="M 80.5,174.5 C 80.4326,175.959 80.7659,177.292 81.5,178.5C 80.1667,178.5 78.8333,178.5 77.5,178.5C 77.5,177.167 77.5,175.833 77.5,174.5C 78.5,174.5 79.5,174.5 80.5,174.5 Z"/></g>
<g><path style="opacity:0.008" fill="#154545" d="M 80.5,174.5 C 83.5,174.167 84.8333,175.5 84.5,178.5C 83.5,178.5 82.5,178.5 81.5,178.5C 80.7659,177.292 80.4326,175.959 80.5,174.5 Z"/></g>
<g><path style="opacity:0.016" fill="#aee3c8" d="M 158.5,155.5 C 158.833,155.5 159.167,155.5 159.5,155.5C 159.5,164.167 159.5,172.833 159.5,181.5C 158.167,181.5 156.833,181.5 155.5,181.5C 155.5,172.833 155.5,164.167 155.5,155.5C 156.5,155.5 157.5,155.5 158.5,155.5 Z"/></g>
<g><path style="opacity:0.004" fill="#000000" d="M 41.5,178.5 C 42.5,178.5 43.5,178.5 44.5,178.5C 44.5,179.5 44.5,180.5 44.5,181.5C 43.5,181.5 42.5,181.5 41.5,181.5C 41.5,180.5 41.5,179.5 41.5,178.5 Z"/></g>
<g><path style="opacity:0.008" fill="#1f5bff" d="M 44.5,178.5 C 45.8333,178.5 47.1667,178.5 48.5,178.5C 48.5,179.5 48.5,180.5 48.5,181.5C 47.1667,181.5 45.8333,181.5 44.5,181.5C 44.5,180.5 44.5,179.5 44.5,178.5 Z"/></g>
<g><path style="opacity:0.008" fill="#0d1521" d="M 57.5,178.5 C 59.8333,178.5 62.1667,178.5 64.5,178.5C 64.5,179.5 64.5,180.5 64.5,181.5C 62.1667,181.5 59.8333,181.5 57.5,181.5C 57.5,180.5 57.5,179.5 57.5,178.5 Z"/></g>
<g><path style="opacity:0.004" fill="#000000" d="M 77.5,178.5 C 77.5,179.5 77.5,180.5 77.5,181.5C 75.5,181.5 73.5,181.5 71.5,181.5C 71.5,180.5 71.5,179.5 71.5,178.5C 73.5,178.5 75.5,178.5 77.5,178.5 Z"/></g>
<g><path style="opacity:0.004" fill="#000000" d="M 84.5,178.5 C 85.5,178.5 86.5,178.5 87.5,178.5C 87.5,179.5 87.5,180.5 87.5,181.5C 86.5,181.5 85.5,181.5 84.5,181.5C 84.5,180.5 84.5,179.5 84.5,178.5 Z"/></g>
<g><path style="opacity:0.004" fill="#00fffe" d="M 87.5,178.5 C 88.5,178.5 89.5,178.5 90.5,178.5C 90.5,179.5 90.5,180.5 90.5,181.5C 89.5,181.5 88.5,181.5 87.5,181.5C 87.5,180.5 87.5,179.5 87.5,178.5 Z"/></g>
<g><path style="opacity:0.996" fill="#68f9c6" d="M 113.5,165.5 C 114.5,165.5 115.5,165.5 116.5,165.5C 116.5,166.5 116.5,167.5 116.5,168.5C 118.5,168.5 120.5,168.5 122.5,168.5C 122.5,169.5 122.5,170.5 122.5,171.5C 124.833,171.5 127.167,171.5 129.5,171.5C 129.5,172.833 129.5,174.167 129.5,175.5C 133.833,175.5 138.167,175.5 142.5,175.5C 142.5,177.5 142.5,179.5 142.5,181.5C 142.5,182.5 142.5,183.5 142.5,184.5C 139.167,184.5 135.833,184.5 132.5,184.5C 132.5,185.5 132.5,186.5 132.5,187.5C 129.5,187.5 126.5,187.5 123.5,187.5C 123.5,186.5 123.5,185.5 123.5,184.5C 122.167,184.5 120.833,184.5 119.5,184.5C 119.5,183.5 119.5,182.5 119.5,181.5C 118.5,181.5 117.5,181.5 116.5,181.5C 116.5,180.5 116.5,179.5 116.5,178.5C 112.167,178.5 107.833,178.5 103.5,178.5C 103.5,177.167 103.5,175.833 103.5,174.5C 103.5,172.5 103.5,170.5 103.5,168.5C 104.5,168.5 105.5,168.5 106.5,168.5C 106.5,167.5 106.5,166.5 106.5,165.5C 108.833,165.5 111.167,165.5 113.5,165.5 Z"/></g>
<g><path style="opacity:0.004" fill="#000000" d="M 48.5,181.5 C 49.5,181.5 50.5,181.5 51.5,181.5C 51.5,182.5 51.5,183.5 51.5,184.5C 50.5,184.5 49.5,184.5 48.5,184.5C 48.5,183.5 48.5,182.5 48.5,181.5 Z"/></g>
<g><path style="opacity:0.008" fill="#007fff" d="M 51.5,181.5 C 52.5,181.5 53.5,181.5 54.5,181.5C 54.5,182.5 54.5,183.5 54.5,184.5C 53.5,184.5 52.5,184.5 51.5,184.5C 51.5,183.5 51.5,182.5 51.5,181.5 Z"/></g>
<g><path style="opacity:0.004" fill="#0000ff" d="M 64.5,181.5 C 65.5,181.5 66.5,181.5 67.5,181.5C 67.5,182.5 67.5,183.5 67.5,184.5C 66.5,184.5 65.5,184.5 64.5,184.5C 64.5,183.5 64.5,182.5 64.5,181.5 Z"/></g>
<g><path style="opacity:0.004" fill="#000000" d="M 67.5,181.5 C 68.5,181.5 69.5,181.5 70.5,181.5C 70.5,182.5 70.5,183.5 70.5,184.5C 69.5,184.5 68.5,184.5 67.5,184.5C 67.5,183.5 67.5,182.5 67.5,181.5 Z"/></g>
<g><path style="opacity:0.004" fill="#000000" d="M 90.5,181.5 C 91.5,181.5 92.5,181.5 93.5,181.5C 93.5,182.5 93.5,183.5 93.5,184.5C 92.5,184.5 91.5,184.5 90.5,184.5C 90.5,183.5 90.5,182.5 90.5,181.5 Z"/></g>
<g><path style="opacity:0.004" fill="#00fffe" d="M 93.5,181.5 C 94.5,181.5 95.5,181.5 96.5,181.5C 96.5,182.5 96.5,183.5 96.5,184.5C 95.5,184.5 94.5,184.5 93.5,184.5C 93.5,183.5 93.5,182.5 93.5,181.5 Z"/></g>
<g><path style="opacity:0.008" fill="#000080" d="M 103.5,181.5 C 104.5,181.5 105.5,181.5 106.5,181.5C 106.5,182.5 106.5,183.5 106.5,184.5C 105.5,184.5 104.5,184.5 103.5,184.5C 103.5,183.5 103.5,182.5 103.5,181.5 Z"/></g>
<g><path style="opacity:0.02" fill="#000200" d="M 146.5,181.5 C 147.5,181.5 148.5,181.5 149.5,181.5C 149.626,183.2 150.293,184.7 151.5,186C 151.167,186.5 150.833,187 150.5,187.5C 149.476,186.147 148.143,185.48 146.5,185.5C 146.5,184.167 146.5,182.833 146.5,181.5 Z"/></g>
<g><path style="opacity:0.004" fill="#fefffe" d="M 152.5,181.5 C 153.5,181.5 154.5,181.5 155.5,181.5C 155.5,182.5 155.5,183.5 155.5,184.5C 154.5,184.5 153.5,184.5 152.5,184.5C 152.5,183.5 152.5,182.5 152.5,181.5 Z"/></g>
<g><path style="opacity:0.004" fill="#000000" d="M 54.5,184.5 C 55.8333,184.5 57.1667,184.5 58.5,184.5C 58.5,185.5 58.5,186.5 58.5,187.5C 57.1667,187.5 55.8333,187.5 54.5,187.5C 54.5,186.5 54.5,185.5 54.5,184.5 Z"/></g>
<g><path style="opacity:0.004" fill="#0000ff" d="M 58.5,184.5 C 60.5,184.5 62.5,184.5 64.5,184.5C 64.5,185.5 64.5,186.5 64.5,187.5C 62.5,187.5 60.5,187.5 58.5,187.5C 58.5,186.5 58.5,185.5 58.5,184.5 Z"/></g>
<g><path style="opacity:0.004" fill="#000000" d="M 100.5,184.5 C 100.5,185.5 100.5,186.5 100.5,187.5C 101.5,187.5 102.5,187.5 103.5,187.5C 103.5,187.833 103.5,188.167 103.5,188.5C 103.5,189.167 103.5,189.833 103.5,190.5C 102.325,190.719 101.325,190.386 100.5,189.5C 98.703,188.305 97.703,186.638 97.5,184.5C 98.5,184.5 99.5,184.5 100.5,184.5 Z"/></g>
<g><path style="opacity:0.004" fill="#0000ff" d="M 100.5,184.5 C 101.5,184.5 102.5,184.5 103.5,184.5C 103.5,185.5 103.5,186.5 103.5,187.5C 102.5,187.5 101.5,187.5 100.5,187.5C 100.5,186.5 100.5,185.5 100.5,184.5 Z"/></g>
<g><path style="opacity:1" fill="#259e85" d="M 142.5,181.5 C 143.833,181.5 145.167,181.5 146.5,181.5C 146.5,182.833 146.5,184.167 146.5,185.5C 145.167,185.5 143.833,185.5 142.5,185.5C 142.5,186.5 142.5,187.5 142.5,188.5C 140.5,188.5 138.5,188.5 136.5,188.5C 136.5,189.5 136.5,190.5 136.5,191.5C 134.167,191.5 131.833,191.5 129.5,191.5C 129.5,190.5 129.5,189.5 129.5,188.5C 130.791,188.737 131.791,188.404 132.5,187.5C 132.5,186.5 132.5,185.5 132.5,184.5C 135.833,184.5 139.167,184.5 142.5,184.5C 142.5,183.5 142.5,182.5 142.5,181.5 Z"/></g>
<g><path style="opacity:0.024" fill="#022b59" d="M 109.5,185.5 C 110.5,185.5 111.5,185.5 112.5,185.5C 112.5,186.5 112.5,187.5 112.5,188.5C 111.5,188.5 110.5,188.5 109.5,188.5C 109.5,187.5 109.5,186.5 109.5,185.5 Z"/></g>
<g><path style="opacity:0.996" fill="#56e1e2" d="M 83.5,168.5 C 84.8333,168.5 86.1667,168.5 87.5,168.5C 87.5,169.5 87.5,170.5 87.5,171.5C 89.5,171.5 91.5,171.5 93.5,171.5C 93.5,172.5 93.5,173.5 93.5,174.5C 96.8333,174.5 100.167,174.5 103.5,174.5C 103.5,175.833 103.5,177.167 103.5,178.5C 107.833,178.5 112.167,178.5 116.5,178.5C 116.5,179.5 116.5,180.5 116.5,181.5C 117.5,181.5 118.5,181.5 119.5,181.5C 119.5,182.5 119.5,183.5 119.5,184.5C 120.833,184.5 122.167,184.5 123.5,184.5C 123.5,185.5 123.5,186.5 123.5,187.5C 126.5,187.5 129.5,187.5 132.5,187.5C 131.791,188.404 130.791,188.737 129.5,188.5C 129.5,189.5 129.5,190.5 129.5,191.5C 129.5,192.5 129.5,193.5 129.5,194.5C 127.167,194.5 124.833,194.5 122.5,194.5C 122.5,193.5 122.5,192.5 122.5,191.5C 120.5,191.5 118.5,191.5 116.5,191.5C 116.5,190.5 116.5,189.5 116.5,188.5C 115.167,188.5 113.833,188.5 112.5,188.5C 112.5,187.5 112.5,186.5 112.5,185.5C 111.5,185.5 110.5,185.5 109.5,185.5C 108.209,185.737 107.209,185.404 106.5,184.5C 106.5,183.5 106.5,182.5 106.5,181.5C 105.5,181.5 104.5,181.5 103.5,181.5C 102.167,181.5 100.833,181.5 99.5,181.5C 99.5,180.5 99.5,179.5 99.5,178.5C 97.5,178.5 95.5,178.5 93.5,178.5C 93.5,177.5 93.5,176.5 93.5,175.5C 91.1667,175.5 88.8333,175.5 86.5,175.5C 86.5,174.5 86.5,173.5 86.5,172.5C 85.5,172.5 84.5,172.5 83.5,172.5C 83.5,171.167 83.5,169.833 83.5,168.5 Z"/></g>
<g><path style="opacity:0.004" fill="#0000ff" d="M 103.5,188.5 C 104.5,188.5 105.5,188.5 106.5,188.5C 106.5,189.167 106.5,189.833 106.5,190.5C 105.5,190.5 104.5,190.5 103.5,190.5C 103.5,189.833 103.5,189.167 103.5,188.5 Z"/></g>
<g><path style="opacity:0.004" fill="#00fffe" d="M 106.5,188.5 C 107.5,188.5 108.5,188.5 109.5,188.5C 109.179,190.048 108.179,190.715 106.5,190.5C 106.5,189.833 106.5,189.167 106.5,188.5 Z"/></g>
<g><path style="opacity:0.004" fill="#fefffe" d="M 145.5,188.5 C 146.675,188.281 147.675,188.614 148.5,189.5C 146.948,190.798 145.948,190.465 145.5,188.5 Z"/></g>
<g><path style="opacity:0.004" fill="#000000" d="M 113.5,191.5 C 113.5,192.5 113.5,193.5 113.5,194.5C 112.5,194.5 111.5,194.5 110.5,194.5C 110.5,193.5 110.5,192.5 110.5,191.5C 111.5,191.5 112.5,191.5 113.5,191.5 Z"/></g>
<g><path style="opacity:0.008" fill="#00fffe" d="M 113.5,191.5 C 114.5,191.5 115.5,191.5 116.5,191.5C 116.5,192.5 116.5,193.5 116.5,194.5C 115.5,194.5 114.5,194.5 113.5,194.5C 113.5,193.5 113.5,192.5 113.5,191.5 Z"/></g>
<g><path style="opacity:0.004" fill="#000000" d="M 139.5,191.5 C 141.5,191.5 143.5,191.5 145.5,191.5C 145.5,192.5 145.5,193.5 145.5,194.5C 143.5,194.5 141.5,194.5 139.5,194.5C 139.5,193.5 139.5,192.5 139.5,191.5 Z"/></g>
<g><path style="opacity:0.004" fill="#000000" d="M 116.5,194.5 C 117.5,194.5 118.5,194.5 119.5,194.5C 119.5,195.5 119.5,196.5 119.5,197.5C 118.5,197.5 117.5,197.5 116.5,197.5C 116.5,196.5 116.5,195.5 116.5,194.5 Z"/></g>
<g><path style="opacity:0.004" fill="#0000ff" d="M 119.5,194.5 C 120.5,194.5 121.5,194.5 122.5,194.5C 122.5,195.5 122.5,196.5 122.5,197.5C 121.5,197.5 120.5,197.5 119.5,197.5C 119.5,196.5 119.5,195.5 119.5,194.5 Z"/></g>
<g><path style="opacity:0.008" fill="#00009e" d="M 135.5,194.5 C 135.5,195.5 135.5,196.5 135.5,197.5C 134.5,197.5 133.5,197.5 132.5,197.5C 132.5,196.5 132.5,195.5 132.5,194.5C 133.5,194.5 134.5,194.5 135.5,194.5 Z"/></g>
<g><path style="opacity:0.004" fill="#000000" d="M 135.5,194.5 C 136.5,194.5 137.5,194.5 138.5,194.5C 138.5,195.5 138.5,196.5 138.5,197.5C 137.5,197.5 136.5,197.5 135.5,197.5C 135.5,196.5 135.5,195.5 135.5,194.5 Z"/></g>
<g><path style="opacity:0.004" fill="#0000ff" d="M 125.5,197.5 C 125.5,198.5 125.5,199.5 125.5,200.5C 122.833,199.5 122.833,198.5 125.5,197.5 Z"/></g>
<g><path style="opacity:0.004" fill="#000000" d="M 125.5,197.5 C 127.833,197.5 130.167,197.5 132.5,197.5C 132.5,198.5 132.5,199.5 132.5,200.5C 130.167,200.5 127.833,200.5 125.5,200.5C 125.5,199.5 125.5,198.5 125.5,197.5 Z"/></g>
</svg>
