<?xml version="1.0" encoding="UTF-8"?>
<!DOCTYPE svg PUBLIC "-//W3C//DTD SVG 1.1//EN" "http://www.w3.org/Graphics/SVG/1.1/DTD/svg11.dtd">
<svg xmlns="http://www.w3.org/2000/svg" version="1.1" width="512px" height="512px" style="shape-rendering:geometricPrecision; text-rendering:geometricPrecision; image-rendering:optimizeQuality; fill-rule:evenodd; clip-rule:evenodd" xmlns:xlink="http://www.w3.org/1999/xlink">
<g><path style="opacity:0.991" fill="#010202" d="M 12.5,-0.5 C 33.8333,-0.5 55.1667,-0.5 76.5,-0.5C 78.8504,1.21328 79.8504,3.54661 79.5,6.5C 79.4559,10.0897 77.7892,12.5897 74.5,14C 55.1667,14.3333 35.8333,14.6667 16.5,15C 16,15.5 15.5,16 15,16.5C 14.5,38.8308 14.3334,61.1642 14.5,83.5C 27.5,83.5 40.5,83.5 53.5,83.5C 60.5298,67.8769 71.8631,64.0435 87.5,72C 97.3283,81.0135 99.1616,91.5135 93,103.5C 82.474,115.172 70.974,116.338 58.5,107C 56.6372,104.636 54.9705,102.136 53.5,99.5C 40.5171,98.5009 27.5171,98.1675 14.5,98.5C 14.5,121.167 14.5,143.833 14.5,166.5C 19.9586,166.103 25.2919,166.603 30.5,168C 37.1667,174 43.8333,180 50.5,186C 55.533,186.829 60.533,186.662 65.5,185.5C 71.8677,172.896 81.8677,168.729 95.5,173C 107.835,179.853 111.668,190.02 107,203.5C 97.6794,217.714 85.846,220.214 71.5,211C 69.1312,208.43 67.1312,205.596 65.5,202.5C 58.8581,201.669 52.1915,201.169 45.5,201C 37.8716,195.04 30.5382,188.707 23.5,182C 20.5184,181.502 17.5184,181.335 14.5,181.5C 14.5,216.833 14.5,252.167 14.5,287.5C 31.8461,287.833 49.1795,287.5 66.5,286.5C 72.8137,277.359 79.4804,268.526 86.5,260C 95.5,259.667 104.5,259.333 113.5,259C 122.918,242.984 135.418,240.151 151,250.5C 160.552,263.371 159.386,275.204 147.5,286C 135.213,292.291 124.713,290.125 116,279.5C 114.991,277.975 114.491,276.308 114.5,274.5C 107.137,274.169 99.8032,274.503 92.5,275.5C 86.8333,283.5 81.1667,291.5 75.5,299.5C 74.3349,300.584 73.0016,301.417 71.5,302C 52.5029,302.5 33.5029,302.667 14.5,302.5C 14.5,312.5 14.5,322.5 14.5,332.5C 166.833,332.5 319.167,332.5 471.5,332.5C 479.833,332.5 488.167,332.5 496.5,332.5C 496.5,311.167 496.5,289.833 496.5,268.5C 491.156,268.666 485.823,268.499 480.5,268C 477.335,265.665 474.335,263.165 471.5,260.5C 467.088,258.3 462.422,257.967 457.5,259.5C 451.994,270.737 442.994,275.237 430.5,273C 417.089,267.684 411.922,257.85 415,243.5C 422.077,229.715 432.911,225.549 447.5,231C 452.081,233.748 455.415,237.581 457.5,242.5C 462.12,243.493 466.786,243.827 471.5,243.5C 476.793,245.607 481.46,248.773 485.5,253C 489.152,253.499 492.818,253.665 496.5,253.5C 496.5,234.167 496.5,214.833 496.5,195.5C 488.167,195.5 479.833,195.5 471.5,195.5C 469.217,195.392 467.217,194.559 465.5,193C 459.167,187.333 452.833,181.667 446.5,176C 440.167,175.333 433.833,175.333 427.5,176C 419.121,190.679 407.455,194.012 392.5,186C 380.205,173.294 380.539,160.961 393.5,149C 402.668,144.165 411.668,144.499 420.5,150C 423.444,152.722 425.777,155.889 427.5,159.5C 435.479,160.332 443.479,160.832 451.5,161C 458.331,166.334 464.998,171.834 471.5,177.5C 471.953,178.458 472.619,179.292 473.5,180C 481.159,180.5 488.826,180.666 496.5,180.5C 496.5,141.833 496.5,103.167 496.5,64.5C 488.167,64.5 479.833,64.5 471.5,64.5C 462.494,64.3336 453.494,64.5002 444.5,65C 438.553,73.9472 432.22,82.6138 425.5,91C 415.939,92.4475 406.273,92.9475 396.5,92.5C 393.943,100.217 388.61,105.05 380.5,107C 364.39,108.058 355.39,100.558 353.5,84.5C 354.351,73.9534 359.684,66.7867 369.5,63C 382.374,60.7702 391.707,65.4369 397.5,77C 404.167,77.6667 410.833,77.6667 417.5,77C 423.721,69.1117 429.555,60.9451 435,52.5C 436.488,50.84 438.321,49.84 440.5,49.5C 459.167,49.5 477.833,49.5 496.5,49.5C 496.667,38.495 496.5,27.495 496,16.5C 495.25,15.8742 494.416,15.3742 493.5,15C 485.841,14.5003 478.174,14.3336 470.5,14.5C 348.5,14.6667 226.5,14.5 104.5,14C 101.292,12.5627 99.6252,10.0627 99.5,6.5C 99.1496,3.54661 100.15,1.21328 102.5,-0.5C 234.5,-0.5 366.5,-0.5 498.5,-0.5C 504.5,2.16667 508.833,6.5 511.5,12.5C 511.5,130.167 511.5,247.833 511.5,365.5C 508.597,371.566 503.931,375.732 497.5,378C 471.833,378.667 446.167,378.667 420.5,378C 417.505,376.836 415.839,374.669 415.5,371.5C 416.055,368.213 417.722,365.713 420.5,364C 444.833,363.667 469.167,363.333 493.5,363C 494.333,362.167 495.167,361.333 496,360.5C 496.499,356.179 496.666,351.846 496.5,347.5C 335.833,347.5 175.167,347.5 14.5,347.5C 14.3343,351.846 14.501,356.179 15,360.5C 15.8333,361.333 16.6667,362.167 17.5,363C 142.5,363.333 267.5,363.667 392.5,364C 395.024,365.883 396.358,368.383 396.5,371.5C 396.256,374.263 394.923,376.429 392.5,378C 365.835,378.5 339.169,378.667 312.5,378.5C 310.9,387.665 309.234,396.832 307.5,406C 308.209,416.802 312.043,426.302 319,434.5C 329.167,444.667 339.333,454.833 349.5,465C 370.5,465.333 391.5,465.667 412.5,466C 419.743,467.652 423.909,472.152 425,479.5C 425.667,485.833 425.667,492.167 425,498.5C 423.504,504.491 420.004,508.825 414.5,511.5C 330.5,511.5 246.5,511.5 162.5,511.5C 160.15,509.787 159.15,507.453 159.5,504.5C 159.544,500.91 161.211,498.41 164.5,497C 246.166,496.5 327.833,496.333 409.5,496.5C 409.5,491.5 409.5,486.5 409.5,481.5C 306.833,481.5 204.167,481.5 101.5,481.5C 101.5,486.5 101.5,491.5 101.5,496.5C 112.505,496.333 123.505,496.5 134.5,497C 137.789,498.41 139.456,500.91 139.5,504.5C 139.85,507.453 138.85,509.787 136.5,511.5C 123.167,511.5 109.833,511.5 96.5,511.5C 90.9955,508.825 87.4955,504.491 86,498.5C 85.3333,492.167 85.3333,485.833 86,479.5C 87.0908,472.152 91.2575,467.652 98.5,466C 119.5,465.667 140.5,465.333 161.5,465C 171.667,454.833 181.833,444.667 192,434.5C 198.854,426.446 202.687,417.113 203.5,406.5C 201.831,397.156 200.164,387.823 198.5,378.5C 136.832,378.667 75.1658,378.5 13.5,378C 6.89563,375.885 2.22896,371.719 -0.5,365.5C -0.5,247.833 -0.5,130.167 -0.5,12.5C 2.16667,6.5 6.5,2.16667 12.5,-0.5 Z"/></g>
<g><path style="opacity:1" fill="#61daf9" d="M 79.5,6.5 C 86.1667,6.5 92.8333,6.5 99.5,6.5C 99.6252,10.0627 101.292,12.5627 104.5,14C 226.5,14.5 348.5,14.6667 470.5,14.5C 471.477,25.7524 471.811,37.0857 471.5,48.5C 460.986,48.1724 450.653,48.5058 440.5,49.5C 438.321,49.84 436.488,50.84 435,52.5C 429.555,60.9451 423.721,69.1117 417.5,77C 410.833,77.6667 404.167,77.6667 397.5,77C 391.707,65.4369 382.374,60.7702 369.5,63C 359.684,66.7867 354.351,73.9534 353.5,84.5C 355.39,100.558 364.39,108.058 380.5,107C 388.61,105.05 393.943,100.217 396.5,92.5C 406.273,92.9475 415.939,92.4475 425.5,91C 432.22,82.6138 438.553,73.9472 444.5,65C 453.494,64.5002 462.494,64.3336 471.5,64.5C 471.5,102.167 471.5,139.833 471.5,177.5C 464.998,171.834 458.331,166.334 451.5,161C 443.479,160.832 435.479,160.332 427.5,159.5C 425.777,155.889 423.444,152.722 420.5,150C 411.668,144.499 402.668,144.165 393.5,149C 380.539,160.961 380.205,173.294 392.5,186C 407.455,194.012 419.121,190.679 427.5,176C 433.833,175.333 440.167,175.333 446.5,176C 452.833,181.667 459.167,187.333 465.5,193C 467.217,194.559 469.217,195.392 471.5,195.5C 471.5,211.5 471.5,227.5 471.5,243.5C 466.786,243.827 462.12,243.493 457.5,242.5C 455.415,237.581 452.081,233.748 447.5,231C 432.911,225.549 422.077,229.715 415,243.5C 411.922,257.85 417.089,267.684 430.5,273C 442.994,275.237 451.994,270.737 457.5,259.5C 462.422,257.967 467.088,258.3 471.5,260.5C 471.5,284.5 471.5,308.5 471.5,332.5C 319.167,332.5 166.833,332.5 14.5,332.5C 14.5,322.5 14.5,312.5 14.5,302.5C 33.5029,302.667 52.5029,302.5 71.5,302C 73.0016,301.417 74.3349,300.584 75.5,299.5C 81.1667,291.5 86.8333,283.5 92.5,275.5C 99.8032,274.503 107.137,274.169 114.5,274.5C 114.491,276.308 114.991,277.975 116,279.5C 124.713,290.125 135.213,292.291 147.5,286C 159.386,275.204 160.552,263.371 151,250.5C 135.418,240.151 122.918,242.984 113.5,259C 104.5,259.333 95.5,259.667 86.5,260C 79.4804,268.526 72.8137,277.359 66.5,286.5C 49.1795,287.5 31.8461,287.833 14.5,287.5C 14.5,252.167 14.5,216.833 14.5,181.5C 17.5184,181.335 20.5184,181.502 23.5,182C 30.5382,188.707 37.8716,195.04 45.5,201C 52.1915,201.169 58.8581,201.669 65.5,202.5C 67.1312,205.596 69.1312,208.43 71.5,211C 85.846,220.214 97.6794,217.714 107,203.5C 111.668,190.02 107.835,179.853 95.5,173C 81.8677,168.729 71.8677,172.896 65.5,185.5C 60.533,186.662 55.533,186.829 50.5,186C 43.8333,180 37.1667,174 30.5,168C 25.2919,166.603 19.9586,166.103 14.5,166.5C 14.5,143.833 14.5,121.167 14.5,98.5C 27.5171,98.1675 40.5171,98.5009 53.5,99.5C 54.9705,102.136 56.6372,104.636 58.5,107C 70.974,116.338 82.474,115.172 93,103.5C 99.1616,91.5135 97.3283,81.0135 87.5,72C 71.8631,64.0435 60.5298,67.8769 53.5,83.5C 40.5,83.5 27.5,83.5 14.5,83.5C 14.3334,61.1642 14.5,38.8308 15,16.5C 15.5,16 16,15.5 16.5,15C 35.8333,14.6667 55.1667,14.3333 74.5,14C 77.7892,12.5897 79.4559,10.0897 79.5,6.5 Z"/></g>
<g><path style="opacity:1" fill="#0ecdf7" d="M 470.5,14.5 C 478.174,14.3336 485.841,14.5003 493.5,15C 494.416,15.3742 495.25,15.8742 496,16.5C 496.5,27.495 496.667,38.495 496.5,49.5C 477.833,49.5 459.167,49.5 440.5,49.5C 450.653,48.5058 460.986,48.1724 471.5,48.5C 471.811,37.0857 471.477,25.7524 470.5,14.5 Z"/></g>
<g><path style="opacity:1" fill="#020405" d="M 199.5,28.5 C 212.171,28.3334 224.838,28.5001 237.5,29C 239.333,29.5 240.5,30.6667 241,32.5C 242.706,40.3272 244.873,47.9939 247.5,55.5C 250.393,56.7404 253.227,58.0737 256,59.5C 262.75,55.2078 269.583,51.0411 276.5,47C 278.167,46.3333 279.833,46.3333 281.5,47C 290.303,54.8025 298.803,62.9691 307,71.5C 308.422,74.0301 308.755,76.6967 308,79.5C 304.333,85.5 300.667,91.5 297,97.5C 296.984,101.486 298.151,105.153 300.5,108.5C 307.451,110.488 314.451,112.321 321.5,114C 323.939,114.774 325.773,116.274 327,118.5C 327.167,124.5 327.333,130.5 327.5,136.5C 327.629,143.269 327.129,149.936 326,156.5C 325.167,157.333 324.333,158.167 323.5,159C 315.401,160.858 307.401,163.024 299.5,165.5C 297.73,168.673 296.897,172.006 297,175.5C 300.667,181.833 304.333,188.167 308,194.5C 307.684,198.137 309.018,200.804 312,202.5C 313.528,198.361 314.528,194.028 315,189.5C 315.786,186.417 317.619,184.251 320.5,183C 328.5,182.333 336.5,182.333 344.5,183C 346.939,183.774 348.773,185.274 350,187.5C 350.954,192.56 352.12,197.56 353.5,202.5C 357.361,199.472 361.361,196.639 365.5,194C 368.783,193.257 371.783,193.924 374.5,196C 380.033,201.198 385.2,206.698 390,212.5C 390.667,214.167 390.667,215.833 390,217.5C 387.167,221.833 384.333,226.167 381.5,230.5C 386.305,232.451 391.305,233.618 396.5,234C 397.667,235.167 398.833,236.333 400,237.5C 400.947,247.267 400.613,256.934 399,266.5C 393.27,268.43 387.437,270.097 381.5,271.5C 384.333,275.833 387.167,280.167 390,284.5C 390.857,287.551 390.19,290.217 388,292.5C 382.761,298.41 376.928,303.577 370.5,308C 368.833,308.667 367.167,308.667 365.5,308C 361.361,305.361 357.361,302.528 353.5,299.5C 351.593,303.906 350.426,308.572 350,313.5C 349.167,316.333 347.333,318.167 344.5,319C 335.73,319.94 327.064,319.607 318.5,318C 317.299,317.097 316.465,315.931 316,314.5C 315.194,309.296 313.861,304.296 312,299.5C 307.92,302.457 303.753,305.29 299.5,308C 297.029,308.706 294.695,308.373 292.5,307C 286.634,301.469 281.134,295.635 276,289.5C 275.741,284.003 277.741,279.336 282,275.5C 283.009,273.975 283.509,272.308 283.5,270.5C 278.784,269.992 274.118,269.158 269.5,268C 268.069,267.535 266.903,266.701 266,265.5C 264.888,260.777 264.388,255.944 264.5,251C 264.388,246.056 264.888,241.223 266,236.5C 271.268,233.087 277.101,231.421 283.5,231.5C 283.579,230.07 283.246,228.736 282.5,227.5C 280.234,226.686 277.9,226.186 275.5,226C 269.066,222.034 262.566,218.201 256,214.5C 252.749,215.293 249.749,216.626 247,218.5C 244.691,225.734 242.691,233.068 241,240.5C 240.535,241.931 239.701,243.097 238.5,244C 225.929,245.627 213.262,245.96 200.5,245C 198.333,244.167 196.833,242.667 196,240.5C 194.005,232.856 192.172,225.189 190.5,217.5C 187.422,216.798 184.422,215.798 181.5,214.5C 174.708,218.064 168.041,221.898 161.5,226C 159.167,226.667 156.833,226.667 154.5,226C 146.333,217.833 138.167,209.667 130,201.5C 128.627,199.305 128.294,196.971 129,194.5C 133.358,187.784 137.191,180.784 140.5,173.5C 139.64,170.407 138.306,167.573 136.5,165C 127.998,163.337 119.831,160.837 112,157.5C 110.371,144.261 110.038,130.928 111,117.5C 112.167,116.333 113.333,115.167 114.5,114C 121.162,112.335 127.828,110.668 134.5,109C 136.061,108.682 137.228,107.849 138,106.5C 138.837,104.162 139.67,101.828 140.5,99.5C 136.683,92.537 132.85,85.537 129,78.5C 128.143,75.4495 128.81,72.7828 131,70.5C 138.863,62.3023 147.03,54.469 155.5,47C 157.167,46.3333 158.833,46.3333 160.5,47C 166.833,50.6667 173.167,54.3333 179.5,58C 183.064,58.3163 186.397,57.4829 189.5,55.5C 191.82,47.8892 193.986,40.2226 196,32.5C 197.376,31.2949 198.542,29.9616 199.5,28.5 Z"/></g>
<g><path style="opacity:1" fill="#0471ca" d="M 208.5,43.5 C 215.175,43.3337 221.842,43.5004 228.5,44C 230.585,51.5055 232.752,59.0055 235,66.5C 241.268,69.1435 247.435,71.9769 253.5,75C 255.167,75.6667 256.833,75.6667 258.5,75C 265.026,70.7439 271.693,67.0772 278.5,64C 283.015,68.3482 287.349,72.8482 291.5,77.5C 288.585,82.9984 285.419,88.3318 282,93.5C 281.042,95.1992 280.542,97.0326 280.5,99C 282.994,105.812 285.494,112.645 288,119.5C 295.899,122.684 304.066,125.017 312.5,126.5C 312.5,133.167 312.5,139.833 312.5,146.5C 305.276,148.639 297.943,150.473 290.5,152C 289.667,152.833 288.833,153.667 288,154.5C 285.294,160.954 282.794,167.454 280.5,174C 283.22,181.605 286.886,188.772 291.5,195.5C 287.349,200.152 283.015,204.652 278.5,209C 271.872,206.516 265.538,203.183 259.5,199C 257.167,198.333 254.833,198.333 252.5,199C 247.401,201.883 242.067,204.217 236.5,206C 235.667,206.833 234.833,207.667 234,208.5C 232.321,215.549 230.488,222.549 228.5,229.5C 221.866,230.497 215.2,230.83 208.5,230.5C 207.32,223.778 205.82,217.111 204,210.5C 202.833,208 201,206.167 198.5,205C 192.588,202.542 186.588,200.375 180.5,198.5C 173.227,202.305 165.893,205.805 158.5,209C 153.985,204.652 149.651,200.152 145.5,195.5C 149.996,188.838 153.663,181.838 156.5,174.5C 154.359,168.205 152.192,161.871 150,155.5C 148.269,153.383 146.102,151.883 143.5,151C 137.608,149.193 131.608,148.026 125.5,147.5C 125.17,140.468 125.503,133.468 126.5,126.5C 133.93,124.643 141.263,122.476 148.5,120C 150.801,114.102 153.301,108.268 156,102.5C 156.667,100.167 156.667,97.8333 156,95.5C 152.7,89.3703 149.2,83.3703 145.5,77.5C 150.5,73.1667 155.167,68.5 159.5,63.5C 166.485,67.9073 173.652,71.9073 181,75.5C 187.734,72.5536 194.567,69.7203 201.5,67C 204.836,59.4958 207.169,51.6625 208.5,43.5 Z"/></g>
<g><path style="opacity:1" fill="#01d0fa" d="M 471.5,64.5 C 479.833,64.5 488.167,64.5 496.5,64.5C 496.5,103.167 496.5,141.833 496.5,180.5C 488.826,180.666 481.159,180.5 473.5,180C 472.619,179.292 471.953,178.458 471.5,177.5C 471.5,139.833 471.5,102.167 471.5,64.5 Z"/></g>
<g><path style="opacity:1" fill="#f7cb58" d="M 372.5,77.5 C 380.494,76.3292 383.994,79.6626 383,87.5C 379.455,93.2087 375.121,93.8754 370,89.5C 367.517,84.7129 368.35,80.7129 372.5,77.5 Z"/></g>
<g><path style="opacity:1" fill="#000103" d="M 210.5,80.5 C 244.08,79.5284 265.247,95.1951 274,127.5C 276.104,162.375 260.271,183.875 226.5,192C 199.018,194.181 179.184,183.014 167,158.5C 157.179,130.606 164.012,107.773 187.5,90C 194.824,85.661 202.49,82.4943 210.5,80.5 Z"/></g>
<g><path style="opacity:1" fill="#f3c756" d="M 72.5,82.5 C 80.1788,83.0177 83.0121,87.0177 81,94.5C 73.8624,100.801 69.029,99.3009 66.5,90C 67.5821,86.7527 69.5821,84.2527 72.5,82.5 Z"/></g>
<g><path style="opacity:1" fill="#00539f" d="M 212.5,95.5 C 236.4,94.8523 251.9,105.852 259,128.5C 260.01,162.489 243.51,178.656 209.5,177C 184.76,168.57 174.593,151.403 179,125.5C 184.732,109.26 195.899,99.26 212.5,95.5 Z"/></g>
<g><path style="opacity:1" fill="#010203" d="M 210.5,109.5 C 228.528,107.087 240.362,114.421 246,131.5C 246.328,154.172 235.161,165.005 212.5,164C 194.228,157.291 187.728,144.458 193,125.5C 197.129,118.2 202.962,112.867 210.5,109.5 Z"/></g>
<g><path style="opacity:1" fill="#5fd5f4" d="M 213.5,124.5 C 226.955,123.449 232.455,129.449 230,142.5C 224.007,150.404 217.007,151.404 209,145.5C 203.425,136.942 204.925,129.942 213.5,124.5 Z"/></g>
<g><path style="opacity:1" fill="#f6ca58" d="M 402.5,160.5 C 411.33,159.162 414.83,162.829 413,171.5C 407.919,176.986 403.252,176.653 399,170.5C 398.182,166.469 399.349,163.136 402.5,160.5 Z"/></g>
<g><path style="opacity:1" fill="#f1c556" d="M 82.5,186.5 C 93.5155,186.065 96.5155,190.565 91.5,200C 84.7189,203.108 80.3855,201.108 78.5,194C 78.9274,190.977 80.2607,188.477 82.5,186.5 Z"/></g>
<g><path style="opacity:1" fill="#01cff9" d="M 471.5,195.5 C 479.833,195.5 488.167,195.5 496.5,195.5C 496.5,214.833 496.5,234.167 496.5,253.5C 492.818,253.665 489.152,253.499 485.5,253C 481.46,248.773 476.793,245.607 471.5,243.5C 471.5,227.5 471.5,211.5 471.5,195.5 Z"/></g>
<g><path style="opacity:1" fill="#f870c0" d="M 329.5,197.5 C 331.857,197.337 334.19,197.503 336.5,198C 337.505,202.855 338.672,207.688 340,212.5C 345.149,215.672 350.649,217.505 356.5,218C 360.367,215.4 364.367,213.4 368.5,212C 370.019,213.351 371.352,214.851 372.5,216.5C 369.506,220.324 367.173,224.49 365.5,229C 366.267,232.634 367.434,236.134 369,239.5C 369.685,242.057 371.185,243.891 373.5,245C 377.469,245.853 381.469,246.519 385.5,247C 386.833,249.667 386.833,252.333 385.5,255C 380.53,255.224 375.863,256.391 371.5,258.5C 367.904,263.669 366.071,269.336 366,275.5C 367.421,278.009 369.088,280.343 371,282.5C 373.389,286.634 372.222,289.3 367.5,290.5C 363.358,287.537 358.858,285.203 354,283.5C 350.791,284.52 347.624,285.686 344.5,287C 341.943,287.685 340.109,289.185 339,291.5C 337.95,295.803 337.116,300.137 336.5,304.5C 334.143,304.663 331.81,304.497 329.5,304C 328.403,299.926 327.57,295.76 327,291.5C 325.833,290.333 324.667,289.167 323.5,288C 320.007,287.058 316.674,285.725 313.5,284C 307.483,284.423 302.316,286.923 298,291.5C 296.167,289.667 294.333,287.833 292.5,286C 295.693,281.939 298.36,277.605 300.5,273C 298.869,268.899 297.369,264.733 296,260.5C 294.786,258.951 293.286,257.785 291.5,257C 287.534,256.172 283.534,255.672 279.5,255.5C 279.5,252.5 279.5,249.5 279.5,246.5C 283.534,246.328 287.534,245.828 291.5,245C 294.381,243.749 296.214,241.583 297,238.5C 298.314,235.376 299.48,232.209 300.5,229C 298.36,224.395 295.693,220.061 292.5,216C 294.204,213.243 296.538,211.91 299.5,212C 302.989,214.826 306.822,216.993 311,218.5C 316.413,216.924 321.413,214.591 326,211.5C 327.063,206.773 328.23,202.107 329.5,197.5 Z"/></g>
<g><path style="opacity:1" fill="#050304" d="M 326.5,228.5 C 340.594,226.625 350.094,232.292 355,245.5C 356.571,258.925 351.071,268.092 338.5,273C 318.175,274.341 309.008,264.841 311,244.5C 312.54,240.581 314.707,237.081 317.5,234C 320.564,232.141 323.564,230.308 326.5,228.5 Z"/></g>
<g><path style="opacity:1" fill="#5fd6f5" d="M 329.5,243.5 C 340.132,243.593 342.799,248.093 337.5,257C 328.894,259.732 325.061,256.566 326,247.5C 327.376,246.295 328.542,244.962 329.5,243.5 Z"/></g>
<g><path style="opacity:1" fill="#f5c957" d="M 433.5,243.5 C 439.629,242.555 443.296,245.055 444.5,251C 442.37,258.479 437.87,260.312 431,256.5C 428.467,251.351 429.3,247.018 433.5,243.5 Z"/></g>
<g><path style="opacity:1" fill="#f9cc59" d="M 131.5,259.5 C 139.161,258.663 142.661,261.996 142,269.5C 138.378,275.16 134.044,275.826 129,271.5C 126.511,266.757 127.345,262.757 131.5,259.5 Z"/></g>
<g><path style="opacity:1" fill="#01cffa" d="M 471.5,260.5 C 474.335,263.165 477.335,265.665 480.5,268C 485.823,268.499 491.156,268.666 496.5,268.5C 496.5,289.833 496.5,311.167 496.5,332.5C 488.167,332.5 479.833,332.5 471.5,332.5C 471.5,308.5 471.5,284.5 471.5,260.5 Z"/></g>
<g><path style="opacity:1" fill="#bccad3" d="M 415.5,371.5 C 409.167,371.5 402.833,371.5 396.5,371.5C 396.358,368.383 395.024,365.883 392.5,364C 267.5,363.667 142.5,363.333 17.5,363C 16.6667,362.167 15.8333,361.333 15,360.5C 14.501,356.179 14.3343,351.846 14.5,347.5C 175.167,347.5 335.833,347.5 496.5,347.5C 496.666,351.846 496.499,356.179 496,360.5C 495.167,361.333 494.333,362.167 493.5,363C 469.167,363.333 444.833,363.667 420.5,364C 417.722,365.713 416.055,368.213 415.5,371.5 Z"/></g>
<g><path style="opacity:1" fill="#798b97" d="M 292.5,400.5 C 267.833,400.5 243.167,400.5 218.5,400.5C 217.295,393.142 215.962,385.809 214.5,378.5C 241.833,378.5 269.167,378.5 296.5,378.5C 295.038,385.809 293.705,393.142 292.5,400.5 Z"/></g>
<g><path style="opacity:1" fill="#8c9ba7" d="M 218.5,400.5 C 243.167,400.5 267.833,400.5 292.5,400.5C 291.872,413.321 294.705,425.321 301,436.5C 308.968,446.302 317.468,455.636 326.5,464.5C 279.167,465.833 231.833,465.833 184.5,464.5C 193.532,455.636 202.032,446.302 210,436.5C 216.295,425.321 219.128,413.321 218.5,400.5 Z"/></g>
<g><path style="opacity:1" fill="#5d676f" d="M 184.5,464.5 C 231.833,465.833 279.167,465.833 326.5,464.5C 327.289,464.783 327.956,465.283 328.5,466C 279.833,466.667 231.167,466.667 182.5,466C 183.044,465.283 183.711,464.783 184.5,464.5 Z"/></g>
<g><path style="opacity:0.998" fill="#c3d1db" d="M 159.5,504.5 C 152.833,504.5 146.167,504.5 139.5,504.5C 139.456,500.91 137.789,498.41 134.5,497C 123.505,496.5 112.505,496.333 101.5,496.5C 101.5,491.5 101.5,486.5 101.5,481.5C 204.167,481.5 306.833,481.5 409.5,481.5C 409.5,486.5 409.5,491.5 409.5,496.5C 327.833,496.333 246.166,496.5 164.5,497C 161.211,498.41 159.544,500.91 159.5,504.5 Z"/></g>
</svg>
