<?xml version="1.0" encoding="UTF-8"?>
<!DOCTYPE svg PUBLIC "-//W3C//DTD SVG 1.1//EN" "http://www.w3.org/Graphics/SVG/1.1/DTD/svg11.dtd">
<svg xmlns="http://www.w3.org/2000/svg" version="1.1" width="32px" height="32px" style="shape-rendering:geometricPrecision; text-rendering:geometricPrecision; image-rendering:optimizeQuality; fill-rule:evenodd; clip-rule:evenodd" xmlns:xlink="http://www.w3.org/1999/xlink">
<g><path style="opacity:0.611" fill="#f38023" d="M 18.5,3.5 C 19.552,3.35055 20.552,3.51722 21.5,4C 23.5143,6.67749 25.5143,9.34416 27.5,12C 26.7297,13.7748 25.563,15.2748 24,16.5C 22.9914,18.0249 22.4914,19.6916 22.5,21.5C 18.466,21.3279 14.466,20.8279 10.5,20C 9.66337,18.9887 9.33003,17.8221 9.5,16.5C 11.8695,16.8511 14.2028,17.0178 16.5,17C 14.3359,16.0857 12.3359,14.919 10.5,13.5C 10.8869,12.2801 11.7202,11.6135 13,11.5C 14.7983,12.5038 16.6316,13.0038 18.5,13C 16.6508,11.907 14.9842,10.5737 13.5,9C 14.7828,5.9517 16.4495,5.78503 18.5,8.5C 19.5937,7.132 19.2603,5.96533 17.5,5C 18.056,4.61742 18.3893,4.11742 18.5,3.5 Z"/></g>
<g><path style="opacity:1" fill="#9da3a8" d="M 5.5,20.5 C 7.30794,21.9179 7.97461,23.9179 7.5,26.5C 12.8333,26.5 18.1667,26.5 23.5,26.5C 23.2011,24.396 23.5344,22.396 24.5,20.5C 25.48,23.0865 25.8134,25.7531 25.5,28.5C 18.8333,28.5 12.1667,28.5 5.5,28.5C 5.5,25.8333 5.5,23.1667 5.5,20.5 Z"/></g>
<g><path style="opacity:1" fill="#f38023" d="M 9.5,22.5 C 13.5546,22.1758 17.5546,22.5091 21.5,23.5C 19.5,23.8333 17.5,24.1667 15.5,24.5C 13.0478,24.4609 11.0478,23.7943 9.5,22.5 Z"/></g>
</svg>
