<?xml version="1.0" encoding="UTF-8"?>
<!DOCTYPE svg PUBLIC "-//W3C//DTD SVG 1.1//EN" "http://www.w3.org/Graphics/SVG/1.1/DTD/svg11.dtd">
<svg xmlns="http://www.w3.org/2000/svg" version="1.1" width="512px" height="512px" style="shape-rendering:geometricPrecision; text-rendering:geometricPrecision; image-rendering:optimizeQuality; fill-rule:evenodd; clip-rule:evenodd" xmlns:xlink="http://www.w3.org/1999/xlink">
<g><path style="opacity:0.978" fill="#010101" d="M 110.5,-0.5 C 206.833,-0.5 303.167,-0.5 399.5,-0.5C 414.283,3.44594 424.117,12.7793 429,27.5C 430.593,41.1107 430.926,54.7774 430,68.5C 427.904,72.1346 424.737,74.1346 420.5,74.5C 416.253,73.7787 413.086,71.4453 411,67.5C 410.667,56.5 410.333,45.5 410,34.5C 408.587,31.3388 406.92,28.3388 405,25.5C 402.079,23.2879 398.912,21.4545 395.5,20C 351.835,19.5 308.168,19.3333 264.5,19.5C 264.667,40.5026 264.5,61.5026 264,82.5C 262.833,85 261,86.8333 258.5,88C 252.833,88.3333 247.167,88.6667 241.5,89C 227.167,95.6661 223.333,106.166 230,120.5C 232.921,124.092 236.421,126.925 240.5,129C 246.5,129.333 252.5,129.667 258.5,130C 260.624,131.122 262.457,132.622 264,134.5C 264.5,155.497 264.667,176.497 264.5,197.5C 286.836,197.333 309.169,197.5 331.5,198C 333.246,198.471 334.913,199.138 336.5,200C 347.667,210.5 358.833,221 370,231.5C 370.333,222.167 370.667,212.833 371,203.5C 372.251,200.619 374.417,198.786 377.5,198C 383.5,197.667 389.5,197.333 395.5,197C 403.678,194.498 408.512,188.998 410,180.5C 410.333,170.833 410.667,161.167 411,151.5C 413.086,147.555 416.253,145.221 420.5,144.5C 424.737,144.865 427.904,146.865 430,150.5C 430.667,162.167 430.667,173.833 430,185.5C 424.58,205.786 411.414,216.453 390.5,217.5C 390.666,224.175 390.5,230.842 390,237.5C 382.683,251.605 371.849,255.105 357.5,248C 347.167,238.333 336.833,228.667 326.5,219C 279.167,218.333 231.833,218.333 184.5,219C 175.53,226.969 166.863,235.303 158.5,244C 148.917,252.771 138.584,253.771 127.5,247C 124.469,244.441 122.302,241.274 121,237.5C 120.831,231.141 120.331,224.807 119.5,218.5C 95.2111,216.044 81.7111,202.711 79,178.5C 78.0383,129.142 78.3716,79.8083 80,30.5C 84.3489,14.3186 94.5156,3.98523 110.5,-0.5 Z"/></g>
<g><path style="opacity:1" fill="#7fb5fe" d="M 114.5,19.5 C 157.833,19.5 201.167,19.5 244.5,19.5C 244.5,35.8333 244.5,52.1667 244.5,68.5C 221.623,71.7015 208.956,84.8681 206.5,108C 208.357,131.959 221.024,145.793 244.5,149.5C 244.5,165.5 244.5,181.5 244.5,197.5C 222.164,197.333 199.831,197.5 177.5,198C 165.033,208.798 152.867,219.965 141,231.5C 140.667,222.167 140.333,212.833 140,203.5C 138.52,200.337 136.02,198.504 132.5,198C 126.167,197.667 119.833,197.333 113.5,197C 106.572,194.406 102.072,189.573 100,182.5C 99.3333,133.167 99.3333,83.8333 100,34.5C 102.351,26.9841 107.184,21.9841 114.5,19.5 Z"/></g>
<g><path style="opacity:1" fill="#feac94" d="M 420.5,74.5 C 420.5,82.8333 420.5,91.1667 420.5,99.5C 411.433,101.422 408.599,106.755 412,115.5C 414.398,118.108 417.231,119.775 420.5,120.5C 420.5,128.5 420.5,136.5 420.5,144.5C 416.253,145.221 413.086,147.555 411,151.5C 410.667,161.167 410.333,170.833 410,180.5C 408.512,188.998 403.678,194.498 395.5,197C 389.5,197.333 383.5,197.667 377.5,198C 374.417,198.786 372.251,200.619 371,203.5C 370.667,212.833 370.333,222.167 370,231.5C 358.833,221 347.667,210.5 336.5,200C 334.913,199.138 333.246,198.471 331.5,198C 309.169,197.5 286.836,197.333 264.5,197.5C 264.667,176.497 264.5,155.497 264,134.5C 262.457,132.622 260.624,131.122 258.5,130C 252.5,129.667 246.5,129.333 240.5,129C 236.421,126.925 232.921,124.092 230,120.5C 223.333,106.166 227.167,95.6661 241.5,89C 247.167,88.6667 252.833,88.3333 258.5,88C 261,86.8333 262.833,85 264,82.5C 264.5,61.5026 264.667,40.5026 264.5,19.5C 308.168,19.3333 351.835,19.5 395.5,20C 398.912,21.4545 402.079,23.2879 405,25.5C 406.92,28.3388 408.587,31.3388 410,34.5C 410.333,45.5 410.667,56.5 411,67.5C 413.086,71.4453 416.253,73.7787 420.5,74.5 Z"/></g>
<g><path style="opacity:0.948" fill="#040302" d="M 420.5,99.5 C 429.848,101.191 432.682,106.524 429,115.5C 426.944,118.548 424.111,120.214 420.5,120.5C 417.231,119.775 414.398,118.108 412,115.5C 408.599,106.755 411.433,101.422 420.5,99.5 Z"/></g>
<g><path style="opacity:0.973" fill="#010100" d="M 152.5,511.5 C 106.167,511.5 59.8333,511.5 13.5,511.5C 5.86903,508.209 1.20236,502.542 -0.5,494.5C -0.5,468.833 -0.5,443.167 -0.5,417.5C 3.40777,396.585 15.7411,383.252 36.5,377.5C 19.8249,355.925 16.9916,332.592 28,307.5C 43.6619,281.757 66.4952,271.257 96.5,276C 130.442,286.634 146.275,309.801 144,345.5C 142.134,357.562 137.3,368.229 129.5,377.5C 148.134,382.301 159.967,393.968 165,412.5C 166.593,439.472 166.927,466.472 166,493.5C 164.621,501.957 160.121,507.957 152.5,511.5 Z"/></g>
<g><path style="opacity:0.973" fill="#010000" d="M 511.5,417.5 C 511.5,443.167 511.5,468.833 511.5,494.5C 509.769,502.566 505.102,508.233 497.5,511.5C 451.167,511.5 404.833,511.5 358.5,511.5C 350.879,507.957 346.379,501.957 345,493.5C 344.073,466.472 344.407,439.472 346,412.5C 351.033,393.968 362.866,382.301 381.5,377.5C 365.891,357.844 362.391,336.177 371,312.5C 385.511,283.326 409.011,271.159 441.5,276C 471.572,284.739 487.572,304.739 489.5,336C 489.943,351.839 484.943,365.672 474.5,377.5C 495.259,383.252 507.592,396.585 511.5,417.5 Z"/></g>
<g><path style="opacity:1" fill="#fdd2b3" d="M 73.5,295.5 C 99.7034,293.013 116.537,304.346 124,329.5C 125.434,353.816 114.601,369.649 91.5,377C 67.7976,379.565 51.631,369.732 43,347.5C 39.0244,321.775 49.191,304.442 73.5,295.5 Z"/></g>
<g><path style="opacity:1" fill="#fdd2b3" d="M 418.5,295.5 C 444.783,293.043 461.616,304.377 469,329.5C 470.444,353.79 459.611,369.623 436.5,377C 418.128,379.77 403.628,373.603 393,358.5C 381.781,337.21 385.281,318.71 403.5,303C 408.313,299.927 413.313,297.427 418.5,295.5 Z"/></g>
<g><path style="opacity:1" fill="#feed7f" d="M 39.5,397.5 C 67.8353,397.333 96.1686,397.5 124.5,398C 134.692,399.856 141.525,405.689 145,415.5C 145.5,440.831 145.667,466.164 145.5,491.5C 103.833,491.5 62.1667,491.5 20.5,491.5C 20.3334,466.164 20.5,440.831 21,415.5C 24.4159,406.583 30.5826,400.583 39.5,397.5 Z"/></g>
<g><path style="opacity:1" fill="#b5bbce" d="M 384.5,397.5 C 413.502,397.333 442.502,397.5 471.5,398C 480.598,400.766 486.765,406.599 490,415.5C 490.5,440.831 490.667,466.164 490.5,491.5C 448.833,491.5 407.167,491.5 365.5,491.5C 365.333,466.164 365.5,440.831 366,415.5C 369.441,406.557 375.608,400.557 384.5,397.5 Z"/></g>
</svg>
