<?xml version="1.0" encoding="UTF-8"?>
<!DOCTYPE svg PUBLIC "-//W3C//DTD SVG 1.1//EN" "http://www.w3.org/Graphics/SVG/1.1/DTD/svg11.dtd">
<svg xmlns="http://www.w3.org/2000/svg" version="1.1" width="512px" height="512px" style="shape-rendering:geometricPrecision; text-rendering:geometricPrecision; image-rendering:optimizeQuality; fill-rule:evenodd; clip-rule:evenodd" xmlns:xlink="http://www.w3.org/1999/xlink">
<g><path style="opacity:1" fill="#0cb3ed" d="M 369.5,32.5 C 410.768,30.7159 442.601,47.0492 465,81.5C 473.171,97.8505 477.505,115.184 478,133.5C 478.5,210.166 478.667,286.833 478.5,363.5C 478.072,377.615 476.572,391.615 474,405.5C 465.509,436.661 446.342,458.494 416.5,471C 403.743,474.632 390.743,476.966 377.5,478C 296.834,478.5 216.167,478.667 135.5,478.5C 90.5458,477.661 58.7125,456.995 40,416.5C 35.4587,400.676 32.9587,384.676 32.5,368.5C 32.3333,290.166 32.5,211.833 33,133.5C 34.1228,89.3832 54.6228,58.2165 94.5,40C 107.187,35.9967 120.187,33.6633 133.5,33C 212.166,32.5 290.833,32.3333 369.5,32.5 Z"/></g>
<g><path style="opacity:0.416" fill="#087da6" d="M 375.5,31.5 C 417.422,31.3634 448.588,49.3634 469,85.5C 474.846,98.8835 478.179,112.883 479,127.5C 479.5,206.166 479.667,284.833 479.5,363.5C 479.167,363.5 478.833,363.5 478.5,363.5C 478.667,286.833 478.5,210.166 478,133.5C 477.505,115.184 473.171,97.8505 465,81.5C 442.601,47.0492 410.768,30.7159 369.5,32.5C 371.735,32.7947 373.735,32.4614 375.5,31.5 Z"/></g>
<g><path style="opacity:0.804" fill="#087ba3" d="M 375.5,31.5 C 373.735,32.4614 371.735,32.7947 369.5,32.5C 290.833,32.3333 212.166,32.5 133.5,33C 120.187,33.6633 107.187,35.9967 94.5,40C 54.6228,58.2165 34.1228,89.3832 33,133.5C 32.5,211.833 32.3333,290.166 32.5,368.5C 32.8016,371.059 32.4682,373.393 31.5,375.5C 31.3333,292.833 31.5,210.166 32,127.5C 34.2154,85.5266 54.382,56.0266 92.5,39C 103.855,35.1291 115.521,32.7957 127.5,32C 210.166,31.5 292.833,31.3333 375.5,31.5 Z"/></g>
<g><path style="opacity:1" fill="#fefefe" d="M 371.5,125.5 C 372.5,125.5 373.5,125.5 374.5,125.5C 374.5,166.167 374.5,206.833 374.5,247.5C 360.323,247.171 346.323,247.504 332.5,248.5C 300.492,248.331 268.492,248.665 236.5,249.5C 236.5,217.167 236.5,184.833 236.5,152.5C 237.791,152.737 238.791,152.404 239.5,151.5C 283.221,141.988 327.221,133.321 371.5,125.5 Z"/></g>
<g><path style="opacity:1" fill="#dbf4fc" d="M 371.5,125.5 C 372.568,124.566 373.901,124.232 375.5,124.5C 375.5,165.833 375.5,207.167 375.5,248.5C 369.167,248.5 362.833,248.5 356.5,248.5C 348.5,248.5 340.5,248.5 332.5,248.5C 346.323,247.504 360.323,247.171 374.5,247.5C 374.5,206.833 374.5,166.167 374.5,125.5C 373.5,125.5 372.5,125.5 371.5,125.5 Z"/></g>
<g><path style="opacity:1" fill="#c6ecfb" d="M 239.5,151.5 C 238.791,152.404 237.791,152.737 236.5,152.5C 236.5,184.833 236.5,217.167 236.5,249.5C 236.167,249.5 235.833,249.5 235.5,249.5C 235.5,216.833 235.5,184.167 235.5,151.5C 236.833,151.5 238.167,151.5 239.5,151.5 Z"/></g>
<g><path style="opacity:1" fill="#fefefe" d="M 219.5,155.5 C 220.833,155.5 222.167,155.5 223.5,155.5C 223.5,186.833 223.5,218.167 223.5,249.5C 201.327,249.169 179.327,249.503 157.5,250.5C 150.833,250.5 144.167,250.5 137.5,250.5C 137.176,224.092 137.51,197.759 138.5,171.5C 149.739,168.858 161.073,166.525 172.5,164.5C 175.187,164.664 177.854,164.497 180.5,164C 181.416,163.722 182.082,163.222 182.5,162.5C 194.731,159.787 207.065,157.454 219.5,155.5 Z"/></g>
<g><path style="opacity:1" fill="#7dd5f5" d="M 219.5,155.5 C 220.919,154.549 222.585,154.216 224.5,154.5C 224.5,186.5 224.5,218.5 224.5,250.5C 208.833,250.5 193.167,250.5 177.5,250.5C 170.833,250.5 164.167,250.5 157.5,250.5C 179.327,249.503 201.327,249.169 223.5,249.5C 223.5,218.167 223.5,186.833 223.5,155.5C 222.167,155.5 220.833,155.5 219.5,155.5 Z"/></g>
<g><path style="opacity:1" fill="#c1eafa" d="M 182.5,162.5 C 182.082,163.222 181.416,163.722 180.5,164C 177.854,164.497 175.187,164.664 172.5,164.5C 175.627,163.419 178.96,162.753 182.5,162.5 Z"/></g>
<g><path style="opacity:1" fill="#50c8f2" d="M 136.5,171.5 C 136.169,198.005 136.502,224.339 137.5,250.5C 144.167,250.5 150.833,250.5 157.5,250.5C 164.167,250.5 170.833,250.5 177.5,250.5C 163.677,251.496 149.677,251.829 135.5,251.5C 135.169,224.661 135.502,197.995 136.5,171.5 Z"/></g>
<g><path style="opacity:1" fill="#dff5fc" d="M 136.5,171.5 C 137.167,171.5 137.833,171.5 138.5,171.5C 137.51,197.759 137.176,224.092 137.5,250.5C 136.502,224.339 136.169,198.005 136.5,171.5 Z"/></g>
<g><path style="opacity:1" fill="#62ccf4" d="M 332.5,248.5 C 340.5,248.5 348.5,248.5 356.5,248.5C 322.666,249.319 288.666,249.985 254.5,250.5C 247.991,250.5 241.658,250.166 235.5,249.5C 235.833,249.5 236.167,249.5 236.5,249.5C 268.492,248.665 300.492,248.331 332.5,248.5 Z"/></g>
<g><path style="opacity:1" fill="#fefefe" d="M 188.5,261.5 C 200.167,261.5 211.833,261.5 223.5,261.5C 223.5,293.167 223.5,324.833 223.5,356.5C 195.722,351.638 168.055,346.304 140.5,340.5C 139.791,339.596 138.791,339.263 137.5,339.5C 137.5,313.5 137.5,287.5 137.5,261.5C 154.5,261.5 171.5,261.5 188.5,261.5 Z"/></g>
<g><path style="opacity:1" fill="#d4f2fc" d="M 188.5,261.5 C 171.5,261.5 154.5,261.5 137.5,261.5C 137.5,287.5 137.5,313.5 137.5,339.5C 138.791,339.263 139.791,339.596 140.5,340.5C 139.167,340.5 137.833,340.5 136.5,340.5C 136.5,313.833 136.5,287.167 136.5,260.5C 154.008,260.17 171.341,260.503 188.5,261.5 Z"/></g>
<g><path style="opacity:1" fill="#fefefe" d="M 271.5,262.5 C 284.5,262.5 297.5,262.5 310.5,262.5C 331.66,263.497 352.993,263.831 374.5,263.5C 374.5,304.167 374.5,344.833 374.5,385.5C 372.833,385.5 371.167,385.5 369.5,385.5C 325.069,377.347 280.735,368.68 236.5,359.5C 236.5,327.167 236.5,294.833 236.5,262.5C 248.167,262.5 259.833,262.5 271.5,262.5 Z"/></g>
<g><path style="opacity:1" fill="#c2ecfa" d="M 271.5,262.5 C 259.833,262.5 248.167,262.5 236.5,262.5C 236.5,294.833 236.5,327.167 236.5,359.5C 235.502,327.004 235.168,294.338 235.5,261.5C 247.678,261.172 259.678,261.505 271.5,262.5 Z"/></g>
<g><path style="opacity:1" fill="#4cc7f2" d="M 375.5,262.5 C 376.499,303.997 376.832,345.663 376.5,387.5C 375.209,387.737 374.209,387.404 373.5,386.5C 375.494,345.513 376.161,304.18 375.5,262.5 Z"/></g>
<g><path style="opacity:1" fill="#d4f1fc" d="M 310.5,262.5 C 332.167,262.5 353.833,262.5 375.5,262.5C 376.161,304.18 375.494,345.513 373.5,386.5C 371.901,386.768 370.568,386.434 369.5,385.5C 371.167,385.5 372.833,385.5 374.5,385.5C 374.5,344.833 374.5,304.167 374.5,263.5C 352.993,263.831 331.66,263.497 310.5,262.5 Z"/></g>
<g><path style="opacity:0.043" fill="#0881ac" d="M 32.5,368.5 C 32.9587,384.676 35.4587,400.676 40,416.5C 58.7125,456.995 90.5458,477.661 135.5,478.5C 135.5,478.833 135.5,479.167 135.5,479.5C 90.0331,479.708 57.8665,459.375 39,418.5C 34.4096,404.535 31.9096,390.201 31.5,375.5C 32.4682,373.393 32.8016,371.059 32.5,368.5 Z"/></g>
<g><path style="opacity:0.329" fill="#087da7" d="M 478.5,363.5 C 478.833,363.5 479.167,363.5 479.5,363.5C 480.63,385.77 476.796,407.103 468,427.5C 449.423,460.053 421.256,477.22 383.5,479C 300.834,479.5 218.167,479.667 135.5,479.5C 135.5,479.167 135.5,478.833 135.5,478.5C 216.167,478.667 296.834,478.5 377.5,478C 390.743,476.966 403.743,474.632 416.5,471C 446.342,458.494 465.509,436.661 474,405.5C 476.572,391.615 478.072,377.615 478.5,363.5 Z"/></g>
</svg>
