<?xml version="1.0" encoding="UTF-8"?>
<!DOCTYPE svg PUBLIC "-//W3C//DTD SVG 1.1//EN" "http://www.w3.org/Graphics/SVG/1.1/DTD/svg11.dtd">
<svg xmlns="http://www.w3.org/2000/svg" version="1.1" width="512px" height="512px" style="shape-rendering:geometricPrecision; text-rendering:geometricPrecision; image-rendering:optimizeQuality; fill-rule:evenodd; clip-rule:evenodd" xmlns:xlink="http://www.w3.org/1999/xlink">
<g><path style="opacity:0.991" fill="#5a5f63" d="M 16.5,-0.5 C 21.5,-0.5 26.5,-0.5 31.5,-0.5C 43.0772,3.12263 53.7439,8.62263 63.5,16C 76.1377,27.637 88.471,39.637 100.5,52C 111.881,50.993 123.215,49.3263 134.5,47C 135.28,45.927 135.113,44.7604 134,43.5C 134.112,32.3542 139.279,29.1875 149.5,34C 152.167,36.6667 154.833,39.3333 157.5,42C 161.601,42.4841 165.601,41.9841 169.5,40.5C 165.985,35.8795 165.651,31.0461 168.5,26C 172.333,23.2475 176.333,22.9142 180.5,25C 184.167,28.6667 187.833,32.3333 191.5,36C 202.547,35.1602 213.547,33.6602 224.5,31.5C 234.196,32.5269 237.696,37.8602 235,47.5C 232.821,50.0109 230.321,52.1776 227.5,54C 220.67,57.5806 214.003,61.4139 207.5,65.5C 211.334,70.3413 214.334,75.6747 216.5,81.5C 215.277,82.6139 213.944,82.7805 212.5,82C 206.653,79.2459 201.32,75.7459 196.5,71.5C 191.5,74.3333 186.5,77.1667 181.5,80C 186.276,85.3861 189.61,91.5528 191.5,98.5C 183.532,96.1992 176.532,92.1992 170.5,86.5C 163,90.7491 155.666,95.2491 148.5,100C 153.702,105.37 159.035,110.536 164.5,115.5C 169.107,121.776 174.441,127.443 180.5,132.5C 180.811,133.478 181.478,134.145 182.5,134.5C 185.732,133.867 188.732,132.867 191.5,131.5C 191.833,131.5 192.167,131.5 192.5,131.5C 202.247,129.919 211.913,127.919 221.5,125.5C 227.432,123.974 233.099,124.641 238.5,127.5C 242.957,132.251 244.624,137.918 243.5,144.5C 241.787,147.725 239.454,150.559 236.5,153C 225.594,157.371 214.761,161.871 204,166.5C 203.333,173.833 203.333,181.167 204,188.5C 204.707,190.081 205.54,191.581 206.5,193C 203.911,192.632 201.411,191.799 199,190.5C 192.218,191.475 185.551,191.809 179,191.5C 174.079,203.668 168.912,215.668 163.5,227.5C 152.809,234.307 144.309,232.307 138,221.5C 137.333,217.167 137.333,212.833 138,208.5C 140.383,198.86 142.55,189.193 144.5,179.5C 145.592,175.885 146.092,172.218 146,168.5C 139.218,161.211 132.051,154.544 124.5,148.5C 120.537,144.036 116.37,139.702 112,135.5C 107.817,143.01 103.65,150.51 99.5,158C 102.294,161.758 104.961,165.591 107.5,169.5C 108.487,172.146 109.487,174.812 110.5,177.5C 110.167,177.833 109.833,178.167 109.5,178.5C 107.382,177.054 105.049,176.387 102.5,176.5C 99.312,174.31 96.1454,171.976 93,169.5C 89.2053,174.422 86.5387,179.756 85,185.5C 87.9953,188.202 90.4953,191.202 92.5,194.5C 92.3874,197.049 93.0541,199.382 94.5,201.5C 92.5988,202.231 90.5988,202.231 88.5,201.5C 84.7706,199.549 81.2706,197.216 78,194.5C 73.0268,204.296 67.1935,213.462 60.5,222C 53.9875,224.893 48.8209,223.393 45,217.5C 45.1321,205.199 46.6321,193.032 49.5,181C 46.0478,176.545 42.2144,172.378 38,168.5C 34.2653,156.57 38.432,152.07 50.5,155C 51.3333,155.833 52.1667,156.667 53,157.5C 54.047,153.886 54.8803,150.22 55.5,146.5C 52.5899,142.083 49.0899,138.083 45,134.5C 43.3677,123.633 47.8677,119.633 58.5,122.5C 58.8333,122 59.1667,121.5 59.5,121C 61.5,110.667 63.5,100.333 65.5,90C 55.3759,78.8747 44.8759,68.0414 34,57.5C 22.9959,45.4945 15.6626,31.4945 12,15.5C 11.3333,12.1667 11.3333,8.83333 12,5.5C 12.5985,2.74583 14.0985,0.745833 16.5,-0.5 Z M 124.5,148.5 C 118.583,155.356 112.916,162.356 107.5,169.5C 104.961,165.591 102.294,161.758 99.5,158C 103.65,150.51 107.817,143.01 112,135.5C 116.37,139.702 120.537,144.036 124.5,148.5 Z M 102.5,176.5 C 99.1788,182.473 95.8455,188.473 92.5,194.5C 90.4953,191.202 87.9953,188.202 85,185.5C 86.5387,179.756 89.2053,174.422 93,169.5C 96.1454,171.976 99.312,174.31 102.5,176.5 Z"/></g>
<g><path style="opacity:0.993" fill="#6eafde" d="M 450.5,159.5 C 448.345,159.628 446.345,159.128 444.5,158C 436.188,149.421 426.188,146.421 414.5,149C 417.798,144.155 416.798,140.488 411.5,138C 400.717,130.182 388.717,126.849 375.5,128C 369.319,130.462 362.986,132.462 356.5,134C 350.909,137.279 350.242,141.279 354.5,146C 357.167,146.333 359.833,146.667 362.5,147C 364.919,148.509 365.919,150.675 365.5,153.5C 351.674,158.165 338.008,163.332 324.5,169C 330.608,172.436 333.108,177.603 332,184.5C 331.439,185.022 330.772,185.355 330,185.5C 324.418,182.859 318.584,182.025 312.5,183C 308.495,185.161 305.829,188.328 304.5,192.5C 284.741,175.738 264.408,159.738 243.5,144.5C 244.624,137.918 242.957,132.251 238.5,127.5C 241.621,125.552 244.621,123.385 247.5,121C 251.5,120.667 255.5,120.333 259.5,120C 262.833,118.333 266.167,116.667 269.5,115C 278.167,114.667 286.833,114.333 295.5,114C 296.167,113.667 296.833,113.333 297.5,113C 294.466,111.809 292.799,109.642 292.5,106.5C 301.835,105.221 310.501,102.054 318.5,97C 290.871,94.9251 263.204,94.2584 235.5,95C 228.383,97.4554 221.716,100.789 215.5,105C 219.826,104.907 224.159,104.907 228.5,105C 229.116,107.179 230.283,109.012 232,110.5C 232.667,111.833 232.667,113.167 232,114.5C 228.667,116.5 225.333,118.5 222,120.5C 221.506,122.134 221.34,123.801 221.5,125.5C 211.913,127.919 202.247,129.919 192.5,131.5C 194.168,129.521 194.834,127.188 194.5,124.5C 196.5,124.5 198.5,124.5 200.5,124.5C 200.5,122.167 200.5,119.833 200.5,117.5C 196.729,116.237 193.063,116.404 189.5,118C 188.056,119.763 187.056,121.763 186.5,124C 180.321,124 178.321,126.834 180.5,132.5C 174.441,127.443 169.107,121.776 164.5,115.5C 225.417,77.3035 290.083,69.8035 358.5,93C 395.471,106.633 426.137,128.8 450.5,159.5 Z"/></g>
<g><path style="opacity:1" fill="#e6edf2" d="M 238.5,127.5 C 233.099,124.641 227.432,123.974 221.5,125.5C 221.34,123.801 221.506,122.134 222,120.5C 225.333,118.5 228.667,116.5 232,114.5C 232.667,113.167 232.667,111.833 232,110.5C 230.283,109.012 229.116,107.179 228.5,105C 224.159,104.907 219.826,104.907 215.5,105C 221.716,100.789 228.383,97.4554 235.5,95C 263.204,94.2584 290.871,94.9251 318.5,97C 310.501,102.054 301.835,105.221 292.5,106.5C 292.799,109.642 294.466,111.809 297.5,113C 296.833,113.333 296.167,113.667 295.5,114C 286.833,114.333 278.167,114.667 269.5,115C 266.167,116.667 262.833,118.333 259.5,120C 255.5,120.333 251.5,120.667 247.5,121C 244.621,123.385 241.621,125.552 238.5,127.5 Z"/></g>
<g><path style="opacity:1" fill="#e3ecf2" d="M 192.5,131.5 C 192.167,131.5 191.833,131.5 191.5,131.5C 187.802,131.552 184.135,131.886 180.5,132.5C 178.321,126.834 180.321,124 186.5,124C 187.056,121.763 188.056,119.763 189.5,118C 193.063,116.404 196.729,116.237 200.5,117.5C 200.5,119.833 200.5,122.167 200.5,124.5C 198.5,124.5 196.5,124.5 194.5,124.5C 194.834,127.188 194.168,129.521 192.5,131.5 Z"/></g>
<g><path style="opacity:1" fill="#dde9f1" d="M 288.5,122.5 C 291.157,122.162 293.49,122.829 295.5,124.5C 294.636,126.197 293.303,127.363 291.5,128C 286.98,128.928 282.646,128.595 278.5,127C 282.042,125.725 285.375,124.225 288.5,122.5 Z"/></g>
<g><path style="opacity:1" fill="#e6eef2" d="M 450.5,159.5 C 486.325,203.654 502.325,254.32 498.5,311.5C 495.987,301.082 494.153,290.415 493,279.5C 491.148,272.966 487.648,267.466 482.5,263C 477.833,259.667 473.167,256.333 468.5,253C 460.924,252.898 459.591,255.898 464.5,262C 469.365,263.945 473.865,266.445 478,269.5C 484.727,284.542 479.893,293.709 463.5,297C 461.983,298.685 460.316,300.185 458.5,301.5C 451.35,283.221 443.516,265.221 435,247.5C 434.333,246.167 433.667,246.167 433,247.5C 431.496,251.039 431.163,254.705 432,258.5C 434.333,263.833 436.667,269.167 439,274.5C 439.084,280.029 440.084,285.362 442,290.5C 446.414,295.656 450.081,301.323 453,307.5C 457.309,313.229 462.476,314.896 468.5,312.5C 455.939,339.289 443.106,365.955 430,392.5C 427.637,396.345 425.137,400.011 422.5,403.5C 424.091,380.046 420.591,357.379 412,335.5C 396.016,297.513 374.016,263.513 346,233.5C 338.631,226.298 331.464,218.965 324.5,211.5C 337.501,210.367 350.501,210.367 363.5,211.5C 364.64,220.307 369.64,224.974 378.5,225.5C 382.085,231.632 387.418,235.299 394.5,236.5C 394.19,232.46 395.524,229.127 398.5,226.5C 400.861,230.192 404.194,232.692 408.5,234C 413.769,235.106 419.103,235.773 424.5,236C 427.903,236.578 431.07,237.745 434,239.5C 434.632,233.786 434.299,228.119 433,222.5C 432.5,222 432,221.5 431.5,221C 423.936,222.047 417.936,219.547 413.5,213.5C 415.22,212.066 417.22,211.233 419.5,211C 427.197,210.522 434.864,210.522 442.5,211C 437.913,204.66 434.247,197.827 431.5,190.5C 430.104,192.972 429.27,195.638 429,198.5C 427.872,195.793 426.372,193.293 424.5,191C 420.339,188.389 417.339,189.222 415.5,193.5C 419.23,199.644 417.897,204.144 411.5,207C 408.774,207.182 406.107,207.682 403.5,208.5C 402.846,210.115 402.346,211.782 402,213.5C 401.457,211.369 400.624,209.369 399.5,207.5C 398.167,208.167 396.833,208.833 395.5,209.5C 393.194,206.527 390.527,203.86 387.5,201.5C 386.354,202.145 385.354,202.978 384.5,204C 383.5,204.667 382.5,204.667 381.5,204C 375.079,197.575 368.079,191.909 360.5,187C 350.297,186.18 341.797,189.68 335,197.5C 333.007,199.818 331.841,202.484 331.5,205.5C 327.298,205.183 323.298,205.517 319.5,206.5C 314.474,201.805 309.474,197.139 304.5,192.5C 305.829,188.328 308.495,185.161 312.5,183C 318.584,182.025 324.418,182.859 330,185.5C 330.772,185.355 331.439,185.022 332,184.5C 333.108,177.603 330.608,172.436 324.5,169C 338.008,163.332 351.674,158.165 365.5,153.5C 365.919,150.675 364.919,148.509 362.5,147C 359.833,146.667 357.167,146.333 354.5,146C 350.242,141.279 350.909,137.279 356.5,134C 362.986,132.462 369.319,130.462 375.5,128C 388.717,126.849 400.717,130.182 411.5,138C 416.798,140.488 417.798,144.155 414.5,149C 426.188,146.421 436.188,149.421 444.5,158C 446.345,159.128 448.345,159.628 450.5,159.5 Z"/></g>
<g><path style="opacity:1" fill="#78acd2" d="M 191.5,131.5 C 188.732,132.867 185.732,133.867 182.5,134.5C 181.478,134.145 180.811,133.478 180.5,132.5C 184.135,131.886 187.802,131.552 191.5,131.5 Z"/></g>
<g><path style="opacity:1" fill="#fed83b" d="M 243.5,144.5 C 264.408,159.738 284.741,175.738 304.5,192.5C 309.474,197.139 314.474,201.805 319.5,206.5C 320.833,208.5 322.5,210.167 324.5,211.5C 331.464,218.965 338.631,226.298 346,233.5C 374.016,263.513 396.016,297.513 412,335.5C 420.591,357.379 424.091,380.046 422.5,403.5C 414.753,449.014 390.086,481.681 348.5,501.5C 347.761,501.631 347.094,501.464 346.5,501C 357.947,487.601 364.613,472.101 366.5,454.5C 368.768,435.219 365.434,416.886 356.5,399.5C 347.652,380.143 336.152,362.477 322,346.5C 315.61,339.039 308.777,332.039 301.5,325.5C 293.25,317.373 284.583,309.706 275.5,302.5C 240.579,274.029 203.245,249.029 163.5,227.5C 168.912,215.668 174.079,203.668 179,191.5C 185.551,191.809 192.218,191.475 199,190.5C 201.411,191.799 203.911,192.632 206.5,193C 205.54,191.581 204.707,190.081 204,188.5C 203.333,181.167 203.333,173.833 204,166.5C 214.761,161.871 225.594,157.371 236.5,153C 239.454,150.559 241.787,147.725 243.5,144.5 Z"/></g>
<g><path style="opacity:1" fill="#e6eef2" d="M 124.5,148.5 C 132.051,154.544 139.218,161.211 146,168.5C 146.092,172.218 145.592,175.885 144.5,179.5C 141.066,183.506 137.732,187.672 134.5,192C 129.775,193.792 125.275,195.959 121,198.5C 120.219,199.729 119.719,201.062 119.5,202.5C 120.331,204.473 120.498,206.473 120,208.5C 117.92,210.123 115.754,211.623 113.5,213C 109.5,221.339 102.833,225.672 93.5,226C 91.578,227.42 90.2446,229.253 89.5,231.5C 88.5224,231.023 87.6891,230.357 87,229.5C 80.5394,240.384 76.3727,252.051 74.5,264.5C 76.3904,264.703 77.8904,264.037 79,262.5C 80.1176,259.145 81.6176,255.978 83.5,253C 84.9437,252.219 86.277,252.386 87.5,253.5C 85.4306,259.008 84.5973,264.674 85,270.5C 86,271.5 87,272.5 88,273.5C 88.1751,279.62 89.0084,285.62 90.5,291.5C 93.6074,291.649 96.6074,291.149 99.5,290C 102.188,287.306 105.355,285.473 109,284.5C 116.477,286.319 123.144,289.652 129,294.5C 130.886,298.44 133.386,301.94 136.5,305C 141.5,306.667 146.5,308.333 151.5,310C 157.53,314.983 159.03,321.15 156,328.5C 154.559,329.26 153.059,329.926 151.5,330.5C 150.167,331.5 150.167,332.5 151.5,333.5C 155.143,330.368 157.643,331.034 159,335.5C 163.785,332.654 168.118,333.32 172,337.5C 172.483,338.448 172.649,339.448 172.5,340.5C 178.134,341.427 183.801,342.093 189.5,342.5C 189.343,343.873 189.51,345.207 190,346.5C 194.333,349.833 198.667,353.167 203,356.5C 203.667,358.5 203.667,360.5 203,362.5C 199.828,366.841 197.161,371.508 195,376.5C 192.747,386.204 190.414,395.871 188,405.5C 186.833,406.667 185.667,407.833 184.5,409C 178.816,409.45 173.983,411.617 170,415.5C 167.532,422.095 165.365,428.761 163.5,435.5C 161.712,435.215 160.045,435.548 158.5,436.5C 159.309,438.071 159.643,439.738 159.5,441.5C 153.625,440.542 150.625,443.042 150.5,449C 151.634,459.142 156.967,466.142 166.5,470C 165.737,470.944 164.737,471.444 163.5,471.5C 144.687,459.588 131.853,442.921 125,421.5C 122.758,411.369 120.091,401.369 117,391.5C 112.909,385.653 108.576,379.987 104,374.5C 101.362,367.955 99.0291,361.288 97,354.5C 94.7546,349.003 91.7546,344.003 88,339.5C 87.3333,337.167 87.3333,334.833 88,332.5C 89.563,331.275 90.7297,329.775 91.5,328C 88.8958,323.166 89.0625,318.333 92,313.5C 92.6667,309.167 92.6667,304.833 92,300.5C 85.9246,294.353 81.9246,287.019 80,278.5C 78.6218,276.787 76.9552,275.453 75,274.5C 74.4888,272.122 73.8221,269.788 73,267.5C 72.0138,266.829 70.8471,266.829 69.5,267.5C 72.1874,244.439 78.5207,222.439 88.5,201.5C 90.5988,202.231 92.5988,202.231 94.5,201.5C 93.0541,199.382 92.3874,197.049 92.5,194.5C 95.8455,188.473 99.1788,182.473 102.5,176.5C 105.049,176.387 107.382,177.054 109.5,178.5C 109.833,178.167 110.167,177.833 110.5,177.5C 109.487,174.812 108.487,172.146 107.5,169.5C 112.916,162.356 118.583,155.356 124.5,148.5 Z"/></g>
<g><path style="opacity:1" fill="#e9b12c" d="M 220.5,177.5 C 223.187,177.336 225.854,177.503 228.5,178C 280.007,216.168 323.173,262.001 358,315.5C 373.795,341.552 384.462,369.552 390,399.5C 391.38,412.809 391.713,426.142 391,439.5C 390.39,448.056 388.723,456.389 386,464.5C 392.658,432.744 389.992,401.744 378,371.5C 363.022,334.856 342.022,302.189 315,273.5C 285.301,241.947 252.801,213.947 217.5,189.5C 215.567,184.607 216.567,180.607 220.5,177.5 Z"/></g>
<g><path style="opacity:0.998" fill="#6dafde" d="M 144.5,179.5 C 142.55,189.193 140.383,198.86 138,208.5C 137.333,212.833 137.333,217.167 138,221.5C 144.309,232.307 152.809,234.307 163.5,227.5C 203.245,249.029 240.579,274.029 275.5,302.5C 279.494,309.675 284.494,316.175 290.5,322C 293.614,324.854 297.281,326.021 301.5,325.5C 308.777,332.039 315.61,339.039 322,346.5C 336.152,362.477 347.652,380.143 356.5,399.5C 356.335,402.85 356.502,406.183 357,409.5C 361.602,424.235 364.769,439.235 366.5,454.5C 364.613,472.101 357.947,487.601 346.5,501C 347.094,501.464 347.761,501.631 348.5,501.5C 333.828,506.367 318.828,509.701 303.5,511.5C 289.833,511.5 276.167,511.5 262.5,511.5C 180.14,500.292 120.973,457.292 85,382.5C 69.3144,345.536 64.1477,307.203 69.5,267.5C 70.8471,266.829 72.0138,266.829 73,267.5C 73.8221,269.788 74.4888,272.122 75,274.5C 76.9552,275.453 78.6218,276.787 80,278.5C 81.9246,287.019 85.9246,294.353 92,300.5C 92.6667,304.833 92.6667,309.167 92,313.5C 89.0625,318.333 88.8958,323.166 91.5,328C 90.7297,329.775 89.563,331.275 88,332.5C 87.3333,334.833 87.3333,337.167 88,339.5C 91.7546,344.003 94.7546,349.003 97,354.5C 99.0291,361.288 101.362,367.955 104,374.5C 108.576,379.987 112.909,385.653 117,391.5C 120.091,401.369 122.758,411.369 125,421.5C 131.853,442.921 144.687,459.588 163.5,471.5C 164.737,471.444 165.737,470.944 166.5,470C 156.967,466.142 151.634,459.142 150.5,449C 150.625,443.042 153.625,440.542 159.5,441.5C 159.643,439.738 159.309,438.071 158.5,436.5C 160.045,435.548 161.712,435.215 163.5,435.5C 165.365,428.761 167.532,422.095 170,415.5C 173.983,411.617 178.816,409.45 184.5,409C 185.667,407.833 186.833,406.667 188,405.5C 190.414,395.871 192.747,386.204 195,376.5C 197.161,371.508 199.828,366.841 203,362.5C 203.667,360.5 203.667,358.5 203,356.5C 198.667,353.167 194.333,349.833 190,346.5C 189.51,345.207 189.343,343.873 189.5,342.5C 183.801,342.093 178.134,341.427 172.5,340.5C 172.649,339.448 172.483,338.448 172,337.5C 168.118,333.32 163.785,332.654 159,335.5C 157.643,331.034 155.143,330.368 151.5,333.5C 150.167,332.5 150.167,331.5 151.5,330.5C 153.059,329.926 154.559,329.26 156,328.5C 159.03,321.15 157.53,314.983 151.5,310C 146.5,308.333 141.5,306.667 136.5,305C 133.386,301.94 130.886,298.44 129,294.5C 123.144,289.652 116.477,286.319 109,284.5C 105.355,285.473 102.188,287.306 99.5,290C 96.6074,291.149 93.6074,291.649 90.5,291.5C 89.0084,285.62 88.1751,279.62 88,273.5C 87,272.5 86,271.5 85,270.5C 84.5973,264.674 85.4306,259.008 87.5,253.5C 86.277,252.386 84.9437,252.219 83.5,253C 81.6176,255.978 80.1176,259.145 79,262.5C 77.8904,264.037 76.3904,264.703 74.5,264.5C 76.3727,252.051 80.5394,240.384 87,229.5C 87.6891,230.357 88.5224,231.023 89.5,231.5C 90.2446,229.253 91.578,227.42 93.5,226C 102.833,225.672 109.5,221.339 113.5,213C 115.754,211.623 117.92,210.123 120,208.5C 120.498,206.473 120.331,204.473 119.5,202.5C 119.719,201.062 120.219,199.729 121,198.5C 125.275,195.959 129.775,193.792 134.5,192C 137.732,187.672 141.066,183.506 144.5,179.5 Z"/></g>
<g><path style="opacity:1" fill="#6fb0df" d="M 324.5,211.5 C 322.5,210.167 320.833,208.5 319.5,206.5C 323.298,205.517 327.298,205.183 331.5,205.5C 331.841,202.484 333.007,199.818 335,197.5C 341.797,189.68 350.297,186.18 360.5,187C 368.079,191.909 375.079,197.575 381.5,204C 382.5,204.667 383.5,204.667 384.5,204C 385.354,202.978 386.354,202.145 387.5,201.5C 390.527,203.86 393.194,206.527 395.5,209.5C 396.833,208.833 398.167,208.167 399.5,207.5C 400.624,209.369 401.457,211.369 402,213.5C 402.346,211.782 402.846,210.115 403.5,208.5C 406.107,207.682 408.774,207.182 411.5,207C 417.897,204.144 419.23,199.644 415.5,193.5C 417.339,189.222 420.339,188.389 424.5,191C 426.372,193.293 427.872,195.793 429,198.5C 429.27,195.638 430.104,192.972 431.5,190.5C 434.247,197.827 437.913,204.66 442.5,211C 434.864,210.522 427.197,210.522 419.5,211C 417.22,211.233 415.22,212.066 413.5,213.5C 417.936,219.547 423.936,222.047 431.5,221C 432,221.5 432.5,222 433,222.5C 434.299,228.119 434.632,233.786 434,239.5C 431.07,237.745 427.903,236.578 424.5,236C 419.103,235.773 413.769,235.106 408.5,234C 404.194,232.692 400.861,230.192 398.5,226.5C 395.524,229.127 394.19,232.46 394.5,236.5C 387.418,235.299 382.085,231.632 378.5,225.5C 369.64,224.974 364.64,220.307 363.5,211.5C 350.501,210.367 337.501,210.367 324.5,211.5 Z"/></g>
<g><path style="opacity:1" fill="#73b1df" d="M 452.5,196.5 C 453.552,196.351 454.552,196.517 455.5,197C 456.147,198.609 456.98,200.109 458,201.5C 458.54,204.419 458.207,207.086 457,209.5C 460.667,212.167 464.333,214.833 468,217.5C 468.494,219.134 468.66,220.801 468.5,222.5C 467.5,222.5 466.5,222.5 465.5,222.5C 465.799,224.973 466.799,227.14 468.5,229C 467.591,231.319 465.925,231.986 463.5,231C 458.213,226.811 456.046,221.311 457,214.5C 450.483,209.585 448.983,203.585 452.5,196.5 Z"/></g>
<g><path style="opacity:0.993" fill="#6eafde" d="M 498.5,311.5 C 490.017,395.451 448.017,455.951 372.5,493C 364.79,496.69 356.79,499.524 348.5,501.5C 390.086,481.681 414.753,449.014 422.5,403.5C 425.137,400.011 427.637,396.345 430,392.5C 443.106,365.955 455.939,339.289 468.5,312.5C 462.476,314.896 457.309,313.229 453,307.5C 450.081,301.323 446.414,295.656 442,290.5C 440.084,285.362 439.084,280.029 439,274.5C 436.667,269.167 434.333,263.833 432,258.5C 431.163,254.705 431.496,251.039 433,247.5C 433.667,246.167 434.333,246.167 435,247.5C 443.516,265.221 451.35,283.221 458.5,301.5C 460.316,300.185 461.983,298.685 463.5,297C 479.893,293.709 484.727,284.542 478,269.5C 473.865,266.445 469.365,263.945 464.5,262C 459.591,255.898 460.924,252.898 468.5,253C 473.167,256.333 477.833,259.667 482.5,263C 487.648,267.466 491.148,272.966 493,279.5C 494.153,290.415 495.987,301.082 498.5,311.5 Z"/></g>
<g><path style="opacity:1" fill="#e2ebed" d="M 275.5,302.5 C 284.583,309.706 293.25,317.373 301.5,325.5C 297.281,326.021 293.614,324.854 290.5,322C 284.494,316.175 279.494,309.675 275.5,302.5 Z"/></g>
<g><path style="opacity:1" fill="#e3ecf2" d="M 454.5,382.5 C 457.566,384.424 459.566,387.257 460.5,391C 457.699,393.474 455.199,396.307 453,399.5C 452.405,405.27 451.405,410.937 450,416.5C 448.833,417.667 447.667,418.833 446.5,420C 431.367,421.348 429.534,416.848 441,406.5C 441.333,403.167 441.667,399.833 442,396.5C 449.56,394.777 453.727,390.11 454.5,382.5 Z"/></g>
<g><path style="opacity:1" fill="#e3eae9" d="M 356.5,399.5 C 365.434,416.886 368.768,435.219 366.5,454.5C 364.769,439.235 361.602,424.235 357,409.5C 356.502,406.183 356.335,402.85 356.5,399.5 Z"/></g>
</svg>
